ISO-10303-21;
HEADER;
FILE_DESCRIPTION (( 'STEP AP203' ),
    '1' );
FILE_NAME ('MF-USML_12-t3.STEP',
    '2018-11-26T08:03:22',
    ( '' ),
    ( '' ),
    'SwSTEP 2.0',
    'SolidWorks 2018',
    '' );
FILE_SCHEMA (( 'CONFIG_CONTROL_DESIGN' ));
ENDSEC;

DATA;
#1 = LINE ( 'NONE', #162, #347 ) ;
#2 = DIRECTION ( 'NONE',  ( 1.000000000000000000, 0.0000000000000000000, -0.0000000000000000000 ) ) ;
#3 = ORIENTED_EDGE ( 'NONE', *, *, #99, .F. ) ;
#4 = DIRECTION ( 'NONE',  ( 0.0000000000000000000, -1.000000000000000000, 0.0000000000000000000 ) ) ;
#5 = VERTEX_POINT ( 'NONE', #674 ) ;
#6 = ORIENTED_EDGE ( 'NONE', *, *, #191, .F. ) ;
#7 = EDGE_LOOP ( 'NONE', ( #176, #141, #335, #750 ) ) ;
#8 = ORIENTED_EDGE ( 'NONE', *, *, #287, .F. ) ;
#9 = ORIENTED_EDGE ( 'NONE', *, *, #646, .F. ) ;
#10 = VECTOR ( 'NONE', #229, 1000.000000000000000 ) ;
#11 = VERTEX_POINT ( 'NONE', #411 ) ;
#12 = CARTESIAN_POINT ( 'NONE',  ( -27.91607230925821881, -16.73634266886326927, 0.0000000000000000000 ) ) ;
#13 = FACE_OUTER_BOUND ( 'NONE', #156, .T. ) ;
#14 = DIRECTION ( 'NONE',  ( 0.0000000000000000000, 0.0000000000000000000, 1.000000000000000000 ) ) ;
#15 = PLANE ( 'NONE',  #300 ) ;
#16 = CC_DESIGN_SECURITY_CLASSIFICATION ( #648, ( #424 ) ) ;
#17 = CYLINDRICAL_SURFACE ( 'NONE', #253, 0.5000000000000038858 ) ;
#18 = LINE ( 'NONE', #377, #165 ) ;
#19 = CARTESIAN_POINT ( 'NONE',  ( -24.57607230925821540, -15.36634266886326650, 0.9000000000000000222 ) ) ;
#20 = PERSON_AND_ORGANIZATION ( #586, #450 ) ;
#21 = CARTESIAN_POINT ( 'NONE',  ( -25.52607230925821469, -15.36634266886326827, 0.9000000000000000222 ) ) ;
#22 = CARTESIAN_POINT ( 'NONE',  ( -27.91607230925821526, -18.10634266886327026, 0.02999999999999999889 ) ) ;
#23 = VERTEX_POINT ( 'NONE', #21 ) ;
#24 = FACE_OUTER_BOUND ( 'NONE', #734, .T. ) ;
#25 = DIRECTION ( 'NONE',  ( -1.000000000000000000, 0.0000000000000000000, -0.0000000000000000000 ) ) ;
#26 = EDGE_LOOP ( 'NONE', ( #252, #346, #88, #619 ) ) ;
#27 = DIRECTION ( 'NONE',  ( 1.000000000000000000, 0.0000000000000000000, 0.0000000000000000000 ) ) ;
#28 = EDGE_LOOP ( 'NONE', ( #716, #172, #384, #46 ) ) ;
#29 = ORIENTED_EDGE ( 'NONE', *, *, #849, .F. ) ;
#30 = CIRCLE ( 'NONE', #258, 0.5000000000000004441 ) ;
#31 = APPROVAL_ROLE ( '' ) ;
#32 = DIRECTION ( 'NONE',  ( 0.0000000000000000000, 0.0000000000000000000, 1.000000000000000000 ) ) ;
#33 = VECTOR ( 'NONE', #4, 1000.000000000000000 ) ;
#34 =( LENGTH_UNIT ( ) NAMED_UNIT ( * ) SI_UNIT ( .MILLI., .METRE. ) );
#35 = EDGE_CURVE ( 'NONE', #636, #214, #125, .T. ) ;
#36 = CARTESIAN_POINT ( 'NONE',  ( -27.91607230925821881, -17.03634266886326998, 0.9000000000000000222 ) ) ;
#37 = LINE ( 'NONE', #755, #725 ) ;
#38 = DIRECTION ( 'NONE',  ( 0.0000000000000000000, -0.0000000000000000000, 1.000000000000000000 ) ) ;
#39 = VECTOR ( 'NONE', #724, 1000.000000000000000 ) ;
#40 = AXIS2_PLACEMENT_3D ( 'NONE', #350, #481, #25 ) ;
#41 = DIRECTION ( 'NONE',  ( 0.0000000000000000000, -0.0000000000000000000, -1.000000000000000000 ) ) ;
#42 = ORIENTED_EDGE ( 'NONE', *, *, #512, .T. ) ;
#43 = LOCAL_TIME ( 16, 3, 22.00000000000000000, #205 ) ;
#44 = DIRECTION ( 'NONE',  ( 0.0000000000000000000, -0.0000000000000000000, 1.000000000000000000 ) ) ;
#45 = DIRECTION ( 'NONE',  ( -1.000000000000000000, 0.0000000000000000000, 0.0000000000000000000 ) ) ;
#46 = ORIENTED_EDGE ( 'NONE', *, *, #791, .F. ) ;
#47 = LINE ( 'NONE', #256, #735 ) ;
#48 = AXIS2_PLACEMENT_3D ( 'NONE', #310, #505, #111 ) ;
#49 = DIRECTION ( 'NONE',  ( -1.000000000000000000, -0.0000000000000000000, -0.0000000000000000000 ) ) ;
#50 = DIRECTION ( 'NONE',  ( 0.0000000000000000000, 0.0000000000000000000, 1.000000000000000000 ) ) ;
#51 = ADVANCED_FACE ( 'NONE', ( #629 ), #85, .F. ) ;
#52 = ORIENTED_EDGE ( 'NONE', *, *, #495, .F. ) ;
#53 = EDGE_LOOP ( 'NONE', ( #837, #448, #69, #668 ) ) ;
#54 = ADVANCED_FACE ( 'NONE', ( #807 ), #501, .F. ) ;
#55 = DIRECTION ( 'NONE',  ( -0.0000000000000000000, -0.0000000000000000000, 1.000000000000000000 ) ) ;
#56 = VECTOR ( 'NONE', #71, 1000.000000000000000 ) ;
#57 = DIRECTION ( 'NONE',  ( -1.000000000000000000, 0.0000000000000000000, 0.0000000000000000000 ) ) ;
#58 = CIRCLE ( 'NONE', #82, 0.5000000000000004441 ) ;
#59 = LINE ( 'NONE', #126, #383 ) ;
#60 = PRODUCT_RELATED_PRODUCT_CATEGORY ( 'detail', '', ( #728 ) ) ;
#61 = DIRECTION ( 'NONE',  ( 3.987870059716785369E-15, -1.000000000000000000, 0.0000000000000000000 ) ) ;
#62 = ORIENTED_EDGE ( 'NONE', *, *, #161, .T. ) ;
#63 = CALENDAR_DATE ( 2018, 26, 11 ) ;
#64 = ORIENTED_EDGE ( 'NONE', *, *, #385, .T. ) ;
#65 = ORIENTED_EDGE ( 'NONE', *, *, #199, .F. ) ;
#66 = CYLINDRICAL_SURFACE ( 'NONE', #357, 0.5000000000000004441 ) ;
#67 = CARTESIAN_POINT ( 'NONE',  ( -27.91607230925821881, -16.73634266886326927, 0.9000000000000000222 ) ) ;
#68 = MANIFOLD_SOLID_BREP ( '¶ñ®Æ-¦ùªø4', #235 ) ;
#69 = ORIENTED_EDGE ( 'NONE', *, *, #269, .T. ) ;
#70 = CARTESIAN_POINT ( 'NONE',  ( -27.91607230925821526, -18.10634266886327026, 0.9000000000000000222 ) ) ;
#71 = DIRECTION ( 'NONE',  ( -0.0000000000000000000, -0.0000000000000000000, -1.000000000000000000 ) ) ;
#72 = LINE ( 'NONE', #135, #56 ) ;
#73 = DIRECTION ( 'NONE',  ( -1.000000000000000000, 0.0000000000000000000, -0.0000000000000000000 ) ) ;
#74 = FACE_BOUND ( 'NONE', #616, .T. ) ;
#75 = EDGE_CURVE ( 'NONE', #416, #274, #270, .T. ) ;
#76 = VECTOR ( 'NONE', #520, 1000.000000000000000 ) ;
#77 = EDGE_CURVE ( 'NONE', #647, #800, #790, .T. ) ;
#78 = ORIENTED_EDGE ( 'NONE', *, *, #247, .F. ) ;
#79 = ORIENTED_EDGE ( 'NONE', *, *, #295, .T. ) ;
#80 = DIRECTION ( 'NONE',  ( -0.0000000000000000000, 1.000000000000000000, -0.0000000000000000000 ) ) ;
#81 = DATE_AND_TIME ( #250, #427 ) ;
#82 = AXIS2_PLACEMENT_3D ( 'NONE', #675, #206, #612 ) ;
#83 = ORIENTED_EDGE ( 'NONE', *, *, #730, .T. ) ;
#84 = FACE_OUTER_BOUND ( 'NONE', #53, .T. ) ;
#85 = PLANE ( 'NONE',  #97 ) ;
#86 = AXIS2_PLACEMENT_3D ( 'NONE', #371, #50, #709 ) ;
#87 = ORIENTED_EDGE ( 'NONE', *, *, #589, .T. ) ;
#88 = ORIENTED_EDGE ( 'NONE', *, *, #191, .T. ) ;
#89 = CARTESIAN_POINT ( 'NONE',  ( -25.37607230925821256, -16.30634266886326955, 0.0000000000000000000 ) ) ;
#90 = ORIENTED_EDGE ( 'NONE', *, *, #201, .F. ) ;
#91 = APPROVAL_ROLE ( '' ) ;
#92 = ORIENTED_EDGE ( 'NONE', *, *, #604, .F. ) ;
#93 = LINE ( 'NONE', #538, #780 ) ;
#94 = CARTESIAN_POINT ( 'NONE',  ( -24.57607230925821185, -16.73634266886327282, 0.9000000000000000222 ) ) ;
#95 = APPLICATION_PROTOCOL_DEFINITION ( 'international standard', 'config_control_design', 1994, #552 ) ;
#96 = LINE ( 'NONE', #482, #603 ) ;
#97 = AXIS2_PLACEMENT_3D ( 'NONE', #277, #408, #44 ) ;
#98 = DIRECTION ( 'NONE',  ( 0.0000000000000000000, 0.0000000000000000000, 1.000000000000000000 ) ) ;
#99 = EDGE_CURVE ( 'NONE', #226, #169, #452, .T. ) ;
#100 = PERSON_AND_ORGANIZATION ( #586, #450 ) ;
#101 = DIRECTION ( 'NONE',  ( -0.0000000000000000000, -0.0000000000000000000, -1.000000000000000000 ) ) ;
#102 = ORIENTED_EDGE ( 'NONE', *, *, #299, .F. ) ;
#103 = VECTOR ( 'NONE', #271, 1000.000000000000000 ) ;
#104 = DIRECTION ( 'NONE',  ( -1.000000000000000000, -0.0000000000000000000, -0.0000000000000000000 ) ) ;
#105 = DIRECTION ( 'NONE',  ( 3.987870059716793258E-15, 1.000000000000000000, 0.0000000000000000000 ) ) ;
#106 = CARTESIAN_POINT ( 'NONE',  ( -24.57607230925821540, -17.03634266886326998, 0.9000000000000000222 ) ) ;
#107 = EDGE_LOOP ( 'NONE', ( #124, #352, #3, #470 ) ) ;
#108 = ORIENTED_EDGE ( 'NONE', *, *, #673, .F. ) ;
#109 = DIRECTION ( 'NONE',  ( -0.0000000000000000000, -0.0000000000000000000, 1.000000000000000000 ) ) ;
#110 = ORIENTED_EDGE ( 'NONE', *, *, #539, .F. ) ;
#111 = DIRECTION ( 'NONE',  ( -1.000000000000000000, 0.0000000000000000000, 0.0000000000000000000 ) ) ;
#112 = ORIENTED_EDGE ( 'NONE', *, *, #153, .F. ) ;
#113 = VECTOR ( 'NONE', #340, 1000.000000000000000 ) ;
#114 = CARTESIAN_POINT ( 'NONE',  ( -24.57607230925821540, -16.43634266886326856, 0.9000000000000000222 ) ) ;
#115 = ADVANCED_FACE ( 'NONE', ( #84 ), #410, .F. ) ;
#116 = LINE ( 'NONE', #556, #266 ) ;
#117 = DIRECTION ( 'NONE',  ( -0.0000000000000000000, 0.0000000000000000000, -1.000000000000000000 ) ) ;
#118 = ADVANCED_FACE ( 'NONE', ( #431 ), #66, .T. ) ;
#119 = ORIENTED_EDGE ( 'NONE', *, *, #694, .F. ) ;
#120 = ORIENTED_EDGE ( 'NONE', *, *, #475, .T. ) ;
#121 = CARTESIAN_POINT ( 'NONE',  ( -24.57607230925821540, -16.73634266886326927, 0.02999999999999999889 ) ) ;
#122 = VERTEX_POINT ( 'NONE', #189 ) ;
#123 = EDGE_CURVE ( 'NONE', #122, #194, #611, .T. ) ;
#124 = ORIENTED_EDGE ( 'NONE', *, *, #604, .T. ) ;
#125 = CIRCLE ( 'NONE', #809, 0.3000000000000016542 ) ;
#126 = CARTESIAN_POINT ( 'NONE',  ( -25.07607230925821895, -16.73634266886326927, 0.02999999999999999889 ) ) ;
#127 = AXIS2_PLACEMENT_3D ( 'NONE', #89, #279, #678 ) ;
#128 = CARTESIAN_POINT ( 'NONE',  ( 0.0000000000000000000, 0.0000000000000000000, 0.8699999999999999956 ) ) ;
#129 = FACE_OUTER_BOUND ( 'NONE', #528, .T. ) ;
#130 = DIRECTION ( 'NONE',  ( -1.000000000000000000, 0.0000000000000000000, 0.0000000000000000000 ) ) ;
#131 = ADVANCED_BREP_SHAPE_REPRESENTATION ( 'MF-USML_12-t3', ( #68, #657 ), #480 ) ;
#132 = DIRECTION ( 'NONE',  ( 0.0000000000000000000, -1.000000000000000000, 0.0000000000000000000 ) ) ;
#133 = ORIENTED_EDGE ( 'NONE', *, *, #202, .T. ) ;
#134 = CARTESIAN_POINT ( 'NONE',  ( -27.91607230925821881, -17.23634266886327282, 0.02999999999999999889 ) ) ;
#135 = CARTESIAN_POINT ( 'NONE',  ( -27.91607230925821881, -16.23634266886326571, 0.02999999999999999889 ) ) ;
#136 = LINE ( 'NONE', #291, #818 ) ;
#137 = VERTEX_POINT ( 'NONE', #658 ) ;
#138 = AXIS2_PLACEMENT_3D ( 'NONE', #12, #659, #737 ) ;
#139 = DIRECTION ( 'NONE',  ( 1.000000000000000000, -0.0000000000000000000, -0.0000000000000000000 ) ) ;
#140 = CARTESIAN_POINT ( 'NONE',  ( -24.57607230925821540, -17.03634266886327353, 0.0000000000000000000 ) ) ;
#141 = ORIENTED_EDGE ( 'NONE', *, *, #601, .T. ) ;
#142 = VECTOR ( 'NONE', #778, 1000.000000000000000 ) ;
#143 = CARTESIAN_POINT ( 'NONE',  ( -24.57607230925821540, -16.23634266886326927, 0.0000000000000000000 ) ) ;
#144 = CARTESIAN_POINT ( 'NONE',  ( -27.91607230925821526, -18.10634266886327026, 0.9000000000000000222 ) ) ;
#145 = LOCAL_TIME ( 16, 3, 22.00000000000000000, #323 ) ;
#146 = VERTEX_POINT ( 'NONE', #596 ) ;
#147 = DIRECTION ( 'NONE',  ( -1.000000000000000000, 0.0000000000000000000, 0.0000000000000000000 ) ) ;
#148 = DIRECTION ( 'NONE',  ( -0.0000000000000000000, 1.000000000000000000, -0.0000000000000000000 ) ) ;
#149 = DIRECTION ( 'NONE',  ( -0.0000000000000000000, -0.0000000000000000000, -1.000000000000000000 ) ) ;
#150 = DATE_TIME_ROLE ( 'classification_date' ) ;
#151 = EDGE_CURVE ( 'NONE', #249, #190, #230, .T. ) ;
#152 = ORIENTED_EDGE ( 'NONE', *, *, #376, .T. ) ;
#153 = EDGE_CURVE ( 'NONE', #524, #333, #773, .T. ) ;
#154 = PERSON_AND_ORGANIZATION_ROLE ( 'design_owner' ) ;
#155 = EDGE_LOOP ( 'NONE', ( #719, #234, #461, #79 ) ) ;
#156 = EDGE_LOOP ( 'NONE', ( #315, #458, #824, #248, #476, #324 ) ) ;
#157 = VERTEX_POINT ( 'NONE', #231 ) ;
#158 = VECTOR ( 'NONE', #557, 1000.000000000000000 ) ;
#159 = DIRECTION ( 'NONE',  ( -1.000000000000000000, 0.0000000000000000000, 0.0000000000000000000 ) ) ;
#160 = VECTOR ( 'NONE', #792, 1000.000000000000000 ) ;
#161 = EDGE_CURVE ( 'NONE', #767, #713, #47, .T. ) ;
#162 = CARTESIAN_POINT ( 'NONE',  ( -27.91607230925821881, -15.36634266886326650, 0.02999999999999999889 ) ) ;
#163 = EDGE_CURVE ( 'NONE', #669, #636, #207, .T. ) ;
#164 = DIRECTION ( 'NONE',  ( -0.0000000000000000000, 1.000000000000000000, -0.0000000000000000000 ) ) ;
#165 = VECTOR ( 'NONE', #55, 1000.000000000000000 ) ;
#166 = CALENDAR_DATE ( 2018, 26, 11 ) ;
#167 = VERTEX_POINT ( 'NONE', #568 ) ;
#168 = VECTOR ( 'NONE', #626, 1000.000000000000000 ) ;
#169 = VERTEX_POINT ( 'NONE', #432 ) ;
#170 = CARTESIAN_POINT ( 'NONE',  ( -24.57607230925821540, -15.36634266886326650, 0.02999999999999999889 ) ) ;
#171 = ADVANCED_FACE ( 'NONE', ( #24 ), #366, .F. ) ;
#172 = ORIENTED_EDGE ( 'NONE', *, *, #318, .F. ) ;
#173 = ORIENTED_EDGE ( 'NONE', *, *, #563, .T. ) ;
#174 = EDGE_LOOP ( 'NONE', ( #741, #108, #6, #577 ) ) ;
#175 = FACE_OUTER_BOUND ( 'NONE', #211, .T. ) ;
#176 = ORIENTED_EDGE ( 'NONE', *, *, #151, .T. ) ;
#177 = ADVANCED_FACE ( 'NONE', ( #543 ), #494, .F. ) ;
#178 = AXIS2_PLACEMENT_3D ( 'NONE', #488, #147, #14 ) ;
#179 = VECTOR ( 'NONE', #393, 1000.000000000000000 ) ;
#180 = CARTESIAN_POINT ( 'NONE',  ( -27.91607230925821526, -18.10634266886327026, 0.9000000000000000222 ) ) ;
#181 = EDGE_CURVE ( 'NONE', #5, #354, #707, .T. ) ;
#182 = LINE ( 'NONE', #671, #536 ) ;
#183 = LINE ( 'NONE', #640, #477 ) ;
#184 = PERSON_AND_ORGANIZATION ( #586, #450 ) ;
#185 = EDGE_LOOP ( 'NONE', ( #330, #683, #662, #78, #569, #83, #607, #173 ) ) ;
#186 = VECTOR ( 'NONE', #296, 1000.000000000000000 ) ;
#187 = CARTESIAN_POINT ( 'NONE',  ( -27.91607230925821881, -16.73634266886326927, 0.02999999999999999889 ) ) ;
#188 = PLANE ( 'NONE',  #364 ) ;
#189 = CARTESIAN_POINT ( 'NONE',  ( -26.96607230925821952, -15.36634266886326827, 0.8699999999999999956 ) ) ;
#190 = VERTEX_POINT ( 'NONE', #828 ) ;
#191 = EDGE_CURVE ( 'NONE', #169, #137, #369, .T. ) ;
#192 = CARTESIAN_POINT ( 'NONE',  ( -26.96607230925821952, -18.10634266886327026, 0.9000000000000000222 ) ) ;
#193 = LINE ( 'NONE', #222, #158 ) ;
#194 = VERTEX_POINT ( 'NONE', #699 ) ;
#195 = LINE ( 'NONE', #527, #33 ) ;
#196 = CARTESIAN_POINT ( 'NONE',  ( -25.37607230925821256, -16.30634266886326955, 0.0000000000000000000 ) ) ;
#197 = DIRECTION ( 'NONE',  ( -1.000000000000000000, 0.0000000000000000000, 0.0000000000000000000 ) ) ;
#198 = LINE ( 'NONE', #19, #382 ) ;
#199 = EDGE_CURVE ( 'NONE', #654, #5, #523, .T. ) ;
#200 = LINE ( 'NONE', #180, #361 ) ;
#201 = EDGE_CURVE ( 'NONE', #797, #713, #1, .T. ) ;
#202 = EDGE_CURVE ( 'NONE', #11, #509, #570, .T. ) ;
#203 = CARTESIAN_POINT ( 'NONE',  ( -27.11607230925822165, -16.30634266886326955, 0.0000000000000000000 ) ) ;
#204 = ORIENTED_EDGE ( 'NONE', *, *, #359, .F. ) ;
#205 = COORDINATED_UNIVERSAL_TIME_OFFSET ( 8, 0, .AHEAD. ) ;
#206 = DIRECTION ( 'NONE',  ( 0.0000000000000000000, 0.0000000000000000000, -1.000000000000000000 ) ) ;
#207 = LINE ( 'NONE', #500, #591 ) ;
#208 = AXIS2_PLACEMENT_3D ( 'NONE', #106, #45, #433 ) ;
#209 = DIRECTION ( 'NONE',  ( 3.242473786872532659E-15, -1.000000000000000000, 0.0000000000000000000 ) ) ;
#210 = CARTESIAN_POINT ( 'NONE',  ( -24.57607230925821540, -17.03634266886326998, 0.0000000000000000000 ) ) ;
#211 = EDGE_LOOP ( 'NONE', ( #574, #513, #449, #486 ) ) ;
#212 = ORIENTED_EDGE ( 'NONE', *, *, #201, .T. ) ;
#213 = DIRECTION ( 'NONE',  ( -0.0000000000000000000, -0.0000000000000000000, 1.000000000000000000 ) ) ;
#214 = VERTEX_POINT ( 'NONE', #695 ) ;
#215 = SECURITY_CLASSIFICATION_LEVEL ( 'unclassified' ) ;
#216 = PLANE ( 'NONE',  #766 ) ;
#217 = FACE_OUTER_BOUND ( 'NONE', #297, .T. ) ;
#218 = DIRECTION ( 'NONE',  ( 1.000000000000000000, 0.0000000000000000000, 0.0000000000000000000 ) ) ;
#219 = AXIS2_PLACEMENT_3D ( 'NONE', #289, #756, #197 ) ;
#220 = CARTESIAN_POINT ( 'NONE',  ( -27.91607230925821881, -16.73634266886326927, 0.0000000000000000000 ) ) ;
#221 = LINE ( 'NONE', #609, #816 ) ;
#222 = CARTESIAN_POINT ( 'NONE',  ( -27.91607230925821881, -17.03634266886326998, 0.9000000000000000222 ) ) ;
#223 = VECTOR ( 'NONE', #61, 1000.000000000000000 ) ;
#224 = EDGE_CURVE ( 'NONE', #137, #146, #136, .T. ) ;
#225 = CARTESIAN_POINT ( 'NONE',  ( -27.91607230925821881, -17.23634266886327282, 0.0000000000000000000 ) ) ;
#226 = VERTEX_POINT ( 'NONE', #622 ) ;
#227 = LOCAL_TIME ( 16, 3, 22.00000000000000000, #407 ) ;
#228 = DIRECTION ( 'NONE',  ( 0.0000000000000000000, 0.0000000000000000000, -1.000000000000000000 ) ) ;
#229 = DIRECTION ( 'NONE',  ( 0.0000000000000000000, -1.000000000000000000, 0.0000000000000000000 ) ) ;
#230 = CIRCLE ( 'NONE', #219, 0.5000000000000004441 ) ;
#231 = CARTESIAN_POINT ( 'NONE',  ( -25.37607230925821256, -16.30634266886326955, 0.02999999999999999889 ) ) ;
#232 = PLANE ( 'NONE',  #208 ) ;
#233 = DIRECTION ( 'NONE',  ( -1.000000000000000000, 0.0000000000000000000, 0.0000000000000000000 ) ) ;
#234 = ORIENTED_EDGE ( 'NONE', *, *, #123, .T. ) ;
#235 = CLOSED_SHELL ( 'NONE', ( #839, #715, #309, #642, #580, #51, #779, #54, #177, #445, #236, #511, #639, #115, #723, #506, #782, #576, #373, #118, #171, #313, #442, #834, #243 ) ) ;
#236 = ADVANCED_FACE ( 'NONE', ( #484 ), #560, .F. ) ;
#237 = ORIENTED_EDGE ( 'NONE', *, *, #318, .T. ) ;
#238 = EDGE_CURVE ( 'NONE', #637, #797, #311, .T. ) ;
#239 = ORIENTED_EDGE ( 'NONE', *, *, #151, .F. ) ;
#240 = CARTESIAN_POINT ( 'NONE',  ( -24.87607230925820900, -16.73634266886327282, 0.9000000000000000222 ) ) ;
#241 = FACE_OUTER_BOUND ( 'NONE', #174, .T. ) ;
#242 = EDGE_CURVE ( 'NONE', #328, #651, #661, .T. ) ;
#243 = ADVANCED_FACE ( 'NONE', ( #466 ), #216, .T. ) ;
#244 = APPROVAL ( #487, 'UNSPECIFIED' ) ;
#245 = PLANE ( 'NONE',  #775 ) ;
#246 = VECTOR ( 'NONE', #148, 1000.000000000000000 ) ;
#247 = EDGE_CURVE ( 'NONE', #167, #812, #620, .T. ) ;
#248 = ORIENTED_EDGE ( 'NONE', *, *, #475, .F. ) ;
#249 = VERTEX_POINT ( 'NONE', #615 ) ;
#250 = CALENDAR_DATE ( 2018, 26, 11 ) ;
#251 = DIRECTION ( 'NONE',  ( 1.000000000000000000, 3.242473786872532264E-15, -0.0000000000000000000 ) ) ;
#252 = ORIENTED_EDGE ( 'NONE', *, *, #378, .T. ) ;
#253 = AXIS2_PLACEMENT_3D ( 'NONE', #409, #808, #751 ) ;
#254 = VECTOR ( 'NONE', #139, 1000.000000000000000 ) ;
#255 = CARTESIAN_POINT ( 'NONE',  ( -27.91607230925821881, -17.03634266886326998, 0.9000000000000000222 ) ) ;
#256 = CARTESIAN_POINT ( 'NONE',  ( -24.57607230925821540, -16.23634266886326927, 0.02999999999999999889 ) ) ;
#257 = CARTESIAN_POINT ( 'NONE',  ( -25.37607230925821256, -16.30634266886326955, 0.02999999999999999889 ) ) ;
#258 = AXIS2_PLACEMENT_3D ( 'NONE', #829, #363, #771 ) ;
#259 = ORIENTED_EDGE ( 'NONE', *, *, #163, .F. ) ;
#260 = CARTESIAN_POINT ( 'NONE',  ( -27.91607230925821526, -18.10634266886327026, 0.02999999999999999889 ) ) ;
#261 = LINE ( 'NONE', #434, #550 ) ;
#262 = CARTESIAN_POINT ( 'NONE',  ( -26.96607230925821952, -15.36634266886326827, 0.8699999999999999956 ) ) ;
#263 = CARTESIAN_POINT ( 'NONE',  ( -24.57607230925821540, -17.03634266886326998, 0.9000000000000000222 ) ) ;
#264 = ORIENTED_EDGE ( 'NONE', *, *, #123, .F. ) ;
#265 = VECTOR ( 'NONE', #805, 1000.000000000000000 ) ;
#266 = VECTOR ( 'NONE', #149, 1000.000000000000000 ) ;
#267 = CARTESIAN_POINT ( 'NONE',  ( -25.52607230925821469, -18.10634266886327026, 0.8699999999999999956 ) ) ;
#268 = PERSON_AND_ORGANIZATION ( #586, #450 ) ;
#269 = EDGE_CURVE ( 'NONE', #328, #413, #116, .T. ) ;
#270 = LINE ( 'NONE', #600, #103 ) ;
#271 = DIRECTION ( 'NONE',  ( -0.0000000000000000000, -0.0000000000000000000, -1.000000000000000000 ) ) ;
#272 = AXIS2_PLACEMENT_3D ( 'NONE', #395, #325, #738 ) ;
#273 = DIRECTION ( 'NONE',  ( -0.0000000000000000000, -0.0000000000000000000, -1.000000000000000000 ) ) ;
#274 = VERTEX_POINT ( 'NONE', #547 ) ;
#275 = DIRECTION ( 'NONE',  ( -1.000000000000000000, -0.0000000000000000000, -0.0000000000000000000 ) ) ;
#276 = LINE ( 'NONE', #833, #793 ) ;
#277 = CARTESIAN_POINT ( 'NONE',  ( -27.91607230925821526, -18.10634266886327026, 0.9000000000000000222 ) ) ;
#278 = ORIENTED_EDGE ( 'NONE', *, *, #510, .F. ) ;
#279 = DIRECTION ( 'NONE',  ( 0.0000000000000000000, -1.000000000000000000, -0.0000000000000000000 ) ) ;
#280 = ORIENTED_EDGE ( 'NONE', *, *, #730, .F. ) ;
#281 = CARTESIAN_POINT ( 'NONE',  ( -27.91607230925821881, -16.73634266886326927, 0.0000000000000000000 ) ) ;
#282 = DIRECTION ( 'NONE',  ( 1.000000000000000000, 0.0000000000000000000, 0.0000000000000000000 ) ) ;
#283 = EDGE_LOOP ( 'NONE', ( #365, #628, #259, #52, #152, #688 ) ) ;
#284 = ORIENTED_EDGE ( 'NONE', *, *, #631, .T. ) ;
#285 = LINE ( 'NONE', #267, #113 ) ;
#286 = PERSON_AND_ORGANIZATION_ROLE ( 'creator' ) ;
#287 = EDGE_CURVE ( 'NONE', #841, #5, #804, .T. ) ;
#288 = VECTOR ( 'NONE', #213, 1000.000000000000000 ) ;
#289 = CARTESIAN_POINT ( 'NONE',  ( -24.57607230925821540, -16.73634266886326927, 0.02999999999999999889 ) ) ;
#290 = CC_DESIGN_APPROVAL ( #244, ( #758 ) ) ;
#291 = CARTESIAN_POINT ( 'NONE',  ( -25.37607230925821256, -17.16634266886327254, 0.0000000000000000000 ) ) ;
#292 = ORIENTED_EDGE ( 'NONE', *, *, #406, .F. ) ;
#293 = ORIENTED_EDGE ( 'NONE', *, *, #247, .T. ) ;
#294 = CARTESIAN_POINT ( 'NONE',  ( -25.37607230925821256, -17.16634266886327254, 0.02999999999999999889 ) ) ;
#295 = EDGE_CURVE ( 'NONE', #167, #459, #96, .T. ) ;
#296 = DIRECTION ( 'NONE',  ( -0.0000000000000000000, 1.000000000000000000, -0.0000000000000000000 ) ) ;
#297 = EDGE_LOOP ( 'NONE', ( #439, #9, #374, #293 ) ) ;
#298 = CARTESIAN_POINT ( 'NONE',  ( -27.91607230925821881, -15.36634266886326650, 0.02999999999999999889 ) ) ;
#299 = EDGE_CURVE ( 'NONE', #531, #413, #444, .T. ) ;
#300 = AXIS2_PLACEMENT_3D ( 'NONE', #196, #73, #468 ) ;
#301 = CARTESIAN_POINT ( 'NONE',  ( -27.11607230925822165, -16.30634266886326955, 0.0000000000000000000 ) ) ;
#302 = EDGE_LOOP ( 'NONE', ( #795, #645, #769, #394 ) ) ;
#303 = DIRECTION ( 'NONE',  ( -1.000000000000000000, 0.0000000000000000000, -0.0000000000000000000 ) ) ;
#304 = FACE_OUTER_BOUND ( 'NONE', #842, .T. ) ;
#305 = DIRECTION ( 'NONE',  ( 1.000000000000000000, 0.0000000000000000000, 0.0000000000000000000 ) ) ;
#306 = AXIS2_PLACEMENT_3D ( 'NONE', #502, #303, #704 ) ;
#307 = ORIENTED_EDGE ( 'NONE', *, *, #512, .F. ) ;
#308 = ORIENTED_EDGE ( 'NONE', *, *, #784, .F. ) ;
#309 = ADVANCED_FACE ( 'NONE', ( #422, #74 ), #545, .T. ) ;
#310 = CARTESIAN_POINT ( 'NONE',  ( -24.57607230925821185, -16.73634266886327282, 0.9000000000000000222 ) ) ;
#311 = LINE ( 'NONE', #820, #643 ) ;
#312 = DIRECTION ( 'NONE',  ( -0.0000000000000000000, -0.0000000000000000000, -1.000000000000000000 ) ) ;
#313 = ADVANCED_FACE ( 'NONE', ( #783 ), #814, .F. ) ;
#314 = DIRECTION ( 'NONE',  ( -1.000000000000000000, 0.0000000000000000000, 0.0000000000000000000 ) ) ;
#315 = ORIENTED_EDGE ( 'NONE', *, *, #426, .T. ) ;
#316 = AXIS2_PLACEMENT_3D ( 'NONE', #337, #573, #233 ) ;
#317 = ORIENTED_EDGE ( 'NONE', *, *, #181, .T. ) ;
#318 = EDGE_CURVE ( 'NONE', #214, #800, #402, .T. ) ;
#319 = AXIS2_PLACEMENT_3D ( 'NONE', #187, #594, #130 ) ;
#320 = LINE ( 'NONE', #440, #850 ) ;
#321 = EDGE_LOOP ( 'NONE', ( #742, #757, #120, #844, #564, #389, #549 ) ) ;
#322 = PLANE ( 'NONE',  #498 ) ;
#323 = COORDINATED_UNIVERSAL_TIME_OFFSET ( 8, 0, .AHEAD. ) ;
#324 = ORIENTED_EDGE ( 'NONE', *, *, #589, .F. ) ;
#325 = DIRECTION ( 'NONE',  ( 1.000000000000000000, 0.0000000000000000000, 0.0000000000000000000 ) ) ;
#326 = DIRECTION ( 'NONE',  ( -1.000000000000000000, 0.0000000000000000000, 0.0000000000000000000 ) ) ;
#327 = DIRECTION ( 'NONE',  ( -0.0000000000000000000, -0.0000000000000000000, -1.000000000000000000 ) ) ;
#328 = VERTEX_POINT ( 'NONE', #478 ) ;
#329 = EDGE_CURVE ( 'NONE', #812, #416, #746, .T. ) ;
#330 = ORIENTED_EDGE ( 'NONE', *, *, #774, .F. ) ;
#331 = DIRECTION ( 'NONE',  ( 0.0000000000000000000, 0.0000000000000000000, 1.000000000000000000 ) ) ;
#332 = EDGE_CURVE ( 'NONE', #810, #354, #58, .T. ) ;
#333 = VERTEX_POINT ( 'NONE', #544 ) ;
#334 = VERTEX_POINT ( 'NONE', #22 ) ;
#335 = ORIENTED_EDGE ( 'NONE', *, *, #785, .F. ) ;
#336 = CC_DESIGN_PERSON_AND_ORGANIZATION_ASSIGNMENT ( #588, #419, ( #758 ) ) ;
#337 = CARTESIAN_POINT ( 'NONE',  ( -24.57607230925821185, -16.73634266886327282, 0.9000000000000000222 ) ) ;
#338 = CARTESIAN_POINT ( 'NONE',  ( -24.57607230925821540, -17.23634266886326927, 0.02999999999999999889 ) ) ;
#339 = LINE ( 'NONE', #257, #160 ) ;
#340 = DIRECTION ( 'NONE',  ( 1.000000000000000000, -0.0000000000000000000, -0.0000000000000000000 ) ) ;
#341 = LINE ( 'NONE', #578, #142 ) ;
#342 = DIRECTION ( 'NONE',  ( -0.0000000000000000000, 1.000000000000000000, -0.0000000000000000000 ) ) ;
#343 = PRODUCT_DEFINITION_SHAPE ( 'NONE', 'NONE',  #758 ) ;
#344 = AXIS2_PLACEMENT_3D ( 'NONE', #802, #327, #740 ) ;
#345 = LOCAL_TIME ( 16, 3, 22.00000000000000000, #521 ) ;
#346 = ORIENTED_EDGE ( 'NONE', *, *, #99, .T. ) ;
#347 = VECTOR ( 'NONE', #825, 1000.000000000000000 ) ;
#348 = CARTESIAN_POINT ( 'NONE',  ( -24.57607230925821185, -16.73634266886327282, 0.0000000000000000000 ) ) ;
#349 = ORIENTED_EDGE ( 'NONE', *, *, #161, .F. ) ;
#350 = CARTESIAN_POINT ( 'NONE',  ( -27.91607230925821881, -16.73634266886326927, 0.02999999999999999889 ) ) ;
#351 = APPROVAL_STATUS ( 'not_yet_approved' ) ;
#352 = ORIENTED_EDGE ( 'NONE', *, *, #555, .F. ) ;
#353 = VERTEX_POINT ( 'NONE', #541 ) ;
#354 = VERTEX_POINT ( 'NONE', #143 ) ;
#355 = LINE ( 'NONE', #632, #10 ) ;
#356 = VECTOR ( 'NONE', #798, 1000.000000000000000 ) ;
#357 = AXIS2_PLACEMENT_3D ( 'NONE', #799, #714, #326 ) ;
#358 = DIRECTION ( 'NONE',  ( 3.242473786872532659E-15, -1.000000000000000000, 0.0000000000000000000 ) ) ;
#359 = EDGE_CURVE ( 'NONE', #353, #739, #37, .T. ) ;
#360 = LINE ( 'NONE', #203, #504 ) ;
#361 = VECTOR ( 'NONE', #584, 1000.000000000000000 ) ;
#362 = EDGE_CURVE ( 'NONE', #654, #483, #198, .T. ) ;
#363 = DIRECTION ( 'NONE',  ( 0.0000000000000000000, 0.0000000000000000000, -1.000000000000000000 ) ) ;
#364 = AXIS2_PLACEMENT_3D ( 'NONE', #67, #460, #2 ) ;
#365 = ORIENTED_EDGE ( 'NONE', *, *, #469, .T. ) ;
#366 = PLANE ( 'NONE',  #447 ) ;
#367 = APPROVAL_DATE_TIME ( #542, #471 ) ;
#368 = PLANE ( 'NONE',  #306 ) ;
#369 = LINE ( 'NONE', #630, #168 ) ;
#370 = CARTESIAN_POINT ( 'NONE',  ( -24.57607230925821185, -16.73634266886327282, 0.9000000000000000222 ) ) ;
#371 = CARTESIAN_POINT ( 'NONE',  ( -27.91607230925821881, -16.73634266886326927, 0.9000000000000000222 ) ) ;
#372 = EDGE_LOOP ( 'NONE', ( #90, #529, #204, #821, #308, #474, #685, #436 ) ) ;
#373 = ADVANCED_FACE ( 'NONE', ( #582 ), #17, .T. ) ;
#374 = ORIENTED_EDGE ( 'NONE', *, *, #295, .F. ) ;
#375 = FACE_OUTER_BOUND ( 'NONE', #692, .T. ) ;
#376 = EDGE_CURVE ( 'NONE', #739, #797, #182, .T. ) ;
#377 = CARTESIAN_POINT ( 'NONE',  ( -25.52607230925821469, -15.36634266886326827, 0.8699999999999999956 ) ) ;
#378 = EDGE_CURVE ( 'NONE', #146, #226, #360, .T. ) ;
#379 = CIRCLE ( 'NONE', #319, 0.5000000000000038858 ) ;
#380 = CC_DESIGN_DATE_AND_TIME_ASSIGNMENT ( #752, #819, ( #758 ) ) ;
#381 = CARTESIAN_POINT ( 'NONE',  ( -27.91607230925821881, -16.23634266886326571, 0.02999999999999999889 ) ) ;
#382 = VECTOR ( 'NONE', #342, 1000.000000000000000 ) ;
#383 = VECTOR ( 'NONE', #587, 1000.000000000000000 ) ;
#384 = ORIENTED_EDGE ( 'NONE', *, *, #35, .F. ) ;
#385 = EDGE_CURVE ( 'NONE', #146, #524, #221, .T. ) ;
#386 = DIRECTION ( 'NONE',  ( -1.000000000000000000, 0.0000000000000000000, -0.0000000000000000000 ) ) ;
#387 = APPROVAL_PERSON_ORGANIZATION ( #566, #471, #761 ) ;
#388 = AXIS2_PLACEMENT_3D ( 'NONE', #401, #331, #743 ) ;
#389 = ORIENTED_EDGE ( 'NONE', *, *, #362, .T. ) ;
#390 = DIRECTION ( 'NONE',  ( -0.0000000000000000000, -0.0000000000000000000, -1.000000000000000000 ) ) ;
#391 = EDGE_LOOP ( 'NONE', ( #595, #278, #472, #708, #590, #237 ) ) ;
#392 = VECTOR ( 'NONE', #164, 1000.000000000000000 ) ;
#393 = DIRECTION ( 'NONE',  ( -0.0000000000000000000, -0.0000000000000000000, -1.000000000000000000 ) ) ;
#394 = ORIENTED_EDGE ( 'NONE', *, *, #332, .F. ) ;
#395 = CARTESIAN_POINT ( 'NONE',  ( -25.52607230925821469, -15.36634266886326827, 0.8699999999999999956 ) ) ;
#396 = ORIENTED_EDGE ( 'NONE', *, *, #163, .T. ) ;
#397 = ORIENTED_EDGE ( 'NONE', *, *, #362, .F. ) ;
#398 = DIRECTION ( 'NONE',  ( -0.0000000000000000000, -0.0000000000000000000, -1.000000000000000000 ) ) ;
#399 = CIRCLE ( 'NONE', #344, 0.2999999999999981570 ) ;
#400 = PLANE ( 'NONE',  #388 ) ;
#401 = CARTESIAN_POINT ( 'NONE',  ( -27.91607230925821881, -16.73634266886326927, 0.0000000000000000000 ) ) ;
#402 = LINE ( 'NONE', #613, #764 ) ;
#403 = LINE ( 'NONE', #788, #39 ) ;
#404 = EDGE_CURVE ( 'NONE', #194, #167, #285, .T. ) ;
#405 = DIRECTION ( 'NONE',  ( -0.0000000000000000000, -0.0000000000000000000, 1.000000000000000000 ) ) ;
#406 = EDGE_CURVE ( 'NONE', #226, #333, #464, .T. ) ;
#407 = COORDINATED_UNIVERSAL_TIME_OFFSET ( 8, 0, .AHEAD. ) ;
#408 = DIRECTION ( 'NONE',  ( 0.0000000000000000000, 1.000000000000000000, 0.0000000000000000000 ) ) ;
#409 = CARTESIAN_POINT ( 'NONE',  ( -27.91607230925821881, -16.73634266886326927, 0.02999999999999999889 ) ) ;
#410 = CYLINDRICAL_SURFACE ( 'NONE', #316, 0.2999999999999981570 ) ;
#411 = CARTESIAN_POINT ( 'NONE',  ( -27.91607230925821881, -17.03634266886326998, 0.9000000000000000222 ) ) ;
#412 = DIRECTION ( 'NONE',  ( 1.000000000000000000, 0.0000000000000000000, 0.0000000000000000000 ) ) ;
#413 = VERTEX_POINT ( 'NONE', #140 ) ;
#414 = EDGE_LOOP ( 'NONE', ( #307, #633, #212, #349, #846, #239, #87, #777, #665 ) ) ;
#415 = DIRECTION ( 'NONE',  ( -0.0000000000000000000, 1.000000000000000000, -0.0000000000000000000 ) ) ;
#416 = VERTEX_POINT ( 'NONE', #473 ) ;
#417 = DIRECTION ( 'NONE',  ( -0.0000000000000000000, 0.0000000000000000000, -1.000000000000000000 ) ) ;
#418 = VECTOR ( 'NONE', #602, 1000.000000000000000 ) ;
#419 = PERSON_AND_ORGANIZATION_ROLE ( 'creator' ) ;
#420 = EDGE_CURVE ( 'NONE', #122, #353, #93, .T. ) ;
#421 = DIRECTION ( 'NONE',  ( 1.000000000000000000, 0.0000000000000000000, -0.0000000000000000000 ) ) ;
#422 = FACE_OUTER_BOUND ( 'NONE', #414, .T. ) ;
#423 =( NAMED_UNIT ( * ) PLANE_ANGLE_UNIT ( ) SI_UNIT ( $, .RADIAN. ) );
#424 = PRODUCT_DEFINITION_FORMATION_WITH_SPECIFIED_SOURCE ( 'ANY', '', #728, .NOT_KNOWN. ) ;
#425 = CARTESIAN_POINT ( 'NONE',  ( -24.57607230925821540, -16.73634266886326927, 0.02999999999999999889 ) ) ;
#426 = EDGE_CURVE ( 'NONE', #249, #531, #441, .T. ) ;
#427 = LOCAL_TIME ( 16, 3, 22.00000000000000000, #608 ) ;
#428 = EDGE_CURVE ( 'NONE', #767, #354, #599, .T. ) ;
#429 = CARTESIAN_POINT ( 'NONE',  ( -24.57607230925821540, -16.43634266886326856, 0.9000000000000000222 ) ) ;
#430 = CARTESIAN_POINT ( 'NONE',  ( -25.52607230925821469, -18.10634266886327026, 0.9000000000000000222 ) ) ;
#431 = FACE_OUTER_BOUND ( 'NONE', #302, .T. ) ;
#432 = CARTESIAN_POINT ( 'NONE',  ( -25.37607230925821256, -16.30634266886326955, 0.0000000000000000000 ) ) ;
#433 = DIRECTION ( 'NONE',  ( 0.0000000000000000000, 0.0000000000000000000, 1.000000000000000000 ) ) ;
#434 = CARTESIAN_POINT ( 'NONE',  ( -24.57607230925821540, -18.10634266886327026, 0.02999999999999999889 ) ) ;
#435 = ORIENTED_EDGE ( 'NONE', *, *, #181, .F. ) ;
#436 = ORIENTED_EDGE ( 'NONE', *, *, #553, .T. ) ;
#437 = AXIS2_PLACEMENT_3D ( 'NONE', #627, #493, #38 ) ;
#438 = PLANE ( 'NONE',  #86 ) ;
#439 = ORIENTED_EDGE ( 'NONE', *, *, #691, .T. ) ;
#440 = CARTESIAN_POINT ( 'NONE',  ( -25.52607230925821469, -15.36634266886326827, 0.9000000000000000222 ) ) ;
#441 = LINE ( 'NONE', #338, #265 ) ;
#442 = ADVANCED_FACE ( 'NONE', ( #241 ), #15, .F. ) ;
#443 = CARTESIAN_POINT ( 'NONE',  ( -25.37607230925821256, -17.16634266886327254, 0.02999999999999999889 ) ) ;
#444 = LINE ( 'NONE', #210, #246 ) ;
#445 = ADVANCED_FACE ( 'NONE', ( #641 ), #400, .F. ) ;
#446 = CARTESIAN_POINT ( 'NONE',  ( -27.91607230925821881, -16.43634266886326500, 0.0000000000000000000 ) ) ;
#447 = AXIS2_PLACEMENT_3D ( 'NONE', #301, #703, #228 ) ;
#448 = ORIENTED_EDGE ( 'NONE', *, *, #242, .F. ) ;
#449 = ORIENTED_EDGE ( 'NONE', *, *, #224, .F. ) ;
#450 = ORGANIZATION ( 'UNSPECIFIED', 'UNSPECIFIED', '' ) ;
#451 = ORIENTED_EDGE ( 'NONE', *, *, #495, .T. ) ;
#452 = LINE ( 'NONE', #677, #254 ) ;
#453 = EDGE_CURVE ( 'NONE', #651, #841, #762, .T. ) ;
#454 = PLANE ( 'NONE',  #593 ) ;
#455 = ORIENTED_EDGE ( 'NONE', *, *, #467, .F. ) ;
#456 = LINE ( 'NONE', #572, #831 ) ;
#457 = CARTESIAN_POINT ( 'NONE',  ( -25.37607230925821256, -16.30634266886326955, 0.0000000000000000000 ) ) ;
#458 = ORIENTED_EDGE ( 'NONE', *, *, #299, .T. ) ;
#459 = VERTEX_POINT ( 'NONE', #530 ) ;
#460 = DIRECTION ( 'NONE',  ( 0.0000000000000000000, 0.0000000000000000000, 1.000000000000000000 ) ) ;
#461 = ORIENTED_EDGE ( 'NONE', *, *, #404, .T. ) ;
#462 = PLANE ( 'NONE',  #272 ) ;
#463 = VERTEX_POINT ( 'NONE', #192 ) ;
#464 = LINE ( 'NONE', #606, #617 ) ;
#465 = DIRECTION ( 'NONE',  ( -0.0000000000000000000, 1.000000000000000000, -0.0000000000000000000 ) ) ;
#466 = FACE_OUTER_BOUND ( 'NONE', #26, .T. ) ;
#467 = EDGE_CURVE ( 'NONE', #413, #841, #399, .T. ) ;
#468 = DIRECTION ( 'NONE',  ( -0.0000000000000000000, 0.0000000000000000000, 1.000000000000000000 ) ) ;
#469 = EDGE_CURVE ( 'NONE', #637, #647, #72, .T. ) ;
#470 = ORIENTED_EDGE ( 'NONE', *, *, #406, .T. ) ;
#471 = APPROVAL ( #351, 'UNSPECIFIED' ) ;
#472 = ORIENTED_EDGE ( 'NONE', *, *, #563, .F. ) ;
#473 = CARTESIAN_POINT ( 'NONE',  ( -24.57607230925821540, -18.10634266886327026, 0.9000000000000000222 ) ) ;
#474 = ORIENTED_EDGE ( 'NONE', *, *, #646, .T. ) ;
#475 = EDGE_CURVE ( 'NONE', #416, #328, #579, .T. ) ;
#476 = ORIENTED_EDGE ( 'NONE', *, *, #75, .T. ) ;
#477 = VECTOR ( 'NONE', #575, 1000.000000000000000 ) ;
#478 = CARTESIAN_POINT ( 'NONE',  ( -24.57607230925821540, -17.03634266886327353, 0.9000000000000000222 ) ) ;
#479 = APPROVAL_DATE_TIME ( #656, #787 ) ;
#480 =( GEOMETRIC_REPRESENTATION_CONTEXT ( 3 ) GLOBAL_UNCERTAINTY_ASSIGNED_CONTEXT ( ( #525 ) ) GLOBAL_UNIT_ASSIGNED_CONTEXT ( ( #34, #423, #822 ) ) REPRESENTATION_CONTEXT ( 'NONE', 'WORKASPACE' ) );
#481 = DIRECTION ( 'NONE',  ( 0.0000000000000000000, 0.0000000000000000000, -1.000000000000000000 ) ) ;
#482 = CARTESIAN_POINT ( 'NONE',  ( -25.52607230925821469, -15.36634266886326827, 0.8699999999999999956 ) ) ;
#483 = VERTEX_POINT ( 'NONE', #597 ) ;
#484 = FACE_OUTER_BOUND ( 'NONE', #760, .T. ) ;
#485 = DIRECTION ( 'NONE',  ( -0.0000000000000000000, -0.0000000000000000000, -1.000000000000000000 ) ) ;
#486 = ORIENTED_EDGE ( 'NONE', *, *, #673, .T. ) ;
#487 = APPROVAL_STATUS ( 'not_yet_approved' ) ;
#488 = CARTESIAN_POINT ( 'NONE',  ( -24.57607230925821540, -15.36634266886326650, 0.9000000000000000222 ) ) ;
#489 = DIRECTION ( 'NONE',  ( 0.0000000000000000000, 1.000000000000000000, 0.0000000000000000000 ) ) ;
#490 = VERTEX_POINT ( 'NONE', #134 ) ;
#491 = ORIENTED_EDGE ( 'NONE', *, *, #453, .T. ) ;
#492 = DIRECTION ( 'NONE',  ( -0.0000000000000000000, -0.0000000000000000000, -1.000000000000000000 ) ) ;
#493 = DIRECTION ( 'NONE',  ( 0.0000000000000000000, 1.000000000000000000, 0.0000000000000000000 ) ) ;
#494 = PLANE ( 'NONE',  #535 ) ;
#495 = EDGE_CURVE ( 'NONE', #739, #669, #195, .T. ) ;
#496 = PLANE ( 'NONE',  #437 ) ;
#497 = VECTOR ( 'NONE', #507, 1000.000000000000000 ) ;
#498 = AXIS2_PLACEMENT_3D ( 'NONE', #128, #851, #386 ) ;
#499 = ORIENTED_EDGE ( 'NONE', *, *, #332, .T. ) ;
#500 = CARTESIAN_POINT ( 'NONE',  ( -27.91607230925821881, -16.43634266886326500, 0.9000000000000000222 ) ) ;
#501 = PLANE ( 'NONE',  #178 ) ;
#502 = CARTESIAN_POINT ( 'NONE',  ( -26.96607230925821952, -15.36634266886326827, 0.8699999999999999956 ) ) ;
#503 = APPROVAL_PERSON_ORGANIZATION ( #676, #787, #91 ) ;
#504 = VECTOR ( 'NONE', #80, 1000.000000000000000 ) ;
#505 = DIRECTION ( 'NONE',  ( -0.0000000000000000000, -0.0000000000000000000, -1.000000000000000000 ) ) ;
#506 = ADVANCED_FACE ( 'NONE', ( #217 ), #462, .F. ) ;
#507 = DIRECTION ( 'NONE',  ( -1.000000000000000000, 0.0000000000000000000, 0.0000000000000000000 ) ) ;
#508 = ORIENTED_EDGE ( 'NONE', *, *, #428, .F. ) ;
#509 = VERTEX_POINT ( 'NONE', #70 ) ;
#510 = EDGE_CURVE ( 'NONE', #334, #490, #744, .T. ) ;
#511 = ADVANCED_FACE ( 'NONE', ( #722 ), #188, .T. ) ;
#512 = EDGE_CURVE ( 'NONE', #637, #490, #379, .T. ) ;
#513 = ORIENTED_EDGE ( 'NONE', *, *, #385, .F. ) ;
#514 = CC_DESIGN_APPROVAL ( #471, ( #424 ) ) ;
#515 = DIRECTION ( 'NONE',  ( 0.0000000000000000000, 0.0000000000000000000, -1.000000000000000000 ) ) ;
#516 = LINE ( 'NONE', #732, #179 ) ;
#517 = CARTESIAN_POINT ( 'NONE',  ( -24.57607230925821540, -17.23634266886326927, 0.02999999999999999889 ) ) ;
#518 = CYLINDRICAL_SURFACE ( 'NONE', #733, 0.3000000000000016542 ) ;
#519 = EDGE_CURVE ( 'NONE', #490, #800, #533, .T. ) ;
#520 = DIRECTION ( 'NONE',  ( -0.0000000000000000000, -0.0000000000000000000, -1.000000000000000000 ) ) ;
#521 = COORDINATED_UNIVERSAL_TIME_OFFSET ( 8, 0, .AHEAD. ) ;
#522 = CARTESIAN_POINT ( 'NONE',  ( -24.57607230925821540, -17.23634266886326927, 0.0000000000000000000 ) ) ;
#523 = LINE ( 'NONE', #429, #679 ) ;
#524 = VERTEX_POINT ( 'NONE', #796 ) ;
#525 = UNCERTAINTY_MEASURE_WITH_UNIT (LENGTH_MEASURE( 1.000000000000000082E-05 ), #34, 'distance_accuracy_value', 'NONE');
#526 = AXIS2_PLACEMENT_3D ( 'NONE', #425, #101, #562 ) ;
#527 = CARTESIAN_POINT ( 'NONE',  ( -27.91607230925821881, -15.36634266886326650, 0.9000000000000000222 ) ) ;
#528 = EDGE_LOOP ( 'NONE', ( #806, #491, #815, #65 ) ) ;
#529 = ORIENTED_EDGE ( 'NONE', *, *, #376, .F. ) ;
#530 = CARTESIAN_POINT ( 'NONE',  ( -25.52607230925821469, -15.36634266886326827, 0.8699999999999999956 ) ) ;
#531 = VERTEX_POINT ( 'NONE', #522 ) ;
#532 = LINE ( 'NONE', #567, #720 ) ;
#533 = LINE ( 'NONE', #736, #696 ) ;
#534 = DIRECTION ( 'NONE',  ( -0.0000000000000000000, -0.0000000000000000000, 1.000000000000000000 ) ) ;
#535 = AXIS2_PLACEMENT_3D ( 'NONE', #565, #772, #41 ) ;
#536 = VECTOR ( 'NONE', #273, 1000.000000000000000 ) ;
#537 = FACE_OUTER_BOUND ( 'NONE', #283, .T. ) ;
#538 = CARTESIAN_POINT ( 'NONE',  ( -26.96607230925821952, -15.36634266886326827, 0.8699999999999999956 ) ) ;
#539 = EDGE_CURVE ( 'NONE', #157, #840, #339, .T. ) ;
#540 = AXIS2_PLACEMENT_3D ( 'NONE', #121, #515, #57 ) ;
#541 = CARTESIAN_POINT ( 'NONE',  ( -26.96607230925821952, -15.36634266886326650, 0.9000000000000000222 ) ) ;
#542 = DATE_AND_TIME ( #731, #43 ) ;
#543 = FACE_OUTER_BOUND ( 'NONE', #372, .T. ) ;
#544 = CARTESIAN_POINT ( 'NONE',  ( -27.11607230925822165, -16.30634266886326955, 0.02999999999999999889 ) ) ;
#545 = PLANE ( 'NONE',  #40 ) ;
#546 = ORIENTED_EDGE ( 'NONE', *, *, #469, .F. ) ;
#547 = CARTESIAN_POINT ( 'NONE',  ( -24.57607230925821540, -18.10634266886327026, 0.02999999999999999889 ) ) ;
#548 = APPROVAL_STATUS ( 'not_yet_approved' ) ;
#549 = ORIENTED_EDGE ( 'NONE', *, *, #754, .T. ) ;
#550 = VECTOR ( 'NONE', #571, 1000.000000000000000 ) ;
#551 = ORIENTED_EDGE ( 'NONE', *, *, #153, .T. ) ;
#552 = APPLICATION_CONTEXT ( 'configuration controlled 3d designs of mechanical parts and assemblies' ) ;
#553 = EDGE_CURVE ( 'NONE', #483, #713, #516, .T. ) ;
#554 = VECTOR ( 'NONE', #465, 1000.000000000000000 ) ;
#555 = EDGE_CURVE ( 'NONE', #169, #157, #847, .T. ) ;
#556 = CARTESIAN_POINT ( 'NONE',  ( -24.57607230925821540, -17.03634266886327353, 0.9000000000000000222 ) ) ;
#557 = DIRECTION ( 'NONE',  ( -0.0000000000000000000, -0.0000000000000000000, -1.000000000000000000 ) ) ;
#558 = CC_DESIGN_PERSON_AND_ORGANIZATION_ASSIGNMENT ( #184, #286, ( #424 ) ) ;
#559 = VECTOR ( 'NONE', #412, 1000.000000000000000 ) ;
#560 = PLANE ( 'NONE',  #625 ) ;
#561 = CIRCLE ( 'NONE', #540, 0.5000000000000004441 ) ;
#562 = DIRECTION ( 'NONE',  ( -1.000000000000000000, 0.0000000000000000000, 0.0000000000000000000 ) ) ;
#563 = EDGE_CURVE ( 'NONE', #509, #334, #670, .T. ) ;
#564 = ORIENTED_EDGE ( 'NONE', *, *, #745, .T. ) ;
#565 = CARTESIAN_POINT ( 'NONE',  ( -27.91607230925821881, -15.36634266886326650, 0.9000000000000000222 ) ) ;
#566 = PERSON_AND_ORGANIZATION ( #586, #450 ) ;
#567 = CARTESIAN_POINT ( 'NONE',  ( -26.96607230925821952, -15.36634266886326827, 0.8699999999999999956 ) ) ;
#568 = CARTESIAN_POINT ( 'NONE',  ( -25.52607230925821469, -18.10634266886327026, 0.8699999999999999956 ) ) ;
#569 = ORIENTED_EDGE ( 'NONE', *, *, #404, .F. ) ;
#570 = LINE ( 'NONE', #36, #836 ) ;
#571 = DIRECTION ( 'NONE',  ( -1.000000000000000000, 0.0000000000000000000, 0.0000000000000000000 ) ) ;
#572 = CARTESIAN_POINT ( 'NONE',  ( -26.96607230925821952, -18.10634266886327026, 0.8699999999999999956 ) ) ;
#573 = DIRECTION ( 'NONE',  ( -0.0000000000000000000, -0.0000000000000000000, -1.000000000000000000 ) ) ;
#574 = ORIENTED_EDGE ( 'NONE', *, *, #653, .T. ) ;
#575 = DIRECTION ( 'NONE',  ( 0.0000000000000000000, -1.000000000000000000, 0.0000000000000000000 ) ) ;
#576 = ADVANCED_FACE ( 'NONE', ( #765 ), #322, .F. ) ;
#577 = ORIENTED_EDGE ( 'NONE', *, *, #555, .T. ) ;
#578 = CARTESIAN_POINT ( 'NONE',  ( -25.37607230925821256, -17.16634266886327254, 0.0000000000000000000 ) ) ;
#579 = LINE ( 'NONE', #263, #554 ) ;
#580 = ADVANCED_FACE ( 'NONE', ( #583 ), #454, .F. ) ;
#581 = DIRECTION ( 'NONE',  ( 1.000000000000000000, 0.0000000000000000000, -0.0000000000000000000 ) ) ;
#582 = FACE_OUTER_BOUND ( 'NONE', #693, .T. ) ;
#583 = FACE_OUTER_BOUND ( 'NONE', #391, .T. ) ;
#584 = DIRECTION ( 'NONE',  ( 1.000000000000000000, 0.0000000000000000000, 0.0000000000000000000 ) ) ;
#585 = AXIS2_PLACEMENT_3D ( 'NONE', #94, #485, #27 ) ;
#586 = PERSON ( 'UNSPECIFIED', 'UNSPECIFIED', 'UNSPECIFIED', ('UNSPECIFIED'), ('UNSPECIFIED'), ('UNSPECIFIED') ) ;
#587 = DIRECTION ( 'NONE',  ( -0.0000000000000000000, -0.0000000000000000000, -1.000000000000000000 ) ) ;
#588 = PERSON_AND_ORGANIZATION ( #586, #450 ) ;
#589 = EDGE_CURVE ( 'NONE', #249, #274, #748, .T. ) ;
#590 = ORIENTED_EDGE ( 'NONE', *, *, #849, .T. ) ;
#591 = VECTOR ( 'NONE', #398, 1000.000000000000000 ) ;
#592 = CARTESIAN_POINT ( 'NONE',  ( -27.91607230925821526, -18.10634266886327026, 0.9000000000000000222 ) ) ;
#593 = AXIS2_PLACEMENT_3D ( 'NONE', #255, #251, #650 ) ;
#594 = DIRECTION ( 'NONE',  ( 0.0000000000000000000, 0.0000000000000000000, -1.000000000000000000 ) ) ;
#595 = ORIENTED_EDGE ( 'NONE', *, *, #519, .F. ) ;
#596 = CARTESIAN_POINT ( 'NONE',  ( -27.11607230925822165, -17.16634266886327254, 0.0000000000000000000 ) ) ;
#597 = CARTESIAN_POINT ( 'NONE',  ( -24.57607230925821540, -15.36634266886326650, 0.9000000000000000222 ) ) ;
#598 = ORIENTED_EDGE ( 'NONE', *, *, #553, .F. ) ;
#599 = LINE ( 'NONE', #667, #418 ) ;
#600 = CARTESIAN_POINT ( 'NONE',  ( -24.57607230925821540, -18.10634266886327026, 0.9000000000000000222 ) ) ;
#601 = EDGE_CURVE ( 'NONE', #190, #810, #59, .T. ) ;
#602 = DIRECTION ( 'NONE',  ( -0.0000000000000000000, -0.0000000000000000000, -1.000000000000000000 ) ) ;
#603 = VECTOR ( 'NONE', #415, 1000.000000000000000 ) ;
#604 = EDGE_CURVE ( 'NONE', #333, #157, #403, .T. ) ;
#605 = CC_DESIGN_PERSON_AND_ORGANIZATION_ASSIGNMENT ( #20, #684, ( #424 ) ) ;
#606 = CARTESIAN_POINT ( 'NONE',  ( -27.11607230925822165, -16.30634266886326955, 0.0000000000000000000 ) ) ;
#607 = ORIENTED_EDGE ( 'NONE', *, *, #631, .F. ) ;
#608 = COORDINATED_UNIVERSAL_TIME_OFFSET ( 8, 0, .AHEAD. ) ;
#609 = CARTESIAN_POINT ( 'NONE',  ( -27.11607230925822165, -17.16634266886327254, 0.0000000000000000000 ) ) ;
#610 = EDGE_CURVE ( 'NONE', #190, #767, #561, .T. ) ;
#611 = LINE ( 'NONE', #262, #753 ) ;
#612 = DIRECTION ( 'NONE',  ( -1.000000000000000000, 0.0000000000000000000, 0.0000000000000000000 ) ) ;
#613 = CARTESIAN_POINT ( 'NONE',  ( -27.91607230925821881, -17.03634266886326998, 0.0000000000000000000 ) ) ;
#614 = EDGE_LOOP ( 'NONE', ( #813, #29, #826, #396 ) ) ;
#615 = CARTESIAN_POINT ( 'NONE',  ( -24.57607230925821540, -17.23634266886326927, 0.02999999999999999889 ) ) ;
#616 = EDGE_LOOP ( 'NONE', ( #92, #112, #664, #110 ) ) ;
#617 = VECTOR ( 'NONE', #534, 1000.000000000000000 ) ;
#618 = PERSON_AND_ORGANIZATION_ROLE ( 'classification_officer' ) ;
#619 = ORIENTED_EDGE ( 'NONE', *, *, #224, .T. ) ;
#620 = LINE ( 'NONE', #682, #288 ) ;
#621 = MECHANICAL_CONTEXT ( 'NONE', #690, 'mechanical' ) ;
#622 = CARTESIAN_POINT ( 'NONE',  ( -27.11607230925822165, -16.30634266886326955, 0.0000000000000000000 ) ) ;
#623 = CARTESIAN_POINT ( 'NONE',  ( 0.0000000000000000000, 0.0000000000000000000, 0.0000000000000000000 ) ) ;
#624 = SHAPE_DEFINITION_REPRESENTATION ( #343, #131 ) ;
#625 = AXIS2_PLACEMENT_3D ( 'NONE', #220, #32, #421 ) ;
#626 = DIRECTION ( 'NONE',  ( 0.0000000000000000000, -1.000000000000000000, 0.0000000000000000000 ) ) ;
#627 = CARTESIAN_POINT ( 'NONE',  ( -25.37607230925821256, -17.16634266886327254, 0.0000000000000000000 ) ) ;
#628 = ORIENTED_EDGE ( 'NONE', *, *, #791, .T. ) ;
#629 = FACE_OUTER_BOUND ( 'NONE', #185, .T. ) ;
#630 = CARTESIAN_POINT ( 'NONE',  ( -25.37607230925821256, -16.30634266886326955, 0.0000000000000000000 ) ) ;
#631 = EDGE_CURVE ( 'NONE', #509, #463, #200, .T. ) ;
#632 = CARTESIAN_POINT ( 'NONE',  ( -27.91607230925821881, -15.36634266886326650, 0.0000000000000000000 ) ) ;
#633 = ORIENTED_EDGE ( 'NONE', *, *, #238, .T. ) ;
#634 = AXIS2_PLACEMENT_3D ( 'NONE', #781, #312, #718 ) ;
#635 = CYLINDRICAL_SURFACE ( 'NONE', #48, 0.2999999999999981570 ) ;
#636 = VERTEX_POINT ( 'NONE', #446 ) ;
#637 = VERTEX_POINT ( 'NONE', #381 ) ;
#638 = CARTESIAN_POINT ( 'NONE',  ( -27.91607230925821881, -15.36634266886326650, 0.9000000000000000222 ) ) ;
#639 = ADVANCED_FACE ( 'NONE', ( #727 ), #518, .F. ) ;
#640 = CARTESIAN_POINT ( 'NONE',  ( -26.96607230925821952, -15.36634266886326827, 0.9000000000000000222 ) ) ;
#641 = FACE_OUTER_BOUND ( 'NONE', #28, .T. ) ;
#642 = ADVANCED_FACE ( 'NONE', ( #537 ), #245, .F. ) ;
#643 = VECTOR ( 'NONE', #489, 1000.000000000000000 ) ;
#644 = EDGE_CURVE ( 'NONE', #669, #11, #702, .T. ) ;
#645 = ORIENTED_EDGE ( 'NONE', *, *, #610, .T. ) ;
#646 = EDGE_CURVE ( 'NONE', #459, #23, #18, .T. ) ;
#647 = VERTEX_POINT ( 'NONE', #838 ) ;
#648 = SECURITY_CLASSIFICATION ( '', '', #215 ) ;
#649 = ORIENTED_EDGE ( 'NONE', *, *, #378, .F. ) ;
#650 = DIRECTION ( 'NONE',  ( -3.242473786872532264E-15, 1.000000000000000000, 0.0000000000000000000 ) ) ;
#651 = VERTEX_POINT ( 'NONE', #240 ) ;
#652 = CIRCLE ( 'NONE', #811, 0.2999999999999981570 ) ;
#653 = EDGE_CURVE ( 'NONE', #840, #524, #672, .T. ) ;
#654 = VERTEX_POINT ( 'NONE', #114 ) ;
#655 = DIRECTION ( 'NONE',  ( -0.0000000000000000000, -0.0000000000000000000, -1.000000000000000000 ) ) ;
#656 = DATE_AND_TIME ( #832, #145 ) ;
#657 = AXIS2_PLACEMENT_3D ( 'NONE', #623, #98, #218 ) ;
#658 = CARTESIAN_POINT ( 'NONE',  ( -25.37607230925821256, -17.16634266886327254, 0.0000000000000000000 ) ) ;
#659 = DIRECTION ( 'NONE',  ( 0.0000000000000000000, 0.0000000000000000000, -1.000000000000000000 ) ) ;
#660 = ORIENTED_EDGE ( 'NONE', *, *, #77, .F. ) ;
#661 = CIRCLE ( 'NONE', #585, 0.2999999999999981570 ) ;
#662 = ORIENTED_EDGE ( 'NONE', *, *, #329, .F. ) ;
#663 = DIRECTION ( 'NONE',  ( -0.0000000000000000000, -0.0000000000000000000, -1.000000000000000000 ) ) ;
#664 = ORIENTED_EDGE ( 'NONE', *, *, #653, .F. ) ;
#665 = ORIENTED_EDGE ( 'NONE', *, *, #510, .T. ) ;
#666 = ORIENTED_EDGE ( 'NONE', *, *, #519, .T. ) ;
#667 = CARTESIAN_POINT ( 'NONE',  ( -24.57607230925821540, -16.23634266886326927, 0.02999999999999999889 ) ) ;
#668 = ORIENTED_EDGE ( 'NONE', *, *, #467, .T. ) ;
#669 = VERTEX_POINT ( 'NONE', #835 ) ;
#670 = LINE ( 'NONE', #592, #76 ) ;
#671 = CARTESIAN_POINT ( 'NONE',  ( -27.91607230925821881, -15.36634266886326650, 0.9000000000000000222 ) ) ;
#672 = LINE ( 'NONE', #443, #497 ) ;
#673 = EDGE_CURVE ( 'NONE', #137, #840, #341, .T. ) ;
#674 = CARTESIAN_POINT ( 'NONE',  ( -24.57607230925821540, -16.43634266886326856, 0.0000000000000000000 ) ) ;
#675 = CARTESIAN_POINT ( 'NONE',  ( -24.57607230925821540, -16.73634266886326927, 0.0000000000000000000 ) ) ;
#676 = PERSON_AND_ORGANIZATION ( #586, #450 ) ;
#677 = CARTESIAN_POINT ( 'NONE',  ( -25.37607230925821256, -16.30634266886326955, 0.0000000000000000000 ) ) ;
#678 = DIRECTION ( 'NONE',  ( 0.0000000000000000000, 0.0000000000000000000, -1.000000000000000000 ) ) ;
#679 = VECTOR ( 'NONE', #492, 1000.000000000000000 ) ;
#680 = ORIENTED_EDGE ( 'NONE', *, *, #644, .T. ) ;
#681 = DIRECTION ( 'NONE',  ( 1.000000000000000000, 0.0000000000000000000, 0.0000000000000000000 ) ) ;
#682 = CARTESIAN_POINT ( 'NONE',  ( -25.52607230925821469, -18.10634266886327026, 0.8699999999999999956 ) ) ;
#683 = ORIENTED_EDGE ( 'NONE', *, *, #75, .F. ) ;
#684 = PERSON_AND_ORGANIZATION_ROLE ( 'design_supplier' ) ;
#685 = ORIENTED_EDGE ( 'NONE', *, *, #754, .F. ) ;
#686 = ORIENTED_EDGE ( 'NONE', *, *, #359, .T. ) ;
#687 = CARTESIAN_POINT ( 'NONE',  ( 0.0000000000000000000, 0.0000000000000000000, 0.0000000000000000000 ) ) ;
#688 = ORIENTED_EDGE ( 'NONE', *, *, #238, .F. ) ;
#689 = FACE_OUTER_BOUND ( 'NONE', #7, .T. ) ;
#690 = APPLICATION_CONTEXT ( 'configuration controlled 3d designs of mechanical parts and assemblies' ) ;
#691 = EDGE_CURVE ( 'NONE', #812, #23, #320, .T. ) ;
#692 = EDGE_LOOP ( 'NONE', ( #853, #280, #264, #721 ) ) ;
#693 = EDGE_LOOP ( 'NONE', ( #660, #546, #42, #666 ) ) ;
#694 = EDGE_CURVE ( 'NONE', #353, #463, #183, .T. ) ;
#695 = CARTESIAN_POINT ( 'NONE',  ( -27.91607230925821881, -17.03634266886326998, 0.0000000000000000000 ) ) ;
#696 = VECTOR ( 'NONE', #655, 1000.000000000000000 ) ;
#697 = CARTESIAN_POINT ( 'NONE',  ( -24.87607230925820900, -16.73634266886327282, 0.0000000000000000000 ) ) ;
#698 = CC_DESIGN_PERSON_AND_ORGANIZATION_ASSIGNMENT ( #705, #618, ( #648 ) ) ;
#699 = CARTESIAN_POINT ( 'NONE',  ( -26.96607230925821952, -18.10634266886327026, 0.8699999999999999956 ) ) ;
#700 = VECTOR ( 'NONE', #848, 1000.000000000000000 ) ;
#701 = CARTESIAN_POINT ( 'NONE',  ( -25.07607230925821895, -16.73634266886326927, 0.0000000000000000000 ) ) ;
#702 = CIRCLE ( 'NONE', #634, 0.3000000000000016542 ) ;
#703 = DIRECTION ( 'NONE',  ( 1.000000000000000000, 0.0000000000000000000, 0.0000000000000000000 ) ) ;
#704 = DIRECTION ( 'NONE',  ( -0.0000000000000000000, 0.0000000000000000000, 1.000000000000000000 ) ) ;
#705 = PERSON_AND_ORGANIZATION ( #586, #450 ) ;
#706 = CARTESIAN_POINT ( 'NONE',  ( -24.57607230925821540, -16.23634266886326927, 0.02999999999999999889 ) ) ;
#707 = LINE ( 'NONE', #768, #186 ) ;
#708 = ORIENTED_EDGE ( 'NONE', *, *, #202, .F. ) ;
#709 = DIRECTION ( 'NONE',  ( 1.000000000000000000, 0.0000000000000000000, -0.0000000000000000000 ) ) ;
#710 = CC_DESIGN_PERSON_AND_ORGANIZATION_ASSIGNMENT ( #268, #154, ( #728 ) ) ;
#711 = DIRECTION ( 'NONE',  ( -0.0000000000000000000, 1.000000000000000000, -0.0000000000000000000 ) ) ;
#712 = EDGE_LOOP ( 'NONE', ( #508, #62, #598, #397, #717, #317 ) ) ;
#713 = VERTEX_POINT ( 'NONE', #170 ) ;
#714 = DIRECTION ( 'NONE',  ( -0.0000000000000000000, -0.0000000000000000000, -1.000000000000000000 ) ) ;
#715 = ADVANCED_FACE ( 'NONE', ( #129 ), #635, .F. ) ;
#716 = ORIENTED_EDGE ( 'NONE', *, *, #77, .T. ) ;
#717 = ORIENTED_EDGE ( 'NONE', *, *, #199, .T. ) ;
#718 = DIRECTION ( 'NONE',  ( 1.000000000000000000, 0.0000000000000000000, 0.0000000000000000000 ) ) ;
#719 = ORIENTED_EDGE ( 'NONE', *, *, #784, .T. ) ;
#720 = VECTOR ( 'NONE', #104, 1000.000000000000000 ) ;
#721 = ORIENTED_EDGE ( 'NONE', *, *, #420, .T. ) ;
#722 = FACE_OUTER_BOUND ( 'NONE', #321, .T. ) ;
#723 = ADVANCED_FACE ( 'NONE', ( #304 ), #438, .T. ) ;
#724 = DIRECTION ( 'NONE',  ( 1.000000000000000000, -0.0000000000000000000, -0.0000000000000000000 ) ) ;
#725 = VECTOR ( 'NONE', #275, 1000.000000000000000 ) ;
#726 = AXIS2_PLACEMENT_3D ( 'NONE', #348, #759, #282 ) ;
#727 = FACE_OUTER_BOUND ( 'NONE', #614, .T. ) ;
#728 = PRODUCT ( 'MF-USML_12-t3', 'MF-USML_12-t3', '', ( #621 ) ) ;
#729 = CARTESIAN_POINT ( 'NONE',  ( -27.91607230925821881, -16.73634266886326927, 0.9000000000000000222 ) ) ;
#730 = EDGE_CURVE ( 'NONE', #194, #463, #456, .T. ) ;
#731 = CALENDAR_DATE ( 2018, 26, 11 ) ;
#732 = CARTESIAN_POINT ( 'NONE',  ( -24.57607230925821540, -15.36634266886326650, 0.9000000000000000222 ) ) ;
#733 = AXIS2_PLACEMENT_3D ( 'NONE', #729, #786, #314 ) ;
#734 = EDGE_LOOP ( 'NONE', ( #551, #292, #649, #64 ) ) ;
#735 = VECTOR ( 'NONE', #105, 1000.000000000000000 ) ;
#736 = CARTESIAN_POINT ( 'NONE',  ( -27.91607230925821881, -17.23634266886327282, 0.02999999999999999889 ) ) ;
#737 = DIRECTION ( 'NONE',  ( -1.000000000000000000, 0.0000000000000000000, 0.0000000000000000000 ) ) ;
#738 = DIRECTION ( 'NONE',  ( 0.0000000000000000000, 0.0000000000000000000, -1.000000000000000000 ) ) ;
#739 = VERTEX_POINT ( 'NONE', #638 ) ;
#740 = DIRECTION ( 'NONE',  ( 1.000000000000000000, 0.0000000000000000000, 0.0000000000000000000 ) ) ;
#741 = ORIENTED_EDGE ( 'NONE', *, *, #539, .T. ) ;
#742 = ORIENTED_EDGE ( 'NONE', *, *, #691, .F. ) ;
#743 = DIRECTION ( 'NONE',  ( 1.000000000000000000, 0.0000000000000000000, -0.0000000000000000000 ) ) ;
#744 = LINE ( 'NONE', #260, #356 ) ;
#745 = EDGE_CURVE ( 'NONE', #651, #654, #652, .T. ) ;
#746 = LINE ( 'NONE', #144, #559 ) ;
#747 = CC_DESIGN_DATE_AND_TIME_ASSIGNMENT ( #852, #150, ( #648 ) ) ;
#748 = LINE ( 'NONE', #517, #223 ) ;
#749 = DIRECTION ( 'NONE',  ( -0.0000000000000000000, -0.0000000000000000000, 1.000000000000000000 ) ) ;
#750 = ORIENTED_EDGE ( 'NONE', *, *, #426, .F. ) ;
#751 = DIRECTION ( 'NONE',  ( -1.000000000000000000, 0.0000000000000000000, 0.0000000000000000000 ) ) ;
#752 = DATE_AND_TIME ( #63, #227 ) ;
#753 = VECTOR ( 'NONE', #132, 1000.000000000000000 ) ;
#754 = EDGE_CURVE ( 'NONE', #483, #23, #276, .T. ) ;
#755 = CARTESIAN_POINT ( 'NONE',  ( -27.91607230925821881, -15.36634266886326650, 0.9000000000000000222 ) ) ;
#756 = DIRECTION ( 'NONE',  ( 0.0000000000000000000, 0.0000000000000000000, -1.000000000000000000 ) ) ;
#757 = ORIENTED_EDGE ( 'NONE', *, *, #329, .T. ) ;
#758 = PRODUCT_DEFINITION ( 'UNKNOWN', '', #424, #830 ) ;
#759 = DIRECTION ( 'NONE',  ( -0.0000000000000000000, -0.0000000000000000000, -1.000000000000000000 ) ) ;
#760 = EDGE_LOOP ( 'NONE', ( #823, #499, #435, #8, #455, #102 ) ) ;
#761 = APPROVAL_ROLE ( '' ) ;
#762 = LINE ( 'NONE', #803, #801 ) ;
#763 = APPLICATION_PROTOCOL_DEFINITION ( 'international standard', 'config_control_design', 1994, #690 ) ;
#764 = VECTOR ( 'NONE', #209, 1000.000000000000000 ) ;
#765 = FACE_OUTER_BOUND ( 'NONE', #155, .T. ) ;
#766 = AXIS2_PLACEMENT_3D ( 'NONE', #687, #417, #817 ) ;
#767 = VERTEX_POINT ( 'NONE', #706 ) ;
#768 = CARTESIAN_POINT ( 'NONE',  ( -24.57607230925821540, -15.36634266886326650, 0.0000000000000000000 ) ) ;
#769 = ORIENTED_EDGE ( 'NONE', *, *, #428, .T. ) ;
#770 = APPROVAL_DATE_TIME ( #81, #244 ) ;
#771 = DIRECTION ( 'NONE',  ( -1.000000000000000000, 0.0000000000000000000, 0.0000000000000000000 ) ) ;
#772 = DIRECTION ( 'NONE',  ( 0.0000000000000000000, -1.000000000000000000, 0.0000000000000000000 ) ) ;
#773 = LINE ( 'NONE', #794, #392 ) ;
#774 = EDGE_CURVE ( 'NONE', #274, #334, #261, .T. ) ;
#775 = AXIS2_PLACEMENT_3D ( 'NONE', #845, #581, #117 ) ;
#776 = DIRECTION ( 'NONE',  ( -0.0000000000000000000, -0.0000000000000000000, -1.000000000000000000 ) ) ;
#777 = ORIENTED_EDGE ( 'NONE', *, *, #774, .T. ) ;
#778 = DIRECTION ( 'NONE',  ( -0.0000000000000000000, -0.0000000000000000000, 1.000000000000000000 ) ) ;
#779 = ADVANCED_FACE ( 'NONE', ( #13 ), #232, .F. ) ;
#780 = VECTOR ( 'NONE', #749, 1000.000000000000000 ) ;
#781 = CARTESIAN_POINT ( 'NONE',  ( -27.91607230925821881, -16.73634266886326927, 0.9000000000000000222 ) ) ;
#782 = ADVANCED_FACE ( 'NONE', ( #375 ), #368, .F. ) ;
#783 = FACE_OUTER_BOUND ( 'NONE', #107, .T. ) ;
#784 = EDGE_CURVE ( 'NONE', #459, #122, #532, .T. ) ;
#785 = EDGE_CURVE ( 'NONE', #531, #810, #30, .T. ) ;
#786 = DIRECTION ( 'NONE',  ( -0.0000000000000000000, -0.0000000000000000000, -1.000000000000000000 ) ) ;
#787 = APPROVAL ( #548, 'UNSPECIFIED' ) ;
#788 = CARTESIAN_POINT ( 'NONE',  ( -25.37607230925821256, -16.30634266886326955, 0.02999999999999999889 ) ) ;
#789 = APPROVAL_PERSON_ORGANIZATION ( #100, #244, #31 ) ;
#790 = CIRCLE ( 'NONE', #138, 0.5000000000000038858 ) ;
#791 = EDGE_CURVE ( 'NONE', #647, #636, #355, .T. ) ;
#792 = DIRECTION ( 'NONE',  ( 0.0000000000000000000, -1.000000000000000000, 0.0000000000000000000 ) ) ;
#793 = VECTOR ( 'NONE', #49, 1000.000000000000000 ) ;
#794 = CARTESIAN_POINT ( 'NONE',  ( -27.11607230925822165, -16.30634266886326955, 0.02999999999999999889 ) ) ;
#795 = ORIENTED_EDGE ( 'NONE', *, *, #601, .F. ) ;
#796 = CARTESIAN_POINT ( 'NONE',  ( -27.11607230925822165, -17.16634266886327254, 0.02999999999999999889 ) ) ;
#797 = VERTEX_POINT ( 'NONE', #298 ) ;
#798 = DIRECTION ( 'NONE',  ( -3.987870059716801935E-15, 1.000000000000000000, 0.0000000000000000000 ) ) ;
#799 = CARTESIAN_POINT ( 'NONE',  ( -24.57607230925821540, -16.73634266886326927, 0.02999999999999999889 ) ) ;
#800 = VERTEX_POINT ( 'NONE', #225 ) ;
#801 = VECTOR ( 'NONE', #663, 1000.000000000000000 ) ;
#802 = CARTESIAN_POINT ( 'NONE',  ( -24.57607230925821185, -16.73634266886327282, 0.0000000000000000000 ) ) ;
#803 = CARTESIAN_POINT ( 'NONE',  ( -24.87607230925820900, -16.73634266886327282, 0.9000000000000000222 ) ) ;
#804 = CIRCLE ( 'NONE', #726, 0.2999999999999981570 ) ;
#805 = DIRECTION ( 'NONE',  ( -0.0000000000000000000, -0.0000000000000000000, -1.000000000000000000 ) ) ;
#806 = ORIENTED_EDGE ( 'NONE', *, *, #745, .F. ) ;
#807 = FACE_OUTER_BOUND ( 'NONE', #712, .T. ) ;
#808 = DIRECTION ( 'NONE',  ( -0.0000000000000000000, -0.0000000000000000000, -1.000000000000000000 ) ) ;
#809 = AXIS2_PLACEMENT_3D ( 'NONE', #281, #390, #681 ) ;
#810 = VERTEX_POINT ( 'NONE', #701 ) ;
#811 = AXIS2_PLACEMENT_3D ( 'NONE', #370, #776, #305 ) ;
#812 = VERTEX_POINT ( 'NONE', #430 ) ;
#813 = ORIENTED_EDGE ( 'NONE', *, *, #35, .T. ) ;
#814 = PLANE ( 'NONE',  #127 ) ;
#815 = ORIENTED_EDGE ( 'NONE', *, *, #287, .T. ) ;
#816 = VECTOR ( 'NONE', #405, 1000.000000000000000 ) ;
#817 = DIRECTION ( 'NONE',  ( -1.000000000000000000, 0.0000000000000000000, 0.0000000000000000000 ) ) ;
#818 = VECTOR ( 'NONE', #159, 1000.000000000000000 ) ;
#819 = DATE_TIME_ROLE ( 'creation_date' ) ;
#820 = CARTESIAN_POINT ( 'NONE',  ( -27.91607230925821881, -16.23634266886326571, 0.02999999999999999889 ) ) ;
#821 = ORIENTED_EDGE ( 'NONE', *, *, #420, .F. ) ;
#822 =( NAMED_UNIT ( * ) SI_UNIT ( $, .STERADIAN. ) SOLID_ANGLE_UNIT ( ) );
#823 = ORIENTED_EDGE ( 'NONE', *, *, #785, .T. ) ;
#824 = ORIENTED_EDGE ( 'NONE', *, *, #269, .F. ) ;
#825 = DIRECTION ( 'NONE',  ( 1.000000000000000000, 0.0000000000000000000, 0.0000000000000000000 ) ) ;
#826 = ORIENTED_EDGE ( 'NONE', *, *, #644, .F. ) ;
#827 = CC_DESIGN_APPROVAL ( #787, ( #648 ) ) ;
#828 = CARTESIAN_POINT ( 'NONE',  ( -25.07607230925821895, -16.73634266886326927, 0.02999999999999999889 ) ) ;
#829 = CARTESIAN_POINT ( 'NONE',  ( -24.57607230925821540, -16.73634266886326927, 0.0000000000000000000 ) ) ;
#830 = DESIGN_CONTEXT ( 'detailed design', #552, 'design' ) ;
#831 = VECTOR ( 'NONE', #109, 1000.000000000000000 ) ;
#832 = CALENDAR_DATE ( 2018, 26, 11 ) ;
#833 = CARTESIAN_POINT ( 'NONE',  ( -27.91607230925821881, -15.36634266886326650, 0.9000000000000000222 ) ) ;
#834 = ADVANCED_FACE ( 'NONE', ( #175 ), #496, .F. ) ;
#835 = CARTESIAN_POINT ( 'NONE',  ( -27.91607230925821881, -16.43634266886326500, 0.9000000000000000222 ) ) ;
#836 = VECTOR ( 'NONE', #358, 1000.000000000000000 ) ;
#837 = ORIENTED_EDGE ( 'NONE', *, *, #453, .F. ) ;
#838 = CARTESIAN_POINT ( 'NONE',  ( -27.91607230925821881, -16.23634266886326571, 0.0000000000000000000 ) ) ;
#839 = ADVANCED_FACE ( 'NONE', ( #689 ), #843, .T. ) ;
#840 = VERTEX_POINT ( 'NONE', #294 ) ;
#841 = VERTEX_POINT ( 'NONE', #697 ) ;
#842 = EDGE_LOOP ( 'NONE', ( #119, #686, #451, #680, #133, #284 ) ) ;
#843 = CYLINDRICAL_SURFACE ( 'NONE', #526, 0.5000000000000004441 ) ;
#844 = ORIENTED_EDGE ( 'NONE', *, *, #242, .T. ) ;
#845 = CARTESIAN_POINT ( 'NONE',  ( -27.91607230925821881, -15.36634266886326650, 0.9000000000000000222 ) ) ;
#846 = ORIENTED_EDGE ( 'NONE', *, *, #610, .F. ) ;
#847 = LINE ( 'NONE', #457, #700 ) ;
#848 = DIRECTION ( 'NONE',  ( -0.0000000000000000000, -0.0000000000000000000, 1.000000000000000000 ) ) ;
#849 = EDGE_CURVE ( 'NONE', #11, #214, #193, .T. ) ;
#850 = VECTOR ( 'NONE', #711, 1000.000000000000000 ) ;
#851 = DIRECTION ( 'NONE',  ( 0.0000000000000000000, 0.0000000000000000000, -1.000000000000000000 ) ) ;
#852 = DATE_AND_TIME ( #166, #345 ) ;
#853 = ORIENTED_EDGE ( 'NONE', *, *, #694, .T. ) ;
ENDSEC;
END-ISO-10303-21;
