%TF.GenerationSoftware,KiCad,Pcbnew,8.0.8*%
%TF.CreationDate,2025-04-11T18:11:03+01:00*%
%TF.ProjectId,Robot_BMS,526f626f-745f-4424-9d53-2e6b69636164,rev?*%
%TF.SameCoordinates,Original*%
%TF.FileFunction,Soldermask,Top*%
%TF.FilePolarity,Negative*%
%FSLAX46Y46*%
G04 Gerber Fmt 4.6, Leading zero omitted, Abs format (unit mm)*
G04 Created by KiCad (PCBNEW 8.0.8) date 2025-04-11 18:11:03*
%MOMM*%
%LPD*%
G01*
G04 APERTURE LIST*
G04 Aperture macros list*
%AMRoundRect*
0 Rectangle with rounded corners*
0 $1 Rounding radius*
0 $2 $3 $4 $5 $6 $7 $8 $9 X,Y pos of 4 corners*
0 Add a 4 corners polygon primitive as box body*
4,1,4,$2,$3,$4,$5,$6,$7,$8,$9,$2,$3,0*
0 Add four circle primitives for the rounded corners*
1,1,$1+$1,$2,$3*
1,1,$1+$1,$4,$5*
1,1,$1+$1,$6,$7*
1,1,$1+$1,$8,$9*
0 Add four rect primitives between the rounded corners*
20,1,$1+$1,$2,$3,$4,$5,0*
20,1,$1+$1,$4,$5,$6,$7,0*
20,1,$1+$1,$6,$7,$8,$9,0*
20,1,$1+$1,$8,$9,$2,$3,0*%
G04 Aperture macros list end*
%ADD10R,4.650000X4.650000*%
%ADD11C,4.650000*%
%ADD12RoundRect,0.150000X0.150000X0.625000X-0.150000X0.625000X-0.150000X-0.625000X0.150000X-0.625000X0*%
%ADD13RoundRect,0.250000X0.350000X0.650000X-0.350000X0.650000X-0.350000X-0.650000X0.350000X-0.650000X0*%
%ADD14C,3.200000*%
%ADD15R,2.200000X2.200000*%
%ADD16O,2.200000X2.200000*%
%ADD17C,2.949000*%
%ADD18C,0.914400*%
%ADD19C,2.154000*%
%ADD20C,3.000000*%
%ADD21R,2.300000X2.300000*%
%ADD22C,2.300000*%
%ADD23C,1.422000*%
%ADD24C,1.800000*%
%ADD25C,2.010000*%
%ADD26R,0.700000X1.200000*%
%ADD27R,0.760000X1.200000*%
%ADD28R,0.800000X1.200000*%
%ADD29C,0.600000*%
%ADD30C,0.500000*%
%ADD31C,2.000000*%
G04 APERTURE END LIST*
D10*
%TO.C,J8*%
X154577500Y-112362500D03*
D11*
X154577500Y-118162500D03*
X159377500Y-115362500D03*
%TD*%
D12*
%TO.C,J5*%
X100650000Y-118555000D03*
X99650000Y-118555000D03*
X98650000Y-118555000D03*
X97650000Y-118555000D03*
D13*
X101950000Y-121080000D03*
X96350000Y-121080000D03*
%TD*%
D14*
%TO.C,H1*%
X170480000Y-117850000D03*
%TD*%
D15*
%TO.C,D2*%
X154590000Y-106630000D03*
D16*
X164750000Y-106630000D03*
%TD*%
D12*
%TO.C,J6*%
X108630000Y-118560000D03*
X107630000Y-118560000D03*
X106630000Y-118560000D03*
X105630000Y-118560000D03*
D13*
X109930000Y-121085000D03*
X104330000Y-121085000D03*
%TD*%
D17*
%TO.C,BT3*%
X142580000Y-89550000D03*
X142580000Y-94630000D03*
X150200000Y-92090000D03*
%TD*%
D16*
%TO.C,D1*%
X130330000Y-102760000D03*
D15*
X140490000Y-102760000D03*
%TD*%
D14*
%TO.C,H4*%
X170480000Y-22960000D03*
%TD*%
D18*
%TO.C,TH2*%
X99140000Y-58840000D03*
X101680000Y-58840000D03*
%TD*%
D17*
%TO.C,BT5*%
X95485000Y-71850000D03*
X95485000Y-66770000D03*
X87865000Y-69310000D03*
%TD*%
D14*
%TO.C,H2*%
X70410000Y-22960000D03*
%TD*%
D12*
%TO.C,J7*%
X116600000Y-118555000D03*
X115600000Y-118555000D03*
X114600000Y-118555000D03*
X113600000Y-118555000D03*
D13*
X117900000Y-121080000D03*
X112300000Y-121080000D03*
%TD*%
D18*
%TO.C,TH3*%
X99320000Y-81970000D03*
X101860000Y-81970000D03*
%TD*%
D14*
%TO.C,H3*%
X70340000Y-117850000D03*
%TD*%
D17*
%TO.C,BT2*%
X142570000Y-66840000D03*
X142570000Y-71920000D03*
X150190000Y-69380000D03*
%TD*%
D19*
%TO.C,J9*%
X83440000Y-117500000D03*
X78440000Y-117500000D03*
%TD*%
D17*
%TO.C,BT4*%
X95455000Y-49080000D03*
X95455000Y-44000000D03*
X87835000Y-46540000D03*
%TD*%
D20*
%TO.C,J3*%
X127267500Y-119094100D03*
D21*
X129367500Y-111794100D03*
D22*
X125167500Y-111794100D03*
X129367500Y-106294100D03*
X125167500Y-106294100D03*
%TD*%
D23*
%TO.C,C22*%
X80860000Y-93760000D03*
X78320000Y-93760000D03*
%TD*%
D17*
%TO.C,BT1*%
X142550000Y-44040000D03*
X142550000Y-49120000D03*
X150170000Y-46580000D03*
%TD*%
D24*
%TO.C,J1*%
X137030000Y-116950000D03*
X145670000Y-116950000D03*
D25*
X137030000Y-120750000D03*
X145670000Y-120750000D03*
D26*
X140850000Y-116870000D03*
D27*
X142870000Y-116870000D03*
D28*
X144100000Y-116870000D03*
D26*
X141850000Y-116870000D03*
D27*
X139830000Y-116870000D03*
D28*
X138600000Y-116870000D03*
%TD*%
D15*
%TO.C,D3*%
X70800000Y-111810000D03*
D16*
X70800000Y-101650000D03*
%TD*%
D18*
%TO.C,TH1*%
X106380000Y-56050000D03*
X103840000Y-56050000D03*
%TD*%
D17*
%TO.C,BT6*%
X95435000Y-94610000D03*
X95435000Y-89530000D03*
X87815000Y-92070000D03*
%TD*%
D12*
%TO.C,J4*%
X92560000Y-118535000D03*
X91560000Y-118535000D03*
X90560000Y-118535000D03*
X89560000Y-118535000D03*
D13*
X93860000Y-121060000D03*
X88260000Y-121060000D03*
%TD*%
D29*
X97740000Y-31040000D03*
X139240000Y-109190000D03*
X136050000Y-109690000D03*
D30*
X71180000Y-104910000D03*
X108740000Y-74930000D03*
X112696091Y-77916091D03*
X115960000Y-81170000D03*
D29*
X75940000Y-63330000D03*
X130325782Y-91776868D03*
X132900000Y-99390000D03*
X133458529Y-92610000D03*
X82260000Y-42990000D03*
X75100000Y-96400000D03*
X75100000Y-96400000D03*
X72410000Y-82290000D03*
X79090000Y-91160000D03*
X86780000Y-103120000D03*
X79610000Y-81250000D03*
X88760000Y-107680000D03*
X114240000Y-62480000D03*
X122170000Y-64110000D03*
X99250000Y-27210000D03*
X100180000Y-34080000D03*
X106810000Y-116320000D03*
X148070000Y-111850000D03*
X118840000Y-115920000D03*
X143050000Y-115440000D03*
X134570000Y-94570000D03*
X125560000Y-71300000D03*
X112240000Y-80630000D03*
X135860380Y-94110000D03*
X141900000Y-115490000D03*
X116110000Y-88000000D03*
X115860000Y-85910000D03*
X113080000Y-80910000D03*
X134800000Y-92990000D03*
X140340000Y-115320000D03*
X138970000Y-98910000D03*
X117150000Y-89330000D03*
X107550000Y-114750000D03*
X109190000Y-83400000D03*
X110510000Y-87720000D03*
X116570000Y-65980000D03*
X118360000Y-67570000D03*
X112580000Y-79690000D03*
X105675584Y-101165323D03*
X113762004Y-82031458D03*
X117150000Y-67880000D03*
X117460000Y-66300000D03*
X99580000Y-114930000D03*
X105630000Y-116470000D03*
X99630000Y-107040000D03*
X109610000Y-86490000D03*
X109610000Y-86490000D03*
X107940000Y-84160000D03*
X100690000Y-107720000D03*
D31*
X131170000Y-54530000D03*
D29*
X103790000Y-88630000D03*
X115500000Y-68110000D03*
X118958672Y-66270089D03*
D31*
X110680000Y-104360000D03*
X121480000Y-90250000D03*
M02*
