%TF.GenerationSoftware,KiCad,Pcbnew,8.0.8*%
%TF.CreationDate,2025-04-11T18:11:03+01:00*%
%TF.ProjectId,Robot_BMS,526f626f-745f-4424-9d53-2e6b69636164,rev?*%
%TF.SameCoordinates,Original*%
%TF.FileFunction,Legend,Top*%
%TF.FilePolarity,Positive*%
%FSLAX46Y46*%
G04 Gerber Fmt 4.6, Leading zero omitted, Abs format (unit mm)*
G04 Created by KiCad (PCBNEW 8.0.8) date 2025-04-11 18:11:03*
%MOMM*%
%LPD*%
G01*
G04 APERTURE LIST*
%ADD10C,1.000000*%
%ADD11C,0.500000*%
%ADD12C,0.250000*%
%ADD13C,0.254000*%
%ADD14C,0.150000*%
%ADD15C,0.200000*%
%ADD16C,0.100000*%
%ADD17C,0.120000*%
%ADD18C,0.127000*%
%ADD19C,0.152400*%
%ADD20C,0.400000*%
%ADD21C,0.000000*%
G04 APERTURE END LIST*
D10*
X160370000Y-92510000D02*
X164340000Y-92510000D01*
X160450000Y-70040000D02*
X164420000Y-70040000D01*
X71500000Y-93110000D02*
X75470000Y-93110000D01*
X160195000Y-46500000D02*
X164165000Y-46500000D01*
X71630000Y-70410000D02*
X75600000Y-70410000D01*
X73615000Y-68425000D02*
X73615000Y-72395000D01*
X73475000Y-43755000D02*
X73475000Y-47725000D01*
X73485000Y-91125000D02*
X73485000Y-95095000D01*
X71490000Y-45740000D02*
X75460000Y-45740000D01*
D11*
X90349899Y-27059238D02*
X91683232Y-29059238D01*
X91683232Y-29059238D02*
X93016566Y-27059238D01*
X94349898Y-28011619D02*
X95683232Y-28011619D01*
X96254660Y-29059238D02*
X94349898Y-29059238D01*
X94349898Y-29059238D02*
X94349898Y-27059238D01*
X94349898Y-27059238D02*
X96254660Y-27059238D01*
X99873708Y-29059238D02*
X97968946Y-29059238D01*
X97968946Y-29059238D02*
X97968946Y-27059238D01*
X101207041Y-29059238D02*
X101207041Y-27059238D01*
X103873708Y-27059238D02*
X104635613Y-27059238D01*
X104635613Y-27059238D02*
X105016565Y-27154476D01*
X105016565Y-27154476D02*
X105397518Y-27344952D01*
X105397518Y-27344952D02*
X105587994Y-27725904D01*
X105587994Y-27725904D02*
X105587994Y-28392571D01*
X105587994Y-28392571D02*
X105397518Y-28773523D01*
X105397518Y-28773523D02*
X105016565Y-28964000D01*
X105016565Y-28964000D02*
X104635613Y-29059238D01*
X104635613Y-29059238D02*
X103873708Y-29059238D01*
X103873708Y-29059238D02*
X103492756Y-28964000D01*
X103492756Y-28964000D02*
X103111803Y-28773523D01*
X103111803Y-28773523D02*
X102921327Y-28392571D01*
X102921327Y-28392571D02*
X102921327Y-27725904D01*
X102921327Y-27725904D02*
X103111803Y-27344952D01*
X103111803Y-27344952D02*
X103492756Y-27154476D01*
X103492756Y-27154476D02*
X103873708Y-27059238D01*
X107302279Y-29059238D02*
X107302279Y-27059238D01*
X107302279Y-27059238D02*
X109587994Y-29059238D01*
X109587994Y-29059238D02*
X109587994Y-27059238D01*
D12*
X149101576Y-120843146D02*
X147831576Y-120843146D01*
X147831576Y-120843146D02*
X147831576Y-120540765D01*
X147831576Y-120540765D02*
X147892052Y-120359336D01*
X147892052Y-120359336D02*
X148013004Y-120238384D01*
X148013004Y-120238384D02*
X148133957Y-120177907D01*
X148133957Y-120177907D02*
X148375861Y-120117431D01*
X148375861Y-120117431D02*
X148557290Y-120117431D01*
X148557290Y-120117431D02*
X148799195Y-120177907D01*
X148799195Y-120177907D02*
X148920147Y-120238384D01*
X148920147Y-120238384D02*
X149041100Y-120359336D01*
X149041100Y-120359336D02*
X149101576Y-120540765D01*
X149101576Y-120540765D02*
X149101576Y-120843146D01*
X148980623Y-118847431D02*
X149041100Y-118907907D01*
X149041100Y-118907907D02*
X149101576Y-119089336D01*
X149101576Y-119089336D02*
X149101576Y-119210288D01*
X149101576Y-119210288D02*
X149041100Y-119391717D01*
X149041100Y-119391717D02*
X148920147Y-119512669D01*
X148920147Y-119512669D02*
X148799195Y-119573146D01*
X148799195Y-119573146D02*
X148557290Y-119633622D01*
X148557290Y-119633622D02*
X148375861Y-119633622D01*
X148375861Y-119633622D02*
X148133957Y-119573146D01*
X148133957Y-119573146D02*
X148013004Y-119512669D01*
X148013004Y-119512669D02*
X147892052Y-119391717D01*
X147892052Y-119391717D02*
X147831576Y-119210288D01*
X147831576Y-119210288D02*
X147831576Y-119089336D01*
X147831576Y-119089336D02*
X147892052Y-118907907D01*
X147892052Y-118907907D02*
X147952528Y-118847431D01*
X149101576Y-117335527D02*
X147831576Y-117335527D01*
X147831576Y-117335527D02*
X147831576Y-116851717D01*
X147831576Y-116851717D02*
X147892052Y-116730765D01*
X147892052Y-116730765D02*
X147952528Y-116670288D01*
X147952528Y-116670288D02*
X148073480Y-116609812D01*
X148073480Y-116609812D02*
X148254909Y-116609812D01*
X148254909Y-116609812D02*
X148375861Y-116670288D01*
X148375861Y-116670288D02*
X148436338Y-116730765D01*
X148436338Y-116730765D02*
X148496814Y-116851717D01*
X148496814Y-116851717D02*
X148496814Y-117335527D01*
X147831576Y-116186479D02*
X149101576Y-115884098D01*
X149101576Y-115884098D02*
X148194433Y-115642193D01*
X148194433Y-115642193D02*
X149101576Y-115400288D01*
X149101576Y-115400288D02*
X147831576Y-115097908D01*
X149101576Y-113888383D02*
X148496814Y-114311717D01*
X149101576Y-114614098D02*
X147831576Y-114614098D01*
X147831576Y-114614098D02*
X147831576Y-114130288D01*
X147831576Y-114130288D02*
X147892052Y-114009336D01*
X147892052Y-114009336D02*
X147952528Y-113948859D01*
X147952528Y-113948859D02*
X148073480Y-113888383D01*
X148073480Y-113888383D02*
X148254909Y-113888383D01*
X148254909Y-113888383D02*
X148375861Y-113948859D01*
X148375861Y-113948859D02*
X148436338Y-114009336D01*
X148436338Y-114009336D02*
X148496814Y-114130288D01*
X148496814Y-114130288D02*
X148496814Y-114614098D01*
D13*
X135059485Y-108981368D02*
X135059485Y-110009463D01*
X135059485Y-110009463D02*
X135119962Y-110130415D01*
X135119962Y-110130415D02*
X135180438Y-110190892D01*
X135180438Y-110190892D02*
X135301390Y-110251368D01*
X135301390Y-110251368D02*
X135543295Y-110251368D01*
X135543295Y-110251368D02*
X135664247Y-110190892D01*
X135664247Y-110190892D02*
X135724724Y-110130415D01*
X135724724Y-110130415D02*
X135785200Y-110009463D01*
X135785200Y-110009463D02*
X135785200Y-108981368D01*
X136329485Y-110190892D02*
X136510914Y-110251368D01*
X136510914Y-110251368D02*
X136813295Y-110251368D01*
X136813295Y-110251368D02*
X136934247Y-110190892D01*
X136934247Y-110190892D02*
X136994723Y-110130415D01*
X136994723Y-110130415D02*
X137055200Y-110009463D01*
X137055200Y-110009463D02*
X137055200Y-109888511D01*
X137055200Y-109888511D02*
X136994723Y-109767558D01*
X136994723Y-109767558D02*
X136934247Y-109707082D01*
X136934247Y-109707082D02*
X136813295Y-109646606D01*
X136813295Y-109646606D02*
X136571390Y-109586130D01*
X136571390Y-109586130D02*
X136450438Y-109525653D01*
X136450438Y-109525653D02*
X136389961Y-109465177D01*
X136389961Y-109465177D02*
X136329485Y-109344225D01*
X136329485Y-109344225D02*
X136329485Y-109223272D01*
X136329485Y-109223272D02*
X136389961Y-109102320D01*
X136389961Y-109102320D02*
X136450438Y-109041844D01*
X136450438Y-109041844D02*
X136571390Y-108981368D01*
X136571390Y-108981368D02*
X136873771Y-108981368D01*
X136873771Y-108981368D02*
X137055200Y-109041844D01*
X138022819Y-109586130D02*
X138204247Y-109646606D01*
X138204247Y-109646606D02*
X138264724Y-109707082D01*
X138264724Y-109707082D02*
X138325200Y-109828034D01*
X138325200Y-109828034D02*
X138325200Y-110009463D01*
X138325200Y-110009463D02*
X138264724Y-110130415D01*
X138264724Y-110130415D02*
X138204247Y-110190892D01*
X138204247Y-110190892D02*
X138083295Y-110251368D01*
X138083295Y-110251368D02*
X137599485Y-110251368D01*
X137599485Y-110251368D02*
X137599485Y-108981368D01*
X137599485Y-108981368D02*
X138022819Y-108981368D01*
X138022819Y-108981368D02*
X138143771Y-109041844D01*
X138143771Y-109041844D02*
X138204247Y-109102320D01*
X138204247Y-109102320D02*
X138264724Y-109223272D01*
X138264724Y-109223272D02*
X138264724Y-109344225D01*
X138264724Y-109344225D02*
X138204247Y-109465177D01*
X138204247Y-109465177D02*
X138143771Y-109525653D01*
X138143771Y-109525653D02*
X138022819Y-109586130D01*
X138022819Y-109586130D02*
X137599485Y-109586130D01*
X138869485Y-109767558D02*
X139837105Y-109767558D01*
X141167581Y-110130415D02*
X141107105Y-110190892D01*
X141107105Y-110190892D02*
X140925676Y-110251368D01*
X140925676Y-110251368D02*
X140804724Y-110251368D01*
X140804724Y-110251368D02*
X140623295Y-110190892D01*
X140623295Y-110190892D02*
X140502343Y-110069939D01*
X140502343Y-110069939D02*
X140441866Y-109948987D01*
X140441866Y-109948987D02*
X140381390Y-109707082D01*
X140381390Y-109707082D02*
X140381390Y-109525653D01*
X140381390Y-109525653D02*
X140441866Y-109283749D01*
X140441866Y-109283749D02*
X140502343Y-109162796D01*
X140502343Y-109162796D02*
X140623295Y-109041844D01*
X140623295Y-109041844D02*
X140804724Y-108981368D01*
X140804724Y-108981368D02*
X140925676Y-108981368D01*
X140925676Y-108981368D02*
X141107105Y-109041844D01*
X141107105Y-109041844D02*
X141167581Y-109102320D01*
X142679485Y-110251368D02*
X142679485Y-108981368D01*
X142679485Y-108981368D02*
X143163295Y-108981368D01*
X143163295Y-108981368D02*
X143284247Y-109041844D01*
X143284247Y-109041844D02*
X143344724Y-109102320D01*
X143344724Y-109102320D02*
X143405200Y-109223272D01*
X143405200Y-109223272D02*
X143405200Y-109404701D01*
X143405200Y-109404701D02*
X143344724Y-109525653D01*
X143344724Y-109525653D02*
X143284247Y-109586130D01*
X143284247Y-109586130D02*
X143163295Y-109646606D01*
X143163295Y-109646606D02*
X142679485Y-109646606D01*
X143828533Y-108981368D02*
X144130914Y-110251368D01*
X144130914Y-110251368D02*
X144372819Y-109344225D01*
X144372819Y-109344225D02*
X144614724Y-110251368D01*
X144614724Y-110251368D02*
X144917105Y-108981368D01*
X146126629Y-110251368D02*
X145703295Y-109646606D01*
X145400914Y-110251368D02*
X145400914Y-108981368D01*
X145400914Y-108981368D02*
X145884724Y-108981368D01*
X145884724Y-108981368D02*
X146005676Y-109041844D01*
X146005676Y-109041844D02*
X146066153Y-109102320D01*
X146066153Y-109102320D02*
X146126629Y-109223272D01*
X146126629Y-109223272D02*
X146126629Y-109404701D01*
X146126629Y-109404701D02*
X146066153Y-109525653D01*
X146066153Y-109525653D02*
X146005676Y-109586130D01*
X146005676Y-109586130D02*
X145884724Y-109646606D01*
X145884724Y-109646606D02*
X145400914Y-109646606D01*
D11*
X130237042Y-28969238D02*
X128903708Y-28016857D01*
X127951327Y-28969238D02*
X127951327Y-26969238D01*
X127951327Y-26969238D02*
X129475137Y-26969238D01*
X129475137Y-26969238D02*
X129856089Y-27064476D01*
X129856089Y-27064476D02*
X130046566Y-27159714D01*
X130046566Y-27159714D02*
X130237042Y-27350190D01*
X130237042Y-27350190D02*
X130237042Y-27635904D01*
X130237042Y-27635904D02*
X130046566Y-27826380D01*
X130046566Y-27826380D02*
X129856089Y-27921619D01*
X129856089Y-27921619D02*
X129475137Y-28016857D01*
X129475137Y-28016857D02*
X127951327Y-28016857D01*
X132713232Y-26969238D02*
X133475137Y-26969238D01*
X133475137Y-26969238D02*
X133856089Y-27064476D01*
X133856089Y-27064476D02*
X134237042Y-27254952D01*
X134237042Y-27254952D02*
X134427518Y-27635904D01*
X134427518Y-27635904D02*
X134427518Y-28302571D01*
X134427518Y-28302571D02*
X134237042Y-28683523D01*
X134237042Y-28683523D02*
X133856089Y-28874000D01*
X133856089Y-28874000D02*
X133475137Y-28969238D01*
X133475137Y-28969238D02*
X132713232Y-28969238D01*
X132713232Y-28969238D02*
X132332280Y-28874000D01*
X132332280Y-28874000D02*
X131951327Y-28683523D01*
X131951327Y-28683523D02*
X131760851Y-28302571D01*
X131760851Y-28302571D02*
X131760851Y-27635904D01*
X131760851Y-27635904D02*
X131951327Y-27254952D01*
X131951327Y-27254952D02*
X132332280Y-27064476D01*
X132332280Y-27064476D02*
X132713232Y-26969238D01*
X137475137Y-27921619D02*
X138046565Y-28016857D01*
X138046565Y-28016857D02*
X138237042Y-28112095D01*
X138237042Y-28112095D02*
X138427518Y-28302571D01*
X138427518Y-28302571D02*
X138427518Y-28588285D01*
X138427518Y-28588285D02*
X138237042Y-28778761D01*
X138237042Y-28778761D02*
X138046565Y-28874000D01*
X138046565Y-28874000D02*
X137665613Y-28969238D01*
X137665613Y-28969238D02*
X136141803Y-28969238D01*
X136141803Y-28969238D02*
X136141803Y-26969238D01*
X136141803Y-26969238D02*
X137475137Y-26969238D01*
X137475137Y-26969238D02*
X137856089Y-27064476D01*
X137856089Y-27064476D02*
X138046565Y-27159714D01*
X138046565Y-27159714D02*
X138237042Y-27350190D01*
X138237042Y-27350190D02*
X138237042Y-27540666D01*
X138237042Y-27540666D02*
X138046565Y-27731142D01*
X138046565Y-27731142D02*
X137856089Y-27826380D01*
X137856089Y-27826380D02*
X137475137Y-27921619D01*
X137475137Y-27921619D02*
X136141803Y-27921619D01*
X140903708Y-26969238D02*
X141665613Y-26969238D01*
X141665613Y-26969238D02*
X142046565Y-27064476D01*
X142046565Y-27064476D02*
X142427518Y-27254952D01*
X142427518Y-27254952D02*
X142617994Y-27635904D01*
X142617994Y-27635904D02*
X142617994Y-28302571D01*
X142617994Y-28302571D02*
X142427518Y-28683523D01*
X142427518Y-28683523D02*
X142046565Y-28874000D01*
X142046565Y-28874000D02*
X141665613Y-28969238D01*
X141665613Y-28969238D02*
X140903708Y-28969238D01*
X140903708Y-28969238D02*
X140522756Y-28874000D01*
X140522756Y-28874000D02*
X140141803Y-28683523D01*
X140141803Y-28683523D02*
X139951327Y-28302571D01*
X139951327Y-28302571D02*
X139951327Y-27635904D01*
X139951327Y-27635904D02*
X140141803Y-27254952D01*
X140141803Y-27254952D02*
X140522756Y-27064476D01*
X140522756Y-27064476D02*
X140903708Y-26969238D01*
X143760851Y-26969238D02*
X146046565Y-26969238D01*
X144903708Y-28969238D02*
X144903708Y-26969238D01*
X147379898Y-28969238D02*
X147379898Y-26969238D01*
X151570375Y-28778761D02*
X151379899Y-28874000D01*
X151379899Y-28874000D02*
X150808470Y-28969238D01*
X150808470Y-28969238D02*
X150427518Y-28969238D01*
X150427518Y-28969238D02*
X149856089Y-28874000D01*
X149856089Y-28874000D02*
X149475137Y-28683523D01*
X149475137Y-28683523D02*
X149284660Y-28493047D01*
X149284660Y-28493047D02*
X149094184Y-28112095D01*
X149094184Y-28112095D02*
X149094184Y-27826380D01*
X149094184Y-27826380D02*
X149284660Y-27445428D01*
X149284660Y-27445428D02*
X149475137Y-27254952D01*
X149475137Y-27254952D02*
X149856089Y-27064476D01*
X149856089Y-27064476D02*
X150427518Y-26969238D01*
X150427518Y-26969238D02*
X150808470Y-26969238D01*
X150808470Y-26969238D02*
X151379899Y-27064476D01*
X151379899Y-27064476D02*
X151570375Y-27159714D01*
X153094184Y-28874000D02*
X153665613Y-28969238D01*
X153665613Y-28969238D02*
X154617994Y-28969238D01*
X154617994Y-28969238D02*
X154998946Y-28874000D01*
X154998946Y-28874000D02*
X155189422Y-28778761D01*
X155189422Y-28778761D02*
X155379899Y-28588285D01*
X155379899Y-28588285D02*
X155379899Y-28397809D01*
X155379899Y-28397809D02*
X155189422Y-28207333D01*
X155189422Y-28207333D02*
X154998946Y-28112095D01*
X154998946Y-28112095D02*
X154617994Y-28016857D01*
X154617994Y-28016857D02*
X153856089Y-27921619D01*
X153856089Y-27921619D02*
X153475137Y-27826380D01*
X153475137Y-27826380D02*
X153284660Y-27731142D01*
X153284660Y-27731142D02*
X153094184Y-27540666D01*
X153094184Y-27540666D02*
X153094184Y-27350190D01*
X153094184Y-27350190D02*
X153284660Y-27159714D01*
X153284660Y-27159714D02*
X153475137Y-27064476D01*
X153475137Y-27064476D02*
X153856089Y-26969238D01*
X153856089Y-26969238D02*
X154808470Y-26969238D01*
X154808470Y-26969238D02*
X155379899Y-27064476D01*
D13*
X119626739Y-114610514D02*
X118356739Y-114610514D01*
X118356739Y-114610514D02*
X118356739Y-114126704D01*
X118356739Y-114126704D02*
X118417215Y-114005752D01*
X118417215Y-114005752D02*
X118477691Y-113945275D01*
X118477691Y-113945275D02*
X118598643Y-113884799D01*
X118598643Y-113884799D02*
X118780072Y-113884799D01*
X118780072Y-113884799D02*
X118901024Y-113945275D01*
X118901024Y-113945275D02*
X118961501Y-114005752D01*
X118961501Y-114005752D02*
X119021977Y-114126704D01*
X119021977Y-114126704D02*
X119021977Y-114610514D01*
X118356739Y-113461466D02*
X119626739Y-113159085D01*
X119626739Y-113159085D02*
X118719596Y-112917180D01*
X118719596Y-112917180D02*
X119626739Y-112675275D01*
X119626739Y-112675275D02*
X118356739Y-112372895D01*
X119626739Y-111163370D02*
X119021977Y-111586704D01*
X119626739Y-111889085D02*
X118356739Y-111889085D01*
X118356739Y-111889085D02*
X118356739Y-111405275D01*
X118356739Y-111405275D02*
X118417215Y-111284323D01*
X118417215Y-111284323D02*
X118477691Y-111223846D01*
X118477691Y-111223846D02*
X118598643Y-111163370D01*
X118598643Y-111163370D02*
X118780072Y-111163370D01*
X118780072Y-111163370D02*
X118901024Y-111223846D01*
X118901024Y-111223846D02*
X118961501Y-111284323D01*
X118961501Y-111284323D02*
X119021977Y-111405275D01*
X119021977Y-111405275D02*
X119021977Y-111889085D01*
X121550415Y-113884799D02*
X121610892Y-113945275D01*
X121610892Y-113945275D02*
X121671368Y-114126704D01*
X121671368Y-114126704D02*
X121671368Y-114247656D01*
X121671368Y-114247656D02*
X121610892Y-114429085D01*
X121610892Y-114429085D02*
X121489939Y-114550037D01*
X121489939Y-114550037D02*
X121368987Y-114610514D01*
X121368987Y-114610514D02*
X121127082Y-114670990D01*
X121127082Y-114670990D02*
X120945653Y-114670990D01*
X120945653Y-114670990D02*
X120703749Y-114610514D01*
X120703749Y-114610514D02*
X120582796Y-114550037D01*
X120582796Y-114550037D02*
X120461844Y-114429085D01*
X120461844Y-114429085D02*
X120401368Y-114247656D01*
X120401368Y-114247656D02*
X120401368Y-114126704D01*
X120401368Y-114126704D02*
X120461844Y-113945275D01*
X120461844Y-113945275D02*
X120522320Y-113884799D01*
X120401368Y-113098609D02*
X120401368Y-112856704D01*
X120401368Y-112856704D02*
X120461844Y-112735752D01*
X120461844Y-112735752D02*
X120582796Y-112614799D01*
X120582796Y-112614799D02*
X120824701Y-112554323D01*
X120824701Y-112554323D02*
X121248034Y-112554323D01*
X121248034Y-112554323D02*
X121489939Y-112614799D01*
X121489939Y-112614799D02*
X121610892Y-112735752D01*
X121610892Y-112735752D02*
X121671368Y-112856704D01*
X121671368Y-112856704D02*
X121671368Y-113098609D01*
X121671368Y-113098609D02*
X121610892Y-113219561D01*
X121610892Y-113219561D02*
X121489939Y-113340514D01*
X121489939Y-113340514D02*
X121248034Y-113400990D01*
X121248034Y-113400990D02*
X120824701Y-113400990D01*
X120824701Y-113400990D02*
X120582796Y-113340514D01*
X120582796Y-113340514D02*
X120461844Y-113219561D01*
X120461844Y-113219561D02*
X120401368Y-113098609D01*
X121671368Y-112010038D02*
X120401368Y-112010038D01*
X120401368Y-112010038D02*
X121671368Y-111284323D01*
X121671368Y-111284323D02*
X120401368Y-111284323D01*
X121671368Y-110679562D02*
X120401368Y-110679562D01*
X120401368Y-110679562D02*
X121671368Y-109953847D01*
X121671368Y-109953847D02*
X120401368Y-109953847D01*
X121006130Y-109349086D02*
X121006130Y-108925752D01*
X121671368Y-108744324D02*
X121671368Y-109349086D01*
X121671368Y-109349086D02*
X120401368Y-109349086D01*
X120401368Y-109349086D02*
X120401368Y-108744324D01*
X121550415Y-107474323D02*
X121610892Y-107534799D01*
X121610892Y-107534799D02*
X121671368Y-107716228D01*
X121671368Y-107716228D02*
X121671368Y-107837180D01*
X121671368Y-107837180D02*
X121610892Y-108018609D01*
X121610892Y-108018609D02*
X121489939Y-108139561D01*
X121489939Y-108139561D02*
X121368987Y-108200038D01*
X121368987Y-108200038D02*
X121127082Y-108260514D01*
X121127082Y-108260514D02*
X120945653Y-108260514D01*
X120945653Y-108260514D02*
X120703749Y-108200038D01*
X120703749Y-108200038D02*
X120582796Y-108139561D01*
X120582796Y-108139561D02*
X120461844Y-108018609D01*
X120461844Y-108018609D02*
X120401368Y-107837180D01*
X120401368Y-107837180D02*
X120401368Y-107716228D01*
X120401368Y-107716228D02*
X120461844Y-107534799D01*
X120461844Y-107534799D02*
X120522320Y-107474323D01*
X120401368Y-107111466D02*
X120401368Y-106385752D01*
X121671368Y-106748609D02*
X120401368Y-106748609D01*
X120401368Y-105720514D02*
X120401368Y-105478609D01*
X120401368Y-105478609D02*
X120461844Y-105357657D01*
X120461844Y-105357657D02*
X120582796Y-105236704D01*
X120582796Y-105236704D02*
X120824701Y-105176228D01*
X120824701Y-105176228D02*
X121248034Y-105176228D01*
X121248034Y-105176228D02*
X121489939Y-105236704D01*
X121489939Y-105236704D02*
X121610892Y-105357657D01*
X121610892Y-105357657D02*
X121671368Y-105478609D01*
X121671368Y-105478609D02*
X121671368Y-105720514D01*
X121671368Y-105720514D02*
X121610892Y-105841466D01*
X121610892Y-105841466D02*
X121489939Y-105962419D01*
X121489939Y-105962419D02*
X121248034Y-106022895D01*
X121248034Y-106022895D02*
X120824701Y-106022895D01*
X120824701Y-106022895D02*
X120582796Y-105962419D01*
X120582796Y-105962419D02*
X120461844Y-105841466D01*
X120461844Y-105841466D02*
X120401368Y-105720514D01*
X121671368Y-103906228D02*
X121066606Y-104329562D01*
X121671368Y-104631943D02*
X120401368Y-104631943D01*
X120401368Y-104631943D02*
X120401368Y-104148133D01*
X120401368Y-104148133D02*
X120461844Y-104027181D01*
X120461844Y-104027181D02*
X120522320Y-103966704D01*
X120522320Y-103966704D02*
X120643272Y-103906228D01*
X120643272Y-103906228D02*
X120824701Y-103906228D01*
X120824701Y-103906228D02*
X120945653Y-103966704D01*
X120945653Y-103966704D02*
X121006130Y-104027181D01*
X121006130Y-104027181D02*
X121066606Y-104148133D01*
X121066606Y-104148133D02*
X121066606Y-104631943D01*
X90159485Y-112751368D02*
X90159485Y-111481368D01*
X90703771Y-111602320D02*
X90764247Y-111541844D01*
X90764247Y-111541844D02*
X90885200Y-111481368D01*
X90885200Y-111481368D02*
X91187581Y-111481368D01*
X91187581Y-111481368D02*
X91308533Y-111541844D01*
X91308533Y-111541844D02*
X91369009Y-111602320D01*
X91369009Y-111602320D02*
X91429486Y-111723272D01*
X91429486Y-111723272D02*
X91429486Y-111844225D01*
X91429486Y-111844225D02*
X91369009Y-112025653D01*
X91369009Y-112025653D02*
X90643295Y-112751368D01*
X90643295Y-112751368D02*
X91429486Y-112751368D01*
X92699486Y-112630415D02*
X92639010Y-112690892D01*
X92639010Y-112690892D02*
X92457581Y-112751368D01*
X92457581Y-112751368D02*
X92336629Y-112751368D01*
X92336629Y-112751368D02*
X92155200Y-112690892D01*
X92155200Y-112690892D02*
X92034248Y-112569939D01*
X92034248Y-112569939D02*
X91973771Y-112448987D01*
X91973771Y-112448987D02*
X91913295Y-112207082D01*
X91913295Y-112207082D02*
X91913295Y-112025653D01*
X91913295Y-112025653D02*
X91973771Y-111783749D01*
X91973771Y-111783749D02*
X92034248Y-111662796D01*
X92034248Y-111662796D02*
X92155200Y-111541844D01*
X92155200Y-111541844D02*
X92336629Y-111481368D01*
X92336629Y-111481368D02*
X92457581Y-111481368D01*
X92457581Y-111481368D02*
X92639010Y-111541844D01*
X92639010Y-111541844D02*
X92699486Y-111602320D01*
D12*
X75626377Y-112571100D02*
X75807806Y-112631576D01*
X75807806Y-112631576D02*
X76110187Y-112631576D01*
X76110187Y-112631576D02*
X76231139Y-112571100D01*
X76231139Y-112571100D02*
X76291615Y-112510623D01*
X76291615Y-112510623D02*
X76352092Y-112389671D01*
X76352092Y-112389671D02*
X76352092Y-112268719D01*
X76352092Y-112268719D02*
X76291615Y-112147766D01*
X76291615Y-112147766D02*
X76231139Y-112087290D01*
X76231139Y-112087290D02*
X76110187Y-112026814D01*
X76110187Y-112026814D02*
X75868282Y-111966338D01*
X75868282Y-111966338D02*
X75747330Y-111905861D01*
X75747330Y-111905861D02*
X75686853Y-111845385D01*
X75686853Y-111845385D02*
X75626377Y-111724433D01*
X75626377Y-111724433D02*
X75626377Y-111603480D01*
X75626377Y-111603480D02*
X75686853Y-111482528D01*
X75686853Y-111482528D02*
X75747330Y-111422052D01*
X75747330Y-111422052D02*
X75868282Y-111361576D01*
X75868282Y-111361576D02*
X76170663Y-111361576D01*
X76170663Y-111361576D02*
X76352092Y-111422052D01*
X77138282Y-111361576D02*
X77380187Y-111361576D01*
X77380187Y-111361576D02*
X77501139Y-111422052D01*
X77501139Y-111422052D02*
X77622092Y-111543004D01*
X77622092Y-111543004D02*
X77682568Y-111784909D01*
X77682568Y-111784909D02*
X77682568Y-112208242D01*
X77682568Y-112208242D02*
X77622092Y-112450147D01*
X77622092Y-112450147D02*
X77501139Y-112571100D01*
X77501139Y-112571100D02*
X77380187Y-112631576D01*
X77380187Y-112631576D02*
X77138282Y-112631576D01*
X77138282Y-112631576D02*
X77017330Y-112571100D01*
X77017330Y-112571100D02*
X76896377Y-112450147D01*
X76896377Y-112450147D02*
X76835901Y-112208242D01*
X76835901Y-112208242D02*
X76835901Y-111784909D01*
X76835901Y-111784909D02*
X76896377Y-111543004D01*
X76896377Y-111543004D02*
X77017330Y-111422052D01*
X77017330Y-111422052D02*
X77138282Y-111361576D01*
X78831615Y-112631576D02*
X78226853Y-112631576D01*
X78226853Y-112631576D02*
X78226853Y-111361576D01*
X79194472Y-112268719D02*
X79799234Y-112268719D01*
X79073520Y-112631576D02*
X79496853Y-111361576D01*
X79496853Y-111361576D02*
X79920187Y-112631576D01*
X81069234Y-112631576D02*
X80645900Y-112026814D01*
X80343519Y-112631576D02*
X80343519Y-111361576D01*
X80343519Y-111361576D02*
X80827329Y-111361576D01*
X80827329Y-111361576D02*
X80948281Y-111422052D01*
X80948281Y-111422052D02*
X81008758Y-111482528D01*
X81008758Y-111482528D02*
X81069234Y-111603480D01*
X81069234Y-111603480D02*
X81069234Y-111784909D01*
X81069234Y-111784909D02*
X81008758Y-111905861D01*
X81008758Y-111905861D02*
X80948281Y-111966338D01*
X80948281Y-111966338D02*
X80827329Y-112026814D01*
X80827329Y-112026814D02*
X80343519Y-112026814D01*
X82581138Y-112631576D02*
X82581138Y-111361576D01*
X82581138Y-111361576D02*
X83064948Y-111361576D01*
X83064948Y-111361576D02*
X83185900Y-111422052D01*
X83185900Y-111422052D02*
X83246377Y-111482528D01*
X83246377Y-111482528D02*
X83306853Y-111603480D01*
X83306853Y-111603480D02*
X83306853Y-111784909D01*
X83306853Y-111784909D02*
X83246377Y-111905861D01*
X83246377Y-111905861D02*
X83185900Y-111966338D01*
X83185900Y-111966338D02*
X83064948Y-112026814D01*
X83064948Y-112026814D02*
X82581138Y-112026814D01*
X83730186Y-111361576D02*
X84032567Y-112631576D01*
X84032567Y-112631576D02*
X84274472Y-111724433D01*
X84274472Y-111724433D02*
X84516377Y-112631576D01*
X84516377Y-112631576D02*
X84818758Y-111361576D01*
X86028282Y-112631576D02*
X85604948Y-112026814D01*
X85302567Y-112631576D02*
X85302567Y-111361576D01*
X85302567Y-111361576D02*
X85786377Y-111361576D01*
X85786377Y-111361576D02*
X85907329Y-111422052D01*
X85907329Y-111422052D02*
X85967806Y-111482528D01*
X85967806Y-111482528D02*
X86028282Y-111603480D01*
X86028282Y-111603480D02*
X86028282Y-111784909D01*
X86028282Y-111784909D02*
X85967806Y-111905861D01*
X85967806Y-111905861D02*
X85907329Y-111966338D01*
X85907329Y-111966338D02*
X85786377Y-112026814D01*
X85786377Y-112026814D02*
X85302567Y-112026814D01*
D13*
X150446667Y-107254318D02*
X150446667Y-108161461D01*
X150446667Y-108161461D02*
X150386190Y-108342889D01*
X150386190Y-108342889D02*
X150265238Y-108463842D01*
X150265238Y-108463842D02*
X150083809Y-108524318D01*
X150083809Y-108524318D02*
X149962857Y-108524318D01*
X151232857Y-107798603D02*
X151111905Y-107738127D01*
X151111905Y-107738127D02*
X151051428Y-107677651D01*
X151051428Y-107677651D02*
X150990952Y-107556699D01*
X150990952Y-107556699D02*
X150990952Y-107496222D01*
X150990952Y-107496222D02*
X151051428Y-107375270D01*
X151051428Y-107375270D02*
X151111905Y-107314794D01*
X151111905Y-107314794D02*
X151232857Y-107254318D01*
X151232857Y-107254318D02*
X151474762Y-107254318D01*
X151474762Y-107254318D02*
X151595714Y-107314794D01*
X151595714Y-107314794D02*
X151656190Y-107375270D01*
X151656190Y-107375270D02*
X151716667Y-107496222D01*
X151716667Y-107496222D02*
X151716667Y-107556699D01*
X151716667Y-107556699D02*
X151656190Y-107677651D01*
X151656190Y-107677651D02*
X151595714Y-107738127D01*
X151595714Y-107738127D02*
X151474762Y-107798603D01*
X151474762Y-107798603D02*
X151232857Y-107798603D01*
X151232857Y-107798603D02*
X151111905Y-107859080D01*
X151111905Y-107859080D02*
X151051428Y-107919556D01*
X151051428Y-107919556D02*
X150990952Y-108040508D01*
X150990952Y-108040508D02*
X150990952Y-108282413D01*
X150990952Y-108282413D02*
X151051428Y-108403365D01*
X151051428Y-108403365D02*
X151111905Y-108463842D01*
X151111905Y-108463842D02*
X151232857Y-108524318D01*
X151232857Y-108524318D02*
X151474762Y-108524318D01*
X151474762Y-108524318D02*
X151595714Y-108463842D01*
X151595714Y-108463842D02*
X151656190Y-108403365D01*
X151656190Y-108403365D02*
X151716667Y-108282413D01*
X151716667Y-108282413D02*
X151716667Y-108040508D01*
X151716667Y-108040508D02*
X151656190Y-107919556D01*
X151656190Y-107919556D02*
X151595714Y-107859080D01*
X151595714Y-107859080D02*
X151474762Y-107798603D01*
D14*
X99306666Y-113264819D02*
X99306666Y-113979104D01*
X99306666Y-113979104D02*
X99259047Y-114121961D01*
X99259047Y-114121961D02*
X99163809Y-114217200D01*
X99163809Y-114217200D02*
X99020952Y-114264819D01*
X99020952Y-114264819D02*
X98925714Y-114264819D01*
X100259047Y-113264819D02*
X99782857Y-113264819D01*
X99782857Y-113264819D02*
X99735238Y-113741009D01*
X99735238Y-113741009D02*
X99782857Y-113693390D01*
X99782857Y-113693390D02*
X99878095Y-113645771D01*
X99878095Y-113645771D02*
X100116190Y-113645771D01*
X100116190Y-113645771D02*
X100211428Y-113693390D01*
X100211428Y-113693390D02*
X100259047Y-113741009D01*
X100259047Y-113741009D02*
X100306666Y-113836247D01*
X100306666Y-113836247D02*
X100306666Y-114074342D01*
X100306666Y-114074342D02*
X100259047Y-114169580D01*
X100259047Y-114169580D02*
X100211428Y-114217200D01*
X100211428Y-114217200D02*
X100116190Y-114264819D01*
X100116190Y-114264819D02*
X99878095Y-114264819D01*
X99878095Y-114264819D02*
X99782857Y-114217200D01*
X99782857Y-114217200D02*
X99735238Y-114169580D01*
X169718095Y-114104819D02*
X169718095Y-113104819D01*
X169718095Y-113581009D02*
X170289523Y-113581009D01*
X170289523Y-114104819D02*
X170289523Y-113104819D01*
X171289523Y-114104819D02*
X170718095Y-114104819D01*
X171003809Y-114104819D02*
X171003809Y-113104819D01*
X171003809Y-113104819D02*
X170908571Y-113247676D01*
X170908571Y-113247676D02*
X170813333Y-113342914D01*
X170813333Y-113342914D02*
X170718095Y-113390533D01*
X158931905Y-104614819D02*
X158931905Y-103614819D01*
X158931905Y-103614819D02*
X159170000Y-103614819D01*
X159170000Y-103614819D02*
X159312857Y-103662438D01*
X159312857Y-103662438D02*
X159408095Y-103757676D01*
X159408095Y-103757676D02*
X159455714Y-103852914D01*
X159455714Y-103852914D02*
X159503333Y-104043390D01*
X159503333Y-104043390D02*
X159503333Y-104186247D01*
X159503333Y-104186247D02*
X159455714Y-104376723D01*
X159455714Y-104376723D02*
X159408095Y-104471961D01*
X159408095Y-104471961D02*
X159312857Y-104567200D01*
X159312857Y-104567200D02*
X159170000Y-104614819D01*
X159170000Y-104614819D02*
X158931905Y-104614819D01*
X159884286Y-103710057D02*
X159931905Y-103662438D01*
X159931905Y-103662438D02*
X160027143Y-103614819D01*
X160027143Y-103614819D02*
X160265238Y-103614819D01*
X160265238Y-103614819D02*
X160360476Y-103662438D01*
X160360476Y-103662438D02*
X160408095Y-103710057D01*
X160408095Y-103710057D02*
X160455714Y-103805295D01*
X160455714Y-103805295D02*
X160455714Y-103900533D01*
X160455714Y-103900533D02*
X160408095Y-104043390D01*
X160408095Y-104043390D02*
X159836667Y-104614819D01*
X159836667Y-104614819D02*
X160455714Y-104614819D01*
X154328095Y-104984819D02*
X154328095Y-103984819D01*
X154899523Y-104984819D02*
X154470952Y-104413390D01*
X154899523Y-103984819D02*
X154328095Y-104556247D01*
X105436666Y-114374819D02*
X105436666Y-115089104D01*
X105436666Y-115089104D02*
X105389047Y-115231961D01*
X105389047Y-115231961D02*
X105293809Y-115327200D01*
X105293809Y-115327200D02*
X105150952Y-115374819D01*
X105150952Y-115374819D02*
X105055714Y-115374819D01*
X106341428Y-114374819D02*
X106150952Y-114374819D01*
X106150952Y-114374819D02*
X106055714Y-114422438D01*
X106055714Y-114422438D02*
X106008095Y-114470057D01*
X106008095Y-114470057D02*
X105912857Y-114612914D01*
X105912857Y-114612914D02*
X105865238Y-114803390D01*
X105865238Y-114803390D02*
X105865238Y-115184342D01*
X105865238Y-115184342D02*
X105912857Y-115279580D01*
X105912857Y-115279580D02*
X105960476Y-115327200D01*
X105960476Y-115327200D02*
X106055714Y-115374819D01*
X106055714Y-115374819D02*
X106246190Y-115374819D01*
X106246190Y-115374819D02*
X106341428Y-115327200D01*
X106341428Y-115327200D02*
X106389047Y-115279580D01*
X106389047Y-115279580D02*
X106436666Y-115184342D01*
X106436666Y-115184342D02*
X106436666Y-114946247D01*
X106436666Y-114946247D02*
X106389047Y-114851009D01*
X106389047Y-114851009D02*
X106341428Y-114803390D01*
X106341428Y-114803390D02*
X106246190Y-114755771D01*
X106246190Y-114755771D02*
X106055714Y-114755771D01*
X106055714Y-114755771D02*
X105960476Y-114803390D01*
X105960476Y-114803390D02*
X105912857Y-114851009D01*
X105912857Y-114851009D02*
X105865238Y-114946247D01*
X142939285Y-81386009D02*
X143082142Y-81433628D01*
X143082142Y-81433628D02*
X143129761Y-81481247D01*
X143129761Y-81481247D02*
X143177380Y-81576485D01*
X143177380Y-81576485D02*
X143177380Y-81719342D01*
X143177380Y-81719342D02*
X143129761Y-81814580D01*
X143129761Y-81814580D02*
X143082142Y-81862200D01*
X143082142Y-81862200D02*
X142986904Y-81909819D01*
X142986904Y-81909819D02*
X142605952Y-81909819D01*
X142605952Y-81909819D02*
X142605952Y-80909819D01*
X142605952Y-80909819D02*
X142939285Y-80909819D01*
X142939285Y-80909819D02*
X143034523Y-80957438D01*
X143034523Y-80957438D02*
X143082142Y-81005057D01*
X143082142Y-81005057D02*
X143129761Y-81100295D01*
X143129761Y-81100295D02*
X143129761Y-81195533D01*
X143129761Y-81195533D02*
X143082142Y-81290771D01*
X143082142Y-81290771D02*
X143034523Y-81338390D01*
X143034523Y-81338390D02*
X142939285Y-81386009D01*
X142939285Y-81386009D02*
X142605952Y-81386009D01*
X143463095Y-80909819D02*
X144034523Y-80909819D01*
X143748809Y-81909819D02*
X143748809Y-80909819D01*
X144272619Y-80909819D02*
X144891666Y-80909819D01*
X144891666Y-80909819D02*
X144558333Y-81290771D01*
X144558333Y-81290771D02*
X144701190Y-81290771D01*
X144701190Y-81290771D02*
X144796428Y-81338390D01*
X144796428Y-81338390D02*
X144844047Y-81386009D01*
X144844047Y-81386009D02*
X144891666Y-81481247D01*
X144891666Y-81481247D02*
X144891666Y-81719342D01*
X144891666Y-81719342D02*
X144844047Y-81814580D01*
X144844047Y-81814580D02*
X144796428Y-81862200D01*
X144796428Y-81862200D02*
X144701190Y-81909819D01*
X144701190Y-81909819D02*
X144415476Y-81909819D01*
X144415476Y-81909819D02*
X144320238Y-81862200D01*
X144320238Y-81862200D02*
X144272619Y-81814580D01*
X129641905Y-100714819D02*
X129641905Y-99714819D01*
X129641905Y-99714819D02*
X129880000Y-99714819D01*
X129880000Y-99714819D02*
X130022857Y-99762438D01*
X130022857Y-99762438D02*
X130118095Y-99857676D01*
X130118095Y-99857676D02*
X130165714Y-99952914D01*
X130165714Y-99952914D02*
X130213333Y-100143390D01*
X130213333Y-100143390D02*
X130213333Y-100286247D01*
X130213333Y-100286247D02*
X130165714Y-100476723D01*
X130165714Y-100476723D02*
X130118095Y-100571961D01*
X130118095Y-100571961D02*
X130022857Y-100667200D01*
X130022857Y-100667200D02*
X129880000Y-100714819D01*
X129880000Y-100714819D02*
X129641905Y-100714819D01*
X131165714Y-100714819D02*
X130594286Y-100714819D01*
X130880000Y-100714819D02*
X130880000Y-99714819D01*
X130880000Y-99714819D02*
X130784762Y-99857676D01*
X130784762Y-99857676D02*
X130689524Y-99952914D01*
X130689524Y-99952914D02*
X130594286Y-100000533D01*
X140228095Y-105314819D02*
X140228095Y-104314819D01*
X140799523Y-105314819D02*
X140370952Y-104743390D01*
X140799523Y-104314819D02*
X140228095Y-104886247D01*
X164248095Y-23444819D02*
X164248095Y-22444819D01*
X164248095Y-22921009D02*
X164819523Y-22921009D01*
X164819523Y-23444819D02*
X164819523Y-22444819D01*
X165724285Y-22778152D02*
X165724285Y-23444819D01*
X165486190Y-22397200D02*
X165248095Y-23111485D01*
X165248095Y-23111485D02*
X165867142Y-23111485D01*
X99064286Y-61234819D02*
X99635714Y-61234819D01*
X99350000Y-62234819D02*
X99350000Y-61234819D01*
X99969048Y-62234819D02*
X99969048Y-61234819D01*
X99969048Y-61711009D02*
X100540476Y-61711009D01*
X100540476Y-62234819D02*
X100540476Y-61234819D01*
X100969048Y-61330057D02*
X101016667Y-61282438D01*
X101016667Y-61282438D02*
X101111905Y-61234819D01*
X101111905Y-61234819D02*
X101350000Y-61234819D01*
X101350000Y-61234819D02*
X101445238Y-61282438D01*
X101445238Y-61282438D02*
X101492857Y-61330057D01*
X101492857Y-61330057D02*
X101540476Y-61425295D01*
X101540476Y-61425295D02*
X101540476Y-61520533D01*
X101540476Y-61520533D02*
X101492857Y-61663390D01*
X101492857Y-61663390D02*
X100921429Y-62234819D01*
X100921429Y-62234819D02*
X101540476Y-62234819D01*
X93554285Y-79876009D02*
X93697142Y-79923628D01*
X93697142Y-79923628D02*
X93744761Y-79971247D01*
X93744761Y-79971247D02*
X93792380Y-80066485D01*
X93792380Y-80066485D02*
X93792380Y-80209342D01*
X93792380Y-80209342D02*
X93744761Y-80304580D01*
X93744761Y-80304580D02*
X93697142Y-80352200D01*
X93697142Y-80352200D02*
X93601904Y-80399819D01*
X93601904Y-80399819D02*
X93220952Y-80399819D01*
X93220952Y-80399819D02*
X93220952Y-79399819D01*
X93220952Y-79399819D02*
X93554285Y-79399819D01*
X93554285Y-79399819D02*
X93649523Y-79447438D01*
X93649523Y-79447438D02*
X93697142Y-79495057D01*
X93697142Y-79495057D02*
X93744761Y-79590295D01*
X93744761Y-79590295D02*
X93744761Y-79685533D01*
X93744761Y-79685533D02*
X93697142Y-79780771D01*
X93697142Y-79780771D02*
X93649523Y-79828390D01*
X93649523Y-79828390D02*
X93554285Y-79876009D01*
X93554285Y-79876009D02*
X93220952Y-79876009D01*
X94078095Y-79399819D02*
X94649523Y-79399819D01*
X94363809Y-80399819D02*
X94363809Y-79399819D01*
X95459047Y-79399819D02*
X94982857Y-79399819D01*
X94982857Y-79399819D02*
X94935238Y-79876009D01*
X94935238Y-79876009D02*
X94982857Y-79828390D01*
X94982857Y-79828390D02*
X95078095Y-79780771D01*
X95078095Y-79780771D02*
X95316190Y-79780771D01*
X95316190Y-79780771D02*
X95411428Y-79828390D01*
X95411428Y-79828390D02*
X95459047Y-79876009D01*
X95459047Y-79876009D02*
X95506666Y-79971247D01*
X95506666Y-79971247D02*
X95506666Y-80209342D01*
X95506666Y-80209342D02*
X95459047Y-80304580D01*
X95459047Y-80304580D02*
X95411428Y-80352200D01*
X95411428Y-80352200D02*
X95316190Y-80399819D01*
X95316190Y-80399819D02*
X95078095Y-80399819D01*
X95078095Y-80399819D02*
X94982857Y-80352200D01*
X94982857Y-80352200D02*
X94935238Y-80304580D01*
X74988095Y-22834819D02*
X74988095Y-21834819D01*
X74988095Y-22311009D02*
X75559523Y-22311009D01*
X75559523Y-22834819D02*
X75559523Y-21834819D01*
X75988095Y-21930057D02*
X76035714Y-21882438D01*
X76035714Y-21882438D02*
X76130952Y-21834819D01*
X76130952Y-21834819D02*
X76369047Y-21834819D01*
X76369047Y-21834819D02*
X76464285Y-21882438D01*
X76464285Y-21882438D02*
X76511904Y-21930057D01*
X76511904Y-21930057D02*
X76559523Y-22025295D01*
X76559523Y-22025295D02*
X76559523Y-22120533D01*
X76559523Y-22120533D02*
X76511904Y-22263390D01*
X76511904Y-22263390D02*
X75940476Y-22834819D01*
X75940476Y-22834819D02*
X76559523Y-22834819D01*
X114756666Y-114504819D02*
X114756666Y-115219104D01*
X114756666Y-115219104D02*
X114709047Y-115361961D01*
X114709047Y-115361961D02*
X114613809Y-115457200D01*
X114613809Y-115457200D02*
X114470952Y-115504819D01*
X114470952Y-115504819D02*
X114375714Y-115504819D01*
X115137619Y-114504819D02*
X115804285Y-114504819D01*
X115804285Y-114504819D02*
X115375714Y-115504819D01*
X95524286Y-81144819D02*
X96095714Y-81144819D01*
X95810000Y-82144819D02*
X95810000Y-81144819D01*
X96429048Y-82144819D02*
X96429048Y-81144819D01*
X96429048Y-81621009D02*
X97000476Y-81621009D01*
X97000476Y-82144819D02*
X97000476Y-81144819D01*
X97381429Y-81144819D02*
X98000476Y-81144819D01*
X98000476Y-81144819D02*
X97667143Y-81525771D01*
X97667143Y-81525771D02*
X97810000Y-81525771D01*
X97810000Y-81525771D02*
X97905238Y-81573390D01*
X97905238Y-81573390D02*
X97952857Y-81621009D01*
X97952857Y-81621009D02*
X98000476Y-81716247D01*
X98000476Y-81716247D02*
X98000476Y-81954342D01*
X98000476Y-81954342D02*
X97952857Y-82049580D01*
X97952857Y-82049580D02*
X97905238Y-82097200D01*
X97905238Y-82097200D02*
X97810000Y-82144819D01*
X97810000Y-82144819D02*
X97524286Y-82144819D01*
X97524286Y-82144819D02*
X97429048Y-82097200D01*
X97429048Y-82097200D02*
X97381429Y-82049580D01*
X69788095Y-114324819D02*
X69788095Y-113324819D01*
X69788095Y-113801009D02*
X70359523Y-113801009D01*
X70359523Y-114324819D02*
X70359523Y-113324819D01*
X70740476Y-113324819D02*
X71359523Y-113324819D01*
X71359523Y-113324819D02*
X71026190Y-113705771D01*
X71026190Y-113705771D02*
X71169047Y-113705771D01*
X71169047Y-113705771D02*
X71264285Y-113753390D01*
X71264285Y-113753390D02*
X71311904Y-113801009D01*
X71311904Y-113801009D02*
X71359523Y-113896247D01*
X71359523Y-113896247D02*
X71359523Y-114134342D01*
X71359523Y-114134342D02*
X71311904Y-114229580D01*
X71311904Y-114229580D02*
X71264285Y-114277200D01*
X71264285Y-114277200D02*
X71169047Y-114324819D01*
X71169047Y-114324819D02*
X70883333Y-114324819D01*
X70883333Y-114324819D02*
X70788095Y-114277200D01*
X70788095Y-114277200D02*
X70740476Y-114229580D01*
X142929285Y-58676009D02*
X143072142Y-58723628D01*
X143072142Y-58723628D02*
X143119761Y-58771247D01*
X143119761Y-58771247D02*
X143167380Y-58866485D01*
X143167380Y-58866485D02*
X143167380Y-59009342D01*
X143167380Y-59009342D02*
X143119761Y-59104580D01*
X143119761Y-59104580D02*
X143072142Y-59152200D01*
X143072142Y-59152200D02*
X142976904Y-59199819D01*
X142976904Y-59199819D02*
X142595952Y-59199819D01*
X142595952Y-59199819D02*
X142595952Y-58199819D01*
X142595952Y-58199819D02*
X142929285Y-58199819D01*
X142929285Y-58199819D02*
X143024523Y-58247438D01*
X143024523Y-58247438D02*
X143072142Y-58295057D01*
X143072142Y-58295057D02*
X143119761Y-58390295D01*
X143119761Y-58390295D02*
X143119761Y-58485533D01*
X143119761Y-58485533D02*
X143072142Y-58580771D01*
X143072142Y-58580771D02*
X143024523Y-58628390D01*
X143024523Y-58628390D02*
X142929285Y-58676009D01*
X142929285Y-58676009D02*
X142595952Y-58676009D01*
X143453095Y-58199819D02*
X144024523Y-58199819D01*
X143738809Y-59199819D02*
X143738809Y-58199819D01*
X144310238Y-58295057D02*
X144357857Y-58247438D01*
X144357857Y-58247438D02*
X144453095Y-58199819D01*
X144453095Y-58199819D02*
X144691190Y-58199819D01*
X144691190Y-58199819D02*
X144786428Y-58247438D01*
X144786428Y-58247438D02*
X144834047Y-58295057D01*
X144834047Y-58295057D02*
X144881666Y-58390295D01*
X144881666Y-58390295D02*
X144881666Y-58485533D01*
X144881666Y-58485533D02*
X144834047Y-58628390D01*
X144834047Y-58628390D02*
X144262619Y-59199819D01*
X144262619Y-59199819D02*
X144881666Y-59199819D01*
D13*
X75766667Y-109424318D02*
X75766667Y-110331461D01*
X75766667Y-110331461D02*
X75706190Y-110512889D01*
X75706190Y-110512889D02*
X75585238Y-110633842D01*
X75585238Y-110633842D02*
X75403809Y-110694318D01*
X75403809Y-110694318D02*
X75282857Y-110694318D01*
X76431905Y-110694318D02*
X76673809Y-110694318D01*
X76673809Y-110694318D02*
X76794762Y-110633842D01*
X76794762Y-110633842D02*
X76855238Y-110573365D01*
X76855238Y-110573365D02*
X76976190Y-110391937D01*
X76976190Y-110391937D02*
X77036667Y-110150032D01*
X77036667Y-110150032D02*
X77036667Y-109666222D01*
X77036667Y-109666222D02*
X76976190Y-109545270D01*
X76976190Y-109545270D02*
X76915714Y-109484794D01*
X76915714Y-109484794D02*
X76794762Y-109424318D01*
X76794762Y-109424318D02*
X76552857Y-109424318D01*
X76552857Y-109424318D02*
X76431905Y-109484794D01*
X76431905Y-109484794D02*
X76371428Y-109545270D01*
X76371428Y-109545270D02*
X76310952Y-109666222D01*
X76310952Y-109666222D02*
X76310952Y-109968603D01*
X76310952Y-109968603D02*
X76371428Y-110089556D01*
X76371428Y-110089556D02*
X76431905Y-110150032D01*
X76431905Y-110150032D02*
X76552857Y-110210508D01*
X76552857Y-110210508D02*
X76794762Y-110210508D01*
X76794762Y-110210508D02*
X76915714Y-110150032D01*
X76915714Y-110150032D02*
X76976190Y-110089556D01*
X76976190Y-110089556D02*
X77036667Y-109968603D01*
D14*
X93524285Y-57106009D02*
X93667142Y-57153628D01*
X93667142Y-57153628D02*
X93714761Y-57201247D01*
X93714761Y-57201247D02*
X93762380Y-57296485D01*
X93762380Y-57296485D02*
X93762380Y-57439342D01*
X93762380Y-57439342D02*
X93714761Y-57534580D01*
X93714761Y-57534580D02*
X93667142Y-57582200D01*
X93667142Y-57582200D02*
X93571904Y-57629819D01*
X93571904Y-57629819D02*
X93190952Y-57629819D01*
X93190952Y-57629819D02*
X93190952Y-56629819D01*
X93190952Y-56629819D02*
X93524285Y-56629819D01*
X93524285Y-56629819D02*
X93619523Y-56677438D01*
X93619523Y-56677438D02*
X93667142Y-56725057D01*
X93667142Y-56725057D02*
X93714761Y-56820295D01*
X93714761Y-56820295D02*
X93714761Y-56915533D01*
X93714761Y-56915533D02*
X93667142Y-57010771D01*
X93667142Y-57010771D02*
X93619523Y-57058390D01*
X93619523Y-57058390D02*
X93524285Y-57106009D01*
X93524285Y-57106009D02*
X93190952Y-57106009D01*
X94048095Y-56629819D02*
X94619523Y-56629819D01*
X94333809Y-57629819D02*
X94333809Y-56629819D01*
X95381428Y-56963152D02*
X95381428Y-57629819D01*
X95143333Y-56582200D02*
X94905238Y-57296485D01*
X94905238Y-57296485D02*
X95524285Y-57296485D01*
D13*
X122886667Y-102404318D02*
X122886667Y-103311461D01*
X122886667Y-103311461D02*
X122826190Y-103492889D01*
X122826190Y-103492889D02*
X122705238Y-103613842D01*
X122705238Y-103613842D02*
X122523809Y-103674318D01*
X122523809Y-103674318D02*
X122402857Y-103674318D01*
X123370476Y-102404318D02*
X124156667Y-102404318D01*
X124156667Y-102404318D02*
X123733333Y-102888127D01*
X123733333Y-102888127D02*
X123914762Y-102888127D01*
X123914762Y-102888127D02*
X124035714Y-102948603D01*
X124035714Y-102948603D02*
X124096190Y-103009080D01*
X124096190Y-103009080D02*
X124156667Y-103130032D01*
X124156667Y-103130032D02*
X124156667Y-103432413D01*
X124156667Y-103432413D02*
X124096190Y-103553365D01*
X124096190Y-103553365D02*
X124035714Y-103613842D01*
X124035714Y-103613842D02*
X123914762Y-103674318D01*
X123914762Y-103674318D02*
X123551905Y-103674318D01*
X123551905Y-103674318D02*
X123430952Y-103613842D01*
X123430952Y-103613842D02*
X123370476Y-103553365D01*
D14*
X83429580Y-94272857D02*
X83477200Y-94320476D01*
X83477200Y-94320476D02*
X83524819Y-94463333D01*
X83524819Y-94463333D02*
X83524819Y-94558571D01*
X83524819Y-94558571D02*
X83477200Y-94701428D01*
X83477200Y-94701428D02*
X83381961Y-94796666D01*
X83381961Y-94796666D02*
X83286723Y-94844285D01*
X83286723Y-94844285D02*
X83096247Y-94891904D01*
X83096247Y-94891904D02*
X82953390Y-94891904D01*
X82953390Y-94891904D02*
X82762914Y-94844285D01*
X82762914Y-94844285D02*
X82667676Y-94796666D01*
X82667676Y-94796666D02*
X82572438Y-94701428D01*
X82572438Y-94701428D02*
X82524819Y-94558571D01*
X82524819Y-94558571D02*
X82524819Y-94463333D01*
X82524819Y-94463333D02*
X82572438Y-94320476D01*
X82572438Y-94320476D02*
X82620057Y-94272857D01*
X82620057Y-93891904D02*
X82572438Y-93844285D01*
X82572438Y-93844285D02*
X82524819Y-93749047D01*
X82524819Y-93749047D02*
X82524819Y-93510952D01*
X82524819Y-93510952D02*
X82572438Y-93415714D01*
X82572438Y-93415714D02*
X82620057Y-93368095D01*
X82620057Y-93368095D02*
X82715295Y-93320476D01*
X82715295Y-93320476D02*
X82810533Y-93320476D01*
X82810533Y-93320476D02*
X82953390Y-93368095D01*
X82953390Y-93368095D02*
X83524819Y-93939523D01*
X83524819Y-93939523D02*
X83524819Y-93320476D01*
X82620057Y-92939523D02*
X82572438Y-92891904D01*
X82572438Y-92891904D02*
X82524819Y-92796666D01*
X82524819Y-92796666D02*
X82524819Y-92558571D01*
X82524819Y-92558571D02*
X82572438Y-92463333D01*
X82572438Y-92463333D02*
X82620057Y-92415714D01*
X82620057Y-92415714D02*
X82715295Y-92368095D01*
X82715295Y-92368095D02*
X82810533Y-92368095D01*
X82810533Y-92368095D02*
X82953390Y-92415714D01*
X82953390Y-92415714D02*
X83524819Y-92987142D01*
X83524819Y-92987142D02*
X83524819Y-92368095D01*
X142909285Y-35876009D02*
X143052142Y-35923628D01*
X143052142Y-35923628D02*
X143099761Y-35971247D01*
X143099761Y-35971247D02*
X143147380Y-36066485D01*
X143147380Y-36066485D02*
X143147380Y-36209342D01*
X143147380Y-36209342D02*
X143099761Y-36304580D01*
X143099761Y-36304580D02*
X143052142Y-36352200D01*
X143052142Y-36352200D02*
X142956904Y-36399819D01*
X142956904Y-36399819D02*
X142575952Y-36399819D01*
X142575952Y-36399819D02*
X142575952Y-35399819D01*
X142575952Y-35399819D02*
X142909285Y-35399819D01*
X142909285Y-35399819D02*
X143004523Y-35447438D01*
X143004523Y-35447438D02*
X143052142Y-35495057D01*
X143052142Y-35495057D02*
X143099761Y-35590295D01*
X143099761Y-35590295D02*
X143099761Y-35685533D01*
X143099761Y-35685533D02*
X143052142Y-35780771D01*
X143052142Y-35780771D02*
X143004523Y-35828390D01*
X143004523Y-35828390D02*
X142909285Y-35876009D01*
X142909285Y-35876009D02*
X142575952Y-35876009D01*
X143433095Y-35399819D02*
X144004523Y-35399819D01*
X143718809Y-36399819D02*
X143718809Y-35399819D01*
X144861666Y-36399819D02*
X144290238Y-36399819D01*
X144575952Y-36399819D02*
X144575952Y-35399819D01*
X144575952Y-35399819D02*
X144480714Y-35542676D01*
X144480714Y-35542676D02*
X144385476Y-35637914D01*
X144385476Y-35637914D02*
X144290238Y-35685533D01*
D13*
X140926667Y-119004318D02*
X140926667Y-119911461D01*
X140926667Y-119911461D02*
X140866190Y-120092889D01*
X140866190Y-120092889D02*
X140745238Y-120213842D01*
X140745238Y-120213842D02*
X140563809Y-120274318D01*
X140563809Y-120274318D02*
X140442857Y-120274318D01*
X142196667Y-120274318D02*
X141470952Y-120274318D01*
X141833809Y-120274318D02*
X141833809Y-119004318D01*
X141833809Y-119004318D02*
X141712857Y-119185746D01*
X141712857Y-119185746D02*
X141591905Y-119306699D01*
X141591905Y-119306699D02*
X141470952Y-119367175D01*
D14*
X68784819Y-107468094D02*
X67784819Y-107468094D01*
X67784819Y-107468094D02*
X67784819Y-107229999D01*
X67784819Y-107229999D02*
X67832438Y-107087142D01*
X67832438Y-107087142D02*
X67927676Y-106991904D01*
X67927676Y-106991904D02*
X68022914Y-106944285D01*
X68022914Y-106944285D02*
X68213390Y-106896666D01*
X68213390Y-106896666D02*
X68356247Y-106896666D01*
X68356247Y-106896666D02*
X68546723Y-106944285D01*
X68546723Y-106944285D02*
X68641961Y-106991904D01*
X68641961Y-106991904D02*
X68737200Y-107087142D01*
X68737200Y-107087142D02*
X68784819Y-107229999D01*
X68784819Y-107229999D02*
X68784819Y-107468094D01*
X67784819Y-106563332D02*
X67784819Y-105944285D01*
X67784819Y-105944285D02*
X68165771Y-106277618D01*
X68165771Y-106277618D02*
X68165771Y-106134761D01*
X68165771Y-106134761D02*
X68213390Y-106039523D01*
X68213390Y-106039523D02*
X68261009Y-105991904D01*
X68261009Y-105991904D02*
X68356247Y-105944285D01*
X68356247Y-105944285D02*
X68594342Y-105944285D01*
X68594342Y-105944285D02*
X68689580Y-105991904D01*
X68689580Y-105991904D02*
X68737200Y-106039523D01*
X68737200Y-106039523D02*
X68784819Y-106134761D01*
X68784819Y-106134761D02*
X68784819Y-106420475D01*
X68784819Y-106420475D02*
X68737200Y-106515713D01*
X68737200Y-106515713D02*
X68689580Y-106563332D01*
X69154819Y-112071904D02*
X68154819Y-112071904D01*
X69154819Y-111500476D02*
X68583390Y-111929047D01*
X68154819Y-111500476D02*
X68726247Y-112071904D01*
X104114286Y-52404819D02*
X104685714Y-52404819D01*
X104400000Y-53404819D02*
X104400000Y-52404819D01*
X105019048Y-53404819D02*
X105019048Y-52404819D01*
X105019048Y-52881009D02*
X105590476Y-52881009D01*
X105590476Y-53404819D02*
X105590476Y-52404819D01*
X106590476Y-53404819D02*
X106019048Y-53404819D01*
X106304762Y-53404819D02*
X106304762Y-52404819D01*
X106304762Y-52404819D02*
X106209524Y-52547676D01*
X106209524Y-52547676D02*
X106114286Y-52642914D01*
X106114286Y-52642914D02*
X106019048Y-52690533D01*
X93504285Y-102636009D02*
X93647142Y-102683628D01*
X93647142Y-102683628D02*
X93694761Y-102731247D01*
X93694761Y-102731247D02*
X93742380Y-102826485D01*
X93742380Y-102826485D02*
X93742380Y-102969342D01*
X93742380Y-102969342D02*
X93694761Y-103064580D01*
X93694761Y-103064580D02*
X93647142Y-103112200D01*
X93647142Y-103112200D02*
X93551904Y-103159819D01*
X93551904Y-103159819D02*
X93170952Y-103159819D01*
X93170952Y-103159819D02*
X93170952Y-102159819D01*
X93170952Y-102159819D02*
X93504285Y-102159819D01*
X93504285Y-102159819D02*
X93599523Y-102207438D01*
X93599523Y-102207438D02*
X93647142Y-102255057D01*
X93647142Y-102255057D02*
X93694761Y-102350295D01*
X93694761Y-102350295D02*
X93694761Y-102445533D01*
X93694761Y-102445533D02*
X93647142Y-102540771D01*
X93647142Y-102540771D02*
X93599523Y-102588390D01*
X93599523Y-102588390D02*
X93504285Y-102636009D01*
X93504285Y-102636009D02*
X93170952Y-102636009D01*
X94028095Y-102159819D02*
X94599523Y-102159819D01*
X94313809Y-103159819D02*
X94313809Y-102159819D01*
X95361428Y-102159819D02*
X95170952Y-102159819D01*
X95170952Y-102159819D02*
X95075714Y-102207438D01*
X95075714Y-102207438D02*
X95028095Y-102255057D01*
X95028095Y-102255057D02*
X94932857Y-102397914D01*
X94932857Y-102397914D02*
X94885238Y-102588390D01*
X94885238Y-102588390D02*
X94885238Y-102969342D01*
X94885238Y-102969342D02*
X94932857Y-103064580D01*
X94932857Y-103064580D02*
X94980476Y-103112200D01*
X94980476Y-103112200D02*
X95075714Y-103159819D01*
X95075714Y-103159819D02*
X95266190Y-103159819D01*
X95266190Y-103159819D02*
X95361428Y-103112200D01*
X95361428Y-103112200D02*
X95409047Y-103064580D01*
X95409047Y-103064580D02*
X95456666Y-102969342D01*
X95456666Y-102969342D02*
X95456666Y-102731247D01*
X95456666Y-102731247D02*
X95409047Y-102636009D01*
X95409047Y-102636009D02*
X95361428Y-102588390D01*
X95361428Y-102588390D02*
X95266190Y-102540771D01*
X95266190Y-102540771D02*
X95075714Y-102540771D01*
X95075714Y-102540771D02*
X94980476Y-102588390D01*
X94980476Y-102588390D02*
X94932857Y-102636009D01*
X94932857Y-102636009D02*
X94885238Y-102731247D01*
X88786666Y-114764819D02*
X88786666Y-115479104D01*
X88786666Y-115479104D02*
X88739047Y-115621961D01*
X88739047Y-115621961D02*
X88643809Y-115717200D01*
X88643809Y-115717200D02*
X88500952Y-115764819D01*
X88500952Y-115764819D02*
X88405714Y-115764819D01*
X89691428Y-115098152D02*
X89691428Y-115764819D01*
X89453333Y-114717200D02*
X89215238Y-115431485D01*
X89215238Y-115431485D02*
X89834285Y-115431485D01*
D15*
%TO.C,J8*%
X150077500Y-111462500D02*
X151977500Y-111462500D01*
X150077500Y-125962500D02*
X150077500Y-111462500D01*
D16*
X154577500Y-109462500D02*
X154577500Y-109462500D01*
X154577500Y-109562500D02*
X154577500Y-109562500D01*
D15*
X157177500Y-111462500D02*
X159077500Y-111462500D01*
X159077500Y-111462500D02*
X159077500Y-112472500D01*
X159077500Y-118672500D02*
X159077500Y-125962500D01*
X159077500Y-125962500D02*
X150077500Y-125962500D01*
D16*
X154577500Y-109462500D02*
G75*
G02*
X154577500Y-109562500I0J-50000D01*
G01*
X154577500Y-109562500D02*
G75*
G02*
X154577500Y-109462500I0J50000D01*
G01*
D17*
%TO.C,J5*%
X96040000Y-118770000D02*
X97090000Y-118770000D01*
X96040000Y-119920000D02*
X96040000Y-118770000D01*
X101090000Y-121890000D02*
X97210000Y-121890000D01*
X101210000Y-118770000D02*
X101210000Y-117780000D01*
X102260000Y-118770000D02*
X101210000Y-118770000D01*
X102260000Y-119920000D02*
X102260000Y-118770000D01*
%TO.C,D2*%
X155930000Y-106630000D02*
X156950000Y-106630000D01*
X156950000Y-105160000D02*
X156950000Y-108100000D01*
X156950000Y-108100000D02*
X162390000Y-108100000D01*
X157730000Y-105160000D02*
X157730000Y-108100000D01*
X157850000Y-105160000D02*
X157850000Y-108100000D01*
X157970000Y-105160000D02*
X157970000Y-108100000D01*
X162390000Y-105160000D02*
X156950000Y-105160000D01*
X162390000Y-108100000D02*
X162390000Y-105160000D01*
X163410000Y-106630000D02*
X162390000Y-106630000D01*
%TO.C,J6*%
X104020000Y-118775000D02*
X105070000Y-118775000D01*
X104020000Y-119925000D02*
X104020000Y-118775000D01*
X109070000Y-121895000D02*
X105190000Y-121895000D01*
X109190000Y-118775000D02*
X109190000Y-117785000D01*
X110240000Y-118775000D02*
X109190000Y-118775000D01*
X110240000Y-119925000D02*
X110240000Y-118775000D01*
D18*
%TO.C,BT3*%
X140800000Y-82770000D02*
X140800000Y-101410000D01*
X140800000Y-101410000D02*
X150330000Y-101410000D01*
X150330000Y-82770000D02*
X140800000Y-82770000D01*
X150330000Y-87825000D02*
X150330000Y-82770000D01*
X150330000Y-96355000D02*
X153750000Y-96355000D01*
X150330000Y-101410000D02*
X150330000Y-96355000D01*
X153750000Y-87825000D02*
X150330000Y-87825000D01*
X153750000Y-96355000D02*
X153750000Y-87825000D01*
D17*
%TO.C,D1*%
X139150000Y-102760000D02*
X138130000Y-102760000D01*
X138130000Y-104230000D02*
X138130000Y-101290000D01*
X138130000Y-101290000D02*
X132690000Y-101290000D01*
X137350000Y-104230000D02*
X137350000Y-101290000D01*
X137230000Y-104230000D02*
X137230000Y-101290000D01*
X137110000Y-104230000D02*
X137110000Y-101290000D01*
X132690000Y-104230000D02*
X138130000Y-104230000D01*
X132690000Y-101290000D02*
X132690000Y-104230000D01*
X131670000Y-102760000D02*
X132690000Y-102760000D01*
D19*
%TO.C,TH2*%
X100003600Y-57214400D02*
X100816400Y-57214400D01*
X100003600Y-60465600D02*
X100816400Y-60465600D01*
X98403105Y-58555411D02*
G75*
G02*
X100003600Y-57214400I1600495J-284589D01*
G01*
X100003601Y-60465600D02*
G75*
G02*
X98403105Y-59124590I-1J1625600D01*
G01*
X100816400Y-57214400D02*
G75*
G02*
X102416895Y-58555411I0J-1625600D01*
G01*
X102416895Y-59124589D02*
G75*
G02*
X100816400Y-60465600I-1600495J284589D01*
G01*
D18*
%TO.C,BT5*%
X84315000Y-65045000D02*
X84315000Y-73575000D01*
X84315000Y-73575000D02*
X87735000Y-73575000D01*
X87735000Y-59990000D02*
X87735000Y-65045000D01*
X87735000Y-65045000D02*
X84315000Y-65045000D01*
X87735000Y-73575000D02*
X87735000Y-78630000D01*
X87735000Y-78630000D02*
X97265000Y-78630000D01*
X97265000Y-59990000D02*
X87735000Y-59990000D01*
X97265000Y-78630000D02*
X97265000Y-59990000D01*
D17*
%TO.C,J7*%
X111990000Y-118770000D02*
X113040000Y-118770000D01*
X111990000Y-119920000D02*
X111990000Y-118770000D01*
X117040000Y-121890000D02*
X113160000Y-121890000D01*
X117160000Y-118770000D02*
X117160000Y-117780000D01*
X118210000Y-118770000D02*
X117160000Y-118770000D01*
X118210000Y-119920000D02*
X118210000Y-118770000D01*
D19*
%TO.C,TH3*%
X100183600Y-80344400D02*
X100996400Y-80344400D01*
X100183600Y-83595600D02*
X100996400Y-83595600D01*
X98583105Y-81685411D02*
G75*
G02*
X100183600Y-80344400I1600495J-284589D01*
G01*
X100183601Y-83595600D02*
G75*
G02*
X98583105Y-82254590I-1J1625600D01*
G01*
X100996400Y-80344400D02*
G75*
G02*
X102596895Y-81685411I0J-1625600D01*
G01*
X102596895Y-82254589D02*
G75*
G02*
X100996400Y-83595600I-1600495J284589D01*
G01*
D18*
%TO.C,BT2*%
X140790000Y-60060000D02*
X140790000Y-78700000D01*
X140790000Y-78700000D02*
X150320000Y-78700000D01*
X150320000Y-60060000D02*
X140790000Y-60060000D01*
X150320000Y-65115000D02*
X150320000Y-60060000D01*
X150320000Y-73645000D02*
X153740000Y-73645000D01*
X150320000Y-78700000D02*
X150320000Y-73645000D01*
X153740000Y-65115000D02*
X150320000Y-65115000D01*
X153740000Y-73645000D02*
X153740000Y-65115000D01*
D15*
%TO.C,J9*%
X75840000Y-113400000D02*
X86040000Y-113400000D01*
X75840000Y-121100000D02*
X75840000Y-113400000D01*
X86040000Y-113400000D02*
X86040000Y-121100000D01*
X86040000Y-121100000D02*
X75840000Y-121100000D01*
D20*
X84440000Y-118900000D02*
G75*
G02*
X84240000Y-118900000I-100000J0D01*
G01*
X84240000Y-118900000D02*
G75*
G02*
X84440000Y-118900000I100000J0D01*
G01*
D18*
%TO.C,BT4*%
X84285000Y-42275000D02*
X84285000Y-50805000D01*
X84285000Y-50805000D02*
X87705000Y-50805000D01*
X87705000Y-37220000D02*
X87705000Y-42275000D01*
X87705000Y-42275000D02*
X84285000Y-42275000D01*
X87705000Y-50805000D02*
X87705000Y-55860000D01*
X87705000Y-55860000D02*
X97235000Y-55860000D01*
X97235000Y-37220000D02*
X87705000Y-37220000D01*
X97235000Y-55860000D02*
X97235000Y-37220000D01*
D21*
%TO.C,*%
G36*
X114609500Y-33355214D02*
G01*
X114769040Y-33387170D01*
X114826326Y-33450057D01*
X114826675Y-33456939D01*
X114778204Y-33512578D01*
X114660951Y-33549725D01*
X114517150Y-33563858D01*
X114389036Y-33550455D01*
X114321971Y-33510977D01*
X114312859Y-33424420D01*
X114397926Y-33368808D01*
X114561763Y-33352489D01*
X114609500Y-33355214D01*
G37*
G36*
X118043635Y-31806498D02*
G01*
X118043635Y-32337996D01*
X118435265Y-32337996D01*
X118826895Y-32337996D01*
X118826895Y-32533811D01*
X118826895Y-32729626D01*
X118239450Y-32729626D01*
X117652005Y-32729626D01*
X117652005Y-32002313D01*
X117652005Y-31275000D01*
X117847820Y-31275000D01*
X118043635Y-31275000D01*
X118043635Y-31806498D01*
G37*
G36*
X119666102Y-31998936D02*
G01*
X119666102Y-32729626D01*
X119474313Y-32729626D01*
X119362400Y-32724303D01*
X119301296Y-32689722D01*
X119269377Y-32597964D01*
X119246815Y-32435904D01*
X119230980Y-32224522D01*
X119224724Y-31961221D01*
X119228803Y-31722578D01*
X119246498Y-31302974D01*
X119456300Y-31285610D01*
X119666102Y-31268246D01*
X119666102Y-31998936D01*
G37*
G36*
X123235730Y-33349981D02*
G01*
X123325368Y-33370169D01*
X123351101Y-33413672D01*
X123348204Y-33442952D01*
X123308349Y-33505664D01*
X123202548Y-33541446D01*
X123041394Y-33557597D01*
X122869824Y-33556646D01*
X122749094Y-33535642D01*
X122716921Y-33515636D01*
X122702254Y-33426680D01*
X122790383Y-33370589D01*
X122983444Y-33346295D01*
X123058308Y-33345044D01*
X123235730Y-33349981D01*
G37*
G36*
X120402818Y-33022997D02*
G01*
X120432448Y-33071735D01*
X120446058Y-33187993D01*
X120449361Y-33393781D01*
X120449362Y-33396889D01*
X120444700Y-33610023D01*
X120427680Y-33732556D01*
X120393752Y-33785506D01*
X120363685Y-33792622D01*
X120270134Y-33749502D01*
X120248613Y-33716019D01*
X120234999Y-33619363D01*
X120232134Y-33455236D01*
X120236382Y-33338900D01*
X120255644Y-33153487D01*
X120292248Y-33055086D01*
X120351454Y-33019770D01*
X120402818Y-33022997D01*
G37*
G36*
X118899271Y-33097495D02*
G01*
X119013532Y-33232480D01*
X119050683Y-33394500D01*
X119003217Y-33573599D01*
X118880897Y-33700354D01*
X118713846Y-33761163D01*
X118532183Y-33742423D01*
X118418857Y-33679829D01*
X118295747Y-33523236D01*
X118276249Y-33382016D01*
X118526967Y-33382016D01*
X118532182Y-33461657D01*
X118600133Y-33549719D01*
X118710525Y-33560675D01*
X118821608Y-33491122D01*
X118826303Y-33485625D01*
X118869702Y-33370661D01*
X118829489Y-33272460D01*
X118727946Y-33233150D01*
X118590658Y-33274804D01*
X118526967Y-33382016D01*
X118276249Y-33382016D01*
X118270947Y-33343615D01*
X118346018Y-33170928D01*
X118389867Y-33123435D01*
X118557394Y-33030648D01*
X118737210Y-33026109D01*
X118899271Y-33097495D01*
G37*
G36*
X121351383Y-33017798D02*
G01*
X121408252Y-33061338D01*
X121494127Y-33152116D01*
X121488376Y-33220484D01*
X121476403Y-33234362D01*
X121390232Y-33270798D01*
X121298253Y-33238333D01*
X121159229Y-33183109D01*
X121077255Y-33209079D01*
X121035955Y-33291782D01*
X121036849Y-33432349D01*
X121127480Y-33526152D01*
X121289415Y-33555065D01*
X121302784Y-33554203D01*
X121443181Y-33565906D01*
X121491236Y-33617158D01*
X121439310Y-33688692D01*
X121371306Y-33727034D01*
X121176374Y-33786746D01*
X121023016Y-33757039D01*
X120906691Y-33663135D01*
X120799913Y-33486181D01*
X120803611Y-33306993D01*
X120916959Y-33134821D01*
X120957179Y-33098256D01*
X121110148Y-32988232D01*
X121229406Y-32962407D01*
X121351383Y-33017798D01*
G37*
G36*
X116582040Y-33029609D02*
G01*
X116762201Y-33125066D01*
X116893620Y-33270342D01*
X116916797Y-33434700D01*
X116831198Y-33606905D01*
X116787367Y-33655297D01*
X116609321Y-33770651D01*
X116419619Y-33775100D01*
X116232898Y-33676667D01*
X116109451Y-33521500D01*
X116093279Y-33384389D01*
X116313114Y-33384389D01*
X116329506Y-33484912D01*
X116406304Y-33555766D01*
X116524439Y-33559264D01*
X116635814Y-33495298D01*
X116644365Y-33485625D01*
X116689713Y-33368406D01*
X116640240Y-33274117D01*
X116512764Y-33233245D01*
X116505089Y-33233150D01*
X116369553Y-33275247D01*
X116313114Y-33384389D01*
X116093279Y-33384389D01*
X116089032Y-33348386D01*
X116171641Y-33183030D01*
X116232898Y-33125317D01*
X116410587Y-33026682D01*
X116582040Y-33029609D01*
G37*
G36*
X119797640Y-33013444D02*
G01*
X119898948Y-33031379D01*
X119939666Y-33071696D01*
X119945838Y-33121256D01*
X119906277Y-33214761D01*
X119833943Y-33233150D01*
X119766829Y-33247878D01*
X119733356Y-33310391D01*
X119722528Y-33448183D01*
X119722049Y-33512886D01*
X119710584Y-33697357D01*
X119674218Y-33783195D01*
X119647453Y-33792622D01*
X119552302Y-33767770D01*
X119535559Y-33755323D01*
X119512626Y-33680812D01*
X119499479Y-33538177D01*
X119498260Y-33475588D01*
X119490338Y-33321842D01*
X119457715Y-33250624D01*
X119387107Y-33233151D01*
X119386366Y-33233150D01*
X119292861Y-33193590D01*
X119274472Y-33121256D01*
X119286720Y-33058761D01*
X119340525Y-33024992D01*
X119461475Y-33011419D01*
X119610155Y-33009362D01*
X119797640Y-33013444D01*
G37*
G36*
X123346462Y-29855404D02*
G01*
X123330639Y-30519714D01*
X122645287Y-30535423D01*
X121959934Y-30551132D01*
X121959934Y-30084834D01*
X121961480Y-29901668D01*
X122419688Y-29901668D01*
X122496043Y-30049193D01*
X122500103Y-30053745D01*
X122626211Y-30145694D01*
X122740925Y-30127202D01*
X122796334Y-30075520D01*
X122850914Y-29945558D01*
X122839002Y-29804486D01*
X122770895Y-29695648D01*
X122698155Y-29662226D01*
X122534946Y-29680109D01*
X122437390Y-29769282D01*
X122419688Y-29901668D01*
X121961480Y-29901668D01*
X121961875Y-29854823D01*
X121974012Y-29704946D01*
X122005813Y-29603444D01*
X122066749Y-29518559D01*
X122155498Y-29428989D01*
X122254866Y-29338407D01*
X122345805Y-29280959D01*
X122458797Y-29247351D01*
X122624324Y-29228294D01*
X122856673Y-29215268D01*
X123362284Y-29191094D01*
X123346462Y-29855404D01*
G37*
G36*
X122212958Y-32986704D02*
G01*
X122323243Y-33046308D01*
X122341751Y-33122252D01*
X122276249Y-33179771D01*
X122167748Y-33189072D01*
X122046966Y-33192450D01*
X122023557Y-33228301D01*
X122093910Y-33280907D01*
X122197710Y-33319488D01*
X122343487Y-33400854D01*
X122401003Y-33514356D01*
X122377600Y-33633982D01*
X122280617Y-33733722D01*
X122117395Y-33787566D01*
X122064692Y-33790842D01*
X121927222Y-33762293D01*
X121848590Y-33709363D01*
X121810742Y-33635790D01*
X121869140Y-33591703D01*
X121869713Y-33591483D01*
X121992936Y-33577103D01*
X122038385Y-33586966D01*
X122130141Y-33605759D01*
X122142737Y-33573843D01*
X122082695Y-33512479D01*
X122000387Y-33463108D01*
X121874925Y-33372898D01*
X121808425Y-33272027D01*
X121806356Y-33261124D01*
X121840732Y-33137712D01*
X121950492Y-33036533D01*
X122099152Y-32982208D01*
X122212958Y-32986704D01*
G37*
G36*
X123330639Y-23050771D02*
G01*
X123330639Y-23694163D01*
X122883062Y-23705687D01*
X122656341Y-23705422D01*
X122462325Y-23694264D01*
X122337008Y-23674521D01*
X122323591Y-23669845D01*
X122206286Y-23595348D01*
X122083426Y-23484331D01*
X122020126Y-23405034D01*
X121983439Y-23316260D01*
X121967888Y-23188266D01*
X121967935Y-23100383D01*
X122420788Y-23100383D01*
X122485114Y-23208252D01*
X122613319Y-23263703D01*
X122682458Y-23263402D01*
X122788521Y-23229489D01*
X122825117Y-23137923D01*
X122827115Y-23084842D01*
X122790399Y-22930708D01*
X122697492Y-22842849D01*
X122574255Y-22840953D01*
X122533393Y-22861239D01*
X122432747Y-22973558D01*
X122420788Y-23100383D01*
X121967935Y-23100383D01*
X121967994Y-22991310D01*
X121971532Y-22876781D01*
X121987908Y-22407379D01*
X122659274Y-22407379D01*
X123330639Y-22407379D01*
X123330639Y-23050771D01*
G37*
G36*
X115599085Y-33042105D02*
G01*
X115742055Y-33131912D01*
X115796214Y-33266144D01*
X115751391Y-33432165D01*
X115737216Y-33456302D01*
X115696662Y-33558524D01*
X115737216Y-33634573D01*
X115801339Y-33729877D01*
X115762307Y-33782419D01*
X115679339Y-33792622D01*
X115553901Y-33747730D01*
X115475340Y-33668381D01*
X115397750Y-33544140D01*
X115351791Y-33668381D01*
X115283838Y-33765183D01*
X115220107Y-33792622D01*
X115173738Y-33770965D01*
X115147183Y-33691935D01*
X115135826Y-33534442D01*
X115134384Y-33400992D01*
X115134384Y-33289097D01*
X115358172Y-33289097D01*
X115403487Y-33338733D01*
X115442093Y-33345044D01*
X115516546Y-33314835D01*
X115526014Y-33289097D01*
X115480699Y-33239462D01*
X115442093Y-33233150D01*
X115367640Y-33263360D01*
X115358172Y-33289097D01*
X115134384Y-33289097D01*
X115134384Y-33009362D01*
X115377475Y-33009362D01*
X115599085Y-33042105D01*
G37*
G36*
X115626349Y-22845123D02*
G01*
X115642764Y-23282868D01*
X115423130Y-23502502D01*
X115311222Y-23610632D01*
X115219675Y-23675757D01*
X115114953Y-23708781D01*
X114963522Y-23720607D01*
X114747580Y-23722137D01*
X114493688Y-23715552D01*
X114338094Y-23694488D01*
X114267903Y-23656981D01*
X114263377Y-23648421D01*
X114253053Y-23564192D01*
X114247639Y-23395383D01*
X114247642Y-23169220D01*
X114248865Y-23107058D01*
X114702393Y-23107058D01*
X114738862Y-23185950D01*
X114865343Y-23265895D01*
X115005722Y-23251113D01*
X115067247Y-23207423D01*
X115125765Y-23093330D01*
X115113603Y-22972248D01*
X115049148Y-22876009D01*
X114950790Y-22836448D01*
X114867684Y-22861940D01*
X114736212Y-22982237D01*
X114702393Y-23107058D01*
X114248865Y-23107058D01*
X114251147Y-22991042D01*
X114267203Y-22407379D01*
X114938569Y-22407379D01*
X115609934Y-22407379D01*
X115626349Y-22845123D01*
G37*
G36*
X123358613Y-32006029D02*
G01*
X123358613Y-32737058D01*
X123207983Y-32719355D01*
X123085332Y-32668741D01*
X122932968Y-32536620D01*
X122774393Y-32356632D01*
X122636988Y-32194540D01*
X122524662Y-32072041D01*
X122457170Y-32010393D01*
X122449472Y-32006963D01*
X122428129Y-32055495D01*
X122413020Y-32187018D01*
X122407512Y-32365970D01*
X122407512Y-32729626D01*
X122211697Y-32729626D01*
X122015882Y-32729626D01*
X122015882Y-32002313D01*
X122015882Y-31275000D01*
X122169736Y-31276780D01*
X122282997Y-31289432D01*
X122384209Y-31335814D01*
X122496139Y-31432970D01*
X122641556Y-31597940D01*
X122709246Y-31680617D01*
X122827911Y-31820564D01*
X122919715Y-31916880D01*
X122959736Y-31946468D01*
X122975425Y-31895826D01*
X122980745Y-31764062D01*
X122976000Y-31610785D01*
X122957044Y-31275000D01*
X123157829Y-31275000D01*
X123358613Y-31275000D01*
X123358613Y-32006029D01*
G37*
G36*
X117204428Y-31442842D02*
G01*
X117183878Y-31564492D01*
X117134494Y-31614377D01*
X117043624Y-31618003D01*
X116880639Y-31623575D01*
X116729820Y-31628364D01*
X116535134Y-31640803D01*
X116427227Y-31668041D01*
X116381214Y-31717691D01*
X116376048Y-31736564D01*
X116379875Y-31791082D01*
X116433732Y-31820809D01*
X116560788Y-31832817D01*
X116696801Y-31834472D01*
X117036586Y-31834472D01*
X117036586Y-32030287D01*
X117036586Y-32226102D01*
X116700904Y-32226102D01*
X116505988Y-32232547D01*
X116401338Y-32255394D01*
X116365883Y-32299911D01*
X116365221Y-32310022D01*
X116387201Y-32354288D01*
X116466632Y-32380272D01*
X116623748Y-32392020D01*
X116784824Y-32393943D01*
X117204428Y-32393943D01*
X117204428Y-32561785D01*
X117204428Y-32729626D01*
X116798811Y-32730242D01*
X116561240Y-32735485D01*
X116337054Y-32748585D01*
X116183393Y-32765536D01*
X115973591Y-32800214D01*
X115973591Y-32037607D01*
X115973591Y-31275000D01*
X116589009Y-31275000D01*
X117204428Y-31275000D01*
X117204428Y-31442842D01*
G37*
G36*
X114989775Y-29234755D02*
G01*
X115145047Y-29246073D01*
X115250736Y-29275649D01*
X115337995Y-29332246D01*
X115437980Y-29424630D01*
X115439118Y-29425733D01*
X115536474Y-29524641D01*
X115595365Y-29610267D01*
X115625455Y-29714581D01*
X115636414Y-29869550D01*
X115637908Y-30083112D01*
X115637908Y-30547688D01*
X114964786Y-30547688D01*
X114658431Y-30544332D01*
X114449606Y-30533272D01*
X114324122Y-30513015D01*
X114267790Y-30482070D01*
X114263377Y-30473972D01*
X114253053Y-30389743D01*
X114247639Y-30220934D01*
X114247642Y-29994771D01*
X114250593Y-29844760D01*
X114742276Y-29844760D01*
X114758762Y-30003658D01*
X114766053Y-30024183D01*
X114838192Y-30084492D01*
X114952173Y-30080454D01*
X115063367Y-30018735D01*
X115100410Y-29974230D01*
X115127431Y-29846893D01*
X115065766Y-29738516D01*
X114937691Y-29682494D01*
X114904498Y-29680507D01*
X114795009Y-29726728D01*
X114742276Y-29844760D01*
X114250593Y-29844760D01*
X114251147Y-29816593D01*
X114267203Y-29232930D01*
X114753765Y-29232930D01*
X114989775Y-29234755D01*
G37*
G36*
X117750752Y-33030867D02*
G01*
X117876663Y-33101700D01*
X117923971Y-33231339D01*
X117924222Y-33294892D01*
X117934242Y-33441018D01*
X117955902Y-33521068D01*
X117947059Y-33621448D01*
X117852129Y-33711136D01*
X117696759Y-33773506D01*
X117536987Y-33792622D01*
X117393356Y-33783150D01*
X117303763Y-33759894D01*
X117297673Y-33755323D01*
X117278259Y-33683776D01*
X117265720Y-33544962D01*
X117484164Y-33544962D01*
X117522262Y-33606151D01*
X117603482Y-33609004D01*
X117678207Y-33557798D01*
X117693991Y-33526873D01*
X117668257Y-33470373D01*
X117600720Y-33456939D01*
X117504543Y-33492480D01*
X117484164Y-33544962D01*
X117265720Y-33544962D01*
X117264769Y-33534438D01*
X117260375Y-33363694D01*
X117260375Y-33233150D01*
X117484164Y-33233150D01*
X117531022Y-33278606D01*
X117596058Y-33289097D01*
X117686970Y-33265668D01*
X117707952Y-33233150D01*
X117661094Y-33187694D01*
X117596058Y-33177203D01*
X117505146Y-33200632D01*
X117484164Y-33233150D01*
X117260375Y-33233150D01*
X117260375Y-33009362D01*
X117533260Y-33009362D01*
X117750752Y-33030867D01*
G37*
G36*
X121115742Y-31318809D02*
G01*
X121354574Y-31448500D01*
X121521454Y-31663371D01*
X121530822Y-31682467D01*
X121605473Y-31882224D01*
X121608616Y-32052600D01*
X121539611Y-32246892D01*
X121523657Y-32280054D01*
X121357339Y-32508169D01*
X121134929Y-32657659D01*
X120880932Y-32720717D01*
X120619852Y-32689536D01*
X120462837Y-32618034D01*
X120243201Y-32432034D01*
X120113256Y-32211834D01*
X120067924Y-31977266D01*
X120070381Y-31960808D01*
X120449362Y-31960808D01*
X120497550Y-32129768D01*
X120620746Y-32253533D01*
X120786895Y-32319436D01*
X120963943Y-32314811D01*
X121119835Y-32226991D01*
X121120727Y-32226102D01*
X121205253Y-32094514D01*
X121232622Y-31978400D01*
X121185570Y-31844861D01*
X121070516Y-31715866D01*
X120926617Y-31628181D01*
X120840992Y-31610683D01*
X120707286Y-31652016D01*
X120571829Y-31752465D01*
X120474135Y-31876703D01*
X120449362Y-31960808D01*
X120070381Y-31960808D01*
X120102130Y-31748165D01*
X120210795Y-31544364D01*
X120388844Y-31385696D01*
X120631198Y-31291995D01*
X120806576Y-31275210D01*
X121115742Y-31318809D01*
G37*
G36*
X118947049Y-25799890D02*
G01*
X119072987Y-25836943D01*
X119192357Y-25924230D01*
X119288125Y-26016459D01*
X119415689Y-26151298D01*
X119478996Y-26254881D01*
X119495529Y-26372366D01*
X119485071Y-26525181D01*
X119415419Y-26808258D01*
X119268027Y-27010921D01*
X119041967Y-27134073D01*
X118816754Y-27175065D01*
X118595271Y-27175994D01*
X118429743Y-27132990D01*
X118340928Y-27085073D01*
X118174491Y-26952569D01*
X118081783Y-26794651D01*
X118045899Y-26576832D01*
X118045711Y-26568660D01*
X118502081Y-26568660D01*
X118558349Y-26676146D01*
X118683368Y-26734132D01*
X118842448Y-26733557D01*
X118976149Y-26677145D01*
X118997510Y-26656019D01*
X119044487Y-26525170D01*
X119007758Y-26387563D01*
X118905598Y-26282483D01*
X118808495Y-26249702D01*
X118664344Y-26258833D01*
X118571749Y-26298513D01*
X118502720Y-26418632D01*
X118502081Y-26568660D01*
X118045711Y-26568660D01*
X118043635Y-26478579D01*
X118053815Y-26303975D01*
X118099293Y-26178855D01*
X118202472Y-26052612D01*
X118255796Y-25999350D01*
X118396342Y-25874674D01*
X118518679Y-25813270D01*
X118676371Y-25793385D01*
X118765902Y-25792181D01*
X118947049Y-25799890D01*
G37*
G36*
X115569730Y-31282793D02*
G01*
X115635906Y-31301987D01*
X115637908Y-31306439D01*
X115615788Y-31370127D01*
X115558529Y-31502576D01*
X115498300Y-31632983D01*
X115402255Y-31843741D01*
X115291014Y-32099038D01*
X115200538Y-32314871D01*
X115111743Y-32518701D01*
X115040800Y-32639069D01*
X114970339Y-32698717D01*
X114891547Y-32719454D01*
X114829039Y-32720746D01*
X114774467Y-32697948D01*
X114717146Y-32635846D01*
X114646390Y-32519224D01*
X114551517Y-32332868D01*
X114421840Y-32061564D01*
X114406049Y-32028122D01*
X114285517Y-31771234D01*
X114184268Y-31552619D01*
X114110915Y-31391088D01*
X114074069Y-31305457D01*
X114071388Y-31296995D01*
X114120972Y-31283017D01*
X114244329Y-31275445D01*
X114287536Y-31275000D01*
X114408089Y-31280653D01*
X114487093Y-31313536D01*
X114551012Y-31397540D01*
X114626304Y-31556555D01*
X114643852Y-31596696D01*
X114725349Y-31786440D01*
X114792933Y-31948552D01*
X114825251Y-32030287D01*
X114866482Y-32142181D01*
X114914921Y-32030287D01*
X114962639Y-31919738D01*
X115036530Y-31748220D01*
X115101740Y-31596696D01*
X115181911Y-31420311D01*
X115246173Y-31323937D01*
X115319740Y-31283525D01*
X115427829Y-31275022D01*
X115439014Y-31275000D01*
X115569730Y-31282793D01*
G37*
G36*
X119554208Y-23744597D02*
G01*
X119554674Y-24162432D01*
X119556801Y-24482258D01*
X119561684Y-24717960D01*
X119570414Y-24883422D01*
X119584086Y-24992530D01*
X119603792Y-25059167D01*
X119630627Y-25097218D01*
X119662424Y-25118847D01*
X119758313Y-25165135D01*
X119794094Y-25176763D01*
X119801797Y-25123370D01*
X119810923Y-24973371D01*
X119820871Y-24742037D01*
X119831039Y-24444637D01*
X119840825Y-24096443D01*
X119847111Y-23831315D01*
X119856172Y-23455555D01*
X119865832Y-23118863D01*
X119875517Y-22836760D01*
X119884657Y-22624770D01*
X119892680Y-22498414D01*
X119897269Y-22469269D01*
X119957391Y-22465154D01*
X120109554Y-22464765D01*
X120333973Y-22467882D01*
X120610864Y-22474288D01*
X120771058Y-22478909D01*
X121624252Y-22505147D01*
X121624252Y-22917827D01*
X121624252Y-23330507D01*
X120899742Y-23330507D01*
X120175233Y-23330507D01*
X120158443Y-24169798D01*
X120154225Y-24461809D01*
X120153741Y-24709628D01*
X120156782Y-24893927D01*
X120163140Y-24995383D01*
X120167508Y-25009005D01*
X120218023Y-24972951D01*
X120322518Y-24879575D01*
X120428592Y-24778062D01*
X120562481Y-24637373D01*
X120627771Y-24533250D01*
X120641708Y-24430489D01*
X120633433Y-24359943D01*
X120632120Y-24335077D01*
X121025558Y-24335077D01*
X121069125Y-24422139D01*
X121093704Y-24450499D01*
X121203298Y-24545324D01*
X121280478Y-24538663D01*
X121339876Y-24435463D01*
X121353859Y-24294198D01*
X121295516Y-24200705D01*
X121194734Y-24174565D01*
X121081399Y-24235355D01*
X121063909Y-24254684D01*
X121025558Y-24335077D01*
X120632120Y-24335077D01*
X120626773Y-24233836D01*
X120667502Y-24128247D01*
X120773693Y-24002501D01*
X120807501Y-23968227D01*
X120938847Y-23847075D01*
X121042778Y-23792358D01*
X121165266Y-23786046D01*
X121248083Y-23795441D01*
X121481530Y-23874066D01*
X121645445Y-24023394D01*
X121731421Y-24220403D01*
X121731047Y-24442071D01*
X121635915Y-24665376D01*
X121588707Y-24727980D01*
X121496649Y-24826657D01*
X121408145Y-24876852D01*
X121283147Y-24891953D01*
X121113165Y-24886941D01*
X120924073Y-24882272D01*
X120799831Y-24903730D01*
X120693694Y-24969266D01*
X120558915Y-25096830D01*
X120554145Y-25101598D01*
X120323228Y-25332516D01*
X121015700Y-25371098D01*
X121321450Y-25384993D01*
X121622674Y-25393261D01*
X121881999Y-25395171D01*
X122043855Y-25391129D01*
X122379538Y-25372578D01*
X122388263Y-24701212D01*
X122396988Y-24029846D01*
X122811986Y-24013684D01*
X123226984Y-23997521D01*
X123222864Y-24838876D01*
X123218745Y-25680231D01*
X121731484Y-25680259D01*
X121334424Y-25681544D01*
X120974681Y-25685153D01*
X120667244Y-25690738D01*
X120427105Y-25697949D01*
X120269254Y-25706440D01*
X120208893Y-25715616D01*
X120203294Y-25786706D01*
X120229510Y-25855484D01*
X120252438Y-25886992D01*
X120292077Y-25911463D01*
X120361416Y-25929779D01*
X120473446Y-25942826D01*
X120641156Y-25951486D01*
X120877537Y-25956644D01*
X121195579Y-25959183D01*
X121608272Y-25959987D01*
X121766088Y-25960022D01*
X123246719Y-25960022D01*
X123246719Y-26127864D01*
X123246719Y-26295705D01*
X121788202Y-26295705D01*
X120329685Y-26295705D01*
X120347563Y-26421586D01*
X120365441Y-26547467D01*
X121806080Y-26562399D01*
X123246719Y-26577330D01*
X123246719Y-26744227D01*
X123246719Y-26911124D01*
X121766088Y-26911124D01*
X121319595Y-26911552D01*
X120972005Y-26913426D01*
X120710328Y-26917630D01*
X120521572Y-26925046D01*
X120392749Y-26936560D01*
X120310868Y-26953055D01*
X120262939Y-26975414D01*
X120235972Y-27004521D01*
X120229510Y-27015662D01*
X120198907Y-27114200D01*
X120208893Y-27155530D01*
X120272060Y-27164885D01*
X120432212Y-27173310D01*
X120674438Y-27180463D01*
X120983829Y-27186000D01*
X121345477Y-27189580D01*
X121744473Y-27190859D01*
X121746891Y-27190859D01*
X123249560Y-27190859D01*
X123234152Y-28072027D01*
X123218745Y-28953194D01*
X122813128Y-28969632D01*
X122588640Y-28973025D01*
X122458708Y-28959246D01*
X122406996Y-28926058D01*
X122404334Y-28913685D01*
X122403578Y-28831023D01*
X122403962Y-28662340D01*
X122405375Y-28433505D01*
X122407302Y-28211278D01*
X122406730Y-27918569D01*
X122397185Y-27722028D01*
X122377055Y-27606170D01*
X122344722Y-27555512D01*
X122338580Y-27552526D01*
X122260289Y-27543989D01*
X122089925Y-27538236D01*
X121847280Y-27535518D01*
X121552147Y-27536088D01*
X121286603Y-27539156D01*
X120309494Y-27554516D01*
X120607712Y-27840859D01*
X120766546Y-27988521D01*
X120878690Y-28071666D01*
X120975783Y-28105681D01*
X121089465Y-28105955D01*
X121141786Y-28100618D01*
X121318808Y-28096791D01*
X121454013Y-28147600D01*
X121556893Y-28224865D01*
X121674008Y-28342449D01*
X121725543Y-28465857D01*
X121736146Y-28626788D01*
X121718469Y-28815429D01*
X121649868Y-28954834D01*
X121572608Y-29041419D01*
X121370969Y-29178157D01*
X121155460Y-29205546D01*
X120935959Y-29123584D01*
X120827888Y-29041674D01*
X120709890Y-28918388D01*
X120658815Y-28795939D01*
X120650468Y-28625185D01*
X120649969Y-28611754D01*
X121020439Y-28611754D01*
X121064786Y-28729410D01*
X121065372Y-28730118D01*
X121181184Y-28807830D01*
X121300097Y-28776029D01*
X121326855Y-28752661D01*
X121371765Y-28645772D01*
X121332752Y-28540866D01*
X121230099Y-28480690D01*
X121196367Y-28477644D01*
X121070062Y-28516725D01*
X121020439Y-28611754D01*
X120649969Y-28611754D01*
X120644813Y-28472907D01*
X120607026Y-28358158D01*
X120517447Y-28240275D01*
X120412692Y-28133427D01*
X120169626Y-27894875D01*
X120169626Y-28773704D01*
X120169626Y-29652533D01*
X120896939Y-29652533D01*
X121624252Y-29652533D01*
X121624252Y-30072137D01*
X121624252Y-30491741D01*
X120765705Y-30491741D01*
X119907158Y-30491741D01*
X119870778Y-29778415D01*
X119855440Y-29411413D01*
X119843249Y-28993724D01*
X119835768Y-28586313D01*
X119834170Y-28351763D01*
X119830609Y-28084010D01*
X119821038Y-27862095D01*
X119806852Y-27706989D01*
X119789450Y-27639667D01*
X119786667Y-27638437D01*
X119716504Y-27675716D01*
X119646799Y-27740749D01*
X119617344Y-27785146D01*
X119594770Y-27854214D01*
X119578195Y-27961793D01*
X119566739Y-28121723D01*
X119559520Y-28347842D01*
X119555658Y-28653989D01*
X119554272Y-29054003D01*
X119554208Y-29195375D01*
X119554208Y-30547688D01*
X119392352Y-30547688D01*
X119256085Y-30518319D01*
X119196537Y-30459191D01*
X119186482Y-30378874D01*
X119177610Y-30204446D01*
X119170387Y-29953690D01*
X119165282Y-29644388D01*
X119162762Y-29294323D01*
X119162578Y-29168516D01*
X119162578Y-27966337D01*
X119036697Y-27984215D01*
X118996269Y-27992237D01*
X118965406Y-28012476D01*
X118942610Y-28058665D01*
X118926381Y-28144537D01*
X118915220Y-28283825D01*
X118907626Y-28490262D01*
X118902101Y-28777582D01*
X118897145Y-29159518D01*
X118895778Y-29274890D01*
X118880741Y-30547688D01*
X118742974Y-30547688D01*
X118605207Y-30547688D01*
X118590170Y-29274890D01*
X118585010Y-28866159D01*
X118579518Y-28555600D01*
X118572289Y-28329498D01*
X118561917Y-28174138D01*
X118546997Y-28075802D01*
X118526122Y-28020774D01*
X118497889Y-27995339D01*
X118460890Y-27985781D01*
X118458024Y-27985365D01*
X118409682Y-27984138D01*
X118375482Y-28008339D01*
X118351574Y-28075491D01*
X118334110Y-28203119D01*
X118319240Y-28408748D01*
X118304397Y-28684704D01*
X118289483Y-29024443D01*
X118277466Y-29388141D01*
X118269760Y-29727219D01*
X118267650Y-29946256D01*
X118267423Y-30491741D01*
X118100559Y-30491741D01*
X117933695Y-30491741D01*
X117918731Y-29111682D01*
X117911482Y-28629266D01*
X117901207Y-28253774D01*
X117887632Y-27980269D01*
X117870481Y-27803814D01*
X117849481Y-27719473D01*
X117840726Y-27710639D01*
X117793949Y-27711088D01*
X117759576Y-27757138D01*
X117735645Y-27862288D01*
X117720196Y-28040034D01*
X117711265Y-28303875D01*
X117707154Y-28629737D01*
X117702267Y-28975809D01*
X117693201Y-29341778D01*
X117681269Y-29683118D01*
X117668338Y-29946256D01*
X117635185Y-30491741D01*
X116773963Y-30491741D01*
X115912742Y-30491741D01*
X115929179Y-30086124D01*
X115945617Y-29680507D01*
X116672930Y-29652533D01*
X117400243Y-29624560D01*
X117415650Y-28743393D01*
X117418831Y-28443711D01*
X117417618Y-28187750D01*
X117412418Y-27994374D01*
X117403638Y-27882447D01*
X117396673Y-27862225D01*
X117342790Y-27899314D01*
X117236373Y-27996020D01*
X117115517Y-28116135D01*
X116975617Y-28270434D01*
X116901007Y-28391190D01*
X116872181Y-28517864D01*
X116868745Y-28615366D01*
X116825947Y-28872015D01*
X116705987Y-29064837D01*
X116521511Y-29179273D01*
X116356569Y-29204956D01*
X116117135Y-29177813D01*
X115950569Y-29086591D01*
X115834302Y-28926341D01*
X115752790Y-28691260D01*
X115761442Y-28613083D01*
X116147072Y-28613083D01*
X116163170Y-28733330D01*
X116241593Y-28798955D01*
X116323010Y-28803264D01*
X116423006Y-28754966D01*
X116449141Y-28645485D01*
X116418392Y-28530233D01*
X116323010Y-28487706D01*
X116203498Y-28513713D01*
X116147072Y-28613083D01*
X115761442Y-28613083D01*
X115775292Y-28487949D01*
X115904689Y-28300289D01*
X115954687Y-28253397D01*
X116096943Y-28142262D01*
X116217664Y-28096353D01*
X116369775Y-28097375D01*
X116397505Y-28100325D01*
X116524076Y-28109128D01*
X116620986Y-28090976D01*
X116718712Y-28030276D01*
X116847728Y-27911435D01*
X116932009Y-27826843D01*
X117228579Y-27526542D01*
X116211127Y-27526542D01*
X115193674Y-27526542D01*
X115178016Y-28239868D01*
X115162357Y-28953194D01*
X114770727Y-28953194D01*
X114379097Y-28953194D01*
X114363690Y-28072027D01*
X114348283Y-27190859D01*
X115832302Y-27190859D01*
X116257788Y-27188991D01*
X116627506Y-27183657D01*
X116929684Y-27175265D01*
X117152550Y-27164222D01*
X117284329Y-27150937D01*
X117316322Y-27139488D01*
X117314237Y-27070230D01*
X117299751Y-27016276D01*
X117260516Y-26975826D01*
X117184187Y-26947077D01*
X117058416Y-26928229D01*
X116870857Y-26917479D01*
X116609162Y-26913026D01*
X116260986Y-26913068D01*
X115813982Y-26915804D01*
X115784761Y-26916007D01*
X114323150Y-26926186D01*
X114305619Y-26750813D01*
X114290154Y-26596119D01*
X117701301Y-26596119D01*
X117737949Y-26822665D01*
X117741946Y-26834774D01*
X117889301Y-27101850D01*
X118114892Y-27313487D01*
X118394250Y-27458657D01*
X118702904Y-27526331D01*
X119016388Y-27505479D01*
X119144949Y-27467164D01*
X119322628Y-27365042D01*
X119514378Y-27202075D01*
X119680258Y-27015414D01*
X119754796Y-26899915D01*
X119811939Y-26710547D01*
X119831129Y-26467634D01*
X119812477Y-26222850D01*
X119756096Y-26027871D01*
X119752880Y-26021496D01*
X119603551Y-25818212D01*
X119388917Y-25627439D01*
X119152921Y-25485889D01*
X119075214Y-25455362D01*
X118811939Y-25419767D01*
X118518472Y-25460552D01*
X118230912Y-25565265D01*
X117985352Y-25721453D01*
X117838891Y-25881876D01*
X117756727Y-26077017D01*
X117709212Y-26331334D01*
X117701301Y-26596119D01*
X114290154Y-26596119D01*
X114288087Y-26575441D01*
X115718284Y-26575441D01*
X117148481Y-26575441D01*
X117148481Y-26436534D01*
X117148481Y-26297627D01*
X115735815Y-26282679D01*
X114323150Y-26267732D01*
X114305447Y-26113877D01*
X114287744Y-25960022D01*
X115775816Y-25960022D01*
X116228721Y-25959313D01*
X116582047Y-25956720D01*
X116848100Y-25951544D01*
X117039188Y-25943087D01*
X117167619Y-25930651D01*
X117245700Y-25913537D01*
X117285740Y-25891046D01*
X117297016Y-25873689D01*
X117305498Y-25777290D01*
X117290695Y-25747808D01*
X117226354Y-25736644D01*
X117065174Y-25725387D01*
X116822211Y-25714601D01*
X116512517Y-25704847D01*
X116151148Y-25696688D01*
X115765600Y-25690832D01*
X114279956Y-25673403D01*
X114315540Y-25332955D01*
X114332549Y-25109584D01*
X114345131Y-24828788D01*
X114350968Y-24545020D01*
X114351124Y-24497190D01*
X114351124Y-24001873D01*
X114770727Y-24001873D01*
X115190331Y-24001873D01*
X115190331Y-24701212D01*
X115190331Y-25400551D01*
X116211366Y-25398129D01*
X117232401Y-25395707D01*
X116938692Y-25132380D01*
X116777822Y-24993571D01*
X116661344Y-24916583D01*
X116552997Y-24885676D01*
X116416523Y-24885112D01*
X116375149Y-24887771D01*
X116187506Y-24888269D01*
X116052789Y-24846567D01*
X115927559Y-24756917D01*
X115808548Y-24635518D01*
X115758224Y-24505732D01*
X115751352Y-24392011D01*
X116152674Y-24392011D01*
X116224337Y-24491240D01*
X116239340Y-24500916D01*
X116380787Y-24555828D01*
X116459194Y-24518602D01*
X116477115Y-24428327D01*
X116439320Y-24284262D01*
X116344887Y-24201741D01*
X116232444Y-24202708D01*
X116155012Y-24280054D01*
X116152674Y-24392011D01*
X115751352Y-24392011D01*
X115749802Y-24366351D01*
X115763784Y-24199296D01*
X115822584Y-24077609D01*
X115947564Y-23951721D01*
X116099177Y-23844761D01*
X116243946Y-23783815D01*
X116286925Y-23778084D01*
X116523060Y-23827743D01*
X116713702Y-23961881D01*
X116835722Y-24158242D01*
X116868358Y-24337556D01*
X116873054Y-24455227D01*
X116895500Y-24543532D01*
X116952795Y-24630426D01*
X117062034Y-24743866D01*
X117191799Y-24866421D01*
X117428216Y-25087577D01*
X117428216Y-24209042D01*
X117428216Y-23330507D01*
X116672930Y-23330507D01*
X115917644Y-23330507D01*
X115917644Y-22910904D01*
X115917644Y-22491300D01*
X116778839Y-22491300D01*
X117113252Y-22492788D01*
X117352104Y-22498326D01*
X117511699Y-22509526D01*
X117608343Y-22528001D01*
X117658343Y-22555362D01*
X117673993Y-22579796D01*
X117683631Y-22659075D01*
X117692207Y-22833358D01*
X117699311Y-23085758D01*
X117704532Y-23399389D01*
X117707463Y-23757362D01*
X117707952Y-23980443D01*
X117708206Y-24395802D01*
X117709726Y-24711982D01*
X117713647Y-24941699D01*
X117721107Y-25097669D01*
X117733240Y-25192606D01*
X117751184Y-25239227D01*
X117776074Y-25250247D01*
X117809047Y-25238382D01*
X117819846Y-25232710D01*
X117854701Y-25209320D01*
X117881458Y-25172085D01*
X117901184Y-25107374D01*
X117914948Y-25001554D01*
X117923817Y-24840994D01*
X117928859Y-24612063D01*
X117931141Y-24301127D01*
X117931732Y-23894556D01*
X117931741Y-23804089D01*
X117931741Y-22435353D01*
X118098512Y-22435353D01*
X118265283Y-22435353D01*
X118280340Y-23680177D01*
X118295397Y-24925000D01*
X118435265Y-24925000D01*
X118575133Y-24925000D01*
X118590190Y-23680177D01*
X118605247Y-22435353D01*
X118742953Y-22435353D01*
X118880660Y-22435353D01*
X118895738Y-23652203D01*
X118900938Y-24050535D01*
X118906400Y-24351034D01*
X118913717Y-24567753D01*
X118924480Y-24714747D01*
X118940281Y-24806069D01*
X118962712Y-24855772D01*
X118993366Y-24877910D01*
X119033834Y-24886536D01*
X119035595Y-24886787D01*
X119160375Y-24904521D01*
X119175463Y-23683923D01*
X119190551Y-22463326D01*
X119372379Y-22445795D01*
X119554208Y-22428263D01*
X119554208Y-23744597D01*
G37*
D16*
%TO.C,J3*%
X122467500Y-125512100D02*
X122467500Y-105576100D01*
X132067500Y-105576100D02*
X132067500Y-125512100D01*
X132067500Y-125512100D02*
X122467500Y-125512100D01*
X132867500Y-111794100D02*
X133867500Y-111294100D01*
X133867500Y-111294100D02*
X133867500Y-112294100D01*
X133867500Y-112294100D02*
X132867500Y-111794100D01*
D18*
%TO.C,C22*%
X77050000Y-92172500D02*
X77050000Y-95347500D01*
X77050000Y-95347500D02*
X82130000Y-95347500D01*
X82130000Y-92172500D02*
X77050000Y-92172500D01*
X82130000Y-95347500D02*
X82130000Y-92172500D01*
%TO.C,BT1*%
X140770000Y-37260000D02*
X140770000Y-55900000D01*
X140770000Y-55900000D02*
X150300000Y-55900000D01*
X150300000Y-37260000D02*
X140770000Y-37260000D01*
X150300000Y-42315000D02*
X150300000Y-37260000D01*
X150300000Y-50845000D02*
X153720000Y-50845000D01*
X150300000Y-55900000D02*
X150300000Y-50845000D01*
X153720000Y-42315000D02*
X150300000Y-42315000D01*
X153720000Y-50845000D02*
X153720000Y-42315000D01*
D15*
%TO.C,J1*%
X136880000Y-118367000D02*
X136880000Y-119167000D01*
X136880000Y-123350000D02*
X136880000Y-122167000D01*
D16*
X140850000Y-115700000D02*
X140850000Y-115700000D01*
X140850000Y-115800000D02*
X140850000Y-115800000D01*
D15*
X145820000Y-118367000D02*
X145820000Y-119167000D01*
X145820000Y-122167000D02*
X145820000Y-123350000D01*
X145820000Y-123350000D02*
X136880000Y-123350000D01*
D16*
X140850000Y-115700000D02*
G75*
G02*
X140850000Y-115800000I0J-50000D01*
G01*
X140850000Y-115800000D02*
G75*
G02*
X140850000Y-115700000I0J50000D01*
G01*
D17*
%TO.C,D3*%
X69330000Y-104010000D02*
X69330000Y-109450000D01*
X69330000Y-108430000D02*
X72270000Y-108430000D01*
X69330000Y-108550000D02*
X72270000Y-108550000D01*
X69330000Y-108670000D02*
X72270000Y-108670000D01*
X69330000Y-109450000D02*
X72270000Y-109450000D01*
X70800000Y-102990000D02*
X70800000Y-104010000D01*
X70800000Y-110470000D02*
X70800000Y-109450000D01*
X72270000Y-104010000D02*
X69330000Y-104010000D01*
X72270000Y-109450000D02*
X72270000Y-104010000D01*
D19*
%TO.C,TH1*%
X105516400Y-54424400D02*
X104703600Y-54424400D01*
X105516400Y-57675600D02*
X104703600Y-57675600D01*
X103103105Y-55765411D02*
G75*
G02*
X104703600Y-54424400I1600495J-284589D01*
G01*
X104703600Y-57675600D02*
G75*
G02*
X103103105Y-56334589I0J1625600D01*
G01*
X105516399Y-54424400D02*
G75*
G02*
X107116895Y-55765410I1J-1625600D01*
G01*
X107116895Y-56334589D02*
G75*
G02*
X105516400Y-57675600I-1600495J284589D01*
G01*
D18*
%TO.C,BT6*%
X84265000Y-87805000D02*
X84265000Y-96335000D01*
X84265000Y-96335000D02*
X87685000Y-96335000D01*
X87685000Y-82750000D02*
X87685000Y-87805000D01*
X87685000Y-87805000D02*
X84265000Y-87805000D01*
X87685000Y-96335000D02*
X87685000Y-101390000D01*
X87685000Y-101390000D02*
X97215000Y-101390000D01*
X97215000Y-82750000D02*
X87685000Y-82750000D01*
X97215000Y-101390000D02*
X97215000Y-82750000D01*
D17*
%TO.C,J4*%
X87950000Y-118750000D02*
X89000000Y-118750000D01*
X87950000Y-119900000D02*
X87950000Y-118750000D01*
X93000000Y-121870000D02*
X89120000Y-121870000D01*
X93120000Y-118750000D02*
X93120000Y-117760000D01*
X94170000Y-118750000D02*
X93120000Y-118750000D01*
X94170000Y-119900000D02*
X94170000Y-118750000D01*
%TD*%
M02*
