%TF.GenerationSoftware,KiCad,Pcbnew,8.0.8*%
%TF.CreationDate,2025-04-11T18:11:03+01:00*%
%TF.ProjectId,Robot_BMS,526f626f-745f-4424-9d53-2e6b69636164,rev?*%
%TF.SameCoordinates,Original*%
%TF.FileFunction,Legend,Bot*%
%TF.FilePolarity,Positive*%
%FSLAX46Y46*%
G04 Gerber Fmt 4.6, Leading zero omitted, Abs format (unit mm)*
G04 Created by KiCad (PCBNEW 8.0.8) date 2025-04-11 18:11:03*
%MOMM*%
%LPD*%
G01*
G04 APERTURE LIST*
%ADD10C,0.150000*%
%ADD11C,0.250000*%
%ADD12C,0.254000*%
%ADD13C,0.152400*%
%ADD14C,0.127000*%
%ADD15C,0.200000*%
%ADD16C,0.120000*%
%ADD17C,0.100000*%
G04 APERTURE END LIST*
D10*
X81853220Y-69979819D02*
X81853220Y-68979819D01*
X81281792Y-69979819D02*
X81710363Y-69408390D01*
X81281792Y-68979819D02*
X81853220Y-69551247D01*
X124373220Y-47529819D02*
X124373220Y-46529819D01*
X123897030Y-46863152D02*
X123897030Y-47529819D01*
X123897030Y-46958390D02*
X123849411Y-46910771D01*
X123849411Y-46910771D02*
X123754173Y-46863152D01*
X123754173Y-46863152D02*
X123611316Y-46863152D01*
X123611316Y-46863152D02*
X123516078Y-46910771D01*
X123516078Y-46910771D02*
X123468459Y-47006009D01*
X123468459Y-47006009D02*
X123468459Y-47529819D01*
X121658935Y-47434580D02*
X121706554Y-47482200D01*
X121706554Y-47482200D02*
X121849411Y-47529819D01*
X121849411Y-47529819D02*
X121944649Y-47529819D01*
X121944649Y-47529819D02*
X122087506Y-47482200D01*
X122087506Y-47482200D02*
X122182744Y-47386961D01*
X122182744Y-47386961D02*
X122230363Y-47291723D01*
X122230363Y-47291723D02*
X122277982Y-47101247D01*
X122277982Y-47101247D02*
X122277982Y-46958390D01*
X122277982Y-46958390D02*
X122230363Y-46767914D01*
X122230363Y-46767914D02*
X122182744Y-46672676D01*
X122182744Y-46672676D02*
X122087506Y-46577438D01*
X122087506Y-46577438D02*
X121944649Y-46529819D01*
X121944649Y-46529819D02*
X121849411Y-46529819D01*
X121849411Y-46529819D02*
X121706554Y-46577438D01*
X121706554Y-46577438D02*
X121658935Y-46625057D01*
X120849411Y-47482200D02*
X120944649Y-47529819D01*
X120944649Y-47529819D02*
X121135125Y-47529819D01*
X121135125Y-47529819D02*
X121230363Y-47482200D01*
X121230363Y-47482200D02*
X121277982Y-47386961D01*
X121277982Y-47386961D02*
X121277982Y-47006009D01*
X121277982Y-47006009D02*
X121230363Y-46910771D01*
X121230363Y-46910771D02*
X121135125Y-46863152D01*
X121135125Y-46863152D02*
X120944649Y-46863152D01*
X120944649Y-46863152D02*
X120849411Y-46910771D01*
X120849411Y-46910771D02*
X120801792Y-47006009D01*
X120801792Y-47006009D02*
X120801792Y-47101247D01*
X120801792Y-47101247D02*
X121277982Y-47196485D01*
X120373220Y-46863152D02*
X120373220Y-47529819D01*
X120373220Y-46958390D02*
X120325601Y-46910771D01*
X120325601Y-46910771D02*
X120230363Y-46863152D01*
X120230363Y-46863152D02*
X120087506Y-46863152D01*
X120087506Y-46863152D02*
X119992268Y-46910771D01*
X119992268Y-46910771D02*
X119944649Y-47006009D01*
X119944649Y-47006009D02*
X119944649Y-47529819D01*
X119611315Y-46863152D02*
X119230363Y-46863152D01*
X119468458Y-46529819D02*
X119468458Y-47386961D01*
X119468458Y-47386961D02*
X119420839Y-47482200D01*
X119420839Y-47482200D02*
X119325601Y-47529819D01*
X119325601Y-47529819D02*
X119230363Y-47529819D01*
X118897029Y-47529819D02*
X118897029Y-46863152D01*
X118897029Y-47053628D02*
X118849410Y-46958390D01*
X118849410Y-46958390D02*
X118801791Y-46910771D01*
X118801791Y-46910771D02*
X118706553Y-46863152D01*
X118706553Y-46863152D02*
X118611315Y-46863152D01*
X117897029Y-47482200D02*
X117992267Y-47529819D01*
X117992267Y-47529819D02*
X118182743Y-47529819D01*
X118182743Y-47529819D02*
X118277981Y-47482200D01*
X118277981Y-47482200D02*
X118325600Y-47386961D01*
X118325600Y-47386961D02*
X118325600Y-47006009D01*
X118325600Y-47006009D02*
X118277981Y-46910771D01*
X118277981Y-46910771D02*
X118182743Y-46863152D01*
X118182743Y-46863152D02*
X117992267Y-46863152D01*
X117992267Y-46863152D02*
X117897029Y-46910771D01*
X117897029Y-46910771D02*
X117849410Y-47006009D01*
X117849410Y-47006009D02*
X117849410Y-47101247D01*
X117849410Y-47101247D02*
X118325600Y-47196485D01*
X71211904Y-86664819D02*
X71211904Y-87474342D01*
X71211904Y-87474342D02*
X71164285Y-87569580D01*
X71164285Y-87569580D02*
X71116666Y-87617200D01*
X71116666Y-87617200D02*
X71021428Y-87664819D01*
X71021428Y-87664819D02*
X70830952Y-87664819D01*
X70830952Y-87664819D02*
X70735714Y-87617200D01*
X70735714Y-87617200D02*
X70688095Y-87569580D01*
X70688095Y-87569580D02*
X70640476Y-87474342D01*
X70640476Y-87474342D02*
X70640476Y-86664819D01*
X70259523Y-86664819D02*
X69640476Y-86664819D01*
X69640476Y-86664819D02*
X69973809Y-87045771D01*
X69973809Y-87045771D02*
X69830952Y-87045771D01*
X69830952Y-87045771D02*
X69735714Y-87093390D01*
X69735714Y-87093390D02*
X69688095Y-87141009D01*
X69688095Y-87141009D02*
X69640476Y-87236247D01*
X69640476Y-87236247D02*
X69640476Y-87474342D01*
X69640476Y-87474342D02*
X69688095Y-87569580D01*
X69688095Y-87569580D02*
X69735714Y-87617200D01*
X69735714Y-87617200D02*
X69830952Y-87664819D01*
X69830952Y-87664819D02*
X70116666Y-87664819D01*
X70116666Y-87664819D02*
X70211904Y-87617200D01*
X70211904Y-87617200D02*
X70259523Y-87569580D01*
X71804819Y-99318095D02*
X72614342Y-99318095D01*
X72614342Y-99318095D02*
X72709580Y-99365714D01*
X72709580Y-99365714D02*
X72757200Y-99413333D01*
X72757200Y-99413333D02*
X72804819Y-99508571D01*
X72804819Y-99508571D02*
X72804819Y-99699047D01*
X72804819Y-99699047D02*
X72757200Y-99794285D01*
X72757200Y-99794285D02*
X72709580Y-99841904D01*
X72709580Y-99841904D02*
X72614342Y-99889523D01*
X72614342Y-99889523D02*
X71804819Y-99889523D01*
X71900057Y-100318095D02*
X71852438Y-100365714D01*
X71852438Y-100365714D02*
X71804819Y-100460952D01*
X71804819Y-100460952D02*
X71804819Y-100699047D01*
X71804819Y-100699047D02*
X71852438Y-100794285D01*
X71852438Y-100794285D02*
X71900057Y-100841904D01*
X71900057Y-100841904D02*
X71995295Y-100889523D01*
X71995295Y-100889523D02*
X72090533Y-100889523D01*
X72090533Y-100889523D02*
X72233390Y-100841904D01*
X72233390Y-100841904D02*
X72804819Y-100270476D01*
X72804819Y-100270476D02*
X72804819Y-100889523D01*
X110676666Y-46009580D02*
X110724285Y-46057200D01*
X110724285Y-46057200D02*
X110867142Y-46104819D01*
X110867142Y-46104819D02*
X110962380Y-46104819D01*
X110962380Y-46104819D02*
X111105237Y-46057200D01*
X111105237Y-46057200D02*
X111200475Y-45961961D01*
X111200475Y-45961961D02*
X111248094Y-45866723D01*
X111248094Y-45866723D02*
X111295713Y-45676247D01*
X111295713Y-45676247D02*
X111295713Y-45533390D01*
X111295713Y-45533390D02*
X111248094Y-45342914D01*
X111248094Y-45342914D02*
X111200475Y-45247676D01*
X111200475Y-45247676D02*
X111105237Y-45152438D01*
X111105237Y-45152438D02*
X110962380Y-45104819D01*
X110962380Y-45104819D02*
X110867142Y-45104819D01*
X110867142Y-45104819D02*
X110724285Y-45152438D01*
X110724285Y-45152438D02*
X110676666Y-45200057D01*
X109676666Y-46104819D02*
X110009999Y-45628628D01*
X110248094Y-46104819D02*
X110248094Y-45104819D01*
X110248094Y-45104819D02*
X109867142Y-45104819D01*
X109867142Y-45104819D02*
X109771904Y-45152438D01*
X109771904Y-45152438D02*
X109724285Y-45200057D01*
X109724285Y-45200057D02*
X109676666Y-45295295D01*
X109676666Y-45295295D02*
X109676666Y-45438152D01*
X109676666Y-45438152D02*
X109724285Y-45533390D01*
X109724285Y-45533390D02*
X109771904Y-45581009D01*
X109771904Y-45581009D02*
X109867142Y-45628628D01*
X109867142Y-45628628D02*
X110248094Y-45628628D01*
X108724285Y-46104819D02*
X109295713Y-46104819D01*
X109009999Y-46104819D02*
X109009999Y-45104819D01*
X109009999Y-45104819D02*
X109105237Y-45247676D01*
X109105237Y-45247676D02*
X109200475Y-45342914D01*
X109200475Y-45342914D02*
X109295713Y-45390533D01*
X113360000Y-44495180D02*
X113360000Y-44257085D01*
X113121905Y-44352323D02*
X113360000Y-44257085D01*
X113360000Y-44257085D02*
X113598095Y-44352323D01*
X113217143Y-44066609D02*
X113360000Y-44257085D01*
X113360000Y-44257085D02*
X113502857Y-44066609D01*
X76626666Y-65989580D02*
X76674285Y-66037200D01*
X76674285Y-66037200D02*
X76817142Y-66084819D01*
X76817142Y-66084819D02*
X76912380Y-66084819D01*
X76912380Y-66084819D02*
X77055237Y-66037200D01*
X77055237Y-66037200D02*
X77150475Y-65941961D01*
X77150475Y-65941961D02*
X77198094Y-65846723D01*
X77198094Y-65846723D02*
X77245713Y-65656247D01*
X77245713Y-65656247D02*
X77245713Y-65513390D01*
X77245713Y-65513390D02*
X77198094Y-65322914D01*
X77198094Y-65322914D02*
X77150475Y-65227676D01*
X77150475Y-65227676D02*
X77055237Y-65132438D01*
X77055237Y-65132438D02*
X76912380Y-65084819D01*
X76912380Y-65084819D02*
X76817142Y-65084819D01*
X76817142Y-65084819D02*
X76674285Y-65132438D01*
X76674285Y-65132438D02*
X76626666Y-65180057D01*
X75626666Y-66084819D02*
X75959999Y-65608628D01*
X76198094Y-66084819D02*
X76198094Y-65084819D01*
X76198094Y-65084819D02*
X75817142Y-65084819D01*
X75817142Y-65084819D02*
X75721904Y-65132438D01*
X75721904Y-65132438D02*
X75674285Y-65180057D01*
X75674285Y-65180057D02*
X75626666Y-65275295D01*
X75626666Y-65275295D02*
X75626666Y-65418152D01*
X75626666Y-65418152D02*
X75674285Y-65513390D01*
X75674285Y-65513390D02*
X75721904Y-65561009D01*
X75721904Y-65561009D02*
X75817142Y-65608628D01*
X75817142Y-65608628D02*
X76198094Y-65608628D01*
X75293332Y-65084819D02*
X74674285Y-65084819D01*
X74674285Y-65084819D02*
X75007618Y-65465771D01*
X75007618Y-65465771D02*
X74864761Y-65465771D01*
X74864761Y-65465771D02*
X74769523Y-65513390D01*
X74769523Y-65513390D02*
X74721904Y-65561009D01*
X74721904Y-65561009D02*
X74674285Y-65656247D01*
X74674285Y-65656247D02*
X74674285Y-65894342D01*
X74674285Y-65894342D02*
X74721904Y-65989580D01*
X74721904Y-65989580D02*
X74769523Y-66037200D01*
X74769523Y-66037200D02*
X74864761Y-66084819D01*
X74864761Y-66084819D02*
X75150475Y-66084819D01*
X75150475Y-66084819D02*
X75245713Y-66037200D01*
X75245713Y-66037200D02*
X75293332Y-65989580D01*
X81245180Y-62429999D02*
X81007085Y-62429999D01*
X81102323Y-62668094D02*
X81007085Y-62429999D01*
X81007085Y-62429999D02*
X81102323Y-62191904D01*
X80816609Y-62572856D02*
X81007085Y-62429999D01*
X81007085Y-62429999D02*
X80816609Y-62287142D01*
X141142856Y-105264819D02*
X141142856Y-104264819D01*
X141142856Y-104264819D02*
X140571428Y-105264819D01*
X140571428Y-105264819D02*
X140571428Y-104264819D01*
X140238094Y-104264819D02*
X139666666Y-104264819D01*
X139952380Y-105264819D02*
X139952380Y-104264819D01*
X138761904Y-105169580D02*
X138809523Y-105217200D01*
X138809523Y-105217200D02*
X138952380Y-105264819D01*
X138952380Y-105264819D02*
X139047618Y-105264819D01*
X139047618Y-105264819D02*
X139190475Y-105217200D01*
X139190475Y-105217200D02*
X139285713Y-105121961D01*
X139285713Y-105121961D02*
X139333332Y-105026723D01*
X139333332Y-105026723D02*
X139380951Y-104836247D01*
X139380951Y-104836247D02*
X139380951Y-104693390D01*
X139380951Y-104693390D02*
X139333332Y-104502914D01*
X139333332Y-104502914D02*
X139285713Y-104407676D01*
X139285713Y-104407676D02*
X139190475Y-104312438D01*
X139190475Y-104312438D02*
X139047618Y-104264819D01*
X139047618Y-104264819D02*
X138952380Y-104264819D01*
X138952380Y-104264819D02*
X138809523Y-104312438D01*
X138809523Y-104312438D02*
X138761904Y-104360057D01*
X137809523Y-105264819D02*
X138380951Y-105264819D01*
X138095237Y-105264819D02*
X138095237Y-104264819D01*
X138095237Y-104264819D02*
X138190475Y-104407676D01*
X138190475Y-104407676D02*
X138285713Y-104502914D01*
X138285713Y-104502914D02*
X138380951Y-104550533D01*
X164596666Y-99059580D02*
X164644285Y-99107200D01*
X164644285Y-99107200D02*
X164787142Y-99154819D01*
X164787142Y-99154819D02*
X164882380Y-99154819D01*
X164882380Y-99154819D02*
X165025237Y-99107200D01*
X165025237Y-99107200D02*
X165120475Y-99011961D01*
X165120475Y-99011961D02*
X165168094Y-98916723D01*
X165168094Y-98916723D02*
X165215713Y-98726247D01*
X165215713Y-98726247D02*
X165215713Y-98583390D01*
X165215713Y-98583390D02*
X165168094Y-98392914D01*
X165168094Y-98392914D02*
X165120475Y-98297676D01*
X165120475Y-98297676D02*
X165025237Y-98202438D01*
X165025237Y-98202438D02*
X164882380Y-98154819D01*
X164882380Y-98154819D02*
X164787142Y-98154819D01*
X164787142Y-98154819D02*
X164644285Y-98202438D01*
X164644285Y-98202438D02*
X164596666Y-98250057D01*
X163596666Y-99154819D02*
X163929999Y-98678628D01*
X164168094Y-99154819D02*
X164168094Y-98154819D01*
X164168094Y-98154819D02*
X163787142Y-98154819D01*
X163787142Y-98154819D02*
X163691904Y-98202438D01*
X163691904Y-98202438D02*
X163644285Y-98250057D01*
X163644285Y-98250057D02*
X163596666Y-98345295D01*
X163596666Y-98345295D02*
X163596666Y-98488152D01*
X163596666Y-98488152D02*
X163644285Y-98583390D01*
X163644285Y-98583390D02*
X163691904Y-98631009D01*
X163691904Y-98631009D02*
X163787142Y-98678628D01*
X163787142Y-98678628D02*
X164168094Y-98678628D01*
X162739523Y-98488152D02*
X162739523Y-99154819D01*
X162977618Y-98107200D02*
X163215713Y-98821485D01*
X163215713Y-98821485D02*
X162596666Y-98821485D01*
X161225180Y-102419999D02*
X160987085Y-102419999D01*
X161082323Y-102658094D02*
X160987085Y-102419999D01*
X160987085Y-102419999D02*
X161082323Y-102181904D01*
X160796609Y-102562856D02*
X160987085Y-102419999D01*
X160987085Y-102419999D02*
X160796609Y-102277142D01*
X74234285Y-91759580D02*
X74272381Y-91807200D01*
X74272381Y-91807200D02*
X74386666Y-91854819D01*
X74386666Y-91854819D02*
X74462857Y-91854819D01*
X74462857Y-91854819D02*
X74577143Y-91807200D01*
X74577143Y-91807200D02*
X74653333Y-91711961D01*
X74653333Y-91711961D02*
X74691428Y-91616723D01*
X74691428Y-91616723D02*
X74729524Y-91426247D01*
X74729524Y-91426247D02*
X74729524Y-91283390D01*
X74729524Y-91283390D02*
X74691428Y-91092914D01*
X74691428Y-91092914D02*
X74653333Y-90997676D01*
X74653333Y-90997676D02*
X74577143Y-90902438D01*
X74577143Y-90902438D02*
X74462857Y-90854819D01*
X74462857Y-90854819D02*
X74386666Y-90854819D01*
X74386666Y-90854819D02*
X74272381Y-90902438D01*
X74272381Y-90902438D02*
X74234285Y-90950057D01*
X73929524Y-90950057D02*
X73891428Y-90902438D01*
X73891428Y-90902438D02*
X73815238Y-90854819D01*
X73815238Y-90854819D02*
X73624762Y-90854819D01*
X73624762Y-90854819D02*
X73548571Y-90902438D01*
X73548571Y-90902438D02*
X73510476Y-90950057D01*
X73510476Y-90950057D02*
X73472381Y-91045295D01*
X73472381Y-91045295D02*
X73472381Y-91140533D01*
X73472381Y-91140533D02*
X73510476Y-91283390D01*
X73510476Y-91283390D02*
X73967619Y-91854819D01*
X73967619Y-91854819D02*
X73472381Y-91854819D01*
X73205714Y-90854819D02*
X72710476Y-90854819D01*
X72710476Y-90854819D02*
X72977142Y-91235771D01*
X72977142Y-91235771D02*
X72862857Y-91235771D01*
X72862857Y-91235771D02*
X72786666Y-91283390D01*
X72786666Y-91283390D02*
X72748571Y-91331009D01*
X72748571Y-91331009D02*
X72710476Y-91426247D01*
X72710476Y-91426247D02*
X72710476Y-91664342D01*
X72710476Y-91664342D02*
X72748571Y-91759580D01*
X72748571Y-91759580D02*
X72786666Y-91807200D01*
X72786666Y-91807200D02*
X72862857Y-91854819D01*
X72862857Y-91854819D02*
X73091428Y-91854819D01*
X73091428Y-91854819D02*
X73167619Y-91807200D01*
X73167619Y-91807200D02*
X73205714Y-91759580D01*
X105320419Y-96656666D02*
X105272800Y-96704285D01*
X105272800Y-96704285D02*
X105225180Y-96847142D01*
X105225180Y-96847142D02*
X105225180Y-96942380D01*
X105225180Y-96942380D02*
X105272800Y-97085237D01*
X105272800Y-97085237D02*
X105368038Y-97180475D01*
X105368038Y-97180475D02*
X105463276Y-97228094D01*
X105463276Y-97228094D02*
X105653752Y-97275713D01*
X105653752Y-97275713D02*
X105796609Y-97275713D01*
X105796609Y-97275713D02*
X105987085Y-97228094D01*
X105987085Y-97228094D02*
X106082323Y-97180475D01*
X106082323Y-97180475D02*
X106177561Y-97085237D01*
X106177561Y-97085237D02*
X106225180Y-96942380D01*
X106225180Y-96942380D02*
X106225180Y-96847142D01*
X106225180Y-96847142D02*
X106177561Y-96704285D01*
X106177561Y-96704285D02*
X106129942Y-96656666D01*
X105225180Y-95656666D02*
X105701371Y-95989999D01*
X105225180Y-96228094D02*
X106225180Y-96228094D01*
X106225180Y-96228094D02*
X106225180Y-95847142D01*
X106225180Y-95847142D02*
X106177561Y-95751904D01*
X106177561Y-95751904D02*
X106129942Y-95704285D01*
X106129942Y-95704285D02*
X106034704Y-95656666D01*
X106034704Y-95656666D02*
X105891847Y-95656666D01*
X105891847Y-95656666D02*
X105796609Y-95704285D01*
X105796609Y-95704285D02*
X105748990Y-95751904D01*
X105748990Y-95751904D02*
X105701371Y-95847142D01*
X105701371Y-95847142D02*
X105701371Y-96228094D01*
X106129942Y-95275713D02*
X106177561Y-95228094D01*
X106177561Y-95228094D02*
X106225180Y-95132856D01*
X106225180Y-95132856D02*
X106225180Y-94894761D01*
X106225180Y-94894761D02*
X106177561Y-94799523D01*
X106177561Y-94799523D02*
X106129942Y-94751904D01*
X106129942Y-94751904D02*
X106034704Y-94704285D01*
X106034704Y-94704285D02*
X105939466Y-94704285D01*
X105939466Y-94704285D02*
X105796609Y-94751904D01*
X105796609Y-94751904D02*
X105225180Y-95323332D01*
X105225180Y-95323332D02*
X105225180Y-94704285D01*
X108485180Y-99299999D02*
X108247085Y-99299999D01*
X108342323Y-99538094D02*
X108247085Y-99299999D01*
X108247085Y-99299999D02*
X108342323Y-99061904D01*
X108056609Y-99442856D02*
X108247085Y-99299999D01*
X108247085Y-99299999D02*
X108056609Y-99157142D01*
X124833333Y-49981009D02*
X125166666Y-49981009D01*
X125166666Y-50504819D02*
X125166666Y-49504819D01*
X125166666Y-49504819D02*
X124690476Y-49504819D01*
X123785714Y-50504819D02*
X124357142Y-50504819D01*
X124071428Y-50504819D02*
X124071428Y-49504819D01*
X124071428Y-49504819D02*
X124166666Y-49647676D01*
X124166666Y-49647676D02*
X124261904Y-49742914D01*
X124261904Y-49742914D02*
X124357142Y-49790533D01*
X119040000Y-56495180D02*
X119040000Y-56257085D01*
X118801905Y-56352323D02*
X119040000Y-56257085D01*
X119040000Y-56257085D02*
X119278095Y-56352323D01*
X118897143Y-56066609D02*
X119040000Y-56257085D01*
X119040000Y-56257085D02*
X119182857Y-56066609D01*
D11*
X122216189Y-45919619D02*
X122216189Y-44919619D01*
X121168571Y-45824380D02*
X121216190Y-45872000D01*
X121216190Y-45872000D02*
X121359047Y-45919619D01*
X121359047Y-45919619D02*
X121454285Y-45919619D01*
X121454285Y-45919619D02*
X121597142Y-45872000D01*
X121597142Y-45872000D02*
X121692380Y-45776761D01*
X121692380Y-45776761D02*
X121739999Y-45681523D01*
X121739999Y-45681523D02*
X121787618Y-45491047D01*
X121787618Y-45491047D02*
X121787618Y-45348190D01*
X121787618Y-45348190D02*
X121739999Y-45157714D01*
X121739999Y-45157714D02*
X121692380Y-45062476D01*
X121692380Y-45062476D02*
X121597142Y-44967238D01*
X121597142Y-44967238D02*
X121454285Y-44919619D01*
X121454285Y-44919619D02*
X121359047Y-44919619D01*
X121359047Y-44919619D02*
X121216190Y-44967238D01*
X121216190Y-44967238D02*
X121168571Y-45014857D01*
X120787618Y-45014857D02*
X120739999Y-44967238D01*
X120739999Y-44967238D02*
X120644761Y-44919619D01*
X120644761Y-44919619D02*
X120406666Y-44919619D01*
X120406666Y-44919619D02*
X120311428Y-44967238D01*
X120311428Y-44967238D02*
X120263809Y-45014857D01*
X120263809Y-45014857D02*
X120216190Y-45110095D01*
X120216190Y-45110095D02*
X120216190Y-45205333D01*
X120216190Y-45205333D02*
X120263809Y-45348190D01*
X120263809Y-45348190D02*
X120835237Y-45919619D01*
X120835237Y-45919619D02*
X120216190Y-45919619D01*
D10*
X168822857Y-105744819D02*
X169156190Y-105268628D01*
X169394285Y-105744819D02*
X169394285Y-104744819D01*
X169394285Y-104744819D02*
X169013333Y-104744819D01*
X169013333Y-104744819D02*
X168918095Y-104792438D01*
X168918095Y-104792438D02*
X168870476Y-104840057D01*
X168870476Y-104840057D02*
X168822857Y-104935295D01*
X168822857Y-104935295D02*
X168822857Y-105078152D01*
X168822857Y-105078152D02*
X168870476Y-105173390D01*
X168870476Y-105173390D02*
X168918095Y-105221009D01*
X168918095Y-105221009D02*
X169013333Y-105268628D01*
X169013333Y-105268628D02*
X169394285Y-105268628D01*
X168441904Y-104840057D02*
X168394285Y-104792438D01*
X168394285Y-104792438D02*
X168299047Y-104744819D01*
X168299047Y-104744819D02*
X168060952Y-104744819D01*
X168060952Y-104744819D02*
X167965714Y-104792438D01*
X167965714Y-104792438D02*
X167918095Y-104840057D01*
X167918095Y-104840057D02*
X167870476Y-104935295D01*
X167870476Y-104935295D02*
X167870476Y-105030533D01*
X167870476Y-105030533D02*
X167918095Y-105173390D01*
X167918095Y-105173390D02*
X168489523Y-105744819D01*
X168489523Y-105744819D02*
X167870476Y-105744819D01*
X167537142Y-104744819D02*
X166870476Y-104744819D01*
X166870476Y-104744819D02*
X167299047Y-105744819D01*
X144882857Y-105744819D02*
X145216190Y-105268628D01*
X145454285Y-105744819D02*
X145454285Y-104744819D01*
X145454285Y-104744819D02*
X145073333Y-104744819D01*
X145073333Y-104744819D02*
X144978095Y-104792438D01*
X144978095Y-104792438D02*
X144930476Y-104840057D01*
X144930476Y-104840057D02*
X144882857Y-104935295D01*
X144882857Y-104935295D02*
X144882857Y-105078152D01*
X144882857Y-105078152D02*
X144930476Y-105173390D01*
X144930476Y-105173390D02*
X144978095Y-105221009D01*
X144978095Y-105221009D02*
X145073333Y-105268628D01*
X145073333Y-105268628D02*
X145454285Y-105268628D01*
X143930476Y-105744819D02*
X144501904Y-105744819D01*
X144216190Y-105744819D02*
X144216190Y-104744819D01*
X144216190Y-104744819D02*
X144311428Y-104887676D01*
X144311428Y-104887676D02*
X144406666Y-104982914D01*
X144406666Y-104982914D02*
X144501904Y-105030533D01*
X142978095Y-105744819D02*
X143549523Y-105744819D01*
X143263809Y-105744819D02*
X143263809Y-104744819D01*
X143263809Y-104744819D02*
X143359047Y-104887676D01*
X143359047Y-104887676D02*
X143454285Y-104982914D01*
X143454285Y-104982914D02*
X143549523Y-105030533D01*
X124862963Y-60056174D02*
X125435382Y-59955159D01*
X125267024Y-60460235D02*
X125974130Y-59753128D01*
X125974130Y-59753128D02*
X125704756Y-59483754D01*
X125704756Y-59483754D02*
X125603741Y-59450082D01*
X125603741Y-59450082D02*
X125536398Y-59450082D01*
X125536398Y-59450082D02*
X125435382Y-59483754D01*
X125435382Y-59483754D02*
X125334367Y-59584769D01*
X125334367Y-59584769D02*
X125300695Y-59685785D01*
X125300695Y-59685785D02*
X125300695Y-59753128D01*
X125300695Y-59753128D02*
X125334367Y-59854143D01*
X125334367Y-59854143D02*
X125603741Y-60123517D01*
X125233352Y-59147037D02*
X125233352Y-59079693D01*
X125233352Y-59079693D02*
X125199680Y-58978678D01*
X125199680Y-58978678D02*
X125031321Y-58810319D01*
X125031321Y-58810319D02*
X124930306Y-58776647D01*
X124930306Y-58776647D02*
X124862963Y-58776647D01*
X124862963Y-58776647D02*
X124761947Y-58810319D01*
X124761947Y-58810319D02*
X124694604Y-58877663D01*
X124694604Y-58877663D02*
X124627260Y-59012350D01*
X124627260Y-59012350D02*
X124627260Y-59820472D01*
X124627260Y-59820472D02*
X124189528Y-59382739D01*
X124290543Y-58069540D02*
X124425230Y-58204227D01*
X124425230Y-58204227D02*
X124458901Y-58305243D01*
X124458901Y-58305243D02*
X124458901Y-58372586D01*
X124458901Y-58372586D02*
X124425230Y-58540945D01*
X124425230Y-58540945D02*
X124324214Y-58709304D01*
X124324214Y-58709304D02*
X124054840Y-58978678D01*
X124054840Y-58978678D02*
X123953825Y-59012349D01*
X123953825Y-59012349D02*
X123886482Y-59012349D01*
X123886482Y-59012349D02*
X123785466Y-58978678D01*
X123785466Y-58978678D02*
X123650779Y-58843991D01*
X123650779Y-58843991D02*
X123617108Y-58742975D01*
X123617108Y-58742975D02*
X123617108Y-58675632D01*
X123617108Y-58675632D02*
X123650779Y-58574617D01*
X123650779Y-58574617D02*
X123819138Y-58406258D01*
X123819138Y-58406258D02*
X123920153Y-58372586D01*
X123920153Y-58372586D02*
X123987497Y-58372586D01*
X123987497Y-58372586D02*
X124088512Y-58406258D01*
X124088512Y-58406258D02*
X124223199Y-58540945D01*
X124223199Y-58540945D02*
X124256871Y-58641960D01*
X124256871Y-58641960D02*
X124256871Y-58709304D01*
X124256871Y-58709304D02*
X124223199Y-58810319D01*
X124172857Y-103144819D02*
X124506190Y-102668628D01*
X124744285Y-103144819D02*
X124744285Y-102144819D01*
X124744285Y-102144819D02*
X124363333Y-102144819D01*
X124363333Y-102144819D02*
X124268095Y-102192438D01*
X124268095Y-102192438D02*
X124220476Y-102240057D01*
X124220476Y-102240057D02*
X124172857Y-102335295D01*
X124172857Y-102335295D02*
X124172857Y-102478152D01*
X124172857Y-102478152D02*
X124220476Y-102573390D01*
X124220476Y-102573390D02*
X124268095Y-102621009D01*
X124268095Y-102621009D02*
X124363333Y-102668628D01*
X124363333Y-102668628D02*
X124744285Y-102668628D01*
X123220476Y-103144819D02*
X123791904Y-103144819D01*
X123506190Y-103144819D02*
X123506190Y-102144819D01*
X123506190Y-102144819D02*
X123601428Y-102287676D01*
X123601428Y-102287676D02*
X123696666Y-102382914D01*
X123696666Y-102382914D02*
X123791904Y-102430533D01*
X122363333Y-102478152D02*
X122363333Y-103144819D01*
X122601428Y-102097200D02*
X122839523Y-102811485D01*
X122839523Y-102811485D02*
X122220476Y-102811485D01*
X121122857Y-64179580D02*
X121170476Y-64227200D01*
X121170476Y-64227200D02*
X121313333Y-64274819D01*
X121313333Y-64274819D02*
X121408571Y-64274819D01*
X121408571Y-64274819D02*
X121551428Y-64227200D01*
X121551428Y-64227200D02*
X121646666Y-64131961D01*
X121646666Y-64131961D02*
X121694285Y-64036723D01*
X121694285Y-64036723D02*
X121741904Y-63846247D01*
X121741904Y-63846247D02*
X121741904Y-63703390D01*
X121741904Y-63703390D02*
X121694285Y-63512914D01*
X121694285Y-63512914D02*
X121646666Y-63417676D01*
X121646666Y-63417676D02*
X121551428Y-63322438D01*
X121551428Y-63322438D02*
X121408571Y-63274819D01*
X121408571Y-63274819D02*
X121313333Y-63274819D01*
X121313333Y-63274819D02*
X121170476Y-63322438D01*
X121170476Y-63322438D02*
X121122857Y-63370057D01*
X120170476Y-64274819D02*
X120741904Y-64274819D01*
X120456190Y-64274819D02*
X120456190Y-63274819D01*
X120456190Y-63274819D02*
X120551428Y-63417676D01*
X120551428Y-63417676D02*
X120646666Y-63512914D01*
X120646666Y-63512914D02*
X120741904Y-63560533D01*
X119265714Y-63274819D02*
X119741904Y-63274819D01*
X119741904Y-63274819D02*
X119789523Y-63751009D01*
X119789523Y-63751009D02*
X119741904Y-63703390D01*
X119741904Y-63703390D02*
X119646666Y-63655771D01*
X119646666Y-63655771D02*
X119408571Y-63655771D01*
X119408571Y-63655771D02*
X119313333Y-63703390D01*
X119313333Y-63703390D02*
X119265714Y-63751009D01*
X119265714Y-63751009D02*
X119218095Y-63846247D01*
X119218095Y-63846247D02*
X119218095Y-64084342D01*
X119218095Y-64084342D02*
X119265714Y-64179580D01*
X119265714Y-64179580D02*
X119313333Y-64227200D01*
X119313333Y-64227200D02*
X119408571Y-64274819D01*
X119408571Y-64274819D02*
X119646666Y-64274819D01*
X119646666Y-64274819D02*
X119741904Y-64227200D01*
X119741904Y-64227200D02*
X119789523Y-64179580D01*
X67405180Y-99914285D02*
X67881371Y-100180952D01*
X67405180Y-100371428D02*
X68405180Y-100371428D01*
X68405180Y-100371428D02*
X68405180Y-100066666D01*
X68405180Y-100066666D02*
X68357561Y-99990476D01*
X68357561Y-99990476D02*
X68309942Y-99952381D01*
X68309942Y-99952381D02*
X68214704Y-99914285D01*
X68214704Y-99914285D02*
X68071847Y-99914285D01*
X68071847Y-99914285D02*
X67976609Y-99952381D01*
X67976609Y-99952381D02*
X67928990Y-99990476D01*
X67928990Y-99990476D02*
X67881371Y-100066666D01*
X67881371Y-100066666D02*
X67881371Y-100371428D01*
X68309942Y-99609524D02*
X68357561Y-99571428D01*
X68357561Y-99571428D02*
X68405180Y-99495238D01*
X68405180Y-99495238D02*
X68405180Y-99304762D01*
X68405180Y-99304762D02*
X68357561Y-99228571D01*
X68357561Y-99228571D02*
X68309942Y-99190476D01*
X68309942Y-99190476D02*
X68214704Y-99152381D01*
X68214704Y-99152381D02*
X68119466Y-99152381D01*
X68119466Y-99152381D02*
X67976609Y-99190476D01*
X67976609Y-99190476D02*
X67405180Y-99647619D01*
X67405180Y-99647619D02*
X67405180Y-99152381D01*
X67976609Y-98695238D02*
X68024228Y-98771428D01*
X68024228Y-98771428D02*
X68071847Y-98809523D01*
X68071847Y-98809523D02*
X68167085Y-98847619D01*
X68167085Y-98847619D02*
X68214704Y-98847619D01*
X68214704Y-98847619D02*
X68309942Y-98809523D01*
X68309942Y-98809523D02*
X68357561Y-98771428D01*
X68357561Y-98771428D02*
X68405180Y-98695238D01*
X68405180Y-98695238D02*
X68405180Y-98542857D01*
X68405180Y-98542857D02*
X68357561Y-98466666D01*
X68357561Y-98466666D02*
X68309942Y-98428571D01*
X68309942Y-98428571D02*
X68214704Y-98390476D01*
X68214704Y-98390476D02*
X68167085Y-98390476D01*
X68167085Y-98390476D02*
X68071847Y-98428571D01*
X68071847Y-98428571D02*
X68024228Y-98466666D01*
X68024228Y-98466666D02*
X67976609Y-98542857D01*
X67976609Y-98542857D02*
X67976609Y-98695238D01*
X67976609Y-98695238D02*
X67928990Y-98771428D01*
X67928990Y-98771428D02*
X67881371Y-98809523D01*
X67881371Y-98809523D02*
X67786133Y-98847619D01*
X67786133Y-98847619D02*
X67595657Y-98847619D01*
X67595657Y-98847619D02*
X67500419Y-98809523D01*
X67500419Y-98809523D02*
X67452800Y-98771428D01*
X67452800Y-98771428D02*
X67405180Y-98695238D01*
X67405180Y-98695238D02*
X67405180Y-98542857D01*
X67405180Y-98542857D02*
X67452800Y-98466666D01*
X67452800Y-98466666D02*
X67500419Y-98428571D01*
X67500419Y-98428571D02*
X67595657Y-98390476D01*
X67595657Y-98390476D02*
X67786133Y-98390476D01*
X67786133Y-98390476D02*
X67881371Y-98428571D01*
X67881371Y-98428571D02*
X67928990Y-98466666D01*
X67928990Y-98466666D02*
X67976609Y-98542857D01*
D12*
X130281666Y-94424318D02*
X130705000Y-93819556D01*
X131007381Y-94424318D02*
X131007381Y-93154318D01*
X131007381Y-93154318D02*
X130523571Y-93154318D01*
X130523571Y-93154318D02*
X130402619Y-93214794D01*
X130402619Y-93214794D02*
X130342142Y-93275270D01*
X130342142Y-93275270D02*
X130281666Y-93396222D01*
X130281666Y-93396222D02*
X130281666Y-93577651D01*
X130281666Y-93577651D02*
X130342142Y-93698603D01*
X130342142Y-93698603D02*
X130402619Y-93759080D01*
X130402619Y-93759080D02*
X130523571Y-93819556D01*
X130523571Y-93819556D02*
X131007381Y-93819556D01*
X129858333Y-93154318D02*
X129011666Y-93154318D01*
X129011666Y-93154318D02*
X129555952Y-94424318D01*
D10*
X129528830Y-71289693D02*
X129596174Y-71289693D01*
X129596174Y-71289693D02*
X129730861Y-71222349D01*
X129730861Y-71222349D02*
X129798204Y-71155006D01*
X129798204Y-71155006D02*
X129865548Y-71020319D01*
X129865548Y-71020319D02*
X129865548Y-70885632D01*
X129865548Y-70885632D02*
X129831876Y-70784617D01*
X129831876Y-70784617D02*
X129730861Y-70616258D01*
X129730861Y-70616258D02*
X129629846Y-70515243D01*
X129629846Y-70515243D02*
X129461487Y-70414227D01*
X129461487Y-70414227D02*
X129360472Y-70380556D01*
X129360472Y-70380556D02*
X129225785Y-70380556D01*
X129225785Y-70380556D02*
X129091098Y-70447899D01*
X129091098Y-70447899D02*
X129023754Y-70515243D01*
X129023754Y-70515243D02*
X128956411Y-70649930D01*
X128956411Y-70649930D02*
X128956411Y-70717273D01*
X128922739Y-72030471D02*
X129326800Y-71626410D01*
X129124769Y-71828441D02*
X128417663Y-71121334D01*
X128417663Y-71121334D02*
X128586021Y-71155006D01*
X128586021Y-71155006D02*
X128720708Y-71155006D01*
X128720708Y-71155006D02*
X128821724Y-71121334D01*
X128013601Y-71660082D02*
X127946258Y-71660082D01*
X127946258Y-71660082D02*
X127845243Y-71693754D01*
X127845243Y-71693754D02*
X127676884Y-71862113D01*
X127676884Y-71862113D02*
X127643212Y-71963128D01*
X127643212Y-71963128D02*
X127643212Y-72030472D01*
X127643212Y-72030472D02*
X127676884Y-72131487D01*
X127676884Y-72131487D02*
X127744227Y-72198830D01*
X127744227Y-72198830D02*
X127878914Y-72266174D01*
X127878914Y-72266174D02*
X128687036Y-72266174D01*
X128687036Y-72266174D02*
X128249304Y-72703907D01*
X103946666Y-90324819D02*
X104279999Y-89848628D01*
X104518094Y-90324819D02*
X104518094Y-89324819D01*
X104518094Y-89324819D02*
X104137142Y-89324819D01*
X104137142Y-89324819D02*
X104041904Y-89372438D01*
X104041904Y-89372438D02*
X103994285Y-89420057D01*
X103994285Y-89420057D02*
X103946666Y-89515295D01*
X103946666Y-89515295D02*
X103946666Y-89658152D01*
X103946666Y-89658152D02*
X103994285Y-89753390D01*
X103994285Y-89753390D02*
X104041904Y-89801009D01*
X104041904Y-89801009D02*
X104137142Y-89848628D01*
X104137142Y-89848628D02*
X104518094Y-89848628D01*
X103565713Y-89420057D02*
X103518094Y-89372438D01*
X103518094Y-89372438D02*
X103422856Y-89324819D01*
X103422856Y-89324819D02*
X103184761Y-89324819D01*
X103184761Y-89324819D02*
X103089523Y-89372438D01*
X103089523Y-89372438D02*
X103041904Y-89420057D01*
X103041904Y-89420057D02*
X102994285Y-89515295D01*
X102994285Y-89515295D02*
X102994285Y-89610533D01*
X102994285Y-89610533D02*
X103041904Y-89753390D01*
X103041904Y-89753390D02*
X103613332Y-90324819D01*
X103613332Y-90324819D02*
X102994285Y-90324819D01*
D12*
X108081666Y-24574318D02*
X108686428Y-24574318D01*
X108686428Y-24574318D02*
X108686428Y-23304318D01*
X106993094Y-24574318D02*
X107718809Y-24574318D01*
X107355952Y-24574318D02*
X107355952Y-23304318D01*
X107355952Y-23304318D02*
X107476904Y-23485746D01*
X107476904Y-23485746D02*
X107597856Y-23606699D01*
X107597856Y-23606699D02*
X107718809Y-23667175D01*
D10*
X128222857Y-70224819D02*
X128556190Y-69748628D01*
X128794285Y-70224819D02*
X128794285Y-69224819D01*
X128794285Y-69224819D02*
X128413333Y-69224819D01*
X128413333Y-69224819D02*
X128318095Y-69272438D01*
X128318095Y-69272438D02*
X128270476Y-69320057D01*
X128270476Y-69320057D02*
X128222857Y-69415295D01*
X128222857Y-69415295D02*
X128222857Y-69558152D01*
X128222857Y-69558152D02*
X128270476Y-69653390D01*
X128270476Y-69653390D02*
X128318095Y-69701009D01*
X128318095Y-69701009D02*
X128413333Y-69748628D01*
X128413333Y-69748628D02*
X128794285Y-69748628D01*
X127270476Y-70224819D02*
X127841904Y-70224819D01*
X127556190Y-70224819D02*
X127556190Y-69224819D01*
X127556190Y-69224819D02*
X127651428Y-69367676D01*
X127651428Y-69367676D02*
X127746666Y-69462914D01*
X127746666Y-69462914D02*
X127841904Y-69510533D01*
X126365714Y-69224819D02*
X126841904Y-69224819D01*
X126841904Y-69224819D02*
X126889523Y-69701009D01*
X126889523Y-69701009D02*
X126841904Y-69653390D01*
X126841904Y-69653390D02*
X126746666Y-69605771D01*
X126746666Y-69605771D02*
X126508571Y-69605771D01*
X126508571Y-69605771D02*
X126413333Y-69653390D01*
X126413333Y-69653390D02*
X126365714Y-69701009D01*
X126365714Y-69701009D02*
X126318095Y-69796247D01*
X126318095Y-69796247D02*
X126318095Y-70034342D01*
X126318095Y-70034342D02*
X126365714Y-70129580D01*
X126365714Y-70129580D02*
X126413333Y-70177200D01*
X126413333Y-70177200D02*
X126508571Y-70224819D01*
X126508571Y-70224819D02*
X126746666Y-70224819D01*
X126746666Y-70224819D02*
X126841904Y-70177200D01*
X126841904Y-70177200D02*
X126889523Y-70129580D01*
X140166666Y-106529580D02*
X140214285Y-106577200D01*
X140214285Y-106577200D02*
X140357142Y-106624819D01*
X140357142Y-106624819D02*
X140452380Y-106624819D01*
X140452380Y-106624819D02*
X140595237Y-106577200D01*
X140595237Y-106577200D02*
X140690475Y-106481961D01*
X140690475Y-106481961D02*
X140738094Y-106386723D01*
X140738094Y-106386723D02*
X140785713Y-106196247D01*
X140785713Y-106196247D02*
X140785713Y-106053390D01*
X140785713Y-106053390D02*
X140738094Y-105862914D01*
X140738094Y-105862914D02*
X140690475Y-105767676D01*
X140690475Y-105767676D02*
X140595237Y-105672438D01*
X140595237Y-105672438D02*
X140452380Y-105624819D01*
X140452380Y-105624819D02*
X140357142Y-105624819D01*
X140357142Y-105624819D02*
X140214285Y-105672438D01*
X140214285Y-105672438D02*
X140166666Y-105720057D01*
X139833332Y-105624819D02*
X139166666Y-105624819D01*
X139166666Y-105624819D02*
X139595237Y-106624819D01*
D12*
X145501666Y-110633365D02*
X145562142Y-110693842D01*
X145562142Y-110693842D02*
X145743571Y-110754318D01*
X145743571Y-110754318D02*
X145864523Y-110754318D01*
X145864523Y-110754318D02*
X146045952Y-110693842D01*
X146045952Y-110693842D02*
X146166904Y-110572889D01*
X146166904Y-110572889D02*
X146227381Y-110451937D01*
X146227381Y-110451937D02*
X146287857Y-110210032D01*
X146287857Y-110210032D02*
X146287857Y-110028603D01*
X146287857Y-110028603D02*
X146227381Y-109786699D01*
X146227381Y-109786699D02*
X146166904Y-109665746D01*
X146166904Y-109665746D02*
X146045952Y-109544794D01*
X146045952Y-109544794D02*
X145864523Y-109484318D01*
X145864523Y-109484318D02*
X145743571Y-109484318D01*
X145743571Y-109484318D02*
X145562142Y-109544794D01*
X145562142Y-109544794D02*
X145501666Y-109605270D01*
X144413095Y-109907651D02*
X144413095Y-110754318D01*
X144715476Y-109423842D02*
X145017857Y-110330984D01*
X145017857Y-110330984D02*
X144231666Y-110330984D01*
D10*
X125415238Y-90940057D02*
X125510476Y-90892438D01*
X125510476Y-90892438D02*
X125605714Y-90797200D01*
X125605714Y-90797200D02*
X125748571Y-90654342D01*
X125748571Y-90654342D02*
X125843809Y-90606723D01*
X125843809Y-90606723D02*
X125939047Y-90606723D01*
X125891428Y-90844819D02*
X125986666Y-90797200D01*
X125986666Y-90797200D02*
X126081904Y-90701961D01*
X126081904Y-90701961D02*
X126129523Y-90511485D01*
X126129523Y-90511485D02*
X126129523Y-90178152D01*
X126129523Y-90178152D02*
X126081904Y-89987676D01*
X126081904Y-89987676D02*
X125986666Y-89892438D01*
X125986666Y-89892438D02*
X125891428Y-89844819D01*
X125891428Y-89844819D02*
X125700952Y-89844819D01*
X125700952Y-89844819D02*
X125605714Y-89892438D01*
X125605714Y-89892438D02*
X125510476Y-89987676D01*
X125510476Y-89987676D02*
X125462857Y-90178152D01*
X125462857Y-90178152D02*
X125462857Y-90511485D01*
X125462857Y-90511485D02*
X125510476Y-90701961D01*
X125510476Y-90701961D02*
X125605714Y-90797200D01*
X125605714Y-90797200D02*
X125700952Y-90844819D01*
X125700952Y-90844819D02*
X125891428Y-90844819D01*
X125081904Y-89940057D02*
X125034285Y-89892438D01*
X125034285Y-89892438D02*
X124939047Y-89844819D01*
X124939047Y-89844819D02*
X124700952Y-89844819D01*
X124700952Y-89844819D02*
X124605714Y-89892438D01*
X124605714Y-89892438D02*
X124558095Y-89940057D01*
X124558095Y-89940057D02*
X124510476Y-90035295D01*
X124510476Y-90035295D02*
X124510476Y-90130533D01*
X124510476Y-90130533D02*
X124558095Y-90273390D01*
X124558095Y-90273390D02*
X125129523Y-90844819D01*
X125129523Y-90844819D02*
X124510476Y-90844819D01*
X106336666Y-89534819D02*
X106669999Y-89058628D01*
X106908094Y-89534819D02*
X106908094Y-88534819D01*
X106908094Y-88534819D02*
X106527142Y-88534819D01*
X106527142Y-88534819D02*
X106431904Y-88582438D01*
X106431904Y-88582438D02*
X106384285Y-88630057D01*
X106384285Y-88630057D02*
X106336666Y-88725295D01*
X106336666Y-88725295D02*
X106336666Y-88868152D01*
X106336666Y-88868152D02*
X106384285Y-88963390D01*
X106384285Y-88963390D02*
X106431904Y-89011009D01*
X106431904Y-89011009D02*
X106527142Y-89058628D01*
X106527142Y-89058628D02*
X106908094Y-89058628D01*
X105384285Y-89534819D02*
X105955713Y-89534819D01*
X105669999Y-89534819D02*
X105669999Y-88534819D01*
X105669999Y-88534819D02*
X105765237Y-88677676D01*
X105765237Y-88677676D02*
X105860475Y-88772914D01*
X105860475Y-88772914D02*
X105955713Y-88820533D01*
X150962857Y-105744819D02*
X151296190Y-105268628D01*
X151534285Y-105744819D02*
X151534285Y-104744819D01*
X151534285Y-104744819D02*
X151153333Y-104744819D01*
X151153333Y-104744819D02*
X151058095Y-104792438D01*
X151058095Y-104792438D02*
X151010476Y-104840057D01*
X151010476Y-104840057D02*
X150962857Y-104935295D01*
X150962857Y-104935295D02*
X150962857Y-105078152D01*
X150962857Y-105078152D02*
X151010476Y-105173390D01*
X151010476Y-105173390D02*
X151058095Y-105221009D01*
X151058095Y-105221009D02*
X151153333Y-105268628D01*
X151153333Y-105268628D02*
X151534285Y-105268628D01*
X150010476Y-105744819D02*
X150581904Y-105744819D01*
X150296190Y-105744819D02*
X150296190Y-104744819D01*
X150296190Y-104744819D02*
X150391428Y-104887676D01*
X150391428Y-104887676D02*
X150486666Y-104982914D01*
X150486666Y-104982914D02*
X150581904Y-105030533D01*
X149677142Y-104744819D02*
X149058095Y-104744819D01*
X149058095Y-104744819D02*
X149391428Y-105125771D01*
X149391428Y-105125771D02*
X149248571Y-105125771D01*
X149248571Y-105125771D02*
X149153333Y-105173390D01*
X149153333Y-105173390D02*
X149105714Y-105221009D01*
X149105714Y-105221009D02*
X149058095Y-105316247D01*
X149058095Y-105316247D02*
X149058095Y-105554342D01*
X149058095Y-105554342D02*
X149105714Y-105649580D01*
X149105714Y-105649580D02*
X149153333Y-105697200D01*
X149153333Y-105697200D02*
X149248571Y-105744819D01*
X149248571Y-105744819D02*
X149534285Y-105744819D01*
X149534285Y-105744819D02*
X149629523Y-105697200D01*
X149629523Y-105697200D02*
X149677142Y-105649580D01*
X123287917Y-74060607D02*
X123348526Y-74067341D01*
X123348526Y-74067341D02*
X123463010Y-74020200D01*
X123463010Y-74020200D02*
X123516885Y-73966326D01*
X123516885Y-73966326D02*
X123564025Y-73851842D01*
X123564025Y-73851842D02*
X123550556Y-73730623D01*
X123550556Y-73730623D02*
X123510150Y-73636342D01*
X123510150Y-73636342D02*
X123402401Y-73474718D01*
X123402401Y-73474718D02*
X123301385Y-73373703D01*
X123301385Y-73373703D02*
X123139761Y-73265953D01*
X123139761Y-73265953D02*
X123045480Y-73225547D01*
X123045480Y-73225547D02*
X122924262Y-73212078D01*
X122924262Y-73212078D02*
X122809778Y-73259219D01*
X122809778Y-73259219D02*
X122755903Y-73313094D01*
X122755903Y-73313094D02*
X122708763Y-73427578D01*
X122708763Y-73427578D02*
X122715497Y-73488187D01*
X122816512Y-74666698D02*
X123139761Y-74343449D01*
X122978137Y-74505074D02*
X122271030Y-73797967D01*
X122271030Y-73797967D02*
X122425920Y-73845107D01*
X122425920Y-73845107D02*
X122547138Y-73858576D01*
X122547138Y-73858576D02*
X122634685Y-73838373D01*
X121920843Y-74148153D02*
X121543720Y-74525277D01*
X121543720Y-74525277D02*
X122493263Y-74989947D01*
X130952963Y-64266174D02*
X131525382Y-64165159D01*
X131357024Y-64670235D02*
X132064130Y-63963128D01*
X132064130Y-63963128D02*
X131794756Y-63693754D01*
X131794756Y-63693754D02*
X131693741Y-63660082D01*
X131693741Y-63660082D02*
X131626398Y-63660082D01*
X131626398Y-63660082D02*
X131525382Y-63693754D01*
X131525382Y-63693754D02*
X131424367Y-63794769D01*
X131424367Y-63794769D02*
X131390695Y-63895785D01*
X131390695Y-63895785D02*
X131390695Y-63963128D01*
X131390695Y-63963128D02*
X131424367Y-64064143D01*
X131424367Y-64064143D02*
X131693741Y-64333517D01*
X130279528Y-63592739D02*
X130683589Y-63996800D01*
X130481558Y-63794769D02*
X131188665Y-63087663D01*
X131188665Y-63087663D02*
X131154993Y-63256021D01*
X131154993Y-63256021D02*
X131154993Y-63390708D01*
X131154993Y-63390708D02*
X131188665Y-63491724D01*
X130380543Y-62279540D02*
X130515230Y-62414227D01*
X130515230Y-62414227D02*
X130548901Y-62515243D01*
X130548901Y-62515243D02*
X130548901Y-62582586D01*
X130548901Y-62582586D02*
X130515230Y-62750945D01*
X130515230Y-62750945D02*
X130414214Y-62919304D01*
X130414214Y-62919304D02*
X130144840Y-63188678D01*
X130144840Y-63188678D02*
X130043825Y-63222349D01*
X130043825Y-63222349D02*
X129976482Y-63222349D01*
X129976482Y-63222349D02*
X129875466Y-63188678D01*
X129875466Y-63188678D02*
X129740779Y-63053991D01*
X129740779Y-63053991D02*
X129707108Y-62952975D01*
X129707108Y-62952975D02*
X129707108Y-62885632D01*
X129707108Y-62885632D02*
X129740779Y-62784617D01*
X129740779Y-62784617D02*
X129909138Y-62616258D01*
X129909138Y-62616258D02*
X130010153Y-62582586D01*
X130010153Y-62582586D02*
X130077497Y-62582586D01*
X130077497Y-62582586D02*
X130178512Y-62616258D01*
X130178512Y-62616258D02*
X130313199Y-62750945D01*
X130313199Y-62750945D02*
X130346871Y-62851960D01*
X130346871Y-62851960D02*
X130346871Y-62919304D01*
X130346871Y-62919304D02*
X130313199Y-63020319D01*
D12*
X70286428Y-78193365D02*
X70346904Y-78253842D01*
X70346904Y-78253842D02*
X70528333Y-78314318D01*
X70528333Y-78314318D02*
X70649285Y-78314318D01*
X70649285Y-78314318D02*
X70830714Y-78253842D01*
X70830714Y-78253842D02*
X70951666Y-78132889D01*
X70951666Y-78132889D02*
X71012143Y-78011937D01*
X71012143Y-78011937D02*
X71072619Y-77770032D01*
X71072619Y-77770032D02*
X71072619Y-77588603D01*
X71072619Y-77588603D02*
X71012143Y-77346699D01*
X71012143Y-77346699D02*
X70951666Y-77225746D01*
X70951666Y-77225746D02*
X70830714Y-77104794D01*
X70830714Y-77104794D02*
X70649285Y-77044318D01*
X70649285Y-77044318D02*
X70528333Y-77044318D01*
X70528333Y-77044318D02*
X70346904Y-77104794D01*
X70346904Y-77104794D02*
X70286428Y-77165270D01*
X69802619Y-77165270D02*
X69742143Y-77104794D01*
X69742143Y-77104794D02*
X69621190Y-77044318D01*
X69621190Y-77044318D02*
X69318809Y-77044318D01*
X69318809Y-77044318D02*
X69197857Y-77104794D01*
X69197857Y-77104794D02*
X69137381Y-77165270D01*
X69137381Y-77165270D02*
X69076904Y-77286222D01*
X69076904Y-77286222D02*
X69076904Y-77407175D01*
X69076904Y-77407175D02*
X69137381Y-77588603D01*
X69137381Y-77588603D02*
X69863095Y-78314318D01*
X69863095Y-78314318D02*
X69076904Y-78314318D01*
X68653571Y-77044318D02*
X67806904Y-77044318D01*
X67806904Y-77044318D02*
X68351190Y-78314318D01*
D10*
X125492963Y-64286174D02*
X126065382Y-64185159D01*
X125897024Y-64690235D02*
X126604130Y-63983128D01*
X126604130Y-63983128D02*
X126334756Y-63713754D01*
X126334756Y-63713754D02*
X126233741Y-63680082D01*
X126233741Y-63680082D02*
X126166398Y-63680082D01*
X126166398Y-63680082D02*
X126065382Y-63713754D01*
X126065382Y-63713754D02*
X125964367Y-63814769D01*
X125964367Y-63814769D02*
X125930695Y-63915785D01*
X125930695Y-63915785D02*
X125930695Y-63983128D01*
X125930695Y-63983128D02*
X125964367Y-64084143D01*
X125964367Y-64084143D02*
X126233741Y-64353517D01*
X124819528Y-63612739D02*
X125223589Y-64016800D01*
X125021558Y-63814769D02*
X125728665Y-63107663D01*
X125728665Y-63107663D02*
X125694993Y-63276021D01*
X125694993Y-63276021D02*
X125694993Y-63410708D01*
X125694993Y-63410708D02*
X125728665Y-63511724D01*
X124819527Y-62804617D02*
X124920543Y-62838288D01*
X124920543Y-62838288D02*
X124987886Y-62838288D01*
X124987886Y-62838288D02*
X125088901Y-62804617D01*
X125088901Y-62804617D02*
X125122573Y-62770945D01*
X125122573Y-62770945D02*
X125156245Y-62669930D01*
X125156245Y-62669930D02*
X125156245Y-62602586D01*
X125156245Y-62602586D02*
X125122573Y-62501571D01*
X125122573Y-62501571D02*
X124987886Y-62366884D01*
X124987886Y-62366884D02*
X124886871Y-62333212D01*
X124886871Y-62333212D02*
X124819527Y-62333212D01*
X124819527Y-62333212D02*
X124718512Y-62366884D01*
X124718512Y-62366884D02*
X124684840Y-62400556D01*
X124684840Y-62400556D02*
X124651169Y-62501571D01*
X124651169Y-62501571D02*
X124651169Y-62568914D01*
X124651169Y-62568914D02*
X124684840Y-62669930D01*
X124684840Y-62669930D02*
X124819527Y-62804617D01*
X124819527Y-62804617D02*
X124853199Y-62905632D01*
X124853199Y-62905632D02*
X124853199Y-62972975D01*
X124853199Y-62972975D02*
X124819527Y-63073991D01*
X124819527Y-63073991D02*
X124684840Y-63208678D01*
X124684840Y-63208678D02*
X124583825Y-63242349D01*
X124583825Y-63242349D02*
X124516482Y-63242349D01*
X124516482Y-63242349D02*
X124415466Y-63208678D01*
X124415466Y-63208678D02*
X124280779Y-63073991D01*
X124280779Y-63073991D02*
X124247108Y-62972975D01*
X124247108Y-62972975D02*
X124247108Y-62905632D01*
X124247108Y-62905632D02*
X124280779Y-62804617D01*
X124280779Y-62804617D02*
X124415466Y-62669930D01*
X124415466Y-62669930D02*
X124516482Y-62636258D01*
X124516482Y-62636258D02*
X124583825Y-62636258D01*
X124583825Y-62636258D02*
X124684840Y-62669930D01*
X123820306Y-69428830D02*
X123820306Y-69496174D01*
X123820306Y-69496174D02*
X123887650Y-69630861D01*
X123887650Y-69630861D02*
X123954993Y-69698204D01*
X123954993Y-69698204D02*
X124089680Y-69765548D01*
X124089680Y-69765548D02*
X124224367Y-69765548D01*
X124224367Y-69765548D02*
X124325382Y-69731876D01*
X124325382Y-69731876D02*
X124493741Y-69630861D01*
X124493741Y-69630861D02*
X124594756Y-69529846D01*
X124594756Y-69529846D02*
X124695772Y-69361487D01*
X124695772Y-69361487D02*
X124729443Y-69260472D01*
X124729443Y-69260472D02*
X124729443Y-69125785D01*
X124729443Y-69125785D02*
X124662100Y-68991098D01*
X124662100Y-68991098D02*
X124594756Y-68923754D01*
X124594756Y-68923754D02*
X124460069Y-68856411D01*
X124460069Y-68856411D02*
X124392726Y-68856411D01*
X123079528Y-68822739D02*
X123483589Y-69226800D01*
X123281558Y-69024769D02*
X123988665Y-68317663D01*
X123988665Y-68317663D02*
X123954993Y-68486021D01*
X123954993Y-68486021D02*
X123954993Y-68620708D01*
X123954993Y-68620708D02*
X123988665Y-68721724D01*
X123550932Y-67879930D02*
X123113199Y-67442197D01*
X123113199Y-67442197D02*
X123079527Y-67947273D01*
X123079527Y-67947273D02*
X122978512Y-67846258D01*
X122978512Y-67846258D02*
X122877497Y-67812586D01*
X122877497Y-67812586D02*
X122810153Y-67812586D01*
X122810153Y-67812586D02*
X122709138Y-67846258D01*
X122709138Y-67846258D02*
X122540779Y-68014617D01*
X122540779Y-68014617D02*
X122507108Y-68115632D01*
X122507108Y-68115632D02*
X122507108Y-68182975D01*
X122507108Y-68182975D02*
X122540779Y-68283991D01*
X122540779Y-68283991D02*
X122742810Y-68486021D01*
X122742810Y-68486021D02*
X122843825Y-68519693D01*
X122843825Y-68519693D02*
X122911169Y-68519693D01*
X96461904Y-27394819D02*
X96461904Y-28204342D01*
X96461904Y-28204342D02*
X96414285Y-28299580D01*
X96414285Y-28299580D02*
X96366666Y-28347200D01*
X96366666Y-28347200D02*
X96271428Y-28394819D01*
X96271428Y-28394819D02*
X96080952Y-28394819D01*
X96080952Y-28394819D02*
X95985714Y-28347200D01*
X95985714Y-28347200D02*
X95938095Y-28299580D01*
X95938095Y-28299580D02*
X95890476Y-28204342D01*
X95890476Y-28204342D02*
X95890476Y-27394819D01*
X94890476Y-28394819D02*
X95461904Y-28394819D01*
X95176190Y-28394819D02*
X95176190Y-27394819D01*
X95176190Y-27394819D02*
X95271428Y-27537676D01*
X95271428Y-27537676D02*
X95366666Y-27632914D01*
X95366666Y-27632914D02*
X95461904Y-27680533D01*
D12*
X142359762Y-98394318D02*
X142359762Y-97124318D01*
X141029285Y-98273365D02*
X141089761Y-98333842D01*
X141089761Y-98333842D02*
X141271190Y-98394318D01*
X141271190Y-98394318D02*
X141392142Y-98394318D01*
X141392142Y-98394318D02*
X141573571Y-98333842D01*
X141573571Y-98333842D02*
X141694523Y-98212889D01*
X141694523Y-98212889D02*
X141755000Y-98091937D01*
X141755000Y-98091937D02*
X141815476Y-97850032D01*
X141815476Y-97850032D02*
X141815476Y-97668603D01*
X141815476Y-97668603D02*
X141755000Y-97426699D01*
X141755000Y-97426699D02*
X141694523Y-97305746D01*
X141694523Y-97305746D02*
X141573571Y-97184794D01*
X141573571Y-97184794D02*
X141392142Y-97124318D01*
X141392142Y-97124318D02*
X141271190Y-97124318D01*
X141271190Y-97124318D02*
X141089761Y-97184794D01*
X141089761Y-97184794D02*
X141029285Y-97245270D01*
X139819761Y-98394318D02*
X140545476Y-98394318D01*
X140182619Y-98394318D02*
X140182619Y-97124318D01*
X140182619Y-97124318D02*
X140303571Y-97305746D01*
X140303571Y-97305746D02*
X140424523Y-97426699D01*
X140424523Y-97426699D02*
X140545476Y-97487175D01*
D10*
X130346666Y-99684819D02*
X130679999Y-99208628D01*
X130918094Y-99684819D02*
X130918094Y-98684819D01*
X130918094Y-98684819D02*
X130537142Y-98684819D01*
X130537142Y-98684819D02*
X130441904Y-98732438D01*
X130441904Y-98732438D02*
X130394285Y-98780057D01*
X130394285Y-98780057D02*
X130346666Y-98875295D01*
X130346666Y-98875295D02*
X130346666Y-99018152D01*
X130346666Y-99018152D02*
X130394285Y-99113390D01*
X130394285Y-99113390D02*
X130441904Y-99161009D01*
X130441904Y-99161009D02*
X130537142Y-99208628D01*
X130537142Y-99208628D02*
X130918094Y-99208628D01*
X129775237Y-99113390D02*
X129870475Y-99065771D01*
X129870475Y-99065771D02*
X129918094Y-99018152D01*
X129918094Y-99018152D02*
X129965713Y-98922914D01*
X129965713Y-98922914D02*
X129965713Y-98875295D01*
X129965713Y-98875295D02*
X129918094Y-98780057D01*
X129918094Y-98780057D02*
X129870475Y-98732438D01*
X129870475Y-98732438D02*
X129775237Y-98684819D01*
X129775237Y-98684819D02*
X129584761Y-98684819D01*
X129584761Y-98684819D02*
X129489523Y-98732438D01*
X129489523Y-98732438D02*
X129441904Y-98780057D01*
X129441904Y-98780057D02*
X129394285Y-98875295D01*
X129394285Y-98875295D02*
X129394285Y-98922914D01*
X129394285Y-98922914D02*
X129441904Y-99018152D01*
X129441904Y-99018152D02*
X129489523Y-99065771D01*
X129489523Y-99065771D02*
X129584761Y-99113390D01*
X129584761Y-99113390D02*
X129775237Y-99113390D01*
X129775237Y-99113390D02*
X129870475Y-99161009D01*
X129870475Y-99161009D02*
X129918094Y-99208628D01*
X129918094Y-99208628D02*
X129965713Y-99303866D01*
X129965713Y-99303866D02*
X129965713Y-99494342D01*
X129965713Y-99494342D02*
X129918094Y-99589580D01*
X129918094Y-99589580D02*
X129870475Y-99637200D01*
X129870475Y-99637200D02*
X129775237Y-99684819D01*
X129775237Y-99684819D02*
X129584761Y-99684819D01*
X129584761Y-99684819D02*
X129489523Y-99637200D01*
X129489523Y-99637200D02*
X129441904Y-99589580D01*
X129441904Y-99589580D02*
X129394285Y-99494342D01*
X129394285Y-99494342D02*
X129394285Y-99303866D01*
X129394285Y-99303866D02*
X129441904Y-99208628D01*
X129441904Y-99208628D02*
X129489523Y-99161009D01*
X129489523Y-99161009D02*
X129584761Y-99113390D01*
X123966174Y-84057036D02*
X123865159Y-83484617D01*
X124370235Y-83652975D02*
X123663128Y-82945869D01*
X123663128Y-82945869D02*
X123393754Y-83215243D01*
X123393754Y-83215243D02*
X123360082Y-83316258D01*
X123360082Y-83316258D02*
X123360082Y-83383601D01*
X123360082Y-83383601D02*
X123393754Y-83484617D01*
X123393754Y-83484617D02*
X123494769Y-83585632D01*
X123494769Y-83585632D02*
X123595785Y-83619304D01*
X123595785Y-83619304D02*
X123663128Y-83619304D01*
X123663128Y-83619304D02*
X123764143Y-83585632D01*
X123764143Y-83585632D02*
X124033517Y-83316258D01*
X123057037Y-83686647D02*
X122989693Y-83686647D01*
X122989693Y-83686647D02*
X122888678Y-83720319D01*
X122888678Y-83720319D02*
X122720319Y-83888678D01*
X122720319Y-83888678D02*
X122686647Y-83989693D01*
X122686647Y-83989693D02*
X122686647Y-84057036D01*
X122686647Y-84057036D02*
X122720319Y-84158052D01*
X122720319Y-84158052D02*
X122787663Y-84225395D01*
X122787663Y-84225395D02*
X122922350Y-84292739D01*
X122922350Y-84292739D02*
X123730472Y-84292739D01*
X123730472Y-84292739D02*
X123292739Y-84730471D01*
X122619304Y-85403907D02*
X123023365Y-84999846D01*
X122821334Y-85201876D02*
X122114227Y-84494769D01*
X122114227Y-84494769D02*
X122282586Y-84528441D01*
X122282586Y-84528441D02*
X122417273Y-84528441D01*
X122417273Y-84528441D02*
X122518288Y-84494769D01*
X98836666Y-41014819D02*
X99169999Y-40538628D01*
X99408094Y-41014819D02*
X99408094Y-40014819D01*
X99408094Y-40014819D02*
X99027142Y-40014819D01*
X99027142Y-40014819D02*
X98931904Y-40062438D01*
X98931904Y-40062438D02*
X98884285Y-40110057D01*
X98884285Y-40110057D02*
X98836666Y-40205295D01*
X98836666Y-40205295D02*
X98836666Y-40348152D01*
X98836666Y-40348152D02*
X98884285Y-40443390D01*
X98884285Y-40443390D02*
X98931904Y-40491009D01*
X98931904Y-40491009D02*
X99027142Y-40538628D01*
X99027142Y-40538628D02*
X99408094Y-40538628D01*
X97931904Y-40014819D02*
X98408094Y-40014819D01*
X98408094Y-40014819D02*
X98455713Y-40491009D01*
X98455713Y-40491009D02*
X98408094Y-40443390D01*
X98408094Y-40443390D02*
X98312856Y-40395771D01*
X98312856Y-40395771D02*
X98074761Y-40395771D01*
X98074761Y-40395771D02*
X97979523Y-40443390D01*
X97979523Y-40443390D02*
X97931904Y-40491009D01*
X97931904Y-40491009D02*
X97884285Y-40586247D01*
X97884285Y-40586247D02*
X97884285Y-40824342D01*
X97884285Y-40824342D02*
X97931904Y-40919580D01*
X97931904Y-40919580D02*
X97979523Y-40967200D01*
X97979523Y-40967200D02*
X98074761Y-41014819D01*
X98074761Y-41014819D02*
X98312856Y-41014819D01*
X98312856Y-41014819D02*
X98408094Y-40967200D01*
X98408094Y-40967200D02*
X98455713Y-40919580D01*
X99742857Y-49569580D02*
X99790476Y-49617200D01*
X99790476Y-49617200D02*
X99933333Y-49664819D01*
X99933333Y-49664819D02*
X100028571Y-49664819D01*
X100028571Y-49664819D02*
X100171428Y-49617200D01*
X100171428Y-49617200D02*
X100266666Y-49521961D01*
X100266666Y-49521961D02*
X100314285Y-49426723D01*
X100314285Y-49426723D02*
X100361904Y-49236247D01*
X100361904Y-49236247D02*
X100361904Y-49093390D01*
X100361904Y-49093390D02*
X100314285Y-48902914D01*
X100314285Y-48902914D02*
X100266666Y-48807676D01*
X100266666Y-48807676D02*
X100171428Y-48712438D01*
X100171428Y-48712438D02*
X100028571Y-48664819D01*
X100028571Y-48664819D02*
X99933333Y-48664819D01*
X99933333Y-48664819D02*
X99790476Y-48712438D01*
X99790476Y-48712438D02*
X99742857Y-48760057D01*
X98790476Y-49664819D02*
X99361904Y-49664819D01*
X99076190Y-49664819D02*
X99076190Y-48664819D01*
X99076190Y-48664819D02*
X99171428Y-48807676D01*
X99171428Y-48807676D02*
X99266666Y-48902914D01*
X99266666Y-48902914D02*
X99361904Y-48950533D01*
X97838095Y-49664819D02*
X98409523Y-49664819D01*
X98123809Y-49664819D02*
X98123809Y-48664819D01*
X98123809Y-48664819D02*
X98219047Y-48807676D01*
X98219047Y-48807676D02*
X98314285Y-48902914D01*
X98314285Y-48902914D02*
X98409523Y-48950533D01*
X140496666Y-100739580D02*
X140544285Y-100787200D01*
X140544285Y-100787200D02*
X140687142Y-100834819D01*
X140687142Y-100834819D02*
X140782380Y-100834819D01*
X140782380Y-100834819D02*
X140925237Y-100787200D01*
X140925237Y-100787200D02*
X141020475Y-100691961D01*
X141020475Y-100691961D02*
X141068094Y-100596723D01*
X141068094Y-100596723D02*
X141115713Y-100406247D01*
X141115713Y-100406247D02*
X141115713Y-100263390D01*
X141115713Y-100263390D02*
X141068094Y-100072914D01*
X141068094Y-100072914D02*
X141020475Y-99977676D01*
X141020475Y-99977676D02*
X140925237Y-99882438D01*
X140925237Y-99882438D02*
X140782380Y-99834819D01*
X140782380Y-99834819D02*
X140687142Y-99834819D01*
X140687142Y-99834819D02*
X140544285Y-99882438D01*
X140544285Y-99882438D02*
X140496666Y-99930057D01*
X139591904Y-99834819D02*
X140068094Y-99834819D01*
X140068094Y-99834819D02*
X140115713Y-100311009D01*
X140115713Y-100311009D02*
X140068094Y-100263390D01*
X140068094Y-100263390D02*
X139972856Y-100215771D01*
X139972856Y-100215771D02*
X139734761Y-100215771D01*
X139734761Y-100215771D02*
X139639523Y-100263390D01*
X139639523Y-100263390D02*
X139591904Y-100311009D01*
X139591904Y-100311009D02*
X139544285Y-100406247D01*
X139544285Y-100406247D02*
X139544285Y-100644342D01*
X139544285Y-100644342D02*
X139591904Y-100739580D01*
X139591904Y-100739580D02*
X139639523Y-100787200D01*
X139639523Y-100787200D02*
X139734761Y-100834819D01*
X139734761Y-100834819D02*
X139972856Y-100834819D01*
X139972856Y-100834819D02*
X140068094Y-100787200D01*
X140068094Y-100787200D02*
X140115713Y-100739580D01*
X71152857Y-109819580D02*
X71200476Y-109867200D01*
X71200476Y-109867200D02*
X71343333Y-109914819D01*
X71343333Y-109914819D02*
X71438571Y-109914819D01*
X71438571Y-109914819D02*
X71581428Y-109867200D01*
X71581428Y-109867200D02*
X71676666Y-109771961D01*
X71676666Y-109771961D02*
X71724285Y-109676723D01*
X71724285Y-109676723D02*
X71771904Y-109486247D01*
X71771904Y-109486247D02*
X71771904Y-109343390D01*
X71771904Y-109343390D02*
X71724285Y-109152914D01*
X71724285Y-109152914D02*
X71676666Y-109057676D01*
X71676666Y-109057676D02*
X71581428Y-108962438D01*
X71581428Y-108962438D02*
X71438571Y-108914819D01*
X71438571Y-108914819D02*
X71343333Y-108914819D01*
X71343333Y-108914819D02*
X71200476Y-108962438D01*
X71200476Y-108962438D02*
X71152857Y-109010057D01*
X70771904Y-109010057D02*
X70724285Y-108962438D01*
X70724285Y-108962438D02*
X70629047Y-108914819D01*
X70629047Y-108914819D02*
X70390952Y-108914819D01*
X70390952Y-108914819D02*
X70295714Y-108962438D01*
X70295714Y-108962438D02*
X70248095Y-109010057D01*
X70248095Y-109010057D02*
X70200476Y-109105295D01*
X70200476Y-109105295D02*
X70200476Y-109200533D01*
X70200476Y-109200533D02*
X70248095Y-109343390D01*
X70248095Y-109343390D02*
X70819523Y-109914819D01*
X70819523Y-109914819D02*
X70200476Y-109914819D01*
X69248095Y-109914819D02*
X69819523Y-109914819D01*
X69533809Y-109914819D02*
X69533809Y-108914819D01*
X69533809Y-108914819D02*
X69629047Y-109057676D01*
X69629047Y-109057676D02*
X69724285Y-109152914D01*
X69724285Y-109152914D02*
X69819523Y-109200533D01*
X68794285Y-97564819D02*
X69060952Y-97088628D01*
X69251428Y-97564819D02*
X69251428Y-96564819D01*
X69251428Y-96564819D02*
X68946666Y-96564819D01*
X68946666Y-96564819D02*
X68870476Y-96612438D01*
X68870476Y-96612438D02*
X68832381Y-96660057D01*
X68832381Y-96660057D02*
X68794285Y-96755295D01*
X68794285Y-96755295D02*
X68794285Y-96898152D01*
X68794285Y-96898152D02*
X68832381Y-96993390D01*
X68832381Y-96993390D02*
X68870476Y-97041009D01*
X68870476Y-97041009D02*
X68946666Y-97088628D01*
X68946666Y-97088628D02*
X69251428Y-97088628D01*
X68527619Y-96564819D02*
X68032381Y-96564819D01*
X68032381Y-96564819D02*
X68299047Y-96945771D01*
X68299047Y-96945771D02*
X68184762Y-96945771D01*
X68184762Y-96945771D02*
X68108571Y-96993390D01*
X68108571Y-96993390D02*
X68070476Y-97041009D01*
X68070476Y-97041009D02*
X68032381Y-97136247D01*
X68032381Y-97136247D02*
X68032381Y-97374342D01*
X68032381Y-97374342D02*
X68070476Y-97469580D01*
X68070476Y-97469580D02*
X68108571Y-97517200D01*
X68108571Y-97517200D02*
X68184762Y-97564819D01*
X68184762Y-97564819D02*
X68413333Y-97564819D01*
X68413333Y-97564819D02*
X68489524Y-97517200D01*
X68489524Y-97517200D02*
X68527619Y-97469580D01*
X67727619Y-96660057D02*
X67689523Y-96612438D01*
X67689523Y-96612438D02*
X67613333Y-96564819D01*
X67613333Y-96564819D02*
X67422857Y-96564819D01*
X67422857Y-96564819D02*
X67346666Y-96612438D01*
X67346666Y-96612438D02*
X67308571Y-96660057D01*
X67308571Y-96660057D02*
X67270476Y-96755295D01*
X67270476Y-96755295D02*
X67270476Y-96850533D01*
X67270476Y-96850533D02*
X67308571Y-96993390D01*
X67308571Y-96993390D02*
X67765714Y-97564819D01*
X67765714Y-97564819D02*
X67270476Y-97564819D01*
X131626666Y-88649580D02*
X131674285Y-88697200D01*
X131674285Y-88697200D02*
X131817142Y-88744819D01*
X131817142Y-88744819D02*
X131912380Y-88744819D01*
X131912380Y-88744819D02*
X132055237Y-88697200D01*
X132055237Y-88697200D02*
X132150475Y-88601961D01*
X132150475Y-88601961D02*
X132198094Y-88506723D01*
X132198094Y-88506723D02*
X132245713Y-88316247D01*
X132245713Y-88316247D02*
X132245713Y-88173390D01*
X132245713Y-88173390D02*
X132198094Y-87982914D01*
X132198094Y-87982914D02*
X132150475Y-87887676D01*
X132150475Y-87887676D02*
X132055237Y-87792438D01*
X132055237Y-87792438D02*
X131912380Y-87744819D01*
X131912380Y-87744819D02*
X131817142Y-87744819D01*
X131817142Y-87744819D02*
X131674285Y-87792438D01*
X131674285Y-87792438D02*
X131626666Y-87840057D01*
X130769523Y-87744819D02*
X130959999Y-87744819D01*
X130959999Y-87744819D02*
X131055237Y-87792438D01*
X131055237Y-87792438D02*
X131102856Y-87840057D01*
X131102856Y-87840057D02*
X131198094Y-87982914D01*
X131198094Y-87982914D02*
X131245713Y-88173390D01*
X131245713Y-88173390D02*
X131245713Y-88554342D01*
X131245713Y-88554342D02*
X131198094Y-88649580D01*
X131198094Y-88649580D02*
X131150475Y-88697200D01*
X131150475Y-88697200D02*
X131055237Y-88744819D01*
X131055237Y-88744819D02*
X130864761Y-88744819D01*
X130864761Y-88744819D02*
X130769523Y-88697200D01*
X130769523Y-88697200D02*
X130721904Y-88649580D01*
X130721904Y-88649580D02*
X130674285Y-88554342D01*
X130674285Y-88554342D02*
X130674285Y-88316247D01*
X130674285Y-88316247D02*
X130721904Y-88221009D01*
X130721904Y-88221009D02*
X130769523Y-88173390D01*
X130769523Y-88173390D02*
X130864761Y-88125771D01*
X130864761Y-88125771D02*
X131055237Y-88125771D01*
X131055237Y-88125771D02*
X131150475Y-88173390D01*
X131150475Y-88173390D02*
X131198094Y-88221009D01*
X131198094Y-88221009D02*
X131245713Y-88316247D01*
X98202857Y-109639580D02*
X98250476Y-109687200D01*
X98250476Y-109687200D02*
X98393333Y-109734819D01*
X98393333Y-109734819D02*
X98488571Y-109734819D01*
X98488571Y-109734819D02*
X98631428Y-109687200D01*
X98631428Y-109687200D02*
X98726666Y-109591961D01*
X98726666Y-109591961D02*
X98774285Y-109496723D01*
X98774285Y-109496723D02*
X98821904Y-109306247D01*
X98821904Y-109306247D02*
X98821904Y-109163390D01*
X98821904Y-109163390D02*
X98774285Y-108972914D01*
X98774285Y-108972914D02*
X98726666Y-108877676D01*
X98726666Y-108877676D02*
X98631428Y-108782438D01*
X98631428Y-108782438D02*
X98488571Y-108734819D01*
X98488571Y-108734819D02*
X98393333Y-108734819D01*
X98393333Y-108734819D02*
X98250476Y-108782438D01*
X98250476Y-108782438D02*
X98202857Y-108830057D01*
X97821904Y-108830057D02*
X97774285Y-108782438D01*
X97774285Y-108782438D02*
X97679047Y-108734819D01*
X97679047Y-108734819D02*
X97440952Y-108734819D01*
X97440952Y-108734819D02*
X97345714Y-108782438D01*
X97345714Y-108782438D02*
X97298095Y-108830057D01*
X97298095Y-108830057D02*
X97250476Y-108925295D01*
X97250476Y-108925295D02*
X97250476Y-109020533D01*
X97250476Y-109020533D02*
X97298095Y-109163390D01*
X97298095Y-109163390D02*
X97869523Y-109734819D01*
X97869523Y-109734819D02*
X97250476Y-109734819D01*
X96345714Y-108734819D02*
X96821904Y-108734819D01*
X96821904Y-108734819D02*
X96869523Y-109211009D01*
X96869523Y-109211009D02*
X96821904Y-109163390D01*
X96821904Y-109163390D02*
X96726666Y-109115771D01*
X96726666Y-109115771D02*
X96488571Y-109115771D01*
X96488571Y-109115771D02*
X96393333Y-109163390D01*
X96393333Y-109163390D02*
X96345714Y-109211009D01*
X96345714Y-109211009D02*
X96298095Y-109306247D01*
X96298095Y-109306247D02*
X96298095Y-109544342D01*
X96298095Y-109544342D02*
X96345714Y-109639580D01*
X96345714Y-109639580D02*
X96393333Y-109687200D01*
X96393333Y-109687200D02*
X96488571Y-109734819D01*
X96488571Y-109734819D02*
X96726666Y-109734819D01*
X96726666Y-109734819D02*
X96821904Y-109687200D01*
X96821904Y-109687200D02*
X96869523Y-109639580D01*
D12*
X146981666Y-113973365D02*
X147042142Y-114033842D01*
X147042142Y-114033842D02*
X147223571Y-114094318D01*
X147223571Y-114094318D02*
X147344523Y-114094318D01*
X147344523Y-114094318D02*
X147525952Y-114033842D01*
X147525952Y-114033842D02*
X147646904Y-113912889D01*
X147646904Y-113912889D02*
X147707381Y-113791937D01*
X147707381Y-113791937D02*
X147767857Y-113550032D01*
X147767857Y-113550032D02*
X147767857Y-113368603D01*
X147767857Y-113368603D02*
X147707381Y-113126699D01*
X147707381Y-113126699D02*
X147646904Y-113005746D01*
X147646904Y-113005746D02*
X147525952Y-112884794D01*
X147525952Y-112884794D02*
X147344523Y-112824318D01*
X147344523Y-112824318D02*
X147223571Y-112824318D01*
X147223571Y-112824318D02*
X147042142Y-112884794D01*
X147042142Y-112884794D02*
X146981666Y-112945270D01*
X146376904Y-114094318D02*
X146135000Y-114094318D01*
X146135000Y-114094318D02*
X146014047Y-114033842D01*
X146014047Y-114033842D02*
X145953571Y-113973365D01*
X145953571Y-113973365D02*
X145832619Y-113791937D01*
X145832619Y-113791937D02*
X145772142Y-113550032D01*
X145772142Y-113550032D02*
X145772142Y-113066222D01*
X145772142Y-113066222D02*
X145832619Y-112945270D01*
X145832619Y-112945270D02*
X145893095Y-112884794D01*
X145893095Y-112884794D02*
X146014047Y-112824318D01*
X146014047Y-112824318D02*
X146255952Y-112824318D01*
X146255952Y-112824318D02*
X146376904Y-112884794D01*
X146376904Y-112884794D02*
X146437381Y-112945270D01*
X146437381Y-112945270D02*
X146497857Y-113066222D01*
X146497857Y-113066222D02*
X146497857Y-113368603D01*
X146497857Y-113368603D02*
X146437381Y-113489556D01*
X146437381Y-113489556D02*
X146376904Y-113550032D01*
X146376904Y-113550032D02*
X146255952Y-113610508D01*
X146255952Y-113610508D02*
X146014047Y-113610508D01*
X146014047Y-113610508D02*
X145893095Y-113550032D01*
X145893095Y-113550032D02*
X145832619Y-113489556D01*
X145832619Y-113489556D02*
X145772142Y-113368603D01*
D10*
X101506666Y-89554819D02*
X101839999Y-89078628D01*
X102078094Y-89554819D02*
X102078094Y-88554819D01*
X102078094Y-88554819D02*
X101697142Y-88554819D01*
X101697142Y-88554819D02*
X101601904Y-88602438D01*
X101601904Y-88602438D02*
X101554285Y-88650057D01*
X101554285Y-88650057D02*
X101506666Y-88745295D01*
X101506666Y-88745295D02*
X101506666Y-88888152D01*
X101506666Y-88888152D02*
X101554285Y-88983390D01*
X101554285Y-88983390D02*
X101601904Y-89031009D01*
X101601904Y-89031009D02*
X101697142Y-89078628D01*
X101697142Y-89078628D02*
X102078094Y-89078628D01*
X101173332Y-88554819D02*
X100554285Y-88554819D01*
X100554285Y-88554819D02*
X100887618Y-88935771D01*
X100887618Y-88935771D02*
X100744761Y-88935771D01*
X100744761Y-88935771D02*
X100649523Y-88983390D01*
X100649523Y-88983390D02*
X100601904Y-89031009D01*
X100601904Y-89031009D02*
X100554285Y-89126247D01*
X100554285Y-89126247D02*
X100554285Y-89364342D01*
X100554285Y-89364342D02*
X100601904Y-89459580D01*
X100601904Y-89459580D02*
X100649523Y-89507200D01*
X100649523Y-89507200D02*
X100744761Y-89554819D01*
X100744761Y-89554819D02*
X101030475Y-89554819D01*
X101030475Y-89554819D02*
X101125713Y-89507200D01*
X101125713Y-89507200D02*
X101173332Y-89459580D01*
X127682049Y-66375260D02*
X128207328Y-66227105D01*
X128005298Y-66698509D02*
X128712405Y-65991402D01*
X128712405Y-65991402D02*
X128496905Y-65775903D01*
X128496905Y-65775903D02*
X128409359Y-65755700D01*
X128409359Y-65755700D02*
X128348750Y-65762434D01*
X128348750Y-65762434D02*
X128254469Y-65802840D01*
X128254469Y-65802840D02*
X128153453Y-65903856D01*
X128153453Y-65903856D02*
X128113047Y-65998137D01*
X128113047Y-65998137D02*
X128106313Y-66058746D01*
X128106313Y-66058746D02*
X128126516Y-66146292D01*
X128126516Y-66146292D02*
X128342015Y-66361792D01*
X127143301Y-65836512D02*
X127466550Y-66159761D01*
X127304925Y-65998137D02*
X128012032Y-65291030D01*
X128012032Y-65291030D02*
X127964892Y-65445920D01*
X127964892Y-65445920D02*
X127951423Y-65567138D01*
X127951423Y-65567138D02*
X127971626Y-65654685D01*
X127661846Y-64940843D02*
X127284722Y-64563720D01*
X127284722Y-64563720D02*
X126820052Y-65513263D01*
X109726174Y-68457036D02*
X109625159Y-67884617D01*
X110130235Y-68052975D02*
X109423128Y-67345869D01*
X109423128Y-67345869D02*
X109153754Y-67615243D01*
X109153754Y-67615243D02*
X109120082Y-67716258D01*
X109120082Y-67716258D02*
X109120082Y-67783601D01*
X109120082Y-67783601D02*
X109153754Y-67884617D01*
X109153754Y-67884617D02*
X109254769Y-67985632D01*
X109254769Y-67985632D02*
X109355785Y-68019304D01*
X109355785Y-68019304D02*
X109423128Y-68019304D01*
X109423128Y-68019304D02*
X109524143Y-67985632D01*
X109524143Y-67985632D02*
X109793517Y-67716258D01*
X108817037Y-68086647D02*
X108749693Y-68086647D01*
X108749693Y-68086647D02*
X108648678Y-68120319D01*
X108648678Y-68120319D02*
X108480319Y-68288678D01*
X108480319Y-68288678D02*
X108446647Y-68389693D01*
X108446647Y-68389693D02*
X108446647Y-68457036D01*
X108446647Y-68457036D02*
X108480319Y-68558052D01*
X108480319Y-68558052D02*
X108547663Y-68625395D01*
X108547663Y-68625395D02*
X108682350Y-68692739D01*
X108682350Y-68692739D02*
X109490472Y-68692739D01*
X109490472Y-68692739D02*
X109052739Y-69130471D01*
X107705869Y-69063128D02*
X108042586Y-68726410D01*
X108042586Y-68726410D02*
X108412975Y-69029456D01*
X108412975Y-69029456D02*
X108345632Y-69029456D01*
X108345632Y-69029456D02*
X108244617Y-69063128D01*
X108244617Y-69063128D02*
X108076258Y-69231487D01*
X108076258Y-69231487D02*
X108042586Y-69332502D01*
X108042586Y-69332502D02*
X108042586Y-69399846D01*
X108042586Y-69399846D02*
X108076258Y-69500861D01*
X108076258Y-69500861D02*
X108244617Y-69669220D01*
X108244617Y-69669220D02*
X108345632Y-69702891D01*
X108345632Y-69702891D02*
X108412975Y-69702891D01*
X108412975Y-69702891D02*
X108513991Y-69669220D01*
X108513991Y-69669220D02*
X108682349Y-69500861D01*
X108682349Y-69500861D02*
X108716021Y-69399846D01*
X108716021Y-69399846D02*
X108716021Y-69332502D01*
D12*
X108073895Y-64637156D02*
X108202185Y-64679919D01*
X108202185Y-64679919D02*
X108373237Y-64679919D01*
X108373237Y-64679919D02*
X108629816Y-64679919D01*
X108629816Y-64679919D02*
X108758105Y-64722683D01*
X108758105Y-64722683D02*
X108843631Y-64808209D01*
X108587053Y-64979261D02*
X108715342Y-65022024D01*
X108715342Y-65022024D02*
X108886395Y-65022024D01*
X108886395Y-65022024D02*
X109100210Y-64893735D01*
X109100210Y-64893735D02*
X109399552Y-64594393D01*
X109399552Y-64594393D02*
X109527841Y-64380578D01*
X109527841Y-64380578D02*
X109527841Y-64209525D01*
X109527841Y-64209525D02*
X109485078Y-64081236D01*
X109485078Y-64081236D02*
X109314026Y-63910183D01*
X109314026Y-63910183D02*
X109185736Y-63867420D01*
X109185736Y-63867420D02*
X109014684Y-63867420D01*
X109014684Y-63867420D02*
X108800868Y-63995709D01*
X108800868Y-63995709D02*
X108501526Y-64295051D01*
X108501526Y-64295051D02*
X108373237Y-64508867D01*
X108373237Y-64508867D02*
X108373237Y-64679919D01*
X108373237Y-64679919D02*
X108416000Y-64808209D01*
X108416000Y-64808209D02*
X108587053Y-64979261D01*
X108031132Y-63225973D02*
X107432448Y-63824657D01*
X108587053Y-63097684D02*
X108159422Y-63952946D01*
X108159422Y-63952946D02*
X107603501Y-63397026D01*
D10*
X110796666Y-102179580D02*
X110844285Y-102227200D01*
X110844285Y-102227200D02*
X110987142Y-102274819D01*
X110987142Y-102274819D02*
X111082380Y-102274819D01*
X111082380Y-102274819D02*
X111225237Y-102227200D01*
X111225237Y-102227200D02*
X111320475Y-102131961D01*
X111320475Y-102131961D02*
X111368094Y-102036723D01*
X111368094Y-102036723D02*
X111415713Y-101846247D01*
X111415713Y-101846247D02*
X111415713Y-101703390D01*
X111415713Y-101703390D02*
X111368094Y-101512914D01*
X111368094Y-101512914D02*
X111320475Y-101417676D01*
X111320475Y-101417676D02*
X111225237Y-101322438D01*
X111225237Y-101322438D02*
X111082380Y-101274819D01*
X111082380Y-101274819D02*
X110987142Y-101274819D01*
X110987142Y-101274819D02*
X110844285Y-101322438D01*
X110844285Y-101322438D02*
X110796666Y-101370057D01*
X110225237Y-101703390D02*
X110320475Y-101655771D01*
X110320475Y-101655771D02*
X110368094Y-101608152D01*
X110368094Y-101608152D02*
X110415713Y-101512914D01*
X110415713Y-101512914D02*
X110415713Y-101465295D01*
X110415713Y-101465295D02*
X110368094Y-101370057D01*
X110368094Y-101370057D02*
X110320475Y-101322438D01*
X110320475Y-101322438D02*
X110225237Y-101274819D01*
X110225237Y-101274819D02*
X110034761Y-101274819D01*
X110034761Y-101274819D02*
X109939523Y-101322438D01*
X109939523Y-101322438D02*
X109891904Y-101370057D01*
X109891904Y-101370057D02*
X109844285Y-101465295D01*
X109844285Y-101465295D02*
X109844285Y-101512914D01*
X109844285Y-101512914D02*
X109891904Y-101608152D01*
X109891904Y-101608152D02*
X109939523Y-101655771D01*
X109939523Y-101655771D02*
X110034761Y-101703390D01*
X110034761Y-101703390D02*
X110225237Y-101703390D01*
X110225237Y-101703390D02*
X110320475Y-101751009D01*
X110320475Y-101751009D02*
X110368094Y-101798628D01*
X110368094Y-101798628D02*
X110415713Y-101893866D01*
X110415713Y-101893866D02*
X110415713Y-102084342D01*
X110415713Y-102084342D02*
X110368094Y-102179580D01*
X110368094Y-102179580D02*
X110320475Y-102227200D01*
X110320475Y-102227200D02*
X110225237Y-102274819D01*
X110225237Y-102274819D02*
X110034761Y-102274819D01*
X110034761Y-102274819D02*
X109939523Y-102227200D01*
X109939523Y-102227200D02*
X109891904Y-102179580D01*
X109891904Y-102179580D02*
X109844285Y-102084342D01*
X109844285Y-102084342D02*
X109844285Y-101893866D01*
X109844285Y-101893866D02*
X109891904Y-101798628D01*
X109891904Y-101798628D02*
X109939523Y-101751009D01*
X109939523Y-101751009D02*
X110034761Y-101703390D01*
X147922857Y-105754819D02*
X148256190Y-105278628D01*
X148494285Y-105754819D02*
X148494285Y-104754819D01*
X148494285Y-104754819D02*
X148113333Y-104754819D01*
X148113333Y-104754819D02*
X148018095Y-104802438D01*
X148018095Y-104802438D02*
X147970476Y-104850057D01*
X147970476Y-104850057D02*
X147922857Y-104945295D01*
X147922857Y-104945295D02*
X147922857Y-105088152D01*
X147922857Y-105088152D02*
X147970476Y-105183390D01*
X147970476Y-105183390D02*
X148018095Y-105231009D01*
X148018095Y-105231009D02*
X148113333Y-105278628D01*
X148113333Y-105278628D02*
X148494285Y-105278628D01*
X146970476Y-105754819D02*
X147541904Y-105754819D01*
X147256190Y-105754819D02*
X147256190Y-104754819D01*
X147256190Y-104754819D02*
X147351428Y-104897676D01*
X147351428Y-104897676D02*
X147446666Y-104992914D01*
X147446666Y-104992914D02*
X147541904Y-105040533D01*
X146589523Y-104850057D02*
X146541904Y-104802438D01*
X146541904Y-104802438D02*
X146446666Y-104754819D01*
X146446666Y-104754819D02*
X146208571Y-104754819D01*
X146208571Y-104754819D02*
X146113333Y-104802438D01*
X146113333Y-104802438D02*
X146065714Y-104850057D01*
X146065714Y-104850057D02*
X146018095Y-104945295D01*
X146018095Y-104945295D02*
X146018095Y-105040533D01*
X146018095Y-105040533D02*
X146065714Y-105183390D01*
X146065714Y-105183390D02*
X146637142Y-105754819D01*
X146637142Y-105754819D02*
X146018095Y-105754819D01*
X98586666Y-34994819D02*
X98919999Y-34518628D01*
X99158094Y-34994819D02*
X99158094Y-33994819D01*
X99158094Y-33994819D02*
X98777142Y-33994819D01*
X98777142Y-33994819D02*
X98681904Y-34042438D01*
X98681904Y-34042438D02*
X98634285Y-34090057D01*
X98634285Y-34090057D02*
X98586666Y-34185295D01*
X98586666Y-34185295D02*
X98586666Y-34328152D01*
X98586666Y-34328152D02*
X98634285Y-34423390D01*
X98634285Y-34423390D02*
X98681904Y-34471009D01*
X98681904Y-34471009D02*
X98777142Y-34518628D01*
X98777142Y-34518628D02*
X99158094Y-34518628D01*
X97729523Y-34328152D02*
X97729523Y-34994819D01*
X97967618Y-33947200D02*
X98205713Y-34661485D01*
X98205713Y-34661485D02*
X97586666Y-34661485D01*
X139866666Y-93544819D02*
X140199999Y-93068628D01*
X140438094Y-93544819D02*
X140438094Y-92544819D01*
X140438094Y-92544819D02*
X140057142Y-92544819D01*
X140057142Y-92544819D02*
X139961904Y-92592438D01*
X139961904Y-92592438D02*
X139914285Y-92640057D01*
X139914285Y-92640057D02*
X139866666Y-92735295D01*
X139866666Y-92735295D02*
X139866666Y-92878152D01*
X139866666Y-92878152D02*
X139914285Y-92973390D01*
X139914285Y-92973390D02*
X139961904Y-93021009D01*
X139961904Y-93021009D02*
X140057142Y-93068628D01*
X140057142Y-93068628D02*
X140438094Y-93068628D01*
X139009523Y-92544819D02*
X139199999Y-92544819D01*
X139199999Y-92544819D02*
X139295237Y-92592438D01*
X139295237Y-92592438D02*
X139342856Y-92640057D01*
X139342856Y-92640057D02*
X139438094Y-92782914D01*
X139438094Y-92782914D02*
X139485713Y-92973390D01*
X139485713Y-92973390D02*
X139485713Y-93354342D01*
X139485713Y-93354342D02*
X139438094Y-93449580D01*
X139438094Y-93449580D02*
X139390475Y-93497200D01*
X139390475Y-93497200D02*
X139295237Y-93544819D01*
X139295237Y-93544819D02*
X139104761Y-93544819D01*
X139104761Y-93544819D02*
X139009523Y-93497200D01*
X139009523Y-93497200D02*
X138961904Y-93449580D01*
X138961904Y-93449580D02*
X138914285Y-93354342D01*
X138914285Y-93354342D02*
X138914285Y-93116247D01*
X138914285Y-93116247D02*
X138961904Y-93021009D01*
X138961904Y-93021009D02*
X139009523Y-92973390D01*
X139009523Y-92973390D02*
X139104761Y-92925771D01*
X139104761Y-92925771D02*
X139295237Y-92925771D01*
X139295237Y-92925771D02*
X139390475Y-92973390D01*
X139390475Y-92973390D02*
X139438094Y-93021009D01*
X139438094Y-93021009D02*
X139485713Y-93116247D01*
X120535238Y-95970057D02*
X120630476Y-95922438D01*
X120630476Y-95922438D02*
X120725714Y-95827200D01*
X120725714Y-95827200D02*
X120868571Y-95684342D01*
X120868571Y-95684342D02*
X120963809Y-95636723D01*
X120963809Y-95636723D02*
X121059047Y-95636723D01*
X121011428Y-95874819D02*
X121106666Y-95827200D01*
X121106666Y-95827200D02*
X121201904Y-95731961D01*
X121201904Y-95731961D02*
X121249523Y-95541485D01*
X121249523Y-95541485D02*
X121249523Y-95208152D01*
X121249523Y-95208152D02*
X121201904Y-95017676D01*
X121201904Y-95017676D02*
X121106666Y-94922438D01*
X121106666Y-94922438D02*
X121011428Y-94874819D01*
X121011428Y-94874819D02*
X120820952Y-94874819D01*
X120820952Y-94874819D02*
X120725714Y-94922438D01*
X120725714Y-94922438D02*
X120630476Y-95017676D01*
X120630476Y-95017676D02*
X120582857Y-95208152D01*
X120582857Y-95208152D02*
X120582857Y-95541485D01*
X120582857Y-95541485D02*
X120630476Y-95731961D01*
X120630476Y-95731961D02*
X120725714Y-95827200D01*
X120725714Y-95827200D02*
X120820952Y-95874819D01*
X120820952Y-95874819D02*
X121011428Y-95874819D01*
X120249523Y-94874819D02*
X119630476Y-94874819D01*
X119630476Y-94874819D02*
X119963809Y-95255771D01*
X119963809Y-95255771D02*
X119820952Y-95255771D01*
X119820952Y-95255771D02*
X119725714Y-95303390D01*
X119725714Y-95303390D02*
X119678095Y-95351009D01*
X119678095Y-95351009D02*
X119630476Y-95446247D01*
X119630476Y-95446247D02*
X119630476Y-95684342D01*
X119630476Y-95684342D02*
X119678095Y-95779580D01*
X119678095Y-95779580D02*
X119725714Y-95827200D01*
X119725714Y-95827200D02*
X119820952Y-95874819D01*
X119820952Y-95874819D02*
X120106666Y-95874819D01*
X120106666Y-95874819D02*
X120201904Y-95827200D01*
X120201904Y-95827200D02*
X120249523Y-95779580D01*
X122686174Y-82627036D02*
X122585159Y-82054617D01*
X123090235Y-82222975D02*
X122383128Y-81515869D01*
X122383128Y-81515869D02*
X122113754Y-81785243D01*
X122113754Y-81785243D02*
X122080082Y-81886258D01*
X122080082Y-81886258D02*
X122080082Y-81953601D01*
X122080082Y-81953601D02*
X122113754Y-82054617D01*
X122113754Y-82054617D02*
X122214769Y-82155632D01*
X122214769Y-82155632D02*
X122315785Y-82189304D01*
X122315785Y-82189304D02*
X122383128Y-82189304D01*
X122383128Y-82189304D02*
X122484143Y-82155632D01*
X122484143Y-82155632D02*
X122753517Y-81886258D01*
X121777037Y-82256647D02*
X121709693Y-82256647D01*
X121709693Y-82256647D02*
X121608678Y-82290319D01*
X121608678Y-82290319D02*
X121440319Y-82458678D01*
X121440319Y-82458678D02*
X121406647Y-82559693D01*
X121406647Y-82559693D02*
X121406647Y-82627036D01*
X121406647Y-82627036D02*
X121440319Y-82728052D01*
X121440319Y-82728052D02*
X121507663Y-82795395D01*
X121507663Y-82795395D02*
X121642350Y-82862739D01*
X121642350Y-82862739D02*
X122450472Y-82862739D01*
X122450472Y-82862739D02*
X122012739Y-83300471D01*
X121103601Y-82930082D02*
X121036258Y-82930082D01*
X121036258Y-82930082D02*
X120935243Y-82963754D01*
X120935243Y-82963754D02*
X120766884Y-83132113D01*
X120766884Y-83132113D02*
X120733212Y-83233128D01*
X120733212Y-83233128D02*
X120733212Y-83300472D01*
X120733212Y-83300472D02*
X120766884Y-83401487D01*
X120766884Y-83401487D02*
X120834227Y-83468830D01*
X120834227Y-83468830D02*
X120968914Y-83536174D01*
X120968914Y-83536174D02*
X121777036Y-83536174D01*
X121777036Y-83536174D02*
X121339304Y-83973907D01*
D12*
X140421666Y-111174318D02*
X140845000Y-110569556D01*
X141147381Y-111174318D02*
X141147381Y-109904318D01*
X141147381Y-109904318D02*
X140663571Y-109904318D01*
X140663571Y-109904318D02*
X140542619Y-109964794D01*
X140542619Y-109964794D02*
X140482142Y-110025270D01*
X140482142Y-110025270D02*
X140421666Y-110146222D01*
X140421666Y-110146222D02*
X140421666Y-110327651D01*
X140421666Y-110327651D02*
X140482142Y-110448603D01*
X140482142Y-110448603D02*
X140542619Y-110509080D01*
X140542619Y-110509080D02*
X140663571Y-110569556D01*
X140663571Y-110569556D02*
X141147381Y-110569556D01*
X139816904Y-111174318D02*
X139575000Y-111174318D01*
X139575000Y-111174318D02*
X139454047Y-111113842D01*
X139454047Y-111113842D02*
X139393571Y-111053365D01*
X139393571Y-111053365D02*
X139272619Y-110871937D01*
X139272619Y-110871937D02*
X139212142Y-110630032D01*
X139212142Y-110630032D02*
X139212142Y-110146222D01*
X139212142Y-110146222D02*
X139272619Y-110025270D01*
X139272619Y-110025270D02*
X139333095Y-109964794D01*
X139333095Y-109964794D02*
X139454047Y-109904318D01*
X139454047Y-109904318D02*
X139695952Y-109904318D01*
X139695952Y-109904318D02*
X139816904Y-109964794D01*
X139816904Y-109964794D02*
X139877381Y-110025270D01*
X139877381Y-110025270D02*
X139937857Y-110146222D01*
X139937857Y-110146222D02*
X139937857Y-110448603D01*
X139937857Y-110448603D02*
X139877381Y-110569556D01*
X139877381Y-110569556D02*
X139816904Y-110630032D01*
X139816904Y-110630032D02*
X139695952Y-110690508D01*
X139695952Y-110690508D02*
X139454047Y-110690508D01*
X139454047Y-110690508D02*
X139333095Y-110630032D01*
X139333095Y-110630032D02*
X139272619Y-110569556D01*
X139272619Y-110569556D02*
X139212142Y-110448603D01*
D10*
X120322963Y-59866174D02*
X120895382Y-59765159D01*
X120727024Y-60270235D02*
X121434130Y-59563128D01*
X121434130Y-59563128D02*
X121164756Y-59293754D01*
X121164756Y-59293754D02*
X121063741Y-59260082D01*
X121063741Y-59260082D02*
X120996398Y-59260082D01*
X120996398Y-59260082D02*
X120895382Y-59293754D01*
X120895382Y-59293754D02*
X120794367Y-59394769D01*
X120794367Y-59394769D02*
X120760695Y-59495785D01*
X120760695Y-59495785D02*
X120760695Y-59563128D01*
X120760695Y-59563128D02*
X120794367Y-59664143D01*
X120794367Y-59664143D02*
X121063741Y-59933517D01*
X120693352Y-58957037D02*
X120693352Y-58889693D01*
X120693352Y-58889693D02*
X120659680Y-58788678D01*
X120659680Y-58788678D02*
X120491321Y-58620319D01*
X120491321Y-58620319D02*
X120390306Y-58586647D01*
X120390306Y-58586647D02*
X120322963Y-58586647D01*
X120322963Y-58586647D02*
X120221947Y-58620319D01*
X120221947Y-58620319D02*
X120154604Y-58687663D01*
X120154604Y-58687663D02*
X120087260Y-58822350D01*
X120087260Y-58822350D02*
X120087260Y-59630472D01*
X120087260Y-59630472D02*
X119649528Y-59192739D01*
X119514840Y-58115243D02*
X119043436Y-58586647D01*
X119952573Y-58014227D02*
X119615856Y-58687662D01*
X119615856Y-58687662D02*
X119178123Y-58249930D01*
X126868830Y-77519693D02*
X126936174Y-77519693D01*
X126936174Y-77519693D02*
X127070861Y-77452349D01*
X127070861Y-77452349D02*
X127138204Y-77385006D01*
X127138204Y-77385006D02*
X127205548Y-77250319D01*
X127205548Y-77250319D02*
X127205548Y-77115632D01*
X127205548Y-77115632D02*
X127171876Y-77014617D01*
X127171876Y-77014617D02*
X127070861Y-76846258D01*
X127070861Y-76846258D02*
X126969846Y-76745243D01*
X126969846Y-76745243D02*
X126801487Y-76644227D01*
X126801487Y-76644227D02*
X126700472Y-76610556D01*
X126700472Y-76610556D02*
X126565785Y-76610556D01*
X126565785Y-76610556D02*
X126431098Y-76677899D01*
X126431098Y-76677899D02*
X126363754Y-76745243D01*
X126363754Y-76745243D02*
X126296411Y-76879930D01*
X126296411Y-76879930D02*
X126296411Y-76947273D01*
X126262739Y-78260471D02*
X126666800Y-77856410D01*
X126464769Y-78058441D02*
X125757663Y-77351334D01*
X125757663Y-77351334D02*
X125926021Y-77385006D01*
X125926021Y-77385006D02*
X126060708Y-77385006D01*
X126060708Y-77385006D02*
X126161724Y-77351334D01*
X124949540Y-78159456D02*
X125084227Y-78024769D01*
X125084227Y-78024769D02*
X125185243Y-77991098D01*
X125185243Y-77991098D02*
X125252586Y-77991098D01*
X125252586Y-77991098D02*
X125420945Y-78024769D01*
X125420945Y-78024769D02*
X125589304Y-78125785D01*
X125589304Y-78125785D02*
X125858678Y-78395159D01*
X125858678Y-78395159D02*
X125892349Y-78496174D01*
X125892349Y-78496174D02*
X125892349Y-78563517D01*
X125892349Y-78563517D02*
X125858678Y-78664533D01*
X125858678Y-78664533D02*
X125723991Y-78799220D01*
X125723991Y-78799220D02*
X125622975Y-78832891D01*
X125622975Y-78832891D02*
X125555632Y-78832891D01*
X125555632Y-78832891D02*
X125454617Y-78799220D01*
X125454617Y-78799220D02*
X125286258Y-78630861D01*
X125286258Y-78630861D02*
X125252586Y-78529846D01*
X125252586Y-78529846D02*
X125252586Y-78462502D01*
X125252586Y-78462502D02*
X125286258Y-78361487D01*
X125286258Y-78361487D02*
X125420945Y-78226800D01*
X125420945Y-78226800D02*
X125521960Y-78193128D01*
X125521960Y-78193128D02*
X125589304Y-78193128D01*
X125589304Y-78193128D02*
X125690319Y-78226800D01*
X103112857Y-48589580D02*
X103160476Y-48637200D01*
X103160476Y-48637200D02*
X103303333Y-48684819D01*
X103303333Y-48684819D02*
X103398571Y-48684819D01*
X103398571Y-48684819D02*
X103541428Y-48637200D01*
X103541428Y-48637200D02*
X103636666Y-48541961D01*
X103636666Y-48541961D02*
X103684285Y-48446723D01*
X103684285Y-48446723D02*
X103731904Y-48256247D01*
X103731904Y-48256247D02*
X103731904Y-48113390D01*
X103731904Y-48113390D02*
X103684285Y-47922914D01*
X103684285Y-47922914D02*
X103636666Y-47827676D01*
X103636666Y-47827676D02*
X103541428Y-47732438D01*
X103541428Y-47732438D02*
X103398571Y-47684819D01*
X103398571Y-47684819D02*
X103303333Y-47684819D01*
X103303333Y-47684819D02*
X103160476Y-47732438D01*
X103160476Y-47732438D02*
X103112857Y-47780057D01*
X102160476Y-48684819D02*
X102731904Y-48684819D01*
X102446190Y-48684819D02*
X102446190Y-47684819D01*
X102446190Y-47684819D02*
X102541428Y-47827676D01*
X102541428Y-47827676D02*
X102636666Y-47922914D01*
X102636666Y-47922914D02*
X102731904Y-47970533D01*
X101541428Y-47684819D02*
X101446190Y-47684819D01*
X101446190Y-47684819D02*
X101350952Y-47732438D01*
X101350952Y-47732438D02*
X101303333Y-47780057D01*
X101303333Y-47780057D02*
X101255714Y-47875295D01*
X101255714Y-47875295D02*
X101208095Y-48065771D01*
X101208095Y-48065771D02*
X101208095Y-48303866D01*
X101208095Y-48303866D02*
X101255714Y-48494342D01*
X101255714Y-48494342D02*
X101303333Y-48589580D01*
X101303333Y-48589580D02*
X101350952Y-48637200D01*
X101350952Y-48637200D02*
X101446190Y-48684819D01*
X101446190Y-48684819D02*
X101541428Y-48684819D01*
X101541428Y-48684819D02*
X101636666Y-48637200D01*
X101636666Y-48637200D02*
X101684285Y-48589580D01*
X101684285Y-48589580D02*
X101731904Y-48494342D01*
X101731904Y-48494342D02*
X101779523Y-48303866D01*
X101779523Y-48303866D02*
X101779523Y-48065771D01*
X101779523Y-48065771D02*
X101731904Y-47875295D01*
X101731904Y-47875295D02*
X101684285Y-47780057D01*
X101684285Y-47780057D02*
X101636666Y-47732438D01*
X101636666Y-47732438D02*
X101541428Y-47684819D01*
X92415238Y-31360057D02*
X92510476Y-31312438D01*
X92510476Y-31312438D02*
X92605714Y-31217200D01*
X92605714Y-31217200D02*
X92748571Y-31074342D01*
X92748571Y-31074342D02*
X92843809Y-31026723D01*
X92843809Y-31026723D02*
X92939047Y-31026723D01*
X92891428Y-31264819D02*
X92986666Y-31217200D01*
X92986666Y-31217200D02*
X93081904Y-31121961D01*
X93081904Y-31121961D02*
X93129523Y-30931485D01*
X93129523Y-30931485D02*
X93129523Y-30598152D01*
X93129523Y-30598152D02*
X93081904Y-30407676D01*
X93081904Y-30407676D02*
X92986666Y-30312438D01*
X92986666Y-30312438D02*
X92891428Y-30264819D01*
X92891428Y-30264819D02*
X92700952Y-30264819D01*
X92700952Y-30264819D02*
X92605714Y-30312438D01*
X92605714Y-30312438D02*
X92510476Y-30407676D01*
X92510476Y-30407676D02*
X92462857Y-30598152D01*
X92462857Y-30598152D02*
X92462857Y-30931485D01*
X92462857Y-30931485D02*
X92510476Y-31121961D01*
X92510476Y-31121961D02*
X92605714Y-31217200D01*
X92605714Y-31217200D02*
X92700952Y-31264819D01*
X92700952Y-31264819D02*
X92891428Y-31264819D01*
X91510476Y-31264819D02*
X92081904Y-31264819D01*
X91796190Y-31264819D02*
X91796190Y-30264819D01*
X91796190Y-30264819D02*
X91891428Y-30407676D01*
X91891428Y-30407676D02*
X91986666Y-30502914D01*
X91986666Y-30502914D02*
X92081904Y-30550533D01*
D12*
X70586428Y-76013365D02*
X70646904Y-76073842D01*
X70646904Y-76073842D02*
X70828333Y-76134318D01*
X70828333Y-76134318D02*
X70949285Y-76134318D01*
X70949285Y-76134318D02*
X71130714Y-76073842D01*
X71130714Y-76073842D02*
X71251666Y-75952889D01*
X71251666Y-75952889D02*
X71312143Y-75831937D01*
X71312143Y-75831937D02*
X71372619Y-75590032D01*
X71372619Y-75590032D02*
X71372619Y-75408603D01*
X71372619Y-75408603D02*
X71312143Y-75166699D01*
X71312143Y-75166699D02*
X71251666Y-75045746D01*
X71251666Y-75045746D02*
X71130714Y-74924794D01*
X71130714Y-74924794D02*
X70949285Y-74864318D01*
X70949285Y-74864318D02*
X70828333Y-74864318D01*
X70828333Y-74864318D02*
X70646904Y-74924794D01*
X70646904Y-74924794D02*
X70586428Y-74985270D01*
X70102619Y-74985270D02*
X70042143Y-74924794D01*
X70042143Y-74924794D02*
X69921190Y-74864318D01*
X69921190Y-74864318D02*
X69618809Y-74864318D01*
X69618809Y-74864318D02*
X69497857Y-74924794D01*
X69497857Y-74924794D02*
X69437381Y-74985270D01*
X69437381Y-74985270D02*
X69376904Y-75106222D01*
X69376904Y-75106222D02*
X69376904Y-75227175D01*
X69376904Y-75227175D02*
X69437381Y-75408603D01*
X69437381Y-75408603D02*
X70163095Y-76134318D01*
X70163095Y-76134318D02*
X69376904Y-76134318D01*
X68288333Y-74864318D02*
X68530238Y-74864318D01*
X68530238Y-74864318D02*
X68651190Y-74924794D01*
X68651190Y-74924794D02*
X68711666Y-74985270D01*
X68711666Y-74985270D02*
X68832619Y-75166699D01*
X68832619Y-75166699D02*
X68893095Y-75408603D01*
X68893095Y-75408603D02*
X68893095Y-75892413D01*
X68893095Y-75892413D02*
X68832619Y-76013365D01*
X68832619Y-76013365D02*
X68772142Y-76073842D01*
X68772142Y-76073842D02*
X68651190Y-76134318D01*
X68651190Y-76134318D02*
X68409285Y-76134318D01*
X68409285Y-76134318D02*
X68288333Y-76073842D01*
X68288333Y-76073842D02*
X68227857Y-76013365D01*
X68227857Y-76013365D02*
X68167380Y-75892413D01*
X68167380Y-75892413D02*
X68167380Y-75590032D01*
X68167380Y-75590032D02*
X68227857Y-75469080D01*
X68227857Y-75469080D02*
X68288333Y-75408603D01*
X68288333Y-75408603D02*
X68409285Y-75348127D01*
X68409285Y-75348127D02*
X68651190Y-75348127D01*
X68651190Y-75348127D02*
X68772142Y-75408603D01*
X68772142Y-75408603D02*
X68832619Y-75469080D01*
X68832619Y-75469080D02*
X68893095Y-75590032D01*
D10*
X75724285Y-106524819D02*
X75990952Y-106048628D01*
X76181428Y-106524819D02*
X76181428Y-105524819D01*
X76181428Y-105524819D02*
X75876666Y-105524819D01*
X75876666Y-105524819D02*
X75800476Y-105572438D01*
X75800476Y-105572438D02*
X75762381Y-105620057D01*
X75762381Y-105620057D02*
X75724285Y-105715295D01*
X75724285Y-105715295D02*
X75724285Y-105858152D01*
X75724285Y-105858152D02*
X75762381Y-105953390D01*
X75762381Y-105953390D02*
X75800476Y-106001009D01*
X75800476Y-106001009D02*
X75876666Y-106048628D01*
X75876666Y-106048628D02*
X76181428Y-106048628D01*
X75457619Y-105524819D02*
X74962381Y-105524819D01*
X74962381Y-105524819D02*
X75229047Y-105905771D01*
X75229047Y-105905771D02*
X75114762Y-105905771D01*
X75114762Y-105905771D02*
X75038571Y-105953390D01*
X75038571Y-105953390D02*
X75000476Y-106001009D01*
X75000476Y-106001009D02*
X74962381Y-106096247D01*
X74962381Y-106096247D02*
X74962381Y-106334342D01*
X74962381Y-106334342D02*
X75000476Y-106429580D01*
X75000476Y-106429580D02*
X75038571Y-106477200D01*
X75038571Y-106477200D02*
X75114762Y-106524819D01*
X75114762Y-106524819D02*
X75343333Y-106524819D01*
X75343333Y-106524819D02*
X75419524Y-106477200D01*
X75419524Y-106477200D02*
X75457619Y-106429580D01*
X74200476Y-106524819D02*
X74657619Y-106524819D01*
X74429047Y-106524819D02*
X74429047Y-105524819D01*
X74429047Y-105524819D02*
X74505238Y-105667676D01*
X74505238Y-105667676D02*
X74581428Y-105762914D01*
X74581428Y-105762914D02*
X74657619Y-105810533D01*
D12*
X86731666Y-98204318D02*
X87336428Y-98204318D01*
X87336428Y-98204318D02*
X87336428Y-96934318D01*
X86368809Y-97055270D02*
X86308333Y-96994794D01*
X86308333Y-96994794D02*
X86187380Y-96934318D01*
X86187380Y-96934318D02*
X85884999Y-96934318D01*
X85884999Y-96934318D02*
X85764047Y-96994794D01*
X85764047Y-96994794D02*
X85703571Y-97055270D01*
X85703571Y-97055270D02*
X85643094Y-97176222D01*
X85643094Y-97176222D02*
X85643094Y-97297175D01*
X85643094Y-97297175D02*
X85703571Y-97478603D01*
X85703571Y-97478603D02*
X86429285Y-98204318D01*
X86429285Y-98204318D02*
X85643094Y-98204318D01*
D10*
X121060306Y-78778830D02*
X121060306Y-78846174D01*
X121060306Y-78846174D02*
X121127650Y-78980861D01*
X121127650Y-78980861D02*
X121194993Y-79048204D01*
X121194993Y-79048204D02*
X121329680Y-79115548D01*
X121329680Y-79115548D02*
X121464367Y-79115548D01*
X121464367Y-79115548D02*
X121565382Y-79081876D01*
X121565382Y-79081876D02*
X121733741Y-78980861D01*
X121733741Y-78980861D02*
X121834756Y-78879846D01*
X121834756Y-78879846D02*
X121935772Y-78711487D01*
X121935772Y-78711487D02*
X121969443Y-78610472D01*
X121969443Y-78610472D02*
X121969443Y-78475785D01*
X121969443Y-78475785D02*
X121902100Y-78341098D01*
X121902100Y-78341098D02*
X121834756Y-78273754D01*
X121834756Y-78273754D02*
X121700069Y-78206411D01*
X121700069Y-78206411D02*
X121632726Y-78206411D01*
X120319528Y-78172739D02*
X120723589Y-78576800D01*
X120521558Y-78374769D02*
X121228665Y-77667663D01*
X121228665Y-77667663D02*
X121194993Y-77836021D01*
X121194993Y-77836021D02*
X121194993Y-77970708D01*
X121194993Y-77970708D02*
X121228665Y-78071724D01*
X120319527Y-77364617D02*
X120420543Y-77398288D01*
X120420543Y-77398288D02*
X120487886Y-77398288D01*
X120487886Y-77398288D02*
X120588901Y-77364617D01*
X120588901Y-77364617D02*
X120622573Y-77330945D01*
X120622573Y-77330945D02*
X120656245Y-77229930D01*
X120656245Y-77229930D02*
X120656245Y-77162586D01*
X120656245Y-77162586D02*
X120622573Y-77061571D01*
X120622573Y-77061571D02*
X120487886Y-76926884D01*
X120487886Y-76926884D02*
X120386871Y-76893212D01*
X120386871Y-76893212D02*
X120319527Y-76893212D01*
X120319527Y-76893212D02*
X120218512Y-76926884D01*
X120218512Y-76926884D02*
X120184840Y-76960556D01*
X120184840Y-76960556D02*
X120151169Y-77061571D01*
X120151169Y-77061571D02*
X120151169Y-77128914D01*
X120151169Y-77128914D02*
X120184840Y-77229930D01*
X120184840Y-77229930D02*
X120319527Y-77364617D01*
X120319527Y-77364617D02*
X120353199Y-77465632D01*
X120353199Y-77465632D02*
X120353199Y-77532975D01*
X120353199Y-77532975D02*
X120319527Y-77633991D01*
X120319527Y-77633991D02*
X120184840Y-77768678D01*
X120184840Y-77768678D02*
X120083825Y-77802349D01*
X120083825Y-77802349D02*
X120016482Y-77802349D01*
X120016482Y-77802349D02*
X119915466Y-77768678D01*
X119915466Y-77768678D02*
X119780779Y-77633991D01*
X119780779Y-77633991D02*
X119747108Y-77532975D01*
X119747108Y-77532975D02*
X119747108Y-77465632D01*
X119747108Y-77465632D02*
X119780779Y-77364617D01*
X119780779Y-77364617D02*
X119915466Y-77229930D01*
X119915466Y-77229930D02*
X120016482Y-77196258D01*
X120016482Y-77196258D02*
X120083825Y-77196258D01*
X120083825Y-77196258D02*
X120184840Y-77229930D01*
X99146666Y-32029580D02*
X99194285Y-32077200D01*
X99194285Y-32077200D02*
X99337142Y-32124819D01*
X99337142Y-32124819D02*
X99432380Y-32124819D01*
X99432380Y-32124819D02*
X99575237Y-32077200D01*
X99575237Y-32077200D02*
X99670475Y-31981961D01*
X99670475Y-31981961D02*
X99718094Y-31886723D01*
X99718094Y-31886723D02*
X99765713Y-31696247D01*
X99765713Y-31696247D02*
X99765713Y-31553390D01*
X99765713Y-31553390D02*
X99718094Y-31362914D01*
X99718094Y-31362914D02*
X99670475Y-31267676D01*
X99670475Y-31267676D02*
X99575237Y-31172438D01*
X99575237Y-31172438D02*
X99432380Y-31124819D01*
X99432380Y-31124819D02*
X99337142Y-31124819D01*
X99337142Y-31124819D02*
X99194285Y-31172438D01*
X99194285Y-31172438D02*
X99146666Y-31220057D01*
X98194285Y-32124819D02*
X98765713Y-32124819D01*
X98479999Y-32124819D02*
X98479999Y-31124819D01*
X98479999Y-31124819D02*
X98575237Y-31267676D01*
X98575237Y-31267676D02*
X98670475Y-31362914D01*
X98670475Y-31362914D02*
X98765713Y-31410533D01*
X131078830Y-68289693D02*
X131146174Y-68289693D01*
X131146174Y-68289693D02*
X131280861Y-68222349D01*
X131280861Y-68222349D02*
X131348204Y-68155006D01*
X131348204Y-68155006D02*
X131415548Y-68020319D01*
X131415548Y-68020319D02*
X131415548Y-67885632D01*
X131415548Y-67885632D02*
X131381876Y-67784617D01*
X131381876Y-67784617D02*
X131280861Y-67616258D01*
X131280861Y-67616258D02*
X131179846Y-67515243D01*
X131179846Y-67515243D02*
X131011487Y-67414227D01*
X131011487Y-67414227D02*
X130910472Y-67380556D01*
X130910472Y-67380556D02*
X130775785Y-67380556D01*
X130775785Y-67380556D02*
X130641098Y-67447899D01*
X130641098Y-67447899D02*
X130573754Y-67515243D01*
X130573754Y-67515243D02*
X130506411Y-67649930D01*
X130506411Y-67649930D02*
X130506411Y-67717273D01*
X130472739Y-69030471D02*
X130876800Y-68626410D01*
X130674769Y-68828441D02*
X129967663Y-68121334D01*
X129967663Y-68121334D02*
X130136021Y-68155006D01*
X130136021Y-68155006D02*
X130270708Y-68155006D01*
X130270708Y-68155006D02*
X130371724Y-68121334D01*
X129395243Y-69165159D02*
X129866647Y-69636563D01*
X129294227Y-68727426D02*
X129967662Y-69064143D01*
X129967662Y-69064143D02*
X129529930Y-69501876D01*
X112546292Y-70081605D02*
X112579964Y-69980590D01*
X112579964Y-69980590D02*
X112579964Y-69845903D01*
X112579964Y-69845903D02*
X112579964Y-69643872D01*
X112579964Y-69643872D02*
X112613636Y-69542857D01*
X112613636Y-69542857D02*
X112680979Y-69475514D01*
X112815666Y-69677544D02*
X112849338Y-69576529D01*
X112849338Y-69576529D02*
X112849338Y-69441842D01*
X112849338Y-69441842D02*
X112748323Y-69273483D01*
X112748323Y-69273483D02*
X112512620Y-69037781D01*
X112512620Y-69037781D02*
X112344262Y-68936766D01*
X112344262Y-68936766D02*
X112209575Y-68936766D01*
X112209575Y-68936766D02*
X112108559Y-68970437D01*
X112108559Y-68970437D02*
X111973872Y-69105124D01*
X111973872Y-69105124D02*
X111940201Y-69206140D01*
X111940201Y-69206140D02*
X111940201Y-69340827D01*
X111940201Y-69340827D02*
X112041216Y-69509185D01*
X112041216Y-69509185D02*
X112276918Y-69744888D01*
X112276918Y-69744888D02*
X112445277Y-69845903D01*
X112445277Y-69845903D02*
X112579964Y-69845903D01*
X112579964Y-69845903D02*
X112680979Y-69812231D01*
X112680979Y-69812231D02*
X112815666Y-69677544D01*
X111165750Y-69913246D02*
X111502468Y-69576529D01*
X111502468Y-69576529D02*
X111872857Y-69879575D01*
X111872857Y-69879575D02*
X111805514Y-69879575D01*
X111805514Y-69879575D02*
X111704498Y-69913246D01*
X111704498Y-69913246D02*
X111536140Y-70081605D01*
X111536140Y-70081605D02*
X111502468Y-70182620D01*
X111502468Y-70182620D02*
X111502468Y-70249964D01*
X111502468Y-70249964D02*
X111536140Y-70350979D01*
X111536140Y-70350979D02*
X111704498Y-70519338D01*
X111704498Y-70519338D02*
X111805514Y-70553010D01*
X111805514Y-70553010D02*
X111872857Y-70553010D01*
X111872857Y-70553010D02*
X111973872Y-70519338D01*
X111973872Y-70519338D02*
X112142231Y-70350979D01*
X112142231Y-70350979D02*
X112175903Y-70249964D01*
X112175903Y-70249964D02*
X112175903Y-70182620D01*
X114108830Y-75379693D02*
X114176174Y-75379693D01*
X114176174Y-75379693D02*
X114310861Y-75312349D01*
X114310861Y-75312349D02*
X114378204Y-75245006D01*
X114378204Y-75245006D02*
X114445548Y-75110319D01*
X114445548Y-75110319D02*
X114445548Y-74975632D01*
X114445548Y-74975632D02*
X114411876Y-74874617D01*
X114411876Y-74874617D02*
X114310861Y-74706258D01*
X114310861Y-74706258D02*
X114209846Y-74605243D01*
X114209846Y-74605243D02*
X114041487Y-74504227D01*
X114041487Y-74504227D02*
X113940472Y-74470556D01*
X113940472Y-74470556D02*
X113805785Y-74470556D01*
X113805785Y-74470556D02*
X113671098Y-74537899D01*
X113671098Y-74537899D02*
X113603754Y-74605243D01*
X113603754Y-74605243D02*
X113536411Y-74739930D01*
X113536411Y-74739930D02*
X113536411Y-74807273D01*
X113502739Y-76120471D02*
X113906800Y-75716410D01*
X113704769Y-75918441D02*
X112997663Y-75211334D01*
X112997663Y-75211334D02*
X113166021Y-75245006D01*
X113166021Y-75245006D02*
X113300708Y-75245006D01*
X113300708Y-75245006D02*
X113401724Y-75211334D01*
X113166021Y-76457189D02*
X113031334Y-76591876D01*
X113031334Y-76591876D02*
X112930319Y-76625548D01*
X112930319Y-76625548D02*
X112862975Y-76625548D01*
X112862975Y-76625548D02*
X112694617Y-76591876D01*
X112694617Y-76591876D02*
X112526258Y-76490861D01*
X112526258Y-76490861D02*
X112256884Y-76221487D01*
X112256884Y-76221487D02*
X112223212Y-76120472D01*
X112223212Y-76120472D02*
X112223212Y-76053128D01*
X112223212Y-76053128D02*
X112256884Y-75952113D01*
X112256884Y-75952113D02*
X112391571Y-75817426D01*
X112391571Y-75817426D02*
X112492586Y-75783754D01*
X112492586Y-75783754D02*
X112559930Y-75783754D01*
X112559930Y-75783754D02*
X112660945Y-75817426D01*
X112660945Y-75817426D02*
X112829304Y-75985785D01*
X112829304Y-75985785D02*
X112862975Y-76086800D01*
X112862975Y-76086800D02*
X112862975Y-76154143D01*
X112862975Y-76154143D02*
X112829304Y-76255159D01*
X112829304Y-76255159D02*
X112694617Y-76389846D01*
X112694617Y-76389846D02*
X112593601Y-76423517D01*
X112593601Y-76423517D02*
X112526258Y-76423517D01*
X112526258Y-76423517D02*
X112425243Y-76389846D01*
X130676174Y-72617036D02*
X130575159Y-72044617D01*
X131080235Y-72212975D02*
X130373128Y-71505869D01*
X130373128Y-71505869D02*
X130103754Y-71775243D01*
X130103754Y-71775243D02*
X130070082Y-71876258D01*
X130070082Y-71876258D02*
X130070082Y-71943601D01*
X130070082Y-71943601D02*
X130103754Y-72044617D01*
X130103754Y-72044617D02*
X130204769Y-72145632D01*
X130204769Y-72145632D02*
X130305785Y-72179304D01*
X130305785Y-72179304D02*
X130373128Y-72179304D01*
X130373128Y-72179304D02*
X130474143Y-72145632D01*
X130474143Y-72145632D02*
X130743517Y-71876258D01*
X130002739Y-73290471D02*
X130406800Y-72886410D01*
X130204769Y-73088441D02*
X129497663Y-72381334D01*
X129497663Y-72381334D02*
X129666021Y-72415006D01*
X129666021Y-72415006D02*
X129800708Y-72415006D01*
X129800708Y-72415006D02*
X129901724Y-72381334D01*
X129666021Y-73627189D02*
X129531334Y-73761876D01*
X129531334Y-73761876D02*
X129430319Y-73795548D01*
X129430319Y-73795548D02*
X129362975Y-73795548D01*
X129362975Y-73795548D02*
X129194617Y-73761876D01*
X129194617Y-73761876D02*
X129026258Y-73660861D01*
X129026258Y-73660861D02*
X128756884Y-73391487D01*
X128756884Y-73391487D02*
X128723212Y-73290472D01*
X128723212Y-73290472D02*
X128723212Y-73223128D01*
X128723212Y-73223128D02*
X128756884Y-73122113D01*
X128756884Y-73122113D02*
X128891571Y-72987426D01*
X128891571Y-72987426D02*
X128992586Y-72953754D01*
X128992586Y-72953754D02*
X129059930Y-72953754D01*
X129059930Y-72953754D02*
X129160945Y-72987426D01*
X129160945Y-72987426D02*
X129329304Y-73155785D01*
X129329304Y-73155785D02*
X129362975Y-73256800D01*
X129362975Y-73256800D02*
X129362975Y-73324143D01*
X129362975Y-73324143D02*
X129329304Y-73425159D01*
X129329304Y-73425159D02*
X129194617Y-73559846D01*
X129194617Y-73559846D02*
X129093601Y-73593517D01*
X129093601Y-73593517D02*
X129026258Y-73593517D01*
X129026258Y-73593517D02*
X128925243Y-73559846D01*
X69164285Y-105184819D02*
X69430952Y-104708628D01*
X69621428Y-105184819D02*
X69621428Y-104184819D01*
X69621428Y-104184819D02*
X69316666Y-104184819D01*
X69316666Y-104184819D02*
X69240476Y-104232438D01*
X69240476Y-104232438D02*
X69202381Y-104280057D01*
X69202381Y-104280057D02*
X69164285Y-104375295D01*
X69164285Y-104375295D02*
X69164285Y-104518152D01*
X69164285Y-104518152D02*
X69202381Y-104613390D01*
X69202381Y-104613390D02*
X69240476Y-104661009D01*
X69240476Y-104661009D02*
X69316666Y-104708628D01*
X69316666Y-104708628D02*
X69621428Y-104708628D01*
X68859524Y-104280057D02*
X68821428Y-104232438D01*
X68821428Y-104232438D02*
X68745238Y-104184819D01*
X68745238Y-104184819D02*
X68554762Y-104184819D01*
X68554762Y-104184819D02*
X68478571Y-104232438D01*
X68478571Y-104232438D02*
X68440476Y-104280057D01*
X68440476Y-104280057D02*
X68402381Y-104375295D01*
X68402381Y-104375295D02*
X68402381Y-104470533D01*
X68402381Y-104470533D02*
X68440476Y-104613390D01*
X68440476Y-104613390D02*
X68897619Y-105184819D01*
X68897619Y-105184819D02*
X68402381Y-105184819D01*
X68021428Y-105184819D02*
X67869047Y-105184819D01*
X67869047Y-105184819D02*
X67792857Y-105137200D01*
X67792857Y-105137200D02*
X67754761Y-105089580D01*
X67754761Y-105089580D02*
X67678571Y-104946723D01*
X67678571Y-104946723D02*
X67640476Y-104756247D01*
X67640476Y-104756247D02*
X67640476Y-104375295D01*
X67640476Y-104375295D02*
X67678571Y-104280057D01*
X67678571Y-104280057D02*
X67716666Y-104232438D01*
X67716666Y-104232438D02*
X67792857Y-104184819D01*
X67792857Y-104184819D02*
X67945238Y-104184819D01*
X67945238Y-104184819D02*
X68021428Y-104232438D01*
X68021428Y-104232438D02*
X68059523Y-104280057D01*
X68059523Y-104280057D02*
X68097619Y-104375295D01*
X68097619Y-104375295D02*
X68097619Y-104613390D01*
X68097619Y-104613390D02*
X68059523Y-104708628D01*
X68059523Y-104708628D02*
X68021428Y-104756247D01*
X68021428Y-104756247D02*
X67945238Y-104803866D01*
X67945238Y-104803866D02*
X67792857Y-104803866D01*
X67792857Y-104803866D02*
X67716666Y-104756247D01*
X67716666Y-104756247D02*
X67678571Y-104708628D01*
X67678571Y-104708628D02*
X67640476Y-104613390D01*
X72864285Y-108039580D02*
X72902381Y-108087200D01*
X72902381Y-108087200D02*
X73016666Y-108134819D01*
X73016666Y-108134819D02*
X73092857Y-108134819D01*
X73092857Y-108134819D02*
X73207143Y-108087200D01*
X73207143Y-108087200D02*
X73283333Y-107991961D01*
X73283333Y-107991961D02*
X73321428Y-107896723D01*
X73321428Y-107896723D02*
X73359524Y-107706247D01*
X73359524Y-107706247D02*
X73359524Y-107563390D01*
X73359524Y-107563390D02*
X73321428Y-107372914D01*
X73321428Y-107372914D02*
X73283333Y-107277676D01*
X73283333Y-107277676D02*
X73207143Y-107182438D01*
X73207143Y-107182438D02*
X73092857Y-107134819D01*
X73092857Y-107134819D02*
X73016666Y-107134819D01*
X73016666Y-107134819D02*
X72902381Y-107182438D01*
X72902381Y-107182438D02*
X72864285Y-107230057D01*
X72559524Y-107230057D02*
X72521428Y-107182438D01*
X72521428Y-107182438D02*
X72445238Y-107134819D01*
X72445238Y-107134819D02*
X72254762Y-107134819D01*
X72254762Y-107134819D02*
X72178571Y-107182438D01*
X72178571Y-107182438D02*
X72140476Y-107230057D01*
X72140476Y-107230057D02*
X72102381Y-107325295D01*
X72102381Y-107325295D02*
X72102381Y-107420533D01*
X72102381Y-107420533D02*
X72140476Y-107563390D01*
X72140476Y-107563390D02*
X72597619Y-108134819D01*
X72597619Y-108134819D02*
X72102381Y-108134819D01*
X71607142Y-107134819D02*
X71530952Y-107134819D01*
X71530952Y-107134819D02*
X71454761Y-107182438D01*
X71454761Y-107182438D02*
X71416666Y-107230057D01*
X71416666Y-107230057D02*
X71378571Y-107325295D01*
X71378571Y-107325295D02*
X71340476Y-107515771D01*
X71340476Y-107515771D02*
X71340476Y-107753866D01*
X71340476Y-107753866D02*
X71378571Y-107944342D01*
X71378571Y-107944342D02*
X71416666Y-108039580D01*
X71416666Y-108039580D02*
X71454761Y-108087200D01*
X71454761Y-108087200D02*
X71530952Y-108134819D01*
X71530952Y-108134819D02*
X71607142Y-108134819D01*
X71607142Y-108134819D02*
X71683333Y-108087200D01*
X71683333Y-108087200D02*
X71721428Y-108039580D01*
X71721428Y-108039580D02*
X71759523Y-107944342D01*
X71759523Y-107944342D02*
X71797619Y-107753866D01*
X71797619Y-107753866D02*
X71797619Y-107515771D01*
X71797619Y-107515771D02*
X71759523Y-107325295D01*
X71759523Y-107325295D02*
X71721428Y-107230057D01*
X71721428Y-107230057D02*
X71683333Y-107182438D01*
X71683333Y-107182438D02*
X71607142Y-107134819D01*
D12*
X137911190Y-87984318D02*
X138515952Y-87984318D01*
X138515952Y-87984318D02*
X138515952Y-86714318D01*
X137487857Y-87319080D02*
X137064523Y-87319080D01*
X136883095Y-87984318D02*
X137487857Y-87984318D01*
X137487857Y-87984318D02*
X137487857Y-86714318D01*
X137487857Y-86714318D02*
X136883095Y-86714318D01*
X136338809Y-87984318D02*
X136338809Y-86714318D01*
X136338809Y-86714318D02*
X136036428Y-86714318D01*
X136036428Y-86714318D02*
X135854999Y-86774794D01*
X135854999Y-86774794D02*
X135734047Y-86895746D01*
X135734047Y-86895746D02*
X135673570Y-87016699D01*
X135673570Y-87016699D02*
X135613094Y-87258603D01*
X135613094Y-87258603D02*
X135613094Y-87440032D01*
X135613094Y-87440032D02*
X135673570Y-87681937D01*
X135673570Y-87681937D02*
X135734047Y-87802889D01*
X135734047Y-87802889D02*
X135854999Y-87923842D01*
X135854999Y-87923842D02*
X136036428Y-87984318D01*
X136036428Y-87984318D02*
X136338809Y-87984318D01*
X134403570Y-87984318D02*
X135129285Y-87984318D01*
X134766428Y-87984318D02*
X134766428Y-86714318D01*
X134766428Y-86714318D02*
X134887380Y-86895746D01*
X134887380Y-86895746D02*
X135008332Y-87016699D01*
X135008332Y-87016699D02*
X135129285Y-87077175D01*
D10*
X76644285Y-95514819D02*
X76910952Y-95038628D01*
X77101428Y-95514819D02*
X77101428Y-94514819D01*
X77101428Y-94514819D02*
X76796666Y-94514819D01*
X76796666Y-94514819D02*
X76720476Y-94562438D01*
X76720476Y-94562438D02*
X76682381Y-94610057D01*
X76682381Y-94610057D02*
X76644285Y-94705295D01*
X76644285Y-94705295D02*
X76644285Y-94848152D01*
X76644285Y-94848152D02*
X76682381Y-94943390D01*
X76682381Y-94943390D02*
X76720476Y-94991009D01*
X76720476Y-94991009D02*
X76796666Y-95038628D01*
X76796666Y-95038628D02*
X77101428Y-95038628D01*
X76377619Y-94514819D02*
X75882381Y-94514819D01*
X75882381Y-94514819D02*
X76149047Y-94895771D01*
X76149047Y-94895771D02*
X76034762Y-94895771D01*
X76034762Y-94895771D02*
X75958571Y-94943390D01*
X75958571Y-94943390D02*
X75920476Y-94991009D01*
X75920476Y-94991009D02*
X75882381Y-95086247D01*
X75882381Y-95086247D02*
X75882381Y-95324342D01*
X75882381Y-95324342D02*
X75920476Y-95419580D01*
X75920476Y-95419580D02*
X75958571Y-95467200D01*
X75958571Y-95467200D02*
X76034762Y-95514819D01*
X76034762Y-95514819D02*
X76263333Y-95514819D01*
X76263333Y-95514819D02*
X76339524Y-95467200D01*
X76339524Y-95467200D02*
X76377619Y-95419580D01*
X75387142Y-94514819D02*
X75310952Y-94514819D01*
X75310952Y-94514819D02*
X75234761Y-94562438D01*
X75234761Y-94562438D02*
X75196666Y-94610057D01*
X75196666Y-94610057D02*
X75158571Y-94705295D01*
X75158571Y-94705295D02*
X75120476Y-94895771D01*
X75120476Y-94895771D02*
X75120476Y-95133866D01*
X75120476Y-95133866D02*
X75158571Y-95324342D01*
X75158571Y-95324342D02*
X75196666Y-95419580D01*
X75196666Y-95419580D02*
X75234761Y-95467200D01*
X75234761Y-95467200D02*
X75310952Y-95514819D01*
X75310952Y-95514819D02*
X75387142Y-95514819D01*
X75387142Y-95514819D02*
X75463333Y-95467200D01*
X75463333Y-95467200D02*
X75501428Y-95419580D01*
X75501428Y-95419580D02*
X75539523Y-95324342D01*
X75539523Y-95324342D02*
X75577619Y-95133866D01*
X75577619Y-95133866D02*
X75577619Y-94895771D01*
X75577619Y-94895771D02*
X75539523Y-94705295D01*
X75539523Y-94705295D02*
X75501428Y-94610057D01*
X75501428Y-94610057D02*
X75463333Y-94562438D01*
X75463333Y-94562438D02*
X75387142Y-94514819D01*
D12*
X116323895Y-57467156D02*
X116452185Y-57509919D01*
X116452185Y-57509919D02*
X116623237Y-57509919D01*
X116623237Y-57509919D02*
X116879816Y-57509919D01*
X116879816Y-57509919D02*
X117008105Y-57552683D01*
X117008105Y-57552683D02*
X117093631Y-57638209D01*
X116837053Y-57809261D02*
X116965342Y-57852024D01*
X116965342Y-57852024D02*
X117136395Y-57852024D01*
X117136395Y-57852024D02*
X117350210Y-57723735D01*
X117350210Y-57723735D02*
X117649552Y-57424393D01*
X117649552Y-57424393D02*
X117777841Y-57210578D01*
X117777841Y-57210578D02*
X117777841Y-57039525D01*
X117777841Y-57039525D02*
X117735078Y-56911236D01*
X117735078Y-56911236D02*
X117564026Y-56740183D01*
X117564026Y-56740183D02*
X117435736Y-56697420D01*
X117435736Y-56697420D02*
X117264684Y-56697420D01*
X117264684Y-56697420D02*
X117050868Y-56825709D01*
X117050868Y-56825709D02*
X116751526Y-57125051D01*
X116751526Y-57125051D02*
X116623237Y-57338867D01*
X116623237Y-57338867D02*
X116623237Y-57509919D01*
X116623237Y-57509919D02*
X116666000Y-57638209D01*
X116666000Y-57638209D02*
X116837053Y-57809261D01*
X116580474Y-55756631D02*
X116751527Y-55927684D01*
X116751527Y-55927684D02*
X116794290Y-56055973D01*
X116794290Y-56055973D02*
X116794290Y-56141500D01*
X116794290Y-56141500D02*
X116751527Y-56355315D01*
X116751527Y-56355315D02*
X116623237Y-56569131D01*
X116623237Y-56569131D02*
X116281132Y-56911236D01*
X116281132Y-56911236D02*
X116152843Y-56953999D01*
X116152843Y-56953999D02*
X116067317Y-56953999D01*
X116067317Y-56953999D02*
X115939027Y-56911236D01*
X115939027Y-56911236D02*
X115767975Y-56740183D01*
X115767975Y-56740183D02*
X115725212Y-56611894D01*
X115725212Y-56611894D02*
X115725212Y-56526368D01*
X115725212Y-56526368D02*
X115767975Y-56398078D01*
X115767975Y-56398078D02*
X115981790Y-56184263D01*
X115981790Y-56184263D02*
X116110080Y-56141500D01*
X116110080Y-56141500D02*
X116195606Y-56141500D01*
X116195606Y-56141500D02*
X116323895Y-56184263D01*
X116323895Y-56184263D02*
X116494948Y-56355315D01*
X116494948Y-56355315D02*
X116537711Y-56483605D01*
X116537711Y-56483605D02*
X116537711Y-56569131D01*
X116537711Y-56569131D02*
X116494948Y-56697420D01*
D10*
X70650419Y-91924285D02*
X70602800Y-91962381D01*
X70602800Y-91962381D02*
X70555180Y-92076666D01*
X70555180Y-92076666D02*
X70555180Y-92152857D01*
X70555180Y-92152857D02*
X70602800Y-92267143D01*
X70602800Y-92267143D02*
X70698038Y-92343333D01*
X70698038Y-92343333D02*
X70793276Y-92381428D01*
X70793276Y-92381428D02*
X70983752Y-92419524D01*
X70983752Y-92419524D02*
X71126609Y-92419524D01*
X71126609Y-92419524D02*
X71317085Y-92381428D01*
X71317085Y-92381428D02*
X71412323Y-92343333D01*
X71412323Y-92343333D02*
X71507561Y-92267143D01*
X71507561Y-92267143D02*
X71555180Y-92152857D01*
X71555180Y-92152857D02*
X71555180Y-92076666D01*
X71555180Y-92076666D02*
X71507561Y-91962381D01*
X71507561Y-91962381D02*
X71459942Y-91924285D01*
X71459942Y-91619524D02*
X71507561Y-91581428D01*
X71507561Y-91581428D02*
X71555180Y-91505238D01*
X71555180Y-91505238D02*
X71555180Y-91314762D01*
X71555180Y-91314762D02*
X71507561Y-91238571D01*
X71507561Y-91238571D02*
X71459942Y-91200476D01*
X71459942Y-91200476D02*
X71364704Y-91162381D01*
X71364704Y-91162381D02*
X71269466Y-91162381D01*
X71269466Y-91162381D02*
X71126609Y-91200476D01*
X71126609Y-91200476D02*
X70555180Y-91657619D01*
X70555180Y-91657619D02*
X70555180Y-91162381D01*
X71221847Y-90476666D02*
X70555180Y-90476666D01*
X71602800Y-90667142D02*
X70888514Y-90857619D01*
X70888514Y-90857619D02*
X70888514Y-90362380D01*
X74892857Y-83054819D02*
X75226190Y-82578628D01*
X75464285Y-83054819D02*
X75464285Y-82054819D01*
X75464285Y-82054819D02*
X75083333Y-82054819D01*
X75083333Y-82054819D02*
X74988095Y-82102438D01*
X74988095Y-82102438D02*
X74940476Y-82150057D01*
X74940476Y-82150057D02*
X74892857Y-82245295D01*
X74892857Y-82245295D02*
X74892857Y-82388152D01*
X74892857Y-82388152D02*
X74940476Y-82483390D01*
X74940476Y-82483390D02*
X74988095Y-82531009D01*
X74988095Y-82531009D02*
X75083333Y-82578628D01*
X75083333Y-82578628D02*
X75464285Y-82578628D01*
X74559523Y-82054819D02*
X73940476Y-82054819D01*
X73940476Y-82054819D02*
X74273809Y-82435771D01*
X74273809Y-82435771D02*
X74130952Y-82435771D01*
X74130952Y-82435771D02*
X74035714Y-82483390D01*
X74035714Y-82483390D02*
X73988095Y-82531009D01*
X73988095Y-82531009D02*
X73940476Y-82626247D01*
X73940476Y-82626247D02*
X73940476Y-82864342D01*
X73940476Y-82864342D02*
X73988095Y-82959580D01*
X73988095Y-82959580D02*
X74035714Y-83007200D01*
X74035714Y-83007200D02*
X74130952Y-83054819D01*
X74130952Y-83054819D02*
X74416666Y-83054819D01*
X74416666Y-83054819D02*
X74511904Y-83007200D01*
X74511904Y-83007200D02*
X74559523Y-82959580D01*
X73083333Y-82388152D02*
X73083333Y-83054819D01*
X73321428Y-82007200D02*
X73559523Y-82721485D01*
X73559523Y-82721485D02*
X72940476Y-82721485D01*
X100096666Y-24609580D02*
X100144285Y-24657200D01*
X100144285Y-24657200D02*
X100287142Y-24704819D01*
X100287142Y-24704819D02*
X100382380Y-24704819D01*
X100382380Y-24704819D02*
X100525237Y-24657200D01*
X100525237Y-24657200D02*
X100620475Y-24561961D01*
X100620475Y-24561961D02*
X100668094Y-24466723D01*
X100668094Y-24466723D02*
X100715713Y-24276247D01*
X100715713Y-24276247D02*
X100715713Y-24133390D01*
X100715713Y-24133390D02*
X100668094Y-23942914D01*
X100668094Y-23942914D02*
X100620475Y-23847676D01*
X100620475Y-23847676D02*
X100525237Y-23752438D01*
X100525237Y-23752438D02*
X100382380Y-23704819D01*
X100382380Y-23704819D02*
X100287142Y-23704819D01*
X100287142Y-23704819D02*
X100144285Y-23752438D01*
X100144285Y-23752438D02*
X100096666Y-23800057D01*
X99715713Y-23800057D02*
X99668094Y-23752438D01*
X99668094Y-23752438D02*
X99572856Y-23704819D01*
X99572856Y-23704819D02*
X99334761Y-23704819D01*
X99334761Y-23704819D02*
X99239523Y-23752438D01*
X99239523Y-23752438D02*
X99191904Y-23800057D01*
X99191904Y-23800057D02*
X99144285Y-23895295D01*
X99144285Y-23895295D02*
X99144285Y-23990533D01*
X99144285Y-23990533D02*
X99191904Y-24133390D01*
X99191904Y-24133390D02*
X99763332Y-24704819D01*
X99763332Y-24704819D02*
X99144285Y-24704819D01*
X131546174Y-77307036D02*
X131445159Y-76734617D01*
X131950235Y-76902975D02*
X131243128Y-76195869D01*
X131243128Y-76195869D02*
X130973754Y-76465243D01*
X130973754Y-76465243D02*
X130940082Y-76566258D01*
X130940082Y-76566258D02*
X130940082Y-76633601D01*
X130940082Y-76633601D02*
X130973754Y-76734617D01*
X130973754Y-76734617D02*
X131074769Y-76835632D01*
X131074769Y-76835632D02*
X131175785Y-76869304D01*
X131175785Y-76869304D02*
X131243128Y-76869304D01*
X131243128Y-76869304D02*
X131344143Y-76835632D01*
X131344143Y-76835632D02*
X131613517Y-76566258D01*
X130637037Y-76936647D02*
X130569693Y-76936647D01*
X130569693Y-76936647D02*
X130468678Y-76970319D01*
X130468678Y-76970319D02*
X130300319Y-77138678D01*
X130300319Y-77138678D02*
X130266647Y-77239693D01*
X130266647Y-77239693D02*
X130266647Y-77307036D01*
X130266647Y-77307036D02*
X130300319Y-77408052D01*
X130300319Y-77408052D02*
X130367663Y-77475395D01*
X130367663Y-77475395D02*
X130502350Y-77542739D01*
X130502350Y-77542739D02*
X131310472Y-77542739D01*
X131310472Y-77542739D02*
X130872739Y-77980471D01*
X129727899Y-77711098D02*
X129660556Y-77778441D01*
X129660556Y-77778441D02*
X129626884Y-77879456D01*
X129626884Y-77879456D02*
X129626884Y-77946800D01*
X129626884Y-77946800D02*
X129660556Y-78047815D01*
X129660556Y-78047815D02*
X129761571Y-78216174D01*
X129761571Y-78216174D02*
X129929930Y-78384533D01*
X129929930Y-78384533D02*
X130098288Y-78485548D01*
X130098288Y-78485548D02*
X130199304Y-78519220D01*
X130199304Y-78519220D02*
X130266647Y-78519220D01*
X130266647Y-78519220D02*
X130367662Y-78485548D01*
X130367662Y-78485548D02*
X130435006Y-78418204D01*
X130435006Y-78418204D02*
X130468678Y-78317189D01*
X130468678Y-78317189D02*
X130468678Y-78249846D01*
X130468678Y-78249846D02*
X130435006Y-78148830D01*
X130435006Y-78148830D02*
X130333991Y-77980472D01*
X130333991Y-77980472D02*
X130165632Y-77812113D01*
X130165632Y-77812113D02*
X129997273Y-77711098D01*
X129997273Y-77711098D02*
X129896258Y-77677426D01*
X129896258Y-77677426D02*
X129828914Y-77677426D01*
X129828914Y-77677426D02*
X129727899Y-77711098D01*
D12*
X77847381Y-69894318D02*
X77847381Y-68624318D01*
X77847381Y-68624318D02*
X77545000Y-68624318D01*
X77545000Y-68624318D02*
X77363571Y-68684794D01*
X77363571Y-68684794D02*
X77242619Y-68805746D01*
X77242619Y-68805746D02*
X77182142Y-68926699D01*
X77182142Y-68926699D02*
X77121666Y-69168603D01*
X77121666Y-69168603D02*
X77121666Y-69350032D01*
X77121666Y-69350032D02*
X77182142Y-69591937D01*
X77182142Y-69591937D02*
X77242619Y-69712889D01*
X77242619Y-69712889D02*
X77363571Y-69833842D01*
X77363571Y-69833842D02*
X77545000Y-69894318D01*
X77545000Y-69894318D02*
X77847381Y-69894318D01*
X76033095Y-69047651D02*
X76033095Y-69894318D01*
X76335476Y-68563842D02*
X76637857Y-69470984D01*
X76637857Y-69470984D02*
X75851666Y-69470984D01*
X101061666Y-38673365D02*
X101122142Y-38733842D01*
X101122142Y-38733842D02*
X101303571Y-38794318D01*
X101303571Y-38794318D02*
X101424523Y-38794318D01*
X101424523Y-38794318D02*
X101605952Y-38733842D01*
X101605952Y-38733842D02*
X101726904Y-38612889D01*
X101726904Y-38612889D02*
X101787381Y-38491937D01*
X101787381Y-38491937D02*
X101847857Y-38250032D01*
X101847857Y-38250032D02*
X101847857Y-38068603D01*
X101847857Y-38068603D02*
X101787381Y-37826699D01*
X101787381Y-37826699D02*
X101726904Y-37705746D01*
X101726904Y-37705746D02*
X101605952Y-37584794D01*
X101605952Y-37584794D02*
X101424523Y-37524318D01*
X101424523Y-37524318D02*
X101303571Y-37524318D01*
X101303571Y-37524318D02*
X101122142Y-37584794D01*
X101122142Y-37584794D02*
X101061666Y-37645270D01*
X100638333Y-37524318D02*
X99852142Y-37524318D01*
X99852142Y-37524318D02*
X100275476Y-38008127D01*
X100275476Y-38008127D02*
X100094047Y-38008127D01*
X100094047Y-38008127D02*
X99973095Y-38068603D01*
X99973095Y-38068603D02*
X99912619Y-38129080D01*
X99912619Y-38129080D02*
X99852142Y-38250032D01*
X99852142Y-38250032D02*
X99852142Y-38552413D01*
X99852142Y-38552413D02*
X99912619Y-38673365D01*
X99912619Y-38673365D02*
X99973095Y-38733842D01*
X99973095Y-38733842D02*
X100094047Y-38794318D01*
X100094047Y-38794318D02*
X100456904Y-38794318D01*
X100456904Y-38794318D02*
X100577857Y-38733842D01*
X100577857Y-38733842D02*
X100638333Y-38673365D01*
X69706428Y-80174318D02*
X70129762Y-79569556D01*
X70432143Y-80174318D02*
X70432143Y-78904318D01*
X70432143Y-78904318D02*
X69948333Y-78904318D01*
X69948333Y-78904318D02*
X69827381Y-78964794D01*
X69827381Y-78964794D02*
X69766904Y-79025270D01*
X69766904Y-79025270D02*
X69706428Y-79146222D01*
X69706428Y-79146222D02*
X69706428Y-79327651D01*
X69706428Y-79327651D02*
X69766904Y-79448603D01*
X69766904Y-79448603D02*
X69827381Y-79509080D01*
X69827381Y-79509080D02*
X69948333Y-79569556D01*
X69948333Y-79569556D02*
X70432143Y-79569556D01*
X69283095Y-78904318D02*
X68496904Y-78904318D01*
X68496904Y-78904318D02*
X68920238Y-79388127D01*
X68920238Y-79388127D02*
X68738809Y-79388127D01*
X68738809Y-79388127D02*
X68617857Y-79448603D01*
X68617857Y-79448603D02*
X68557381Y-79509080D01*
X68557381Y-79509080D02*
X68496904Y-79630032D01*
X68496904Y-79630032D02*
X68496904Y-79932413D01*
X68496904Y-79932413D02*
X68557381Y-80053365D01*
X68557381Y-80053365D02*
X68617857Y-80113842D01*
X68617857Y-80113842D02*
X68738809Y-80174318D01*
X68738809Y-80174318D02*
X69101666Y-80174318D01*
X69101666Y-80174318D02*
X69222619Y-80113842D01*
X69222619Y-80113842D02*
X69283095Y-80053365D01*
X67347857Y-78904318D02*
X67952619Y-78904318D01*
X67952619Y-78904318D02*
X68013095Y-79509080D01*
X68013095Y-79509080D02*
X67952619Y-79448603D01*
X67952619Y-79448603D02*
X67831666Y-79388127D01*
X67831666Y-79388127D02*
X67529285Y-79388127D01*
X67529285Y-79388127D02*
X67408333Y-79448603D01*
X67408333Y-79448603D02*
X67347857Y-79509080D01*
X67347857Y-79509080D02*
X67287380Y-79630032D01*
X67287380Y-79630032D02*
X67287380Y-79932413D01*
X67287380Y-79932413D02*
X67347857Y-80053365D01*
X67347857Y-80053365D02*
X67408333Y-80113842D01*
X67408333Y-80113842D02*
X67529285Y-80174318D01*
X67529285Y-80174318D02*
X67831666Y-80174318D01*
X67831666Y-80174318D02*
X67952619Y-80113842D01*
X67952619Y-80113842D02*
X68013095Y-80053365D01*
D10*
X69704285Y-92974819D02*
X69970952Y-92498628D01*
X70161428Y-92974819D02*
X70161428Y-91974819D01*
X70161428Y-91974819D02*
X69856666Y-91974819D01*
X69856666Y-91974819D02*
X69780476Y-92022438D01*
X69780476Y-92022438D02*
X69742381Y-92070057D01*
X69742381Y-92070057D02*
X69704285Y-92165295D01*
X69704285Y-92165295D02*
X69704285Y-92308152D01*
X69704285Y-92308152D02*
X69742381Y-92403390D01*
X69742381Y-92403390D02*
X69780476Y-92451009D01*
X69780476Y-92451009D02*
X69856666Y-92498628D01*
X69856666Y-92498628D02*
X70161428Y-92498628D01*
X69437619Y-91974819D02*
X68942381Y-91974819D01*
X68942381Y-91974819D02*
X69209047Y-92355771D01*
X69209047Y-92355771D02*
X69094762Y-92355771D01*
X69094762Y-92355771D02*
X69018571Y-92403390D01*
X69018571Y-92403390D02*
X68980476Y-92451009D01*
X68980476Y-92451009D02*
X68942381Y-92546247D01*
X68942381Y-92546247D02*
X68942381Y-92784342D01*
X68942381Y-92784342D02*
X68980476Y-92879580D01*
X68980476Y-92879580D02*
X69018571Y-92927200D01*
X69018571Y-92927200D02*
X69094762Y-92974819D01*
X69094762Y-92974819D02*
X69323333Y-92974819D01*
X69323333Y-92974819D02*
X69399524Y-92927200D01*
X69399524Y-92927200D02*
X69437619Y-92879580D01*
X68675714Y-91974819D02*
X68180476Y-91974819D01*
X68180476Y-91974819D02*
X68447142Y-92355771D01*
X68447142Y-92355771D02*
X68332857Y-92355771D01*
X68332857Y-92355771D02*
X68256666Y-92403390D01*
X68256666Y-92403390D02*
X68218571Y-92451009D01*
X68218571Y-92451009D02*
X68180476Y-92546247D01*
X68180476Y-92546247D02*
X68180476Y-92784342D01*
X68180476Y-92784342D02*
X68218571Y-92879580D01*
X68218571Y-92879580D02*
X68256666Y-92927200D01*
X68256666Y-92927200D02*
X68332857Y-92974819D01*
X68332857Y-92974819D02*
X68561428Y-92974819D01*
X68561428Y-92974819D02*
X68637619Y-92927200D01*
X68637619Y-92927200D02*
X68675714Y-92879580D01*
X118566174Y-78077036D02*
X118465159Y-77504617D01*
X118970235Y-77672975D02*
X118263128Y-76965869D01*
X118263128Y-76965869D02*
X117993754Y-77235243D01*
X117993754Y-77235243D02*
X117960082Y-77336258D01*
X117960082Y-77336258D02*
X117960082Y-77403601D01*
X117960082Y-77403601D02*
X117993754Y-77504617D01*
X117993754Y-77504617D02*
X118094769Y-77605632D01*
X118094769Y-77605632D02*
X118195785Y-77639304D01*
X118195785Y-77639304D02*
X118263128Y-77639304D01*
X118263128Y-77639304D02*
X118364143Y-77605632D01*
X118364143Y-77605632D02*
X118633517Y-77336258D01*
X117657037Y-77706647D02*
X117589693Y-77706647D01*
X117589693Y-77706647D02*
X117488678Y-77740319D01*
X117488678Y-77740319D02*
X117320319Y-77908678D01*
X117320319Y-77908678D02*
X117286647Y-78009693D01*
X117286647Y-78009693D02*
X117286647Y-78077036D01*
X117286647Y-78077036D02*
X117320319Y-78178052D01*
X117320319Y-78178052D02*
X117387663Y-78245395D01*
X117387663Y-78245395D02*
X117522350Y-78312739D01*
X117522350Y-78312739D02*
X118330472Y-78312739D01*
X118330472Y-78312739D02*
X117892739Y-78750471D01*
X116949930Y-78279067D02*
X116512197Y-78716800D01*
X116512197Y-78716800D02*
X117017273Y-78750472D01*
X117017273Y-78750472D02*
X116916258Y-78851487D01*
X116916258Y-78851487D02*
X116882586Y-78952502D01*
X116882586Y-78952502D02*
X116882586Y-79019846D01*
X116882586Y-79019846D02*
X116916258Y-79120861D01*
X116916258Y-79120861D02*
X117084617Y-79289220D01*
X117084617Y-79289220D02*
X117185632Y-79322891D01*
X117185632Y-79322891D02*
X117252975Y-79322891D01*
X117252975Y-79322891D02*
X117353991Y-79289220D01*
X117353991Y-79289220D02*
X117556021Y-79087189D01*
X117556021Y-79087189D02*
X117589693Y-78986174D01*
X117589693Y-78986174D02*
X117589693Y-78918830D01*
X139792857Y-114684819D02*
X140126190Y-114208628D01*
X140364285Y-114684819D02*
X140364285Y-113684819D01*
X140364285Y-113684819D02*
X139983333Y-113684819D01*
X139983333Y-113684819D02*
X139888095Y-113732438D01*
X139888095Y-113732438D02*
X139840476Y-113780057D01*
X139840476Y-113780057D02*
X139792857Y-113875295D01*
X139792857Y-113875295D02*
X139792857Y-114018152D01*
X139792857Y-114018152D02*
X139840476Y-114113390D01*
X139840476Y-114113390D02*
X139888095Y-114161009D01*
X139888095Y-114161009D02*
X139983333Y-114208628D01*
X139983333Y-114208628D02*
X140364285Y-114208628D01*
X138840476Y-114684819D02*
X139411904Y-114684819D01*
X139126190Y-114684819D02*
X139126190Y-113684819D01*
X139126190Y-113684819D02*
X139221428Y-113827676D01*
X139221428Y-113827676D02*
X139316666Y-113922914D01*
X139316666Y-113922914D02*
X139411904Y-113970533D01*
X138221428Y-113684819D02*
X138126190Y-113684819D01*
X138126190Y-113684819D02*
X138030952Y-113732438D01*
X138030952Y-113732438D02*
X137983333Y-113780057D01*
X137983333Y-113780057D02*
X137935714Y-113875295D01*
X137935714Y-113875295D02*
X137888095Y-114065771D01*
X137888095Y-114065771D02*
X137888095Y-114303866D01*
X137888095Y-114303866D02*
X137935714Y-114494342D01*
X137935714Y-114494342D02*
X137983333Y-114589580D01*
X137983333Y-114589580D02*
X138030952Y-114637200D01*
X138030952Y-114637200D02*
X138126190Y-114684819D01*
X138126190Y-114684819D02*
X138221428Y-114684819D01*
X138221428Y-114684819D02*
X138316666Y-114637200D01*
X138316666Y-114637200D02*
X138364285Y-114589580D01*
X138364285Y-114589580D02*
X138411904Y-114494342D01*
X138411904Y-114494342D02*
X138459523Y-114303866D01*
X138459523Y-114303866D02*
X138459523Y-114065771D01*
X138459523Y-114065771D02*
X138411904Y-113875295D01*
X138411904Y-113875295D02*
X138364285Y-113780057D01*
X138364285Y-113780057D02*
X138316666Y-113732438D01*
X138316666Y-113732438D02*
X138221428Y-113684819D01*
D13*
%TO.C,U3*%
X71359727Y-89100000D02*
G75*
G02*
X71207327Y-89100000I-76200J0D01*
G01*
X71207327Y-89100000D02*
G75*
G02*
X71359727Y-89100000I76200J0D01*
G01*
X78401927Y-84568000D02*
X72347929Y-84568000D01*
X72347929Y-89822000D02*
X78401927Y-89822000D01*
D14*
%TO.C,U2*%
X73185000Y-101720000D02*
X73185000Y-98720000D01*
X76255000Y-101720000D02*
X76255000Y-98720000D01*
D15*
X73565000Y-96700000D02*
G75*
G02*
X73365000Y-96700000I-100000J0D01*
G01*
X73365000Y-96700000D02*
G75*
G02*
X73565000Y-96700000I100000J0D01*
G01*
D13*
%TO.C,CR1*%
X107968000Y-44243500D02*
X112032000Y-44243500D01*
X112032000Y-41576500D02*
X107968000Y-41576500D01*
%TO.C,CR3*%
X77946500Y-63408000D02*
X77946500Y-67472000D01*
X80613500Y-67472000D02*
X80613500Y-63408000D01*
%TO.C,CR4*%
X159366500Y-96658000D02*
X159366500Y-100722000D01*
X162033500Y-100722000D02*
X162033500Y-96658000D01*
D14*
%TO.C,C23*%
X73765000Y-93320000D02*
X73615000Y-93320000D01*
X73772500Y-92450000D02*
X73627500Y-92450000D01*
D13*
%TO.C,CR2*%
X106606500Y-93768000D02*
X106606500Y-97832000D01*
X109273500Y-97832000D02*
X109273500Y-93768000D01*
%TO.C,F1*%
X127294047Y-57294800D02*
X121785953Y-57294800D01*
X127294047Y-51605200D02*
X121785953Y-51605200D01*
D15*
%TO.C,IC2*%
X121085165Y-67186408D02*
G75*
G02*
X120885165Y-67186408I-100000J0D01*
G01*
X120885165Y-67186408D02*
G75*
G02*
X121085165Y-67186408I100000J0D01*
G01*
D13*
%TO.C,R27*%
X168038891Y-107291500D02*
X168461109Y-107291500D01*
X168461109Y-106148500D02*
X168038891Y-106148500D01*
%TO.C,R11*%
X143983850Y-107283400D02*
X144156150Y-107283400D01*
X144156150Y-106216600D02*
X143983850Y-106216600D01*
%TO.C,R26*%
X123958088Y-60013746D02*
X123836254Y-59891912D01*
X123081912Y-60646254D02*
X123203746Y-60768088D01*
%TO.C,R14*%
X126508891Y-103241500D02*
X126931109Y-103241500D01*
X126931109Y-102098500D02*
X126508891Y-102098500D01*
%TO.C,C15*%
X120359850Y-65821500D02*
X121040150Y-65821500D01*
X121040150Y-64678500D02*
X120359850Y-64678500D01*
X122820900Y-65250000D02*
G75*
G02*
X122668500Y-65250000I-76200J0D01*
G01*
X122668500Y-65250000D02*
G75*
G02*
X122820900Y-65250000I76200J0D01*
G01*
%TO.C,R28*%
X69838891Y-99921500D02*
X70261109Y-99921500D01*
X70261109Y-98778500D02*
X69838891Y-98778500D01*
%TO.C,R2*%
X103206600Y-86323850D02*
X103206600Y-86496150D01*
X104273400Y-86496150D02*
X104273400Y-86323850D01*
D15*
%TO.C,L1*%
X102840000Y-27790000D02*
X103340000Y-27790000D01*
X102840000Y-38690000D02*
X102840000Y-27790000D01*
X103340000Y-38690000D02*
X102840000Y-38690000D01*
X107840000Y-25640000D02*
X107840000Y-25640000D01*
X107840000Y-25640000D02*
X107840000Y-25640000D01*
X107840000Y-25740000D02*
X107840000Y-25740000D01*
X112340000Y-38690000D02*
X112840000Y-38690000D01*
X112840000Y-27790000D02*
X112340000Y-27790000D01*
X112840000Y-38690000D02*
X112840000Y-27790000D01*
X107840000Y-25640000D02*
G75*
G02*
X107840000Y-25740000I0J-50000D01*
G01*
X107840000Y-25640000D02*
G75*
G02*
X107840000Y-25740000I0J-50000D01*
G01*
X107840000Y-25740000D02*
G75*
G02*
X107840000Y-25640000I0J50000D01*
G01*
D14*
%TO.C,R15*%
X125160000Y-69630000D02*
X125160000Y-69790000D01*
X125960000Y-69630000D02*
X125960000Y-69790000D01*
D16*
%TO.C,Q2*%
X121902500Y-93640000D02*
X121902500Y-97400000D01*
X123162500Y-93640000D02*
X121902500Y-93640000D01*
X127462500Y-93640000D02*
X128722500Y-93640000D01*
X128722500Y-93640000D02*
X128722500Y-97400000D01*
X128952500Y-98920000D02*
X128622500Y-98680000D01*
X128952500Y-98440000D01*
X128952500Y-98920000D01*
G36*
X128952500Y-98920000D02*
G01*
X128622500Y-98680000D01*
X128952500Y-98440000D01*
X128952500Y-98920000D01*
G37*
D13*
%TO.C,R1*%
X105706600Y-86333850D02*
X105706600Y-86506150D01*
X106773400Y-86506150D02*
X106773400Y-86333850D01*
D14*
%TO.C,R16*%
X129299411Y-63703726D02*
X129186274Y-63590589D01*
X128733726Y-64269411D02*
X128620589Y-64156274D01*
%TO.C,R18*%
X124173726Y-64809411D02*
X124060589Y-64696274D01*
X124739411Y-64243726D02*
X124626274Y-64130589D01*
D16*
%TO.C,U1*%
X98230000Y-27630000D02*
X99030000Y-27630000D01*
X98230000Y-30750000D02*
X99030000Y-30750000D01*
X99830000Y-27630000D02*
X99030000Y-27630000D01*
X99830000Y-30750000D02*
X99030000Y-30750000D01*
X100330000Y-27680000D02*
X100090000Y-27350000D01*
X100570000Y-27350000D01*
X100330000Y-27680000D01*
G36*
X100330000Y-27680000D02*
G01*
X100090000Y-27350000D01*
X100570000Y-27350000D01*
X100330000Y-27680000D01*
G37*
D11*
%TO.C,IC1*%
X133945000Y-94975000D02*
G75*
G02*
X133695000Y-94975000I-125000J0D01*
G01*
X133695000Y-94975000D02*
G75*
G02*
X133945000Y-94975000I125000J0D01*
G01*
D13*
%TO.C,R21*%
X125103746Y-81441912D02*
X124981912Y-81563746D01*
X125736254Y-82318088D02*
X125858088Y-82196254D01*
%TO.C,C11*%
X99906200Y-47985600D02*
G75*
G02*
X99753800Y-47985600I-76200J0D01*
G01*
X99753800Y-47985600D02*
G75*
G02*
X99906200Y-47985600I76200J0D01*
G01*
%TO.C,C6*%
X130898500Y-90319850D02*
X130898500Y-91000150D01*
X132041500Y-91000150D02*
X132041500Y-90319850D01*
X131546200Y-92704700D02*
G75*
G02*
X131393800Y-92704700I-76200J0D01*
G01*
X131393800Y-92704700D02*
G75*
G02*
X131546200Y-92704700I76200J0D01*
G01*
%TO.C,C25*%
X96938500Y-105829850D02*
X96938500Y-106510150D01*
X98081500Y-106510150D02*
X98081500Y-105829850D01*
X97586200Y-104125300D02*
G75*
G02*
X97433800Y-104125300I-76200J0D01*
G01*
X97433800Y-104125300D02*
G75*
G02*
X97586200Y-104125300I76200J0D01*
G01*
%TO.C,R3*%
X100806600Y-86313850D02*
X100806600Y-86486150D01*
X101873400Y-86486150D02*
X101873400Y-86313850D01*
D14*
%TO.C,R17*%
X126759411Y-66253726D02*
X126646274Y-66140589D01*
X126193726Y-66819411D02*
X126080589Y-66706274D01*
D17*
%TO.C,Q4*%
X110862323Y-64111899D02*
X113001321Y-66250897D01*
X112997786Y-61934010D02*
X115175675Y-64111899D01*
D13*
%TO.C,C8*%
X110068500Y-99179850D02*
X110068500Y-99860150D01*
X111211500Y-99860150D02*
X111211500Y-99179850D01*
X110716200Y-97475300D02*
G75*
G02*
X110563800Y-97475300I-76200J0D01*
G01*
X110563800Y-97475300D02*
G75*
G02*
X110716200Y-97475300I76200J0D01*
G01*
%TO.C,R4*%
X99348891Y-36481500D02*
X99771109Y-36481500D01*
X99771109Y-35338500D02*
X99348891Y-35338500D01*
%TO.C,R6*%
X137436600Y-93019150D02*
X137436600Y-93191450D01*
X138503400Y-93191450D02*
X138503400Y-93019150D01*
D16*
%TO.C,Q3*%
X112322500Y-93530000D02*
X112322500Y-97290000D01*
X113582500Y-93530000D02*
X112322500Y-93530000D01*
X117882500Y-93530000D02*
X119142500Y-93530000D01*
X119142500Y-93530000D02*
X119142500Y-97290000D01*
X119372500Y-98810000D02*
X119042500Y-98570000D01*
X119372500Y-98330000D01*
X119372500Y-98810000D01*
G36*
X119372500Y-98810000D02*
G01*
X119042500Y-98570000D01*
X119372500Y-98330000D01*
X119372500Y-98810000D01*
G37*
D17*
%TO.C,R9*%
X138650000Y-111110000D02*
X138650000Y-111110000D01*
X138650000Y-111210000D02*
X138650000Y-111210000D01*
X138650000Y-111110000D02*
G75*
G02*
X138650000Y-111210000I0J-50000D01*
G01*
X138650000Y-111210000D02*
G75*
G02*
X138650000Y-111110000I0J50000D01*
G01*
D13*
%TO.C,R24*%
X121791912Y-61756254D02*
X121913746Y-61878088D01*
X122668088Y-61123746D02*
X122546254Y-61001912D01*
D16*
%TO.C,Q1*%
X92080000Y-32820000D02*
X92080000Y-33470000D01*
X92080000Y-34120000D02*
X92080000Y-33470000D01*
X95200000Y-32820000D02*
X95200000Y-33470000D01*
X95200000Y-34120000D02*
X95200000Y-33470000D01*
X95480000Y-34872500D02*
X95150000Y-34632500D01*
X95480000Y-34392500D01*
X95480000Y-34872500D01*
G36*
X95480000Y-34872500D02*
G01*
X95150000Y-34632500D01*
X95480000Y-34392500D01*
X95480000Y-34872500D01*
G37*
D17*
%TO.C,L2*%
X78975000Y-98900000D02*
X93975000Y-98900000D01*
X78975000Y-103000000D02*
X78975000Y-98900000D01*
X78975000Y-110000000D02*
X78975000Y-113900000D01*
X78975000Y-113900000D02*
X93975000Y-113900000D01*
X93975000Y-98900000D02*
X93975000Y-102800000D01*
X93975000Y-114000000D02*
X93975000Y-110000000D01*
D15*
X95475000Y-104800000D02*
X95475000Y-104800000D01*
X95475000Y-105000000D02*
X95475000Y-105000000D01*
X95475000Y-104800000D02*
G75*
G02*
X95475000Y-105000000I0J-100000D01*
G01*
X95475000Y-105000000D02*
G75*
G02*
X95475000Y-104800000I0J100000D01*
G01*
D13*
%TO.C,C18*%
X123517941Y-78491742D02*
G75*
G02*
X123365543Y-78491742I-76199J0D01*
G01*
X123365543Y-78491742D02*
G75*
G02*
X123517941Y-78491742I76199J0D01*
G01*
%TO.C,C1*%
X97400800Y-33030000D02*
G75*
G02*
X97248400Y-33030000I-76200J0D01*
G01*
X97248400Y-33030000D02*
G75*
G02*
X97400800Y-33030000I76200J0D01*
G01*
D16*
%TO.C,Q5*%
X112286133Y-70861197D02*
X112745752Y-70401577D01*
X113205372Y-69941958D02*
X112745752Y-70401577D01*
X114492306Y-73067370D02*
X114951926Y-72607751D01*
X115411545Y-72148131D02*
X114951926Y-72607751D01*
X113603119Y-69614921D02*
X113200069Y-69551282D01*
X113539480Y-69211870D01*
X113603119Y-69614921D01*
G36*
X113603119Y-69614921D02*
G01*
X113200069Y-69551282D01*
X113539480Y-69211870D01*
X113603119Y-69614921D01*
G37*
D13*
%TO.C,C19*%
X115636411Y-72715366D02*
X115155366Y-73196411D01*
X115963589Y-74004634D02*
X116444634Y-73523589D01*
X117322020Y-71914179D02*
G75*
G02*
X117169622Y-71914179I-76199J0D01*
G01*
X117169622Y-71914179D02*
G75*
G02*
X117322020Y-71914179I76199J0D01*
G01*
D14*
%TO.C,R19*%
X127769411Y-74536274D02*
X127656274Y-74649411D01*
X127203726Y-73970589D02*
X127090589Y-74083726D01*
%TO.C,R29*%
X69800000Y-105710000D02*
X69640000Y-105710000D01*
X69800000Y-106510000D02*
X69640000Y-106510000D01*
D17*
%TO.C,LED1*%
X134865000Y-90060000D02*
X134865000Y-90060000D01*
X134965000Y-90060000D02*
X134965000Y-90060000D01*
X134865000Y-90060000D02*
G75*
G02*
X134965000Y-90060000I50000J0D01*
G01*
X134965000Y-90060000D02*
G75*
G02*
X134865000Y-90060000I-50000J0D01*
G01*
%TO.C,Q6*%
X117022947Y-62684454D02*
X114845058Y-60506565D01*
X119158410Y-60506565D02*
X117019412Y-58367567D01*
D15*
%TO.C,D4*%
X76338000Y-70480000D02*
X76338000Y-79050000D01*
X82242000Y-79050000D02*
X82242000Y-71110000D01*
D13*
%TO.C,R35*%
X72063850Y-80003400D02*
X72236150Y-80003400D01*
X72236150Y-78936600D02*
X72063850Y-78936600D01*
%TO.C,R23*%
X119063746Y-74971912D02*
X118941912Y-75093746D01*
X119696254Y-75848088D02*
X119818088Y-75726254D01*
D17*
%TO.C,R10*%
X138630000Y-112890000D02*
X138630000Y-112890000D01*
X138630000Y-112990000D02*
X138630000Y-112990000D01*
X138630000Y-112890000D02*
G75*
G02*
X138630000Y-112990000I0J-50000D01*
G01*
X138630000Y-112990000D02*
G75*
G02*
X138630000Y-112890000I0J50000D01*
G01*
%TD*%
M02*
