%TF.GenerationSoftware,KiCad,Pcbnew,9.0.1*%
%TF.CreationDate,2025-04-18T19:18:57+01:00*%
%TF.ProjectId,Robot_BMS,526f626f-745f-4424-9d53-2e6b69636164,rev?*%
%TF.SameCoordinates,Original*%
%TF.FileFunction,Copper,L1,Top*%
%TF.FilePolarity,Positive*%
%FSLAX46Y46*%
G04 Gerber Fmt 4.6, Leading zero omitted, Abs format (unit mm)*
G04 Created by KiCad (PCBNEW 9.0.1) date 2025-04-18 19:18:57*
%MOMM*%
%LPD*%
G01*
G04 APERTURE LIST*
G04 Aperture macros list*
%AMRoundRect*
0 Rectangle with rounded corners*
0 $1 Rounding radius*
0 $2 $3 $4 $5 $6 $7 $8 $9 X,Y pos of 4 corners*
0 Add a 4 corners polygon primitive as box body*
4,1,4,$2,$3,$4,$5,$6,$7,$8,$9,$2,$3,0*
0 Add four circle primitives for the rounded corners*
1,1,$1+$1,$2,$3*
1,1,$1+$1,$4,$5*
1,1,$1+$1,$6,$7*
1,1,$1+$1,$8,$9*
0 Add four rect primitives between the rounded corners*
20,1,$1+$1,$2,$3,$4,$5,0*
20,1,$1+$1,$4,$5,$6,$7,0*
20,1,$1+$1,$6,$7,$8,$9,0*
20,1,$1+$1,$8,$9,$2,$3,0*%
G04 Aperture macros list end*
%TA.AperFunction,SMDPad,CuDef*%
%ADD10RoundRect,0.150000X0.150000X0.625000X-0.150000X0.625000X-0.150000X-0.625000X0.150000X-0.625000X0*%
%TD*%
%TA.AperFunction,SMDPad,CuDef*%
%ADD11RoundRect,0.250000X0.350000X0.650000X-0.350000X0.650000X-0.350000X-0.650000X0.350000X-0.650000X0*%
%TD*%
%TA.AperFunction,ComponentPad*%
%ADD12R,4.650000X4.650000*%
%TD*%
%TA.AperFunction,ComponentPad*%
%ADD13C,4.650000*%
%TD*%
%TA.AperFunction,ComponentPad*%
%ADD14R,2.200000X2.200000*%
%TD*%
%TA.AperFunction,ComponentPad*%
%ADD15O,2.200000X2.200000*%
%TD*%
%TA.AperFunction,ComponentPad*%
%ADD16C,2.745000*%
%TD*%
%TA.AperFunction,ComponentPad*%
%ADD17C,0.914400*%
%TD*%
%TA.AperFunction,ComponentPad*%
%ADD18C,1.950000*%
%TD*%
%TA.AperFunction,ComponentPad*%
%ADD19R,2.300000X2.300000*%
%TD*%
%TA.AperFunction,ComponentPad*%
%ADD20C,2.300000*%
%TD*%
%TA.AperFunction,ComponentPad*%
%ADD21C,1.218000*%
%TD*%
%TA.AperFunction,ComponentPad*%
%ADD22C,1.800000*%
%TD*%
%TA.AperFunction,ComponentPad*%
%ADD23C,2.010000*%
%TD*%
%TA.AperFunction,SMDPad,CuDef*%
%ADD24R,0.700000X1.200000*%
%TD*%
%TA.AperFunction,SMDPad,CuDef*%
%ADD25R,0.760000X1.200000*%
%TD*%
%TA.AperFunction,SMDPad,CuDef*%
%ADD26R,0.800000X1.200000*%
%TD*%
%TA.AperFunction,ViaPad*%
%ADD27C,0.600000*%
%TD*%
%TA.AperFunction,ViaPad*%
%ADD28C,0.500000*%
%TD*%
%TA.AperFunction,ViaPad*%
%ADD29C,2.000000*%
%TD*%
%TA.AperFunction,Conductor*%
%ADD30C,0.200000*%
%TD*%
%TA.AperFunction,Conductor*%
%ADD31C,0.300000*%
%TD*%
%TA.AperFunction,Conductor*%
%ADD32C,3.000000*%
%TD*%
%TA.AperFunction,Conductor*%
%ADD33C,1.000000*%
%TD*%
%TA.AperFunction,Conductor*%
%ADD34C,0.500000*%
%TD*%
%TA.AperFunction,Conductor*%
%ADD35C,4.000000*%
%TD*%
G04 APERTURE END LIST*
D10*
%TO.P,J5,1,Pin_1*%
%TO.N,/Thermistors/ADC1_MCU*%
X100650000Y-118555000D03*
%TO.P,J5,2,Pin_2*%
%TO.N,/Thermistors/ADC2_MCU*%
X99650000Y-118555000D03*
%TO.P,J5,3,Pin_3*%
%TO.N,/Thermistors/ADC3_MCU*%
X98650000Y-118555000D03*
%TO.P,J5,4,Pin_4*%
%TO.N,/Battery Management/ALERT*%
X97650000Y-118555000D03*
D11*
%TO.P,J5,MP*%
%TO.N,N/C*%
X101950000Y-121080000D03*
X96350000Y-121080000D03*
%TD*%
D12*
%TO.P,J8,1,1*%
%TO.N,/Charging Circuit/DC_BARREL_JACK*%
X154577500Y-112362500D03*
D13*
%TO.P,J8,2,2*%
%TO.N,GND*%
X154577500Y-118162500D03*
%TO.P,J8,3,3*%
X159377500Y-115362500D03*
%TD*%
D14*
%TO.P,D2,1,K*%
%TO.N,/Charging Circuit/DC_BARREL_JACK*%
X154590000Y-106630000D03*
D15*
%TO.P,D2,2,A*%
%TO.N,Net-(D2-A)*%
X164750000Y-106630000D03*
%TD*%
D10*
%TO.P,J6,1,Pin_1*%
%TO.N,/Battery Management/MCU_CHRG_CTRL*%
X108630000Y-118560000D03*
%TO.P,J6,2,Pin_2*%
%TO.N,/Battery Management/MCU_DISCHRG_CTRL*%
X107630000Y-118560000D03*
%TO.P,J6,3,Pin_3*%
%TO.N,/To MCU OR System/MCU_USB_DETECT*%
X106630000Y-118560000D03*
%TO.P,J6,4,Pin_4*%
%TO.N,/Charging Circuit/MCU_CHARGE_EN*%
X105630000Y-118560000D03*
D11*
%TO.P,J6,MP*%
%TO.N,N/C*%
X109930000Y-121085000D03*
X104330000Y-121085000D03*
%TD*%
D16*
%TO.P,BT3,1_1*%
%TO.N,GND*%
X142580000Y-89550000D03*
%TO.P,BT3,1_2*%
X142580000Y-94630000D03*
%TO.P,BT3,1_3*%
X150200000Y-92090000D03*
%TD*%
D14*
%TO.P,D1,1,K*%
%TO.N,VBUS*%
X140490000Y-102760000D03*
D15*
%TO.P,D1,2,A*%
%TO.N,Net-(D1-A)*%
X130330000Y-102760000D03*
%TD*%
D17*
%TO.P,TH2,1,1*%
%TO.N,GND*%
X99140000Y-58840000D03*
%TO.P,TH2,2,2*%
%TO.N,/Thermistors/ADC2_MCU*%
X101680000Y-58840000D03*
%TD*%
D16*
%TO.P,BT5,1_1*%
%TO.N,Net-(BT1-Pad1_1)*%
X95485000Y-71850000D03*
%TO.P,BT5,1_2*%
X95485000Y-66770000D03*
%TO.P,BT5,1_3*%
X87865000Y-69310000D03*
%TD*%
D10*
%TO.P,J7,1,Pin_1*%
%TO.N,/To MCU OR System/USB_C_Interrupt*%
X116600000Y-118555000D03*
%TO.P,J7,2,Pin_2*%
%TO.N,unconnected-(J7-Pin_2-Pad2)*%
X115600000Y-118555000D03*
%TO.P,J7,3,Pin_3*%
%TO.N,unconnected-(J7-Pin_3-Pad3)*%
X114600000Y-118555000D03*
%TO.P,J7,4,Pin_4*%
%TO.N,unconnected-(J7-Pin_4-Pad4)*%
X113600000Y-118555000D03*
D11*
%TO.P,J7,MP*%
%TO.N,N/C*%
X117900000Y-121080000D03*
X112300000Y-121080000D03*
%TD*%
D17*
%TO.P,TH3,1,1*%
%TO.N,GND*%
X99320000Y-81970000D03*
%TO.P,TH3,2,2*%
%TO.N,/Thermistors/ADC3_MCU*%
X101860000Y-81970000D03*
%TD*%
D16*
%TO.P,BT2,1_1*%
%TO.N,Net-(BT2-Pad1_1)*%
X142570000Y-66840000D03*
%TO.P,BT2,1_2*%
X142570000Y-71920000D03*
%TO.P,BT2,1_3*%
X150190000Y-69380000D03*
%TD*%
D18*
%TO.P,J9,1*%
%TO.N,GND*%
X83440000Y-117500000D03*
%TO.P,J9,2*%
%TO.N,/Solar Power/SOLAR_VIN*%
X78440000Y-117500000D03*
%TD*%
D16*
%TO.P,BT4,1_1*%
%TO.N,BATT+*%
X95455000Y-49080000D03*
%TO.P,BT4,1_2*%
X95455000Y-44000000D03*
%TO.P,BT4,1_3*%
X87835000Y-46540000D03*
%TD*%
D19*
%TO.P,J3,1,1*%
%TO.N,/Battery Management/TO_LOAD_GND*%
X129367500Y-111794100D03*
D20*
%TO.P,J3,2,2*%
X125167500Y-111794100D03*
%TO.P,J3,3,3*%
%TO.N,/Battery Management/TO_LOAD*%
X129367500Y-106294100D03*
%TO.P,J3,4,4*%
X125167500Y-106294100D03*
%TD*%
D21*
%TO.P,C22,1*%
%TO.N,GND*%
X80860000Y-93760000D03*
%TO.P,C22,2*%
%TO.N,Net-(U2-COMP)*%
X78320000Y-93760000D03*
%TD*%
D16*
%TO.P,BT1,1_1*%
%TO.N,Net-(BT1-Pad1_1)*%
X142550000Y-44040000D03*
%TO.P,BT1,1_2*%
X142550000Y-49120000D03*
%TO.P,BT1,1_3*%
X150170000Y-46580000D03*
%TD*%
D22*
%TO.P,J1,1,MH1*%
%TO.N,GND*%
X137030000Y-116950000D03*
%TO.P,J1,2,MH2*%
X145670000Y-116950000D03*
D23*
%TO.P,J1,3,MH3*%
X137030000Y-120750000D03*
%TO.P,J1,4,MH4*%
X145670000Y-120750000D03*
D24*
%TO.P,J1,A5,CC1*%
%TO.N,/USB-C/CC1*%
X140850000Y-116870000D03*
D25*
%TO.P,J1,A9,VBUS_1*%
%TO.N,VBUS*%
X142870000Y-116870000D03*
D26*
%TO.P,J1,A12,GND_1*%
%TO.N,GND*%
X144100000Y-116870000D03*
D24*
%TO.P,J1,B5,CC2*%
%TO.N,/USB-C/CC2*%
X141850000Y-116870000D03*
D25*
%TO.P,J1,B9,VBUS_2*%
%TO.N,VBUS*%
X139830000Y-116870000D03*
D26*
%TO.P,J1,B12,GND_2*%
%TO.N,GND*%
X138600000Y-116870000D03*
%TD*%
D14*
%TO.P,D3,1,K*%
%TO.N,/Solar Power/SOLAR_VIN*%
X70800000Y-111810000D03*
D15*
%TO.P,D3,2,A*%
%TO.N,Net-(D3-A)*%
X70800000Y-101650000D03*
%TD*%
D17*
%TO.P,TH1,1,1*%
%TO.N,/Thermistors/ADC1_MCU*%
X106380000Y-56050000D03*
%TO.P,TH1,2,2*%
%TO.N,GND*%
X103840000Y-56050000D03*
%TD*%
D16*
%TO.P,BT6,1_1*%
%TO.N,Net-(BT2-Pad1_1)*%
X95435000Y-94610000D03*
%TO.P,BT6,1_2*%
X95435000Y-89530000D03*
%TO.P,BT6,1_3*%
X87815000Y-92070000D03*
%TD*%
D10*
%TO.P,J4,1,Pin_1*%
%TO.N,/Battery Management/SCL*%
X92560000Y-118535000D03*
%TO.P,J4,2,Pin_2*%
%TO.N,/Battery Management/SDA*%
X91560000Y-118535000D03*
%TO.P,J4,3,Pin_3*%
%TO.N,3V3*%
X90560000Y-118535000D03*
%TO.P,J4,4,Pin_4*%
%TO.N,GND*%
X89560000Y-118535000D03*
D11*
%TO.P,J4,MP*%
%TO.N,N/C*%
X93860000Y-121060000D03*
X88260000Y-121060000D03*
%TD*%
D27*
%TO.N,BATT+*%
X114240000Y-62480000D03*
X122170000Y-64110000D03*
%TO.N,GND*%
X99400000Y-27440000D03*
X133458529Y-92610000D03*
X139240000Y-109190000D03*
X136050000Y-109690000D03*
D28*
X71180000Y-104910000D03*
D27*
X97910000Y-31340000D03*
D28*
%TO.N,/Charging Circuit/CHARGE_IN*%
X115960000Y-81170000D03*
D27*
X100180000Y-34080000D03*
D28*
X112696091Y-77916091D03*
D27*
X82260000Y-42990000D03*
X75940000Y-63330000D03*
D28*
X108270000Y-73870000D03*
D27*
%TO.N,/To MCU OR System/MCU_USB_DETECT*%
X106810000Y-116320000D03*
X148070000Y-111850000D03*
X118840000Y-115920000D03*
%TO.N,VBUS*%
X143050000Y-115440000D03*
X134570000Y-94570000D03*
%TO.N,Net-(BT2-Pad1_1)*%
X125560000Y-71300000D03*
%TO.N,/Battery Management/SDA*%
X111310000Y-80670000D03*
X135860380Y-94110000D03*
%TO.N,/USB-C/CC2*%
X141680000Y-115380000D03*
%TO.N,/Battery Management/SCL*%
X116110000Y-88000000D03*
X115860000Y-85910000D03*
X113080000Y-80910000D03*
X134800000Y-92990000D03*
%TO.N,/USB-C/CC1*%
X140340000Y-115320000D03*
%TO.N,/To MCU OR System/USB_C_Interrupt*%
X138970000Y-98910000D03*
%TO.N,/Battery Management/ALERT*%
X117150000Y-89330000D03*
%TO.N,/Battery Management/MCU_DISCHRG_CTRL*%
X107550000Y-114750000D03*
X109190000Y-83400000D03*
X110510000Y-87720000D03*
%TO.N,Net-(IC2-DSG)*%
X116570000Y-65980000D03*
X118360000Y-67570000D03*
%TO.N,/Battery Management/MCU_CHRG_CTRL*%
X112580000Y-79690000D03*
X105675584Y-101165323D03*
X113434929Y-82393600D03*
%TO.N,Net-(IC2-PACK)*%
X117150000Y-67880000D03*
X117460000Y-66300000D03*
%TO.N,/Thermistors/ADC2_MCU*%
X99580000Y-114930000D03*
%TO.N,/Charging Circuit/MCU_CHARGE_EN*%
X105630000Y-116470000D03*
%TO.N,/Thermistors/ADC3_MCU*%
X99630000Y-107040000D03*
%TO.N,/Thermistors/ADC1_MCU*%
X109610000Y-86490000D03*
X109610000Y-86490000D03*
X107940000Y-84160000D03*
X100690000Y-107720000D03*
D29*
%TO.N,/Battery Management/TO_LOAD*%
X131170000Y-54530000D03*
D27*
%TO.N,3V3*%
X103790000Y-88630000D03*
%TO.N,/Battery Management/LD*%
X115500000Y-68110000D03*
X118958672Y-66270089D03*
%TO.N,Net-(IC1-V5V)*%
X130325782Y-91776868D03*
X132900000Y-99390000D03*
%TO.N,Net-(U2-FB)*%
X75060000Y-96280000D03*
X72410000Y-82290000D03*
%TO.N,Net-(D4-A)*%
X79610000Y-81250000D03*
X88760000Y-107680000D03*
%TO.N,Net-(C25-Pad1)*%
X86780000Y-103120000D03*
X79090000Y-91160000D03*
D29*
%TO.N,/Battery Management/TO_LOAD_GND*%
X110680000Y-104360000D03*
X121480000Y-90250000D03*
%TD*%
D30*
%TO.N,/Battery Management/SDA*%
X111870000Y-85140000D02*
X114505000Y-87775000D01*
X111870000Y-82890000D02*
X111870000Y-85140000D01*
X111310000Y-82330000D02*
X111870000Y-82890000D01*
X111310000Y-80670000D02*
X111310000Y-82330000D01*
D31*
%TO.N,/Battery Management/SCL*%
X116480000Y-87630000D02*
X129440000Y-87630000D01*
X116110000Y-88000000D02*
X116480000Y-87630000D01*
X129440000Y-87630000D02*
X134800000Y-92990000D01*
%TO.N,/Battery Management/SDA*%
X129820000Y-86880000D02*
X115400000Y-86880000D01*
X115400000Y-86880000D02*
X114505000Y-87775000D01*
X135860380Y-92920380D02*
X129820000Y-86880000D01*
X135860380Y-94110000D02*
X135860380Y-92920380D01*
D30*
%TO.N,/Battery Management/MCU_CHRG_CTRL*%
X113762004Y-80743475D02*
X112708529Y-79690000D01*
X113762004Y-82066525D02*
X113762004Y-80743475D01*
X113434929Y-82393600D02*
X113762004Y-82066525D01*
X112708529Y-79690000D02*
X112580000Y-79690000D01*
D32*
%TO.N,Net-(BT2-Pad1_1)*%
X98170000Y-89530000D02*
X95435000Y-89530000D01*
X111824644Y-75788092D02*
X110578092Y-77034644D01*
X110578092Y-77034644D02*
X110578092Y-77121908D01*
X111911908Y-75788092D02*
X111824644Y-75788092D01*
X115780000Y-71920000D02*
X111911908Y-75788092D01*
X142570000Y-71920000D02*
X115780000Y-71920000D01*
X110578092Y-77121908D02*
X98170000Y-89530000D01*
D33*
%TO.N,/Charging Circuit/CHARGE_IN*%
X98890000Y-78400000D02*
X103740000Y-78400000D01*
X97160000Y-80130000D02*
X98890000Y-78400000D01*
X75940000Y-67270000D02*
X88800000Y-80130000D01*
X75940000Y-63330000D02*
X75940000Y-67270000D01*
X88800000Y-80130000D02*
X97160000Y-80130000D01*
X103740000Y-78400000D02*
X108270000Y-73870000D01*
D31*
%TO.N,/USB-C/CC2*%
X141850000Y-115540000D02*
X141850000Y-116870000D01*
X141680000Y-115380000D02*
X141690000Y-115380000D01*
X141690000Y-115380000D02*
X141850000Y-115540000D01*
D30*
%TO.N,BATT+*%
X115560000Y-63800000D02*
X114240000Y-62480000D01*
X122170000Y-64110000D02*
X121860000Y-63800000D01*
X121860000Y-63800000D02*
X115560000Y-63800000D01*
X114240000Y-62480000D02*
X114230000Y-62470000D01*
D33*
%TO.N,/Charging Circuit/CHARGE_IN*%
X87680000Y-37570000D02*
X82260000Y-42990000D01*
X100180000Y-36640000D02*
X99250000Y-37570000D01*
X100180000Y-34080000D02*
X100180000Y-36640000D01*
X112706091Y-77916091D02*
X115960000Y-81170000D01*
X99250000Y-37570000D02*
X87680000Y-37570000D01*
D34*
X112696091Y-77916091D02*
X112706091Y-77916091D01*
D31*
%TO.N,/To MCU OR System/MCU_USB_DETECT*%
X131590000Y-115930000D02*
X131390000Y-115930000D01*
X106630000Y-116500000D02*
X106630000Y-118560000D01*
X141070000Y-113640000D02*
X139990000Y-112560000D01*
X134960000Y-112560000D02*
X131590000Y-115930000D01*
X106810000Y-116320000D02*
X106630000Y-116500000D01*
X146280000Y-113640000D02*
X141070000Y-113640000D01*
X118840000Y-115920000D02*
X118830000Y-115910000D01*
X139990000Y-112560000D02*
X134960000Y-112560000D01*
X131370000Y-115910000D02*
X118840000Y-115920000D01*
X148070000Y-111850000D02*
X146280000Y-113640000D01*
X131390000Y-115930000D02*
X131370000Y-115910000D01*
D33*
%TO.N,VBUS*%
X142930000Y-115425000D02*
X142930000Y-116675000D01*
X139800000Y-118700000D02*
X139800000Y-116870000D01*
X142940000Y-118790000D02*
X142260000Y-119470000D01*
X134500000Y-95030000D02*
X134500000Y-94640000D01*
X140490000Y-102760000D02*
X140490000Y-96890000D01*
X139170000Y-95570000D02*
X135040000Y-95570000D01*
X142940000Y-116920000D02*
X142940000Y-118790000D01*
D31*
X143050000Y-116690000D02*
X142870000Y-116870000D01*
D33*
X140570000Y-119470000D02*
X139800000Y-118700000D01*
X140490000Y-96890000D02*
X139170000Y-95570000D01*
X134500000Y-94640000D02*
X134570000Y-94570000D01*
X142260000Y-119470000D02*
X140570000Y-119470000D01*
X135040000Y-95570000D02*
X134500000Y-95030000D01*
D32*
%TO.N,Net-(BT2-Pad1_1)*%
X87815000Y-92070000D02*
X87815000Y-95195000D01*
X95435000Y-89530000D02*
X90355000Y-89530000D01*
X92960000Y-97110000D02*
X92960000Y-97085000D01*
X89730000Y-97110000D02*
X92960000Y-97110000D01*
X92960000Y-97085000D02*
X95435000Y-94610000D01*
X87815000Y-95195000D02*
X89730000Y-97110000D01*
X90355000Y-89530000D02*
X87815000Y-92070000D01*
D35*
%TO.N,Net-(BT1-Pad1_1)*%
X87865000Y-72065000D02*
X89870000Y-74070000D01*
X87865000Y-69310000D02*
X87865000Y-72065000D01*
X123770000Y-49120000D02*
X106120000Y-66770000D01*
X92000000Y-74070000D02*
X94220000Y-71850000D01*
X95485000Y-66770000D02*
X90405000Y-66770000D01*
X106120000Y-66770000D02*
X95485000Y-66770000D01*
X90405000Y-66770000D02*
X87865000Y-69310000D01*
D32*
X94220000Y-71850000D02*
X95485000Y-71850000D01*
D35*
X89870000Y-74070000D02*
X92000000Y-74070000D01*
X142550000Y-49120000D02*
X123770000Y-49120000D01*
D31*
%TO.N,/Battery Management/SDA*%
X91560000Y-117760001D02*
X91560000Y-118535000D01*
X91550000Y-117750001D02*
X91560000Y-117760001D01*
X114505000Y-87775000D02*
X96980000Y-105300000D01*
X91550000Y-110710000D02*
X91550000Y-117750001D01*
X96980000Y-105300000D02*
X96960000Y-105300000D01*
X96960000Y-105300000D02*
X91550000Y-110710000D01*
D30*
%TO.N,/Battery Management/SCL*%
X112606468Y-82656468D02*
X112606468Y-81383532D01*
D31*
X116110000Y-88000000D02*
X115620000Y-88000000D01*
D30*
X115860000Y-85910000D02*
X112606468Y-82656468D01*
X112606468Y-81383532D02*
X113080000Y-80910000D01*
D31*
X92560000Y-111060000D02*
X92560000Y-118535000D01*
X115620000Y-88000000D02*
X92560000Y-111060000D01*
%TO.N,/USB-C/CC1*%
X140340000Y-115320000D02*
X140850000Y-115830000D01*
X140850000Y-115830000D02*
X140850000Y-116870000D01*
%TO.N,/To MCU OR System/USB_C_Interrupt*%
X138970000Y-98910000D02*
X137770000Y-97710000D01*
X120010000Y-97710000D02*
X116600000Y-101120000D01*
X137770000Y-97710000D02*
X120010000Y-97710000D01*
X116600000Y-101120000D02*
X116600000Y-118555000D01*
D30*
%TO.N,/Battery Management/ALERT*%
X97650000Y-107570000D02*
X99450000Y-105770000D01*
X117150000Y-89330000D02*
X117140000Y-89330000D01*
X99450000Y-105770000D02*
X115890000Y-89330000D01*
X97650000Y-118555000D02*
X97650000Y-107570000D01*
X115890000Y-89330000D02*
X117150000Y-89330000D01*
%TO.N,/Battery Management/MCU_DISCHRG_CTRL*%
X110540000Y-87690000D02*
X110540000Y-84750000D01*
X110510000Y-87720000D02*
X110540000Y-87750000D01*
X110510000Y-87720000D02*
X110540000Y-87690000D01*
X107630000Y-118560000D02*
X107630000Y-114830000D01*
X110540000Y-84750000D02*
X109190000Y-83400000D01*
X107630000Y-114830000D02*
X107550000Y-114750000D01*
%TO.N,Net-(IC2-DSG)*%
X118360000Y-66310000D02*
X118360000Y-67570000D01*
X116570000Y-65980000D02*
X116950000Y-65600000D01*
X116950000Y-65600000D02*
X117650000Y-65600000D01*
X117650000Y-65600000D02*
X118360000Y-66310000D01*
%TO.N,/Battery Management/MCU_CHRG_CTRL*%
X105690000Y-111300000D02*
X105690000Y-101170000D01*
X105690000Y-101170000D02*
X105660000Y-101140000D01*
X108630000Y-118560000D02*
X108630000Y-114240000D01*
X108630000Y-114240000D02*
X105690000Y-111300000D01*
%TO.N,Net-(IC2-PACK)*%
X117150000Y-66610000D02*
X117460000Y-66300000D01*
X117150000Y-67880000D02*
X117150000Y-66610000D01*
D31*
%TO.N,/Thermistors/ADC2_MCU*%
X99580000Y-114930000D02*
X99650000Y-115000000D01*
X99650000Y-115000000D02*
X99650000Y-118555000D01*
D30*
%TO.N,/Charging Circuit/MCU_CHARGE_EN*%
X105630000Y-116470000D02*
X105630000Y-116440000D01*
X105630000Y-118560000D02*
X105630000Y-116470000D01*
D31*
%TO.N,/Thermistors/ADC3_MCU*%
X98650000Y-108020000D02*
X98650000Y-118555000D01*
X99630000Y-107040000D02*
X98650000Y-108020000D01*
%TO.N,/Thermistors/ADC1_MCU*%
X109610000Y-85830000D02*
X107940000Y-84160000D01*
X100690000Y-118515000D02*
X100650000Y-118555000D01*
X100690000Y-107720000D02*
X100690000Y-118515000D01*
X109610000Y-86490000D02*
X109610000Y-85830000D01*
D35*
%TO.N,/Battery Management/TO_LOAD*%
X147910000Y-106460000D02*
X159300000Y-95070000D01*
D32*
X125167500Y-106294100D02*
X125333400Y-106460000D01*
D35*
X159300000Y-95070000D02*
X159300000Y-61440000D01*
X132580000Y-55940000D02*
X131170000Y-54530000D01*
D32*
X131170000Y-54530000D02*
X131150000Y-54510000D01*
D35*
X125333400Y-106460000D02*
X147910000Y-106460000D01*
X153800000Y-55940000D02*
X132580000Y-55940000D01*
X159300000Y-61440000D02*
X153800000Y-55940000D01*
D31*
%TO.N,3V3*%
X90560000Y-110010000D02*
X90560000Y-118535000D01*
X103790000Y-96780000D02*
X90560000Y-110010000D01*
X103790000Y-88630000D02*
X103790000Y-96780000D01*
D30*
%TO.N,/Battery Management/LD*%
X118958672Y-66270089D02*
X117598583Y-64910000D01*
X116690000Y-64910000D02*
X115650000Y-65950000D01*
X115650000Y-67960000D02*
X115500000Y-68110000D01*
X115650000Y-65950000D02*
X115650000Y-67960000D01*
X117598583Y-64910000D02*
X116690000Y-64910000D01*
%TO.N,Net-(IC1-V5V)*%
X133490000Y-99980000D02*
X138890000Y-99980000D01*
X138890000Y-99980000D02*
X139570000Y-99300000D01*
X138170000Y-96460000D02*
X132670000Y-96460000D01*
X132670000Y-96460000D02*
X130330000Y-94120000D01*
X130330000Y-94120000D02*
X130330000Y-91760000D01*
X139570000Y-97860000D02*
X138170000Y-96460000D01*
X132900000Y-99390000D02*
X133490000Y-99980000D01*
X139570000Y-99300000D02*
X139570000Y-97860000D01*
%TO.N,Net-(U2-FB)*%
X72410000Y-93710000D02*
X72410000Y-82290000D01*
X74980000Y-96280000D02*
X72410000Y-93710000D01*
X75060000Y-96280000D02*
X74980000Y-96280000D01*
%TO.N,Net-(D4-A)*%
X88760000Y-101925521D02*
X83410000Y-96575521D01*
X83410000Y-85040000D02*
X79620000Y-81250000D01*
X79620000Y-81250000D02*
X79610000Y-81250000D01*
X79610000Y-81240000D02*
X79610000Y-81240000D01*
X83410000Y-93010000D02*
X83410000Y-85040000D01*
X83410000Y-96575521D02*
X83410000Y-93010000D01*
X79610000Y-81250000D02*
X79610000Y-81240000D01*
X88760000Y-107680000D02*
X88760000Y-101925521D01*
D34*
%TO.N,Net-(C25-Pad1)*%
X76060000Y-97930000D02*
X76060000Y-91800000D01*
X81250000Y-103120000D02*
X76060000Y-97930000D01*
X76060000Y-91800000D02*
X76780000Y-91080000D01*
X76780000Y-91080000D02*
X79010000Y-91080000D01*
D30*
X79010000Y-91080000D02*
X79090000Y-91160000D01*
D34*
X86780000Y-103120000D02*
X81250000Y-103120000D01*
D35*
%TO.N,/Battery Management/TO_LOAD_GND*%
X110680000Y-101030000D02*
X110680000Y-104360000D01*
X121460000Y-90250000D02*
X110680000Y-101030000D01*
D30*
X121480000Y-90250000D02*
X121460000Y-90250000D01*
%TD*%
%TA.AperFunction,Conductor*%
%TO.N,GND*%
G36*
X69361944Y-25060501D02*
G01*
X69361955Y-25060500D01*
X168225394Y-25060555D01*
X168225398Y-25060557D01*
X168250059Y-25060557D01*
X168287068Y-25060557D01*
X168292795Y-25060688D01*
X168668933Y-25078082D01*
X168680327Y-25079138D01*
X169050409Y-25130765D01*
X169061661Y-25132869D01*
X169425397Y-25218422D01*
X169436399Y-25221552D01*
X169790707Y-25340306D01*
X169801376Y-25344440D01*
X170143205Y-25495374D01*
X170153440Y-25500471D01*
X170409420Y-25643051D01*
X170479887Y-25682301D01*
X170489625Y-25688331D01*
X170797885Y-25899496D01*
X170807025Y-25906398D01*
X171094494Y-26145109D01*
X171102958Y-26152825D01*
X171367174Y-26417041D01*
X171374890Y-26425505D01*
X171613601Y-26712974D01*
X171620503Y-26722114D01*
X171831668Y-27030374D01*
X171837698Y-27040112D01*
X172019524Y-27366551D01*
X172024629Y-27376803D01*
X172175557Y-27718618D01*
X172179695Y-27729298D01*
X172298445Y-28083593D01*
X172301579Y-28094609D01*
X172387129Y-28458334D01*
X172389234Y-28469593D01*
X172440860Y-28839667D01*
X172441917Y-28851071D01*
X172459310Y-29227196D01*
X172459442Y-29232933D01*
X172453029Y-117958767D01*
X172453029Y-117958786D01*
X172453026Y-117971673D01*
X172452482Y-117973044D01*
X172453017Y-118010873D01*
X172453017Y-118011821D01*
X172452987Y-118011920D01*
X172452952Y-118015815D01*
X172441041Y-118382863D01*
X172440128Y-118394384D01*
X172394460Y-118755854D01*
X172392479Y-118767240D01*
X172313354Y-119122897D01*
X172310321Y-119134048D01*
X172198431Y-119480790D01*
X172194373Y-119491611D01*
X172050690Y-119826424D01*
X172045643Y-119836820D01*
X171871409Y-120156812D01*
X171865415Y-120166694D01*
X171662149Y-120469070D01*
X171655262Y-120478350D01*
X171424725Y-120760494D01*
X171417003Y-120769093D01*
X171161204Y-121028544D01*
X171152716Y-121036386D01*
X170873869Y-121270900D01*
X170864696Y-121277911D01*
X170565225Y-121485448D01*
X170555430Y-121491580D01*
X170237947Y-121670330D01*
X170227623Y-121675525D01*
X169894865Y-121823946D01*
X169884103Y-121828156D01*
X169538991Y-121944948D01*
X169527883Y-121948139D01*
X169173379Y-122032297D01*
X169162023Y-122034439D01*
X168801237Y-122085227D01*
X168789731Y-122086303D01*
X168456951Y-122101828D01*
X168423321Y-122103397D01*
X168417545Y-122103532D01*
X118876650Y-122103532D01*
X118809611Y-122083847D01*
X118763856Y-122031043D01*
X118753912Y-121961885D01*
X118761295Y-121934042D01*
X118789877Y-121861564D01*
X118800500Y-121773102D01*
X118800500Y-120386898D01*
X118789877Y-120298436D01*
X118734361Y-120157658D01*
X118734360Y-120157657D01*
X118734360Y-120157656D01*
X118642922Y-120037077D01*
X118522343Y-119945639D01*
X118394243Y-119895123D01*
X118381564Y-119890123D01*
X118381563Y-119890122D01*
X118381561Y-119890122D01*
X118334739Y-119884500D01*
X118293102Y-119879500D01*
X117506898Y-119879500D01*
X117467853Y-119884188D01*
X117418438Y-119890122D01*
X117277656Y-119945639D01*
X117157077Y-120037077D01*
X117065639Y-120157656D01*
X117010122Y-120298438D01*
X117008146Y-120314898D01*
X116999500Y-120386898D01*
X116999500Y-121773102D01*
X117005126Y-121819954D01*
X117010122Y-121861561D01*
X117010122Y-121861563D01*
X117010123Y-121861564D01*
X117012094Y-121866563D01*
X117038705Y-121934042D01*
X117044986Y-122003629D01*
X117012649Y-122065565D01*
X116951960Y-122100186D01*
X116923350Y-122103532D01*
X113276650Y-122103532D01*
X113209611Y-122083847D01*
X113163856Y-122031043D01*
X113153912Y-121961885D01*
X113161295Y-121934042D01*
X113189877Y-121861564D01*
X113200500Y-121773102D01*
X113200500Y-120386898D01*
X113189877Y-120298436D01*
X113134361Y-120157658D01*
X113134360Y-120157657D01*
X113134360Y-120157656D01*
X113042922Y-120037077D01*
X112922343Y-119945639D01*
X112794243Y-119895123D01*
X112781564Y-119890123D01*
X112781563Y-119890122D01*
X112781561Y-119890122D01*
X112734739Y-119884500D01*
X112693102Y-119879500D01*
X111906898Y-119879500D01*
X111867853Y-119884188D01*
X111818438Y-119890122D01*
X111677656Y-119945639D01*
X111557077Y-120037077D01*
X111465639Y-120157656D01*
X111410122Y-120298438D01*
X111408146Y-120314898D01*
X111399500Y-120386898D01*
X111399500Y-121773102D01*
X111405126Y-121819954D01*
X111410122Y-121861561D01*
X111410122Y-121861563D01*
X111410123Y-121861564D01*
X111412094Y-121866563D01*
X111438705Y-121934042D01*
X111444986Y-122003629D01*
X111412649Y-122065565D01*
X111351960Y-122100186D01*
X111323350Y-122103532D01*
X110908622Y-122103532D01*
X110841583Y-122083847D01*
X110795828Y-122031043D01*
X110785884Y-121961885D01*
X110793267Y-121934043D01*
X110819877Y-121866563D01*
X110824834Y-121825281D01*
X110830500Y-121778102D01*
X110830500Y-120391898D01*
X110819877Y-120303436D01*
X110764361Y-120162658D01*
X110764360Y-120162657D01*
X110764360Y-120162656D01*
X110672922Y-120042077D01*
X110552343Y-119950639D01*
X110456192Y-119912722D01*
X110411564Y-119895123D01*
X110411563Y-119895122D01*
X110411561Y-119895122D01*
X110365926Y-119889642D01*
X110323102Y-119884500D01*
X109536898Y-119884500D01*
X109497853Y-119889188D01*
X109448438Y-119895122D01*
X109307656Y-119950639D01*
X109187077Y-120042077D01*
X109095639Y-120162656D01*
X109040122Y-120303438D01*
X109034188Y-120352853D01*
X109029500Y-120391898D01*
X109029500Y-121778102D01*
X109032308Y-121801485D01*
X109040122Y-121866563D01*
X109066733Y-121934043D01*
X109073014Y-122003629D01*
X109040677Y-122065565D01*
X108979988Y-122100186D01*
X108951378Y-122103532D01*
X105308622Y-122103532D01*
X105241583Y-122083847D01*
X105195828Y-122031043D01*
X105185884Y-121961885D01*
X105193267Y-121934043D01*
X105219877Y-121866563D01*
X105224834Y-121825281D01*
X105230500Y-121778102D01*
X105230500Y-120391898D01*
X105219877Y-120303436D01*
X105164361Y-120162658D01*
X105164360Y-120162657D01*
X105164360Y-120162656D01*
X105072922Y-120042077D01*
X104952343Y-119950639D01*
X104856192Y-119912722D01*
X104811564Y-119895123D01*
X104811563Y-119895122D01*
X104811561Y-119895122D01*
X104765926Y-119889642D01*
X104723102Y-119884500D01*
X103936898Y-119884500D01*
X103897853Y-119889188D01*
X103848438Y-119895122D01*
X103707656Y-119950639D01*
X103587077Y-120042077D01*
X103495639Y-120162656D01*
X103440122Y-120303438D01*
X103434188Y-120352853D01*
X103429500Y-120391898D01*
X103429500Y-121778102D01*
X103432308Y-121801485D01*
X103440122Y-121866563D01*
X103466733Y-121934043D01*
X103473014Y-122003629D01*
X103440677Y-122065565D01*
X103379988Y-122100186D01*
X103351378Y-122103532D01*
X102926650Y-122103532D01*
X102859611Y-122083847D01*
X102813856Y-122031043D01*
X102803912Y-121961885D01*
X102811295Y-121934042D01*
X102839877Y-121861564D01*
X102850500Y-121773102D01*
X102850500Y-120386898D01*
X102839877Y-120298436D01*
X102784361Y-120157658D01*
X102784360Y-120157657D01*
X102784360Y-120157656D01*
X102692922Y-120037077D01*
X102572343Y-119945639D01*
X102444243Y-119895123D01*
X102431564Y-119890123D01*
X102431563Y-119890122D01*
X102431561Y-119890122D01*
X102384739Y-119884500D01*
X102343102Y-119879500D01*
X101556898Y-119879500D01*
X101517853Y-119884188D01*
X101468438Y-119890122D01*
X101327656Y-119945639D01*
X101207077Y-120037077D01*
X101115639Y-120157656D01*
X101060122Y-120298438D01*
X101058146Y-120314898D01*
X101049500Y-120386898D01*
X101049500Y-121773102D01*
X101055126Y-121819954D01*
X101060122Y-121861561D01*
X101060122Y-121861563D01*
X101060123Y-121861564D01*
X101062094Y-121866563D01*
X101088705Y-121934042D01*
X101094986Y-122003629D01*
X101062649Y-122065565D01*
X101001960Y-122100186D01*
X100973350Y-122103532D01*
X97326650Y-122103532D01*
X97259611Y-122083847D01*
X97213856Y-122031043D01*
X97203912Y-121961885D01*
X97211295Y-121934042D01*
X97239877Y-121861564D01*
X97250500Y-121773102D01*
X97250500Y-120386898D01*
X97239877Y-120298436D01*
X97184361Y-120157658D01*
X97184360Y-120157657D01*
X97184360Y-120157656D01*
X97092922Y-120037077D01*
X96972343Y-119945639D01*
X96844243Y-119895123D01*
X96831564Y-119890123D01*
X96831563Y-119890122D01*
X96831561Y-119890122D01*
X96784739Y-119884500D01*
X96743102Y-119879500D01*
X95956898Y-119879500D01*
X95917853Y-119884188D01*
X95868438Y-119890122D01*
X95727656Y-119945639D01*
X95607077Y-120037077D01*
X95515639Y-120157656D01*
X95460122Y-120298438D01*
X95458146Y-120314898D01*
X95449500Y-120386898D01*
X95449500Y-121773102D01*
X95455126Y-121819954D01*
X95460122Y-121861561D01*
X95460122Y-121861563D01*
X95460123Y-121861564D01*
X95462094Y-121866563D01*
X95488705Y-121934042D01*
X95494986Y-122003629D01*
X95462649Y-122065565D01*
X95401960Y-122100186D01*
X95373350Y-122103532D01*
X94828763Y-122103532D01*
X94761724Y-122083847D01*
X94715969Y-122031043D01*
X94706025Y-121961885D01*
X94713408Y-121934042D01*
X94749877Y-121841564D01*
X94760500Y-121753102D01*
X94760500Y-120366898D01*
X94749877Y-120278436D01*
X94694361Y-120137658D01*
X94694360Y-120137657D01*
X94694360Y-120137656D01*
X94602922Y-120017077D01*
X94482343Y-119925639D01*
X94341561Y-119870122D01*
X94295926Y-119864642D01*
X94253102Y-119859500D01*
X93466898Y-119859500D01*
X93427853Y-119864188D01*
X93378438Y-119870122D01*
X93237656Y-119925639D01*
X93117077Y-120017077D01*
X93025639Y-120137656D01*
X92970122Y-120278438D01*
X92965745Y-120314893D01*
X92959500Y-120366898D01*
X92959500Y-121753102D01*
X92962502Y-121778102D01*
X92970122Y-121841561D01*
X92970122Y-121841563D01*
X92970123Y-121841564D01*
X92979982Y-121866564D01*
X93006592Y-121934042D01*
X93012873Y-122003629D01*
X92980536Y-122065565D01*
X92919847Y-122100186D01*
X92891237Y-122103532D01*
X89228763Y-122103532D01*
X89161724Y-122083847D01*
X89115969Y-122031043D01*
X89106025Y-121961885D01*
X89113408Y-121934042D01*
X89149877Y-121841564D01*
X89160500Y-121753102D01*
X89160500Y-120366898D01*
X89149877Y-120278436D01*
X89094361Y-120137658D01*
X89094360Y-120137657D01*
X89094360Y-120137656D01*
X89002922Y-120017077D01*
X88882343Y-119925639D01*
X88741561Y-119870122D01*
X88695926Y-119864642D01*
X88653102Y-119859500D01*
X87866898Y-119859500D01*
X87827853Y-119864188D01*
X87778438Y-119870122D01*
X87637656Y-119925639D01*
X87517077Y-120017077D01*
X87425639Y-120137656D01*
X87370122Y-120278438D01*
X87365745Y-120314893D01*
X87359500Y-120366898D01*
X87359500Y-121753102D01*
X87362502Y-121778102D01*
X87370122Y-121841561D01*
X87370122Y-121841563D01*
X87370123Y-121841564D01*
X87379982Y-121866564D01*
X87406592Y-121934042D01*
X87412873Y-122003629D01*
X87380536Y-122065565D01*
X87319847Y-122100186D01*
X87291237Y-122103532D01*
X69465121Y-122103532D01*
X69459334Y-122103397D01*
X69089214Y-122086105D01*
X69077689Y-122085026D01*
X68713651Y-122033699D01*
X68702278Y-122031549D01*
X68344641Y-121946509D01*
X68333516Y-121943309D01*
X67985342Y-121825281D01*
X67974565Y-121821057D01*
X67638926Y-121671082D01*
X67628590Y-121665872D01*
X67308386Y-121485248D01*
X67298590Y-121479102D01*
X66996627Y-121269408D01*
X66987444Y-121262374D01*
X66706348Y-121025434D01*
X66697856Y-121017570D01*
X66440073Y-120755447D01*
X66432372Y-120746848D01*
X66200151Y-120461823D01*
X66193271Y-120452524D01*
X65988647Y-120147100D01*
X65982671Y-120137211D01*
X65807415Y-119814029D01*
X65802386Y-119803625D01*
X65658022Y-119465496D01*
X65653988Y-119454674D01*
X65541787Y-119104564D01*
X65538784Y-119093435D01*
X65459714Y-118734373D01*
X65457758Y-118722981D01*
X65429377Y-118494100D01*
X65428089Y-118483713D01*
X67569500Y-118483713D01*
X67569500Y-118696286D01*
X67596830Y-118868845D01*
X67602754Y-118906243D01*
X67665405Y-119099063D01*
X67668444Y-119108414D01*
X67764951Y-119297820D01*
X67889890Y-119469786D01*
X68040213Y-119620109D01*
X68212179Y-119745048D01*
X68212181Y-119745049D01*
X68212184Y-119745051D01*
X68401588Y-119841557D01*
X68603757Y-119907246D01*
X68813713Y-119940500D01*
X68813714Y-119940500D01*
X69026286Y-119940500D01*
X69026287Y-119940500D01*
X69236243Y-119907246D01*
X69438412Y-119841557D01*
X69627816Y-119745051D01*
X69678148Y-119708483D01*
X69799786Y-119620109D01*
X69799788Y-119620106D01*
X69799792Y-119620104D01*
X69950104Y-119469792D01*
X69950106Y-119469788D01*
X69950109Y-119469786D01*
X70075048Y-119297820D01*
X70075047Y-119297820D01*
X70075051Y-119297816D01*
X70171557Y-119108412D01*
X70237246Y-118906243D01*
X70270500Y-118696287D01*
X70270500Y-118483713D01*
X70237246Y-118273757D01*
X70171557Y-118071588D01*
X70075051Y-117882184D01*
X70075049Y-117882181D01*
X70075048Y-117882179D01*
X69950109Y-117710213D01*
X69799792Y-117559896D01*
X69754798Y-117527206D01*
X69710555Y-117495062D01*
X69710554Y-117495060D01*
X69627819Y-117434951D01*
X69627818Y-117434950D01*
X69627816Y-117434949D01*
X69558471Y-117399616D01*
X77164500Y-117399616D01*
X77164500Y-117600384D01*
X77171659Y-117645585D01*
X77195907Y-117798680D01*
X77257949Y-117989626D01*
X77346580Y-118163573D01*
X77349095Y-118168508D01*
X77467103Y-118330932D01*
X77609068Y-118472897D01*
X77771492Y-118590905D01*
X77830867Y-118621158D01*
X77950373Y-118682050D01*
X77950375Y-118682050D01*
X77950378Y-118682052D01*
X78141320Y-118744093D01*
X78339616Y-118775500D01*
X78339617Y-118775500D01*
X78540383Y-118775500D01*
X78540384Y-118775500D01*
X78738680Y-118744093D01*
X78929622Y-118682052D01*
X79108508Y-118590905D01*
X79270932Y-118472897D01*
X79412897Y-118330932D01*
X79530905Y-118168508D01*
X79622052Y-117989622D01*
X79684093Y-117798680D01*
X79715500Y-117600384D01*
X79715500Y-117399616D01*
X79684093Y-117201320D01*
X79622052Y-117010378D01*
X79622050Y-117010375D01*
X79622050Y-117010373D01*
X79573967Y-116916007D01*
X79530905Y-116831492D01*
X79412897Y-116669068D01*
X79270932Y-116527103D01*
X79108508Y-116409095D01*
X79095916Y-116402679D01*
X78929626Y-116317949D01*
X78738680Y-116255907D01*
X78626939Y-116238209D01*
X78540384Y-116224500D01*
X78339616Y-116224500D01*
X78253061Y-116238209D01*
X78141319Y-116255907D01*
X77950373Y-116317949D01*
X77771491Y-116409095D01*
X77678822Y-116476423D01*
X77609068Y-116527103D01*
X77609066Y-116527105D01*
X77609065Y-116527105D01*
X77467105Y-116669065D01*
X77467105Y-116669066D01*
X77467103Y-116669068D01*
X77443329Y-116701790D01*
X77349095Y-116831491D01*
X77257949Y-117010373D01*
X77195907Y-117201319D01*
X77195907Y-117201320D01*
X77164500Y-117399616D01*
X69558471Y-117399616D01*
X69438412Y-117338443D01*
X69236243Y-117272754D01*
X69236241Y-117272753D01*
X69236240Y-117272753D01*
X69074957Y-117247208D01*
X69026287Y-117239500D01*
X68813713Y-117239500D01*
X68765042Y-117247208D01*
X68603760Y-117272753D01*
X68401585Y-117338444D01*
X68212179Y-117434951D01*
X68040213Y-117559890D01*
X67889890Y-117710213D01*
X67764951Y-117882179D01*
X67668444Y-118071585D01*
X67602753Y-118273760D01*
X67569500Y-118483713D01*
X65428089Y-118483713D01*
X65412517Y-118358133D01*
X65411631Y-118346592D01*
X65407311Y-118202581D01*
X65400554Y-117977360D01*
X65400499Y-117973673D01*
X65400499Y-117972635D01*
X65400515Y-117970742D01*
X65401138Y-117933473D01*
X65401137Y-117933471D01*
X65401245Y-117927022D01*
X65400505Y-117918802D01*
X65400508Y-117894499D01*
X65401316Y-110665131D01*
X69399500Y-110665131D01*
X69399500Y-112954856D01*
X69399502Y-112954882D01*
X69402413Y-112979987D01*
X69402415Y-112979991D01*
X69447793Y-113082764D01*
X69447794Y-113082765D01*
X69527235Y-113162206D01*
X69630009Y-113207585D01*
X69655135Y-113210500D01*
X71944864Y-113210499D01*
X71944879Y-113210497D01*
X71944882Y-113210497D01*
X71969987Y-113207586D01*
X71969988Y-113207585D01*
X71969991Y-113207585D01*
X72072765Y-113162206D01*
X72152206Y-113082765D01*
X72197585Y-112979991D01*
X72200500Y-112954865D01*
X72200499Y-110665136D01*
X72198824Y-110650691D01*
X72197586Y-110640012D01*
X72197585Y-110640010D01*
X72197585Y-110640009D01*
X72152206Y-110537235D01*
X72072765Y-110457794D01*
X72017486Y-110433386D01*
X71969992Y-110412415D01*
X71944865Y-110409500D01*
X69655143Y-110409500D01*
X69655117Y-110409502D01*
X69630012Y-110412413D01*
X69630008Y-110412415D01*
X69527235Y-110457793D01*
X69447794Y-110537234D01*
X69402415Y-110640006D01*
X69402415Y-110640008D01*
X69399500Y-110665131D01*
X65401316Y-110665131D01*
X65402336Y-101539778D01*
X69399500Y-101539778D01*
X69399500Y-101760222D01*
X69401197Y-101770934D01*
X69433985Y-101977952D01*
X69502103Y-102187603D01*
X69502104Y-102187606D01*
X69602187Y-102384025D01*
X69731752Y-102562358D01*
X69731756Y-102562363D01*
X69887636Y-102718243D01*
X69887641Y-102718247D01*
X70043192Y-102831260D01*
X70065978Y-102847815D01*
X70145269Y-102888216D01*
X70262393Y-102947895D01*
X70262396Y-102947896D01*
X70367221Y-102981955D01*
X70472049Y-103016015D01*
X70689778Y-103050500D01*
X70689779Y-103050500D01*
X70910221Y-103050500D01*
X70910222Y-103050500D01*
X71127951Y-103016015D01*
X71337606Y-102947895D01*
X71534022Y-102847815D01*
X71712365Y-102718242D01*
X71868242Y-102562365D01*
X71997815Y-102384022D01*
X72097895Y-102187606D01*
X72166015Y-101977951D01*
X72200500Y-101760222D01*
X72200500Y-101539778D01*
X72166015Y-101322049D01*
X72097895Y-101112394D01*
X72097895Y-101112393D01*
X72063237Y-101044375D01*
X71997815Y-100915978D01*
X71962819Y-100867810D01*
X71868247Y-100737641D01*
X71868243Y-100737636D01*
X71712363Y-100581756D01*
X71712358Y-100581752D01*
X71534025Y-100452187D01*
X71534024Y-100452186D01*
X71534022Y-100452185D01*
X71471096Y-100420122D01*
X71337606Y-100352104D01*
X71337603Y-100352103D01*
X71127952Y-100283985D01*
X71019086Y-100266742D01*
X70910222Y-100249500D01*
X70689778Y-100249500D01*
X70617201Y-100260995D01*
X70472047Y-100283985D01*
X70262396Y-100352103D01*
X70262393Y-100352104D01*
X70065974Y-100452187D01*
X69887641Y-100581752D01*
X69887636Y-100581756D01*
X69731756Y-100737636D01*
X69731752Y-100737641D01*
X69602187Y-100915974D01*
X69502104Y-101112393D01*
X69502103Y-101112396D01*
X69433985Y-101322047D01*
X69411802Y-101462104D01*
X69399500Y-101539778D01*
X65402336Y-101539778D01*
X65404497Y-82210943D01*
X71809500Y-82210943D01*
X71809500Y-82369057D01*
X71840457Y-82484588D01*
X71850423Y-82521783D01*
X71850426Y-82521790D01*
X71929475Y-82658709D01*
X71929481Y-82658717D01*
X71973181Y-82702417D01*
X72006666Y-82763740D01*
X72009500Y-82790098D01*
X72009500Y-93762726D01*
X72036793Y-93864589D01*
X72044657Y-93878209D01*
X72089520Y-93955913D01*
X72089522Y-93955915D01*
X74424708Y-96291101D01*
X74458193Y-96352424D01*
X74459067Y-96357440D01*
X74459500Y-96359055D01*
X74459500Y-96359057D01*
X74482782Y-96445947D01*
X74500423Y-96511783D01*
X74500426Y-96511790D01*
X74579475Y-96648709D01*
X74579479Y-96648714D01*
X74579480Y-96648716D01*
X74691284Y-96760520D01*
X74691286Y-96760521D01*
X74691290Y-96760524D01*
X74804767Y-96826039D01*
X74828216Y-96839577D01*
X74980943Y-96880500D01*
X74980945Y-96880500D01*
X75139055Y-96880500D01*
X75139057Y-96880500D01*
X75291784Y-96839577D01*
X75320987Y-96822716D01*
X75323500Y-96821266D01*
X75391401Y-96804793D01*
X75457427Y-96827646D01*
X75500618Y-96882567D01*
X75509500Y-96928653D01*
X75509500Y-98002475D01*
X75538968Y-98112450D01*
X75547016Y-98142485D01*
X75619490Y-98268015D01*
X80911985Y-103560510D01*
X81037515Y-103632984D01*
X81177525Y-103670500D01*
X86501637Y-103670500D01*
X86540179Y-103678165D01*
X86540365Y-103677473D01*
X86548214Y-103679576D01*
X86548216Y-103679577D01*
X86700943Y-103720500D01*
X86700945Y-103720500D01*
X86859055Y-103720500D01*
X86859057Y-103720500D01*
X87011784Y-103679577D01*
X87148716Y-103600520D01*
X87260520Y-103488716D01*
X87339577Y-103351784D01*
X87380500Y-103199057D01*
X87380500Y-103040943D01*
X87339577Y-102888216D01*
X87316250Y-102847812D01*
X87260524Y-102751290D01*
X87260518Y-102751282D01*
X87148717Y-102639481D01*
X87148709Y-102639475D01*
X87011790Y-102560426D01*
X87011786Y-102560424D01*
X87011784Y-102560423D01*
X86859057Y-102519500D01*
X86700943Y-102519500D01*
X86548216Y-102560423D01*
X86548214Y-102560423D01*
X86540365Y-102562527D01*
X86540179Y-102561834D01*
X86501637Y-102569500D01*
X81529387Y-102569500D01*
X81462348Y-102549815D01*
X81441706Y-102533181D01*
X76646819Y-97738294D01*
X76613334Y-97676971D01*
X76610500Y-97650613D01*
X76610500Y-93670417D01*
X77410500Y-93670417D01*
X77410500Y-93849582D01*
X77445449Y-94025283D01*
X77445452Y-94025295D01*
X77514007Y-94190803D01*
X77514014Y-94190816D01*
X77613544Y-94339772D01*
X77613547Y-94339776D01*
X77740223Y-94466452D01*
X77740227Y-94466455D01*
X77889183Y-94565985D01*
X77889196Y-94565992D01*
X78038543Y-94627853D01*
X78054709Y-94634549D01*
X78230417Y-94669499D01*
X78230421Y-94669500D01*
X78230422Y-94669500D01*
X78409579Y-94669500D01*
X78409580Y-94669499D01*
X78585291Y-94634549D01*
X78750810Y-94565989D01*
X78899773Y-94466455D01*
X79026455Y-94339773D01*
X79125989Y-94190810D01*
X79194549Y-94025291D01*
X79229500Y-93849578D01*
X79229500Y-93670422D01*
X79194549Y-93494709D01*
X79194547Y-93494704D01*
X79125992Y-93329196D01*
X79125985Y-93329183D01*
X79026455Y-93180227D01*
X79026452Y-93180223D01*
X78899776Y-93053547D01*
X78899772Y-93053544D01*
X78750816Y-92954014D01*
X78750803Y-92954007D01*
X78585295Y-92885452D01*
X78585283Y-92885449D01*
X78409582Y-92850500D01*
X78409578Y-92850500D01*
X78230422Y-92850500D01*
X78230417Y-92850500D01*
X78054716Y-92885449D01*
X78054704Y-92885452D01*
X77889196Y-92954007D01*
X77889183Y-92954014D01*
X77740227Y-93053544D01*
X77740223Y-93053547D01*
X77613547Y-93180223D01*
X77613544Y-93180227D01*
X77514014Y-93329183D01*
X77514007Y-93329196D01*
X77445452Y-93494704D01*
X77445449Y-93494716D01*
X77410500Y-93670417D01*
X76610500Y-93670417D01*
X76610500Y-92079387D01*
X76630185Y-92012348D01*
X76646819Y-91991706D01*
X76971706Y-91666819D01*
X77033029Y-91633334D01*
X77059387Y-91630500D01*
X78670703Y-91630500D01*
X78732702Y-91647113D01*
X78820519Y-91697813D01*
X78858216Y-91719577D01*
X79010943Y-91760500D01*
X79010945Y-91760500D01*
X79169055Y-91760500D01*
X79169057Y-91760500D01*
X79321784Y-91719577D01*
X79458716Y-91640520D01*
X79570520Y-91528716D01*
X79649577Y-91391784D01*
X79690500Y-91239057D01*
X79690500Y-91080943D01*
X79649577Y-90928216D01*
X79621910Y-90880295D01*
X79570524Y-90791290D01*
X79570518Y-90791282D01*
X79458717Y-90679481D01*
X79458709Y-90679475D01*
X79321790Y-90600426D01*
X79321777Y-90600420D01*
X79260226Y-90583927D01*
X79230325Y-90571542D01*
X79222490Y-90567019D01*
X79222485Y-90567016D01*
X79082475Y-90529500D01*
X76707525Y-90529500D01*
X76614097Y-90554534D01*
X76614096Y-90554533D01*
X76567519Y-90567014D01*
X76567514Y-90567016D01*
X76441986Y-90639489D01*
X76441983Y-90639491D01*
X75619491Y-91461983D01*
X75619489Y-91461986D01*
X75591051Y-91511242D01*
X75571514Y-91545084D01*
X75562614Y-91560499D01*
X75562613Y-91560500D01*
X75547017Y-91587512D01*
X75547016Y-91587513D01*
X75528258Y-91657520D01*
X75509500Y-91727525D01*
X75509500Y-91727527D01*
X75509500Y-95631346D01*
X75489815Y-95698385D01*
X75437011Y-95744140D01*
X75367853Y-95754084D01*
X75323503Y-95738735D01*
X75291786Y-95720424D01*
X75291785Y-95720423D01*
X75291784Y-95720423D01*
X75139057Y-95679500D01*
X74997255Y-95679500D01*
X74930216Y-95659815D01*
X74909574Y-95643181D01*
X72846819Y-93580426D01*
X72813334Y-93519103D01*
X72810500Y-93492745D01*
X72810500Y-82790098D01*
X72830185Y-82723059D01*
X72846819Y-82702417D01*
X72852826Y-82696410D01*
X72890520Y-82658716D01*
X72969577Y-82521784D01*
X73010500Y-82369057D01*
X73010500Y-82210943D01*
X72969577Y-82058216D01*
X72961733Y-82044629D01*
X72890524Y-81921290D01*
X72890518Y-81921282D01*
X72778717Y-81809481D01*
X72778709Y-81809475D01*
X72641790Y-81730426D01*
X72641786Y-81730424D01*
X72641784Y-81730423D01*
X72489057Y-81689500D01*
X72330943Y-81689500D01*
X72178216Y-81730423D01*
X72178209Y-81730426D01*
X72041290Y-81809475D01*
X72041282Y-81809481D01*
X71929481Y-81921282D01*
X71929475Y-81921290D01*
X71850426Y-82058209D01*
X71850423Y-82058216D01*
X71809500Y-82210943D01*
X65404497Y-82210943D01*
X65404613Y-81170943D01*
X79009500Y-81170943D01*
X79009500Y-81329057D01*
X79039461Y-81440871D01*
X79050423Y-81481783D01*
X79050426Y-81481790D01*
X79129475Y-81618709D01*
X79129479Y-81618714D01*
X79129480Y-81618716D01*
X79241284Y-81730520D01*
X79241286Y-81730521D01*
X79241290Y-81730524D01*
X79378039Y-81809475D01*
X79378216Y-81809577D01*
X79530943Y-81850500D01*
X79602745Y-81850500D01*
X79669784Y-81870185D01*
X79690426Y-81886819D01*
X82973181Y-85169574D01*
X83006666Y-85230897D01*
X83009500Y-85257255D01*
X83009500Y-92957273D01*
X83009500Y-96522794D01*
X83009500Y-96628248D01*
X83017071Y-96656503D01*
X83036793Y-96730110D01*
X83089519Y-96821432D01*
X83089522Y-96821436D01*
X88323181Y-102055094D01*
X88356666Y-102116417D01*
X88359500Y-102142775D01*
X88359500Y-107179902D01*
X88339815Y-107246941D01*
X88323181Y-107267583D01*
X88279481Y-107311282D01*
X88279475Y-107311290D01*
X88200426Y-107448209D01*
X88200423Y-107448216D01*
X88159500Y-107600943D01*
X88159500Y-107759057D01*
X88198007Y-107902765D01*
X88200423Y-107911783D01*
X88200426Y-107911790D01*
X88279475Y-108048709D01*
X88279479Y-108048714D01*
X88279480Y-108048716D01*
X88391284Y-108160520D01*
X88391286Y-108160521D01*
X88391290Y-108160524D01*
X88528209Y-108239573D01*
X88528216Y-108239577D01*
X88680943Y-108280500D01*
X88680945Y-108280500D01*
X88839055Y-108280500D01*
X88839057Y-108280500D01*
X88991784Y-108239577D01*
X89128716Y-108160520D01*
X89240520Y-108048716D01*
X89319577Y-107911784D01*
X89360500Y-107759057D01*
X89360500Y-107600943D01*
X89319577Y-107448216D01*
X89270968Y-107364022D01*
X89240524Y-107311290D01*
X89240518Y-107311282D01*
X89196819Y-107267583D01*
X89163334Y-107206260D01*
X89160500Y-107179902D01*
X89160500Y-101988250D01*
X89160501Y-101988237D01*
X89160501Y-101872795D01*
X89153761Y-101847641D01*
X89133207Y-101770934D01*
X89127022Y-101760222D01*
X89080480Y-101679608D01*
X89005913Y-101605041D01*
X89005910Y-101605039D01*
X83846819Y-96445947D01*
X83813334Y-96384624D01*
X83810500Y-96358266D01*
X83810500Y-91951995D01*
X86014500Y-91951995D01*
X86014500Y-95313004D01*
X86014501Y-95313020D01*
X86045306Y-95547010D01*
X86106394Y-95774993D01*
X86145966Y-95870527D01*
X86145966Y-95870528D01*
X86196711Y-95993041D01*
X86196719Y-95993057D01*
X86314722Y-96197442D01*
X86314733Y-96197458D01*
X86458406Y-96384697D01*
X86458412Y-96384704D01*
X88540295Y-98466587D01*
X88540301Y-98466592D01*
X88727550Y-98610273D01*
X88727557Y-98610277D01*
X88931942Y-98728280D01*
X88931950Y-98728284D01*
X89022272Y-98765696D01*
X89150007Y-98818606D01*
X89377986Y-98879693D01*
X89611989Y-98910500D01*
X89611996Y-98910500D01*
X93078004Y-98910500D01*
X93078011Y-98910500D01*
X93312014Y-98879693D01*
X93539993Y-98818606D01*
X93758049Y-98728284D01*
X93962450Y-98610273D01*
X94149699Y-98466592D01*
X94316592Y-98299699D01*
X94394098Y-98198688D01*
X94404778Y-98186511D01*
X96791592Y-95799699D01*
X96935274Y-95612450D01*
X97053284Y-95408050D01*
X97143606Y-95189993D01*
X97204693Y-94962014D01*
X97235500Y-94728011D01*
X97235500Y-94491989D01*
X97204693Y-94257986D01*
X97143606Y-94030006D01*
X97090893Y-93902745D01*
X97053289Y-93811961D01*
X97053286Y-93811955D01*
X97053284Y-93811950D01*
X97053278Y-93811939D01*
X96935277Y-93607553D01*
X96935275Y-93607549D01*
X96807504Y-93441037D01*
X96791592Y-93420300D01*
X96791591Y-93420299D01*
X96791584Y-93420291D01*
X96624709Y-93253416D01*
X96624700Y-93253408D01*
X96437450Y-93109724D01*
X96437446Y-93109722D01*
X96233060Y-92991721D01*
X96233038Y-92991710D01*
X96014992Y-92901393D01*
X95787012Y-92840306D01*
X95553020Y-92809501D01*
X95553017Y-92809500D01*
X95553011Y-92809500D01*
X95316989Y-92809500D01*
X95316983Y-92809500D01*
X95316979Y-92809501D01*
X95082989Y-92840306D01*
X94855002Y-92901395D01*
X94636956Y-92991713D01*
X94636946Y-92991717D01*
X94432549Y-93109725D01*
X94245300Y-93253408D01*
X94245292Y-93253415D01*
X92225528Y-95273181D01*
X92164205Y-95306666D01*
X92137847Y-95309500D01*
X90527153Y-95309500D01*
X90460114Y-95289815D01*
X90439472Y-95273181D01*
X89651819Y-94485528D01*
X89618334Y-94424205D01*
X89615500Y-94397847D01*
X89615500Y-92867153D01*
X89635185Y-92800114D01*
X89651819Y-92779472D01*
X91064473Y-91366819D01*
X91125796Y-91333334D01*
X91152154Y-91330500D01*
X98288004Y-91330500D01*
X98288011Y-91330500D01*
X98522014Y-91299693D01*
X98749993Y-91238606D01*
X98877728Y-91185696D01*
X98968050Y-91148284D01*
X99172450Y-91030273D01*
X99359699Y-90886592D01*
X106165348Y-84080943D01*
X107339500Y-84080943D01*
X107339500Y-84239056D01*
X107380423Y-84391783D01*
X107380426Y-84391790D01*
X107459475Y-84528709D01*
X107459479Y-84528714D01*
X107459480Y-84528716D01*
X107571284Y-84640520D01*
X107571286Y-84640521D01*
X107571290Y-84640524D01*
X107669584Y-84697273D01*
X107708216Y-84719577D01*
X107860943Y-84760500D01*
X107860945Y-84760500D01*
X107868099Y-84761442D01*
X107931996Y-84789707D01*
X107939597Y-84796700D01*
X109111503Y-85968606D01*
X109144988Y-86029929D01*
X109140004Y-86099621D01*
X109131210Y-86118286D01*
X109050423Y-86258215D01*
X109050423Y-86258216D01*
X109009500Y-86410943D01*
X109009500Y-86569056D01*
X109050423Y-86721783D01*
X109050426Y-86721790D01*
X109129475Y-86858709D01*
X109129479Y-86858714D01*
X109129480Y-86858716D01*
X109241284Y-86970520D01*
X109241286Y-86970521D01*
X109241290Y-86970524D01*
X109372677Y-87046379D01*
X109378216Y-87049577D01*
X109530943Y-87090500D01*
X109530945Y-87090500D01*
X109689055Y-87090500D01*
X109689057Y-87090500D01*
X109841784Y-87049577D01*
X109953500Y-86985077D01*
X109959401Y-86983646D01*
X109963989Y-86979671D01*
X109992953Y-86975506D01*
X110021400Y-86968605D01*
X110027138Y-86970591D01*
X110033147Y-86969727D01*
X110059771Y-86981886D01*
X110087427Y-86991458D01*
X110091179Y-86996229D01*
X110096703Y-86998752D01*
X110112526Y-87023374D01*
X110130618Y-87046379D01*
X110132034Y-87053729D01*
X110134477Y-87057530D01*
X110139500Y-87092465D01*
X110139500Y-87189902D01*
X110119815Y-87256941D01*
X110103181Y-87277583D01*
X110029481Y-87351282D01*
X110029475Y-87351290D01*
X109950426Y-87488209D01*
X109950423Y-87488216D01*
X109909500Y-87640943D01*
X109909500Y-87799057D01*
X109917075Y-87827325D01*
X109950423Y-87951783D01*
X109950426Y-87951790D01*
X110029475Y-88088709D01*
X110029479Y-88088714D01*
X110029480Y-88088716D01*
X110141284Y-88200520D01*
X110141286Y-88200521D01*
X110141290Y-88200524D01*
X110278209Y-88279573D01*
X110278216Y-88279577D01*
X110430943Y-88320500D01*
X110430945Y-88320500D01*
X110589055Y-88320500D01*
X110589057Y-88320500D01*
X110741784Y-88279577D01*
X110878716Y-88200520D01*
X110990520Y-88088716D01*
X111069577Y-87951784D01*
X111110500Y-87799057D01*
X111110500Y-87640943D01*
X111069577Y-87488216D01*
X111041984Y-87440423D01*
X110990524Y-87351290D01*
X110990518Y-87351282D01*
X110976819Y-87337583D01*
X110943334Y-87276260D01*
X110940500Y-87249902D01*
X110940500Y-84697275D01*
X110940500Y-84697273D01*
X110913207Y-84595413D01*
X110860480Y-84504087D01*
X110785913Y-84429520D01*
X109826819Y-83470426D01*
X109793334Y-83409103D01*
X109790500Y-83382745D01*
X109790500Y-83320945D01*
X109790500Y-83320943D01*
X109749577Y-83168216D01*
X109705887Y-83092542D01*
X109670524Y-83031290D01*
X109670518Y-83031282D01*
X109558717Y-82919481D01*
X109558709Y-82919475D01*
X109421790Y-82840426D01*
X109421786Y-82840424D01*
X109421784Y-82840423D01*
X109269057Y-82799500D01*
X109110943Y-82799500D01*
X108958216Y-82840423D01*
X108958209Y-82840426D01*
X108821290Y-82919475D01*
X108821282Y-82919481D01*
X108709481Y-83031282D01*
X108709475Y-83031290D01*
X108630426Y-83168209D01*
X108630423Y-83168216D01*
X108589500Y-83320943D01*
X108589500Y-83479056D01*
X108630423Y-83631783D01*
X108630426Y-83631790D01*
X108709475Y-83768709D01*
X108709479Y-83768714D01*
X108709480Y-83768716D01*
X108821284Y-83880520D01*
X108821286Y-83880521D01*
X108821290Y-83880524D01*
X108958209Y-83959573D01*
X108958216Y-83959577D01*
X109110943Y-84000500D01*
X109172745Y-84000500D01*
X109239784Y-84020185D01*
X109260426Y-84036819D01*
X110103181Y-84879574D01*
X110136666Y-84940897D01*
X110139500Y-84967255D01*
X110139500Y-85423034D01*
X110119815Y-85490073D01*
X110067011Y-85535828D01*
X109997853Y-85545772D01*
X109934297Y-85516747D01*
X109927819Y-85510715D01*
X108576700Y-84159596D01*
X108543215Y-84098273D01*
X108541442Y-84088100D01*
X108540500Y-84080944D01*
X108528677Y-84036819D01*
X108499577Y-83928216D01*
X108472039Y-83880518D01*
X108420524Y-83791290D01*
X108420518Y-83791282D01*
X108308717Y-83679481D01*
X108308709Y-83679475D01*
X108171790Y-83600426D01*
X108171786Y-83600424D01*
X108171784Y-83600423D01*
X108019057Y-83559500D01*
X107860943Y-83559500D01*
X107708216Y-83600423D01*
X107708209Y-83600426D01*
X107571290Y-83679475D01*
X107571282Y-83679481D01*
X107459481Y-83791282D01*
X107459475Y-83791290D01*
X107380426Y-83928209D01*
X107380423Y-83928216D01*
X107339500Y-84080943D01*
X106165348Y-84080943D01*
X111871562Y-78374729D01*
X111932885Y-78341244D01*
X112002577Y-78346228D01*
X112058510Y-78388100D01*
X112062346Y-78393520D01*
X112084303Y-78426382D01*
X112084304Y-78426383D01*
X112543466Y-78885544D01*
X112576951Y-78946867D01*
X112571967Y-79016558D01*
X112530096Y-79072492D01*
X112487879Y-79093000D01*
X112348214Y-79130423D01*
X112348209Y-79130426D01*
X112211290Y-79209475D01*
X112211282Y-79209481D01*
X112099481Y-79321282D01*
X112099475Y-79321290D01*
X112020426Y-79458209D01*
X112020423Y-79458216D01*
X111979500Y-79610943D01*
X111979500Y-79769056D01*
X112020423Y-79921783D01*
X112020426Y-79921790D01*
X112099475Y-80058709D01*
X112099479Y-80058714D01*
X112099480Y-80058716D01*
X112211284Y-80170520D01*
X112211286Y-80170521D01*
X112211290Y-80170524D01*
X112348209Y-80249573D01*
X112348216Y-80249577D01*
X112500943Y-80290500D01*
X112500945Y-80290500D01*
X112550902Y-80290500D01*
X112617941Y-80310185D01*
X112663696Y-80362989D01*
X112673640Y-80432147D01*
X112644615Y-80495703D01*
X112638583Y-80502181D01*
X112599481Y-80541282D01*
X112599475Y-80541290D01*
X112520426Y-80678209D01*
X112520423Y-80678216D01*
X112479500Y-80830943D01*
X112479500Y-80892745D01*
X112459815Y-80959784D01*
X112443181Y-80980426D01*
X112285990Y-81137616D01*
X112285988Y-81137619D01*
X112233261Y-81228942D01*
X112227929Y-81248842D01*
X112222129Y-81270489D01*
X112222129Y-81270490D01*
X112222128Y-81270489D01*
X112205968Y-81330801D01*
X112205968Y-82360213D01*
X112186283Y-82427252D01*
X112133479Y-82473007D01*
X112064321Y-82482951D01*
X112000765Y-82453926D01*
X111994287Y-82447894D01*
X111746819Y-82200426D01*
X111713334Y-82139103D01*
X111710500Y-82112745D01*
X111710500Y-81170098D01*
X111730185Y-81103059D01*
X111746819Y-81082417D01*
X111790520Y-81038716D01*
X111869577Y-80901784D01*
X111910500Y-80749057D01*
X111910500Y-80590943D01*
X111869577Y-80438216D01*
X111795659Y-80310185D01*
X111790524Y-80301290D01*
X111790518Y-80301282D01*
X111678717Y-80189481D01*
X111678709Y-80189475D01*
X111541790Y-80110426D01*
X111541786Y-80110424D01*
X111541784Y-80110423D01*
X111389057Y-80069500D01*
X111230943Y-80069500D01*
X111078216Y-80110423D01*
X111078209Y-80110426D01*
X110941290Y-80189475D01*
X110941282Y-80189481D01*
X110829481Y-80301282D01*
X110829475Y-80301290D01*
X110750426Y-80438209D01*
X110750423Y-80438216D01*
X110709500Y-80590943D01*
X110709500Y-80749057D01*
X110749875Y-80899736D01*
X110750423Y-80901783D01*
X110750426Y-80901790D01*
X110829475Y-81038709D01*
X110829481Y-81038717D01*
X110873181Y-81082417D01*
X110906666Y-81143740D01*
X110909500Y-81170098D01*
X110909500Y-82277273D01*
X110909500Y-82382727D01*
X110920116Y-82422347D01*
X110936793Y-82484589D01*
X110958268Y-82521783D01*
X110989520Y-82575913D01*
X111213107Y-82799500D01*
X111433181Y-83019573D01*
X111466666Y-83080896D01*
X111469500Y-83107254D01*
X111469500Y-85192726D01*
X111496793Y-85294589D01*
X111523156Y-85340250D01*
X111549520Y-85385913D01*
X111549522Y-85385915D01*
X113815570Y-87651963D01*
X113849055Y-87713286D01*
X113844071Y-87782978D01*
X113815570Y-87827325D01*
X96742249Y-104900646D01*
X96716571Y-104920351D01*
X96683386Y-104939511D01*
X96683383Y-104939513D01*
X91222181Y-110400716D01*
X91202744Y-110411328D01*
X91186011Y-110425829D01*
X91172679Y-110427745D01*
X91160858Y-110434201D01*
X91138771Y-110432621D01*
X91116853Y-110435773D01*
X91104601Y-110430177D01*
X91091166Y-110429217D01*
X91073439Y-110415946D01*
X91053297Y-110406748D01*
X91046014Y-110395416D01*
X91035233Y-110387345D01*
X91027495Y-110366599D01*
X91015523Y-110347970D01*
X91012371Y-110326051D01*
X91010816Y-110321881D01*
X91010500Y-110313035D01*
X91010500Y-110247965D01*
X91030185Y-110180926D01*
X91046819Y-110160284D01*
X97574120Y-103632983D01*
X104150489Y-97056614D01*
X104202234Y-96966989D01*
X104209799Y-96953886D01*
X104240500Y-96839309D01*
X104240500Y-89079930D01*
X104260185Y-89012891D01*
X104266128Y-89004438D01*
X104270512Y-88998723D01*
X104270520Y-88998716D01*
X104349577Y-88861784D01*
X104390500Y-88709057D01*
X104390500Y-88550943D01*
X104349577Y-88398216D01*
X104311986Y-88333106D01*
X104270524Y-88261290D01*
X104270518Y-88261282D01*
X104158717Y-88149481D01*
X104158709Y-88149475D01*
X104021790Y-88070426D01*
X104021786Y-88070424D01*
X104021784Y-88070423D01*
X103869057Y-88029500D01*
X103710943Y-88029500D01*
X103558216Y-88070423D01*
X103558209Y-88070426D01*
X103421290Y-88149475D01*
X103421282Y-88149481D01*
X103309481Y-88261282D01*
X103309475Y-88261290D01*
X103230426Y-88398209D01*
X103230423Y-88398216D01*
X103189500Y-88550943D01*
X103189500Y-88709057D01*
X103227127Y-88849481D01*
X103230423Y-88861783D01*
X103230426Y-88861790D01*
X103309473Y-88998706D01*
X103309477Y-88998712D01*
X103309480Y-88998716D01*
X103309482Y-88998718D01*
X103313872Y-89004438D01*
X103339069Y-89069606D01*
X103339500Y-89079930D01*
X103339500Y-96542035D01*
X103319815Y-96609074D01*
X103303181Y-96629716D01*
X90199513Y-109733383D01*
X90199509Y-109733389D01*
X90140201Y-109836112D01*
X90140200Y-109836117D01*
X90109500Y-109950691D01*
X90109500Y-117517711D01*
X90089815Y-117584750D01*
X90085271Y-117591344D01*
X90007207Y-117697118D01*
X90007206Y-117697119D01*
X89962353Y-117825298D01*
X89962353Y-117825300D01*
X89959500Y-117855730D01*
X89959500Y-119214269D01*
X89962353Y-119244699D01*
X89962353Y-119244701D01*
X90001454Y-119356442D01*
X90007207Y-119372882D01*
X90087850Y-119482150D01*
X90197118Y-119562793D01*
X90239845Y-119577744D01*
X90325299Y-119607646D01*
X90355730Y-119610500D01*
X90355734Y-119610500D01*
X90764270Y-119610500D01*
X90794699Y-119607646D01*
X90794701Y-119607646D01*
X90865728Y-119582792D01*
X90922882Y-119562793D01*
X90986368Y-119515938D01*
X91051995Y-119491968D01*
X91120165Y-119507283D01*
X91133624Y-119515932D01*
X91197118Y-119562793D01*
X91239845Y-119577744D01*
X91325299Y-119607646D01*
X91355730Y-119610500D01*
X91355734Y-119610500D01*
X91764270Y-119610500D01*
X91794699Y-119607646D01*
X91794701Y-119607646D01*
X91865728Y-119582792D01*
X91922882Y-119562793D01*
X91986368Y-119515938D01*
X92051995Y-119491968D01*
X92120165Y-119507283D01*
X92133624Y-119515932D01*
X92197118Y-119562793D01*
X92239845Y-119577744D01*
X92325299Y-119607646D01*
X92355730Y-119610500D01*
X92355734Y-119610500D01*
X92764270Y-119610500D01*
X92794699Y-119607646D01*
X92794701Y-119607646D01*
X92865728Y-119582792D01*
X92922882Y-119562793D01*
X93032150Y-119482150D01*
X93112793Y-119372882D01*
X93139060Y-119297816D01*
X93157646Y-119244701D01*
X93157646Y-119244699D01*
X93160500Y-119214269D01*
X93160500Y-117875730D01*
X97049500Y-117875730D01*
X97049500Y-119234269D01*
X97052353Y-119264699D01*
X97052353Y-119264701D01*
X97097206Y-119392880D01*
X97097207Y-119392882D01*
X97177850Y-119502150D01*
X97287118Y-119582793D01*
X97329845Y-119597744D01*
X97415299Y-119627646D01*
X97445730Y-119630500D01*
X97445734Y-119630500D01*
X97854270Y-119630500D01*
X97884699Y-119627646D01*
X97884701Y-119627646D01*
X97948790Y-119605219D01*
X98012882Y-119582793D01*
X98076368Y-119535938D01*
X98141995Y-119511968D01*
X98210165Y-119527283D01*
X98223624Y-119535932D01*
X98287118Y-119582793D01*
X98329845Y-119597744D01*
X98415299Y-119627646D01*
X98445730Y-119630500D01*
X98445734Y-119630500D01*
X98854270Y-119630500D01*
X98884699Y-119627646D01*
X98884701Y-119627646D01*
X98948790Y-119605219D01*
X99012882Y-119582793D01*
X99076368Y-119535938D01*
X99141995Y-119511968D01*
X99210165Y-119527283D01*
X99223624Y-119535932D01*
X99287118Y-119582793D01*
X99329845Y-119597744D01*
X99415299Y-119627646D01*
X99445730Y-119630500D01*
X99445734Y-119630500D01*
X99854270Y-119630500D01*
X99884699Y-119627646D01*
X99884701Y-119627646D01*
X99948790Y-119605219D01*
X100012882Y-119582793D01*
X100076368Y-119535938D01*
X100141995Y-119511968D01*
X100210165Y-119527283D01*
X100223624Y-119535932D01*
X100287118Y-119582793D01*
X100329845Y-119597744D01*
X100415299Y-119627646D01*
X100445730Y-119630500D01*
X100445734Y-119630500D01*
X100854270Y-119630500D01*
X100884699Y-119627646D01*
X100884701Y-119627646D01*
X100948790Y-119605219D01*
X101012882Y-119582793D01*
X101122150Y-119502150D01*
X101202793Y-119392882D01*
X101235193Y-119300289D01*
X101247646Y-119264701D01*
X101247646Y-119264699D01*
X101250500Y-119234269D01*
X101250500Y-117875730D01*
X101247646Y-117845303D01*
X101247646Y-117845301D01*
X101202793Y-117717118D01*
X101164729Y-117665542D01*
X101140759Y-117599913D01*
X101140500Y-117591910D01*
X101140500Y-108169930D01*
X101160185Y-108102891D01*
X101166128Y-108094438D01*
X101170512Y-108088723D01*
X101170520Y-108088716D01*
X101249577Y-107951784D01*
X101290500Y-107799057D01*
X101290500Y-107640943D01*
X101249577Y-107488216D01*
X101249573Y-107488209D01*
X101170524Y-107351290D01*
X101170518Y-107351282D01*
X101058717Y-107239481D01*
X101058709Y-107239475D01*
X100921790Y-107160426D01*
X100921786Y-107160424D01*
X100921784Y-107160423D01*
X100769057Y-107119500D01*
X100610943Y-107119500D01*
X100458216Y-107160423D01*
X100458215Y-107160423D01*
X100416499Y-107184508D01*
X100348598Y-107200979D01*
X100282572Y-107178127D01*
X100239382Y-107123205D01*
X100230500Y-107077120D01*
X100230500Y-106960945D01*
X100230500Y-106960943D01*
X100189577Y-106808216D01*
X100150321Y-106740222D01*
X100110524Y-106671290D01*
X100110518Y-106671282D01*
X99998717Y-106559481D01*
X99998709Y-106559475D01*
X99861790Y-106480426D01*
X99861786Y-106480424D01*
X99861784Y-106480423D01*
X99709057Y-106439500D01*
X99646255Y-106439500D01*
X99579216Y-106419815D01*
X99533461Y-106367011D01*
X99523517Y-106297853D01*
X99552542Y-106234297D01*
X99558574Y-106227819D01*
X99770480Y-106015913D01*
X102297684Y-103488709D01*
X104885099Y-100901293D01*
X104946420Y-100867810D01*
X105016112Y-100872794D01*
X105072045Y-100914666D01*
X105096462Y-100980130D01*
X105092553Y-101021068D01*
X105075084Y-101086264D01*
X105075084Y-101086266D01*
X105075084Y-101244380D01*
X105115171Y-101393985D01*
X105116007Y-101397106D01*
X105116010Y-101397113D01*
X105195059Y-101534032D01*
X105195065Y-101534040D01*
X105253181Y-101592156D01*
X105286666Y-101653479D01*
X105289500Y-101679837D01*
X105289500Y-111352726D01*
X105316793Y-111454589D01*
X105343156Y-111500250D01*
X105369520Y-111545913D01*
X105369522Y-111545915D01*
X107771808Y-113948201D01*
X107805293Y-114009524D01*
X107800309Y-114079216D01*
X107758437Y-114135149D01*
X107692973Y-114159566D01*
X107652035Y-114155657D01*
X107629057Y-114149500D01*
X107470943Y-114149500D01*
X107318216Y-114190423D01*
X107318209Y-114190426D01*
X107181290Y-114269475D01*
X107181282Y-114269481D01*
X107069481Y-114381282D01*
X107069475Y-114381290D01*
X106990426Y-114518209D01*
X106990423Y-114518216D01*
X106949500Y-114670943D01*
X106949500Y-114829057D01*
X106979149Y-114939706D01*
X106990423Y-114981783D01*
X106990426Y-114981790D01*
X107069475Y-115118709D01*
X107069481Y-115118717D01*
X107187031Y-115236267D01*
X107186059Y-115237238D01*
X107222189Y-115286718D01*
X107229500Y-115328667D01*
X107229500Y-115654026D01*
X107209815Y-115721065D01*
X107157011Y-115766820D01*
X107087853Y-115776764D01*
X107049335Y-115763434D01*
X107049294Y-115763534D01*
X107047621Y-115762841D01*
X107043506Y-115761417D01*
X107041786Y-115760424D01*
X107041785Y-115760423D01*
X107041784Y-115760423D01*
X106889057Y-115719500D01*
X106730943Y-115719500D01*
X106578216Y-115760423D01*
X106578209Y-115760426D01*
X106441290Y-115839475D01*
X106441282Y-115839481D01*
X106329481Y-115951282D01*
X106329477Y-115951287D01*
X106275231Y-116045246D01*
X106224664Y-116093461D01*
X106156057Y-116106685D01*
X106091193Y-116080717D01*
X106080163Y-116070927D01*
X105998717Y-115989481D01*
X105998709Y-115989475D01*
X105861790Y-115910426D01*
X105861786Y-115910424D01*
X105861784Y-115910423D01*
X105709057Y-115869500D01*
X105550943Y-115869500D01*
X105398216Y-115910423D01*
X105398209Y-115910426D01*
X105261290Y-115989475D01*
X105261282Y-115989481D01*
X105149481Y-116101282D01*
X105149475Y-116101290D01*
X105070426Y-116238209D01*
X105070423Y-116238216D01*
X105029500Y-116390943D01*
X105029500Y-116549057D01*
X105061657Y-116669066D01*
X105070423Y-116701783D01*
X105070426Y-116701790D01*
X105149475Y-116838709D01*
X105149481Y-116838717D01*
X105193181Y-116882417D01*
X105226666Y-116943740D01*
X105229500Y-116970098D01*
X105229500Y-117497372D01*
X105209815Y-117564411D01*
X105179134Y-117597141D01*
X105174741Y-117600384D01*
X105157850Y-117612850D01*
X105077207Y-117722117D01*
X105077206Y-117722119D01*
X105032353Y-117850298D01*
X105032353Y-117850300D01*
X105029500Y-117880730D01*
X105029500Y-119239269D01*
X105032353Y-119269699D01*
X105032353Y-119269701D01*
X105075457Y-119392882D01*
X105077207Y-119397882D01*
X105157850Y-119507150D01*
X105267118Y-119587793D01*
X105309845Y-119602744D01*
X105395299Y-119632646D01*
X105425730Y-119635500D01*
X105425734Y-119635500D01*
X105834270Y-119635500D01*
X105864699Y-119632646D01*
X105864701Y-119632646D01*
X105936145Y-119607646D01*
X105992882Y-119587793D01*
X106056368Y-119540938D01*
X106121995Y-119516968D01*
X106190165Y-119532283D01*
X106203624Y-119540932D01*
X106267118Y-119587793D01*
X106309845Y-119602744D01*
X106395299Y-119632646D01*
X106425730Y-119635500D01*
X106425734Y-119635500D01*
X106834270Y-119635500D01*
X106864699Y-119632646D01*
X106864701Y-119632646D01*
X106936145Y-119607646D01*
X106992882Y-119587793D01*
X107056368Y-119540938D01*
X107121995Y-119516968D01*
X107190165Y-119532283D01*
X107203624Y-119540932D01*
X107267118Y-119587793D01*
X107309845Y-119602744D01*
X107395299Y-119632646D01*
X107425730Y-119635500D01*
X107425734Y-119635500D01*
X107834270Y-119635500D01*
X107864699Y-119632646D01*
X107864701Y-119632646D01*
X107936145Y-119607646D01*
X107992882Y-119587793D01*
X108056368Y-119540938D01*
X108121995Y-119516968D01*
X108190165Y-119532283D01*
X108203624Y-119540932D01*
X108267118Y-119587793D01*
X108309845Y-119602744D01*
X108395299Y-119632646D01*
X108425730Y-119635500D01*
X108425734Y-119635500D01*
X108834270Y-119635500D01*
X108864699Y-119632646D01*
X108864701Y-119632646D01*
X108936145Y-119607646D01*
X108992882Y-119587793D01*
X109102150Y-119507150D01*
X109182793Y-119397882D01*
X109216941Y-119300292D01*
X109227646Y-119269701D01*
X109227646Y-119269699D01*
X109230500Y-119239269D01*
X109230500Y-117880730D01*
X109227646Y-117850300D01*
X109227646Y-117850298D01*
X109186341Y-117732257D01*
X109182793Y-117722118D01*
X109102150Y-117612850D01*
X109080865Y-117597141D01*
X109038615Y-117541494D01*
X109030500Y-117497372D01*
X109030500Y-114187275D01*
X109030500Y-114187273D01*
X109003207Y-114085413D01*
X109003207Y-114085412D01*
X108950480Y-113994087D01*
X106126819Y-111170426D01*
X106093334Y-111109103D01*
X106090500Y-111082745D01*
X106090500Y-101651005D01*
X106110185Y-101583966D01*
X106126819Y-101563324D01*
X106127958Y-101562185D01*
X106156104Y-101534039D01*
X106235161Y-101397107D01*
X106276084Y-101244380D01*
X106276084Y-101086266D01*
X106235161Y-100933539D01*
X106203802Y-100879223D01*
X106156108Y-100796613D01*
X106156102Y-100796605D01*
X106044301Y-100684804D01*
X106044293Y-100684798D01*
X105907374Y-100605749D01*
X105907370Y-100605747D01*
X105907368Y-100605746D01*
X105754641Y-100564823D01*
X105596527Y-100564823D01*
X105596525Y-100564823D01*
X105531329Y-100582292D01*
X105461479Y-100580629D01*
X105403617Y-100541466D01*
X105376114Y-100477237D01*
X105387701Y-100408335D01*
X105411553Y-100374839D01*
X116019574Y-89766819D01*
X116080897Y-89733334D01*
X116107255Y-89730500D01*
X116649902Y-89730500D01*
X116716941Y-89750185D01*
X116737583Y-89766819D01*
X116781284Y-89810520D01*
X116781286Y-89810521D01*
X116781290Y-89810524D01*
X116918209Y-89889573D01*
X116918216Y-89889577D01*
X117070943Y-89930500D01*
X117070945Y-89930500D01*
X117229055Y-89930500D01*
X117229057Y-89930500D01*
X117381784Y-89889577D01*
X117518716Y-89810520D01*
X117630520Y-89698716D01*
X117709577Y-89561784D01*
X117750500Y-89409057D01*
X117750500Y-89250943D01*
X117709577Y-89098216D01*
X117655435Y-89004438D01*
X117630524Y-88961290D01*
X117630518Y-88961282D01*
X117518717Y-88849481D01*
X117518709Y-88849475D01*
X117381790Y-88770426D01*
X117381786Y-88770424D01*
X117381784Y-88770423D01*
X117229057Y-88729500D01*
X117070943Y-88729500D01*
X116918216Y-88770423D01*
X116918209Y-88770426D01*
X116781290Y-88849475D01*
X116781282Y-88849481D01*
X116737583Y-88893181D01*
X116676260Y-88926666D01*
X116649902Y-88929500D01*
X115837273Y-88929500D01*
X115735410Y-88956793D01*
X115644087Y-89009520D01*
X115644084Y-89009522D01*
X97329522Y-107324084D01*
X97329520Y-107324087D01*
X97276793Y-107415412D01*
X97259576Y-107479668D01*
X97259576Y-107479669D01*
X97259575Y-107479668D01*
X97249500Y-107517271D01*
X97249500Y-117492372D01*
X97229815Y-117559411D01*
X97199134Y-117592141D01*
X97187966Y-117600384D01*
X97177850Y-117607850D01*
X97097207Y-117717117D01*
X97097206Y-117717119D01*
X97052353Y-117845298D01*
X97052353Y-117845300D01*
X97049500Y-117875730D01*
X93160500Y-117875730D01*
X93160500Y-117855730D01*
X93157646Y-117825300D01*
X93157646Y-117825298D01*
X93121540Y-117722117D01*
X93112793Y-117697118D01*
X93046911Y-117607850D01*
X93034729Y-117591344D01*
X93010759Y-117525715D01*
X93010500Y-117517711D01*
X93010500Y-111297965D01*
X93030185Y-111230926D01*
X93046819Y-111210284D01*
X104332014Y-99925089D01*
X115696384Y-88560718D01*
X115757705Y-88527235D01*
X115827397Y-88532219D01*
X115846062Y-88541013D01*
X115878216Y-88559577D01*
X116030943Y-88600500D01*
X116030945Y-88600500D01*
X116189055Y-88600500D01*
X116189057Y-88600500D01*
X116341784Y-88559577D01*
X116478716Y-88480520D01*
X116590520Y-88368716D01*
X116669577Y-88231784D01*
X116685487Y-88172405D01*
X116721853Y-88112746D01*
X116784700Y-88082217D01*
X116805262Y-88080500D01*
X120153910Y-88080500D01*
X120220949Y-88100185D01*
X120266704Y-88152989D01*
X120276648Y-88222147D01*
X120247623Y-88285703D01*
X120215910Y-88311887D01*
X120179174Y-88333096D01*
X120179159Y-88333106D01*
X119939921Y-88516679D01*
X119939914Y-88516685D01*
X109159924Y-99296677D01*
X109159920Y-99296681D01*
X108946684Y-99509915D01*
X108946679Y-99509921D01*
X108831889Y-99659520D01*
X108763099Y-99749168D01*
X108612320Y-100010324D01*
X108612315Y-100010335D01*
X108513250Y-100249500D01*
X108496913Y-100288941D01*
X108479693Y-100353207D01*
X108453172Y-100452187D01*
X108418863Y-100580229D01*
X108418860Y-100580242D01*
X108379501Y-100879206D01*
X108379500Y-100879223D01*
X108379500Y-104510776D01*
X108379501Y-104510793D01*
X108418861Y-104809766D01*
X108496913Y-105101060D01*
X108612314Y-105379661D01*
X108612318Y-105379671D01*
X108763099Y-105640831D01*
X108946679Y-105880078D01*
X108946685Y-105880085D01*
X109159914Y-106093314D01*
X109159921Y-106093320D01*
X109399168Y-106276900D01*
X109660328Y-106427681D01*
X109660329Y-106427681D01*
X109660332Y-106427683D01*
X109787658Y-106480423D01*
X109938939Y-106543086D01*
X109938940Y-106543086D01*
X109938942Y-106543087D01*
X110230232Y-106621138D01*
X110529217Y-106660500D01*
X110529224Y-106660500D01*
X110830776Y-106660500D01*
X110830783Y-106660500D01*
X111129768Y-106621138D01*
X111421058Y-106543087D01*
X111699668Y-106427683D01*
X111960832Y-106276900D01*
X112200080Y-106093319D01*
X112413319Y-105880080D01*
X112596900Y-105640832D01*
X112747683Y-105379668D01*
X112863087Y-105101058D01*
X112941138Y-104809768D01*
X112980500Y-104510783D01*
X112980500Y-102034260D01*
X113000185Y-101967221D01*
X113016819Y-101946579D01*
X118102898Y-96860501D01*
X123193319Y-91770080D01*
X123376900Y-91530832D01*
X123527683Y-91269669D01*
X123643087Y-90991059D01*
X123721138Y-90699768D01*
X123760500Y-90400783D01*
X123760500Y-90099217D01*
X123721138Y-89800232D01*
X123643087Y-89508942D01*
X123527683Y-89230332D01*
X123376900Y-88969168D01*
X123193319Y-88729921D01*
X123193314Y-88729915D01*
X122980084Y-88516685D01*
X122980077Y-88516679D01*
X122740836Y-88333103D01*
X122740835Y-88333102D01*
X122740832Y-88333100D01*
X122704087Y-88311885D01*
X122655873Y-88261320D01*
X122642650Y-88192713D01*
X122668618Y-88127848D01*
X122725533Y-88087320D01*
X122766089Y-88080500D01*
X129202035Y-88080500D01*
X129269074Y-88100185D01*
X129289716Y-88116819D01*
X134163299Y-92990402D01*
X134196784Y-93051725D01*
X134198556Y-93061893D01*
X134199498Y-93069050D01*
X134240423Y-93221783D01*
X134240426Y-93221790D01*
X134319475Y-93358709D01*
X134319479Y-93358714D01*
X134319480Y-93358716D01*
X134431284Y-93470520D01*
X134431285Y-93470521D01*
X134431287Y-93470522D01*
X134548359Y-93538113D01*
X134596574Y-93588679D01*
X134609798Y-93657286D01*
X134583830Y-93722151D01*
X134526916Y-93762680D01*
X134497098Y-93767693D01*
X134497218Y-93768903D01*
X134491153Y-93769500D01*
X134336510Y-93800261D01*
X134336498Y-93800264D01*
X134190827Y-93860602D01*
X134190814Y-93860609D01*
X134059712Y-93948209D01*
X134026152Y-93981770D01*
X133989711Y-94018211D01*
X133948211Y-94059711D01*
X133878209Y-94129712D01*
X133790609Y-94260814D01*
X133790602Y-94260827D01*
X133730264Y-94406498D01*
X133730261Y-94406510D01*
X133699500Y-94561153D01*
X133699500Y-95108846D01*
X133730261Y-95263489D01*
X133730264Y-95263501D01*
X133790602Y-95409172D01*
X133790609Y-95409185D01*
X133878210Y-95540288D01*
X133878213Y-95540292D01*
X134185741Y-95847819D01*
X134219226Y-95909142D01*
X134214242Y-95978833D01*
X134172371Y-96034767D01*
X134106906Y-96059184D01*
X134098060Y-96059500D01*
X132887254Y-96059500D01*
X132820215Y-96039815D01*
X132799573Y-96023181D01*
X130766819Y-93990426D01*
X130733334Y-93929103D01*
X130730500Y-93902745D01*
X130730500Y-92272748D01*
X130750185Y-92205709D01*
X130766819Y-92185067D01*
X130806302Y-92145584D01*
X130885359Y-92008652D01*
X130926282Y-91855925D01*
X130926282Y-91697811D01*
X130885359Y-91545084D01*
X130837383Y-91461986D01*
X130806306Y-91408158D01*
X130806300Y-91408150D01*
X130694499Y-91296349D01*
X130694491Y-91296343D01*
X130557572Y-91217294D01*
X130557568Y-91217292D01*
X130557566Y-91217291D01*
X130404839Y-91176368D01*
X130246725Y-91176368D01*
X130093998Y-91217291D01*
X130093991Y-91217294D01*
X129957072Y-91296343D01*
X129957064Y-91296349D01*
X129845263Y-91408150D01*
X129845257Y-91408158D01*
X129766208Y-91545077D01*
X129766205Y-91545084D01*
X129725282Y-91697811D01*
X129725282Y-91855925D01*
X129761665Y-91991706D01*
X129766205Y-92008651D01*
X129766208Y-92008658D01*
X129845257Y-92145577D01*
X129845263Y-92145585D01*
X129893181Y-92193503D01*
X129926666Y-92254826D01*
X129929500Y-92281184D01*
X129929500Y-94067273D01*
X129929500Y-94172727D01*
X129934345Y-94190810D01*
X129956793Y-94274589D01*
X129983156Y-94320250D01*
X130009520Y-94365913D01*
X132349518Y-96705910D01*
X132349520Y-96705913D01*
X132424087Y-96780480D01*
X132495022Y-96821434D01*
X132502994Y-96826037D01*
X132502997Y-96826039D01*
X132505781Y-96827646D01*
X132515413Y-96833207D01*
X132617273Y-96860501D01*
X132617275Y-96860501D01*
X132730323Y-96860501D01*
X132730339Y-96860500D01*
X137952745Y-96860500D01*
X138019784Y-96880185D01*
X138040426Y-96896819D01*
X139133181Y-97989574D01*
X139147884Y-98016501D01*
X139164477Y-98042320D01*
X139165368Y-98048520D01*
X139166666Y-98050897D01*
X139169500Y-98077255D01*
X139169500Y-98173035D01*
X139149815Y-98240074D01*
X139097011Y-98285829D01*
X139027853Y-98295773D01*
X138964297Y-98266748D01*
X138957819Y-98260716D01*
X138046616Y-97349513D01*
X138046614Y-97349511D01*
X137995250Y-97319856D01*
X137943888Y-97290201D01*
X137931780Y-97286957D01*
X137919673Y-97283713D01*
X137919670Y-97283712D01*
X137881478Y-97273478D01*
X137829309Y-97259500D01*
X119950691Y-97259500D01*
X119860325Y-97283713D01*
X119860324Y-97283712D01*
X119836116Y-97290199D01*
X119836113Y-97290200D01*
X119733386Y-97349511D01*
X119733383Y-97349513D01*
X116239513Y-100843383D01*
X116239509Y-100843389D01*
X116180201Y-100946112D01*
X116180200Y-100946117D01*
X116149500Y-101060691D01*
X116149500Y-117420048D01*
X116129815Y-117487087D01*
X116077011Y-117532842D01*
X116007853Y-117542786D01*
X115967566Y-117529682D01*
X115962883Y-117527207D01*
X115834700Y-117482353D01*
X115804270Y-117479500D01*
X115804266Y-117479500D01*
X115395734Y-117479500D01*
X115395730Y-117479500D01*
X115365300Y-117482353D01*
X115365298Y-117482353D01*
X115237119Y-117527206D01*
X115237118Y-117527207D01*
X115192726Y-117559970D01*
X115173633Y-117574061D01*
X115108004Y-117598031D01*
X115039834Y-117582715D01*
X115026367Y-117574061D01*
X115013400Y-117564491D01*
X114962882Y-117527207D01*
X114962880Y-117527206D01*
X114834700Y-117482353D01*
X114804270Y-117479500D01*
X114804266Y-117479500D01*
X114395734Y-117479500D01*
X114395730Y-117479500D01*
X114365300Y-117482353D01*
X114365298Y-117482353D01*
X114237119Y-117527206D01*
X114237118Y-117527207D01*
X114192726Y-117559970D01*
X114173633Y-117574061D01*
X114108004Y-117598031D01*
X114039834Y-117582715D01*
X114026367Y-117574061D01*
X114013400Y-117564491D01*
X113962882Y-117527207D01*
X113962880Y-117527206D01*
X113834700Y-117482353D01*
X113804270Y-117479500D01*
X113804266Y-117479500D01*
X113395734Y-117479500D01*
X113395730Y-117479500D01*
X113365300Y-117482353D01*
X113365298Y-117482353D01*
X113237119Y-117527206D01*
X113237117Y-117527207D01*
X113127850Y-117607850D01*
X113047207Y-117717117D01*
X113047206Y-117717119D01*
X113002353Y-117845298D01*
X113002353Y-117845300D01*
X112999500Y-117875730D01*
X112999500Y-119234269D01*
X113002353Y-119264699D01*
X113002353Y-119264701D01*
X113047206Y-119392880D01*
X113047207Y-119392882D01*
X113127850Y-119502150D01*
X113237118Y-119582793D01*
X113279845Y-119597744D01*
X113365299Y-119627646D01*
X113395730Y-119630500D01*
X113395734Y-119630500D01*
X113804270Y-119630500D01*
X113834699Y-119627646D01*
X113834701Y-119627646D01*
X113898790Y-119605219D01*
X113962882Y-119582793D01*
X114026368Y-119535938D01*
X114091995Y-119511968D01*
X114160165Y-119527283D01*
X114173624Y-119535932D01*
X114237118Y-119582793D01*
X114279845Y-119597744D01*
X114365299Y-119627646D01*
X114395730Y-119630500D01*
X114395734Y-119630500D01*
X114804270Y-119630500D01*
X114834699Y-119627646D01*
X114834701Y-119627646D01*
X114898790Y-119605219D01*
X114962882Y-119582793D01*
X115026368Y-119535938D01*
X115091995Y-119511968D01*
X115160165Y-119527283D01*
X115173624Y-119535932D01*
X115237118Y-119582793D01*
X115279845Y-119597744D01*
X115365299Y-119627646D01*
X115395730Y-119630500D01*
X115395734Y-119630500D01*
X115804270Y-119630500D01*
X115834699Y-119627646D01*
X115834701Y-119627646D01*
X115898790Y-119605219D01*
X115962882Y-119582793D01*
X116026368Y-119535938D01*
X116091995Y-119511968D01*
X116160165Y-119527283D01*
X116173624Y-119535932D01*
X116237118Y-119582793D01*
X116279845Y-119597744D01*
X116365299Y-119627646D01*
X116395730Y-119630500D01*
X116395734Y-119630500D01*
X116804270Y-119630500D01*
X116834699Y-119627646D01*
X116834701Y-119627646D01*
X116898790Y-119605219D01*
X116962882Y-119582793D01*
X117072150Y-119502150D01*
X117152793Y-119392882D01*
X117185193Y-119300289D01*
X117197646Y-119264701D01*
X117197646Y-119264699D01*
X117200500Y-119234269D01*
X117200500Y-118968138D01*
X125667000Y-118968138D01*
X125667000Y-119220062D01*
X125694372Y-119392880D01*
X125706410Y-119468885D01*
X125784260Y-119708483D01*
X125861208Y-119859500D01*
X125894907Y-119925639D01*
X125898632Y-119932948D01*
X126046701Y-120136749D01*
X126046705Y-120136754D01*
X126224845Y-120314894D01*
X126224850Y-120314898D01*
X126370971Y-120421060D01*
X126428655Y-120462970D01*
X126571684Y-120535847D01*
X126653116Y-120577339D01*
X126653118Y-120577339D01*
X126653121Y-120577341D01*
X126892715Y-120655190D01*
X127141538Y-120694600D01*
X127141539Y-120694600D01*
X127393461Y-120694600D01*
X127393462Y-120694600D01*
X127642285Y-120655190D01*
X127881879Y-120577341D01*
X128106345Y-120462970D01*
X128310156Y-120314893D01*
X128488293Y-120136756D01*
X128636370Y-119932945D01*
X128750741Y-119708479D01*
X128828590Y-119468885D01*
X128868000Y-119220062D01*
X128868000Y-118968138D01*
X128828590Y-118719315D01*
X128750741Y-118479721D01*
X128750739Y-118479718D01*
X128750739Y-118479716D01*
X128674930Y-118330934D01*
X128636370Y-118255255D01*
X128573345Y-118168508D01*
X128488298Y-118051450D01*
X128488294Y-118051445D01*
X128310154Y-117873305D01*
X128310149Y-117873301D01*
X128106348Y-117725232D01*
X128106347Y-117725231D01*
X128106345Y-117725230D01*
X127989201Y-117665542D01*
X127881883Y-117610860D01*
X127642285Y-117533010D01*
X127621273Y-117529682D01*
X127393462Y-117493600D01*
X127141538Y-117493600D01*
X127017126Y-117513305D01*
X126892714Y-117533010D01*
X126653116Y-117610860D01*
X126428651Y-117725232D01*
X126224850Y-117873301D01*
X126224845Y-117873305D01*
X126046705Y-118051445D01*
X126046701Y-118051450D01*
X125898632Y-118255251D01*
X125784260Y-118479716D01*
X125706410Y-118719314D01*
X125700623Y-118755854D01*
X125667000Y-118968138D01*
X117200500Y-118968138D01*
X117200500Y-117875730D01*
X117197646Y-117845300D01*
X117197646Y-117845298D01*
X117155632Y-117725232D01*
X117152793Y-117717118D01*
X117074729Y-117611344D01*
X117050759Y-117545715D01*
X117050500Y-117537711D01*
X117050500Y-116791153D01*
X138999500Y-116791153D01*
X138999500Y-118778846D01*
X139030261Y-118933489D01*
X139030264Y-118933501D01*
X139090602Y-119079172D01*
X139090609Y-119079185D01*
X139178210Y-119210288D01*
X139178213Y-119210292D01*
X139948211Y-119980289D01*
X140004999Y-120037077D01*
X140059712Y-120091790D01*
X140135300Y-120142296D01*
X140190821Y-120179394D01*
X140293833Y-120222062D01*
X140336502Y-120239737D01*
X140491152Y-120270499D01*
X140491155Y-120270500D01*
X140491157Y-120270500D01*
X142338844Y-120270500D01*
X142338845Y-120270499D01*
X142493497Y-120239737D01*
X142639179Y-120179394D01*
X142770289Y-120091789D01*
X143561789Y-119300289D01*
X143563441Y-119297816D01*
X143649394Y-119169179D01*
X143709737Y-119023497D01*
X143727639Y-118933501D01*
X143727697Y-118933208D01*
X143727697Y-118933207D01*
X143740500Y-118868845D01*
X143740500Y-118483713D01*
X167569500Y-118483713D01*
X167569500Y-118696286D01*
X167596830Y-118868845D01*
X167602754Y-118906243D01*
X167665405Y-119099063D01*
X167668444Y-119108414D01*
X167764951Y-119297820D01*
X167889890Y-119469786D01*
X168040213Y-119620109D01*
X168212179Y-119745048D01*
X168212181Y-119745049D01*
X168212184Y-119745051D01*
X168401588Y-119841557D01*
X168603757Y-119907246D01*
X168813713Y-119940500D01*
X168813714Y-119940500D01*
X169026286Y-119940500D01*
X169026287Y-119940500D01*
X169236243Y-119907246D01*
X169438412Y-119841557D01*
X169627816Y-119745051D01*
X169678148Y-119708483D01*
X169799786Y-119620109D01*
X169799788Y-119620106D01*
X169799792Y-119620104D01*
X169950104Y-119469792D01*
X169950106Y-119469788D01*
X169950109Y-119469786D01*
X170075048Y-119297820D01*
X170075047Y-119297820D01*
X170075051Y-119297816D01*
X170171557Y-119108412D01*
X170237246Y-118906243D01*
X170270500Y-118696287D01*
X170270500Y-118483713D01*
X170237246Y-118273757D01*
X170171557Y-118071588D01*
X170075051Y-117882184D01*
X170075049Y-117882181D01*
X170075048Y-117882179D01*
X169950109Y-117710213D01*
X169799786Y-117559890D01*
X169627820Y-117434951D01*
X169438414Y-117338444D01*
X169438413Y-117338443D01*
X169438412Y-117338443D01*
X169236243Y-117272754D01*
X169236241Y-117272753D01*
X169236240Y-117272753D01*
X169074957Y-117247208D01*
X169026287Y-117239500D01*
X168813713Y-117239500D01*
X168765042Y-117247208D01*
X168603760Y-117272753D01*
X168401585Y-117338444D01*
X168212179Y-117434951D01*
X168040213Y-117559890D01*
X167889890Y-117710213D01*
X167764951Y-117882179D01*
X167668444Y-118071585D01*
X167602753Y-118273760D01*
X167569500Y-118483713D01*
X143740500Y-118483713D01*
X143740500Y-116841155D01*
X143731628Y-116796556D01*
X143731646Y-116760075D01*
X143729903Y-116759904D01*
X143730500Y-116753845D01*
X143730500Y-115346155D01*
X143730499Y-115346153D01*
X143721266Y-115299736D01*
X143699737Y-115191503D01*
X143694732Y-115179420D01*
X143639397Y-115045827D01*
X143639390Y-115045814D01*
X143551789Y-114914711D01*
X143551786Y-114914707D01*
X143440292Y-114803213D01*
X143440288Y-114803210D01*
X143309185Y-114715609D01*
X143309172Y-114715602D01*
X143163501Y-114655264D01*
X143163489Y-114655261D01*
X143008845Y-114624500D01*
X143008842Y-114624500D01*
X142851158Y-114624500D01*
X142851155Y-114624500D01*
X142696510Y-114655261D01*
X142696498Y-114655264D01*
X142550827Y-114715602D01*
X142550814Y-114715609D01*
X142419711Y-114803210D01*
X142419707Y-114803213D01*
X142308211Y-114914709D01*
X142294314Y-114935508D01*
X142240700Y-114980312D01*
X142171375Y-114989018D01*
X142108348Y-114958862D01*
X142103532Y-114954296D01*
X142048717Y-114899481D01*
X142048709Y-114899475D01*
X141911790Y-114820426D01*
X141911786Y-114820424D01*
X141911784Y-114820423D01*
X141759057Y-114779500D01*
X141600943Y-114779500D01*
X141448216Y-114820423D01*
X141448209Y-114820426D01*
X141311290Y-114899475D01*
X141311282Y-114899481D01*
X141199481Y-115011282D01*
X141199475Y-115011290D01*
X141130244Y-115131204D01*
X141079678Y-115179420D01*
X141011071Y-115192644D01*
X140946206Y-115166676D01*
X140905677Y-115109762D01*
X140903086Y-115101313D01*
X140899577Y-115088216D01*
X140875104Y-115045827D01*
X140820524Y-114951290D01*
X140820518Y-114951282D01*
X140708717Y-114839481D01*
X140708709Y-114839475D01*
X140571790Y-114760426D01*
X140571786Y-114760424D01*
X140571784Y-114760423D01*
X140419057Y-114719500D01*
X140260943Y-114719500D01*
X140108216Y-114760423D01*
X140108209Y-114760426D01*
X139971290Y-114839475D01*
X139971282Y-114839481D01*
X139859481Y-114951282D01*
X139859475Y-114951290D01*
X139780426Y-115088209D01*
X139780424Y-115088214D01*
X139780423Y-115088216D01*
X139739500Y-115240943D01*
X139739500Y-115399057D01*
X139780289Y-115551282D01*
X139780423Y-115551783D01*
X139780426Y-115551790D01*
X139859475Y-115688709D01*
X139859481Y-115688717D01*
X139928583Y-115757819D01*
X139962068Y-115819142D01*
X139957084Y-115888834D01*
X139915212Y-115944767D01*
X139849748Y-115969184D01*
X139840902Y-115969500D01*
X139405143Y-115969500D01*
X139405117Y-115969502D01*
X139380012Y-115972413D01*
X139380008Y-115972415D01*
X139277235Y-116017793D01*
X139197794Y-116097234D01*
X139152415Y-116200006D01*
X139152415Y-116200008D01*
X139149500Y-116225131D01*
X139149500Y-116365064D01*
X139129815Y-116432103D01*
X139128603Y-116433954D01*
X139090608Y-116490817D01*
X139090602Y-116490828D01*
X139030264Y-116636498D01*
X139030261Y-116636510D01*
X138999500Y-116791153D01*
X117050500Y-116791153D01*
X117050500Y-115840943D01*
X118239500Y-115840943D01*
X118239500Y-115999057D01*
X118265807Y-116097234D01*
X118280423Y-116151783D01*
X118280426Y-116151790D01*
X118359475Y-116288709D01*
X118359479Y-116288714D01*
X118359480Y-116288716D01*
X118471284Y-116400520D01*
X118471286Y-116400521D01*
X118471290Y-116400524D01*
X118608209Y-116479573D01*
X118608216Y-116479577D01*
X118760943Y-116520500D01*
X118760945Y-116520500D01*
X118919055Y-116520500D01*
X118919057Y-116520500D01*
X119071784Y-116479577D01*
X119208716Y-116400520D01*
X119208722Y-116400513D01*
X119214908Y-116395768D01*
X119280076Y-116370570D01*
X119290297Y-116370140D01*
X131240014Y-116360604D01*
X131272206Y-116364829D01*
X131289354Y-116369423D01*
X131330691Y-116380500D01*
X131330692Y-116380500D01*
X131649308Y-116380500D01*
X131649309Y-116380500D01*
X131739673Y-116356286D01*
X131763887Y-116349799D01*
X131866614Y-116290489D01*
X135110285Y-113046819D01*
X135171608Y-113013334D01*
X135197966Y-113010500D01*
X139752035Y-113010500D01*
X139819074Y-113030185D01*
X139839715Y-113046818D01*
X140793386Y-114000490D01*
X140896113Y-114059799D01*
X140920321Y-114066284D01*
X140920324Y-114066286D01*
X140920325Y-114066286D01*
X140950447Y-114074357D01*
X141010691Y-114090500D01*
X141010693Y-114090500D01*
X146339308Y-114090500D01*
X146339309Y-114090500D01*
X146429673Y-114066286D01*
X146453887Y-114059799D01*
X146556614Y-114000489D01*
X148070404Y-112486698D01*
X148131725Y-112453215D01*
X148141901Y-112451441D01*
X148149045Y-112450500D01*
X148149057Y-112450500D01*
X148301784Y-112409577D01*
X148438716Y-112330520D01*
X148550520Y-112218716D01*
X148629577Y-112081784D01*
X148670500Y-111929057D01*
X148670500Y-111770943D01*
X148629577Y-111618216D01*
X148629573Y-111618209D01*
X148550524Y-111481290D01*
X148550518Y-111481282D01*
X148438717Y-111369481D01*
X148438709Y-111369475D01*
X148301790Y-111290426D01*
X148301786Y-111290424D01*
X148301784Y-111290423D01*
X148149057Y-111249500D01*
X147990943Y-111249500D01*
X147838216Y-111290423D01*
X147838209Y-111290426D01*
X147701290Y-111369475D01*
X147701282Y-111369481D01*
X147589481Y-111481282D01*
X147589475Y-111481290D01*
X147510426Y-111618209D01*
X147510423Y-111618216D01*
X147469498Y-111770949D01*
X147468556Y-111778107D01*
X147440287Y-111842003D01*
X147433299Y-111849597D01*
X146129716Y-113153181D01*
X146068393Y-113186666D01*
X146042035Y-113189500D01*
X141307966Y-113189500D01*
X141240927Y-113169815D01*
X141220285Y-113153181D01*
X140266616Y-112199513D01*
X140266614Y-112199511D01*
X140215250Y-112169856D01*
X140163888Y-112140201D01*
X140151780Y-112136957D01*
X140139673Y-112133713D01*
X140139670Y-112133712D01*
X140101478Y-112123478D01*
X140049309Y-112109500D01*
X134900691Y-112109500D01*
X134810325Y-112133713D01*
X134810324Y-112133712D01*
X134786115Y-112140200D01*
X134786106Y-112140204D01*
X134683392Y-112199505D01*
X134683384Y-112199511D01*
X131459716Y-115423179D01*
X131432835Y-115437856D01*
X131407077Y-115454444D01*
X131400793Y-115455353D01*
X131398393Y-115456664D01*
X131372147Y-115459498D01*
X131368915Y-115459500D01*
X131368801Y-115459501D01*
X131303170Y-115459501D01*
X131302362Y-115459553D01*
X119289560Y-115469140D01*
X119222505Y-115449509D01*
X119213970Y-115443512D01*
X119208717Y-115439481D01*
X119208716Y-115439480D01*
X119208712Y-115439478D01*
X119208710Y-115439476D01*
X119071790Y-115360426D01*
X119071786Y-115360424D01*
X119071784Y-115360423D01*
X118919057Y-115319500D01*
X118760943Y-115319500D01*
X118608216Y-115360423D01*
X118608209Y-115360426D01*
X118471290Y-115439475D01*
X118471282Y-115439481D01*
X118359481Y-115551282D01*
X118359475Y-115551290D01*
X118280426Y-115688209D01*
X118280423Y-115688216D01*
X118239500Y-115840943D01*
X117050500Y-115840943D01*
X117050500Y-111679937D01*
X123717000Y-111679937D01*
X123717000Y-111908262D01*
X123752715Y-112133760D01*
X123823270Y-112350903D01*
X123875401Y-112453215D01*
X123926921Y-112554328D01*
X124061121Y-112739037D01*
X124222563Y-112900479D01*
X124407272Y-113034679D01*
X124501644Y-113082764D01*
X124610696Y-113138329D01*
X124610698Y-113138329D01*
X124610701Y-113138331D01*
X124727092Y-113176149D01*
X124827839Y-113208884D01*
X125053338Y-113244600D01*
X125053343Y-113244600D01*
X125281662Y-113244600D01*
X125507160Y-113208884D01*
X125545874Y-113196305D01*
X125724299Y-113138331D01*
X125927728Y-113034679D01*
X126112437Y-112900479D01*
X126273879Y-112739037D01*
X126408079Y-112554328D01*
X126511731Y-112350899D01*
X126582284Y-112133760D01*
X126614706Y-111929056D01*
X126618000Y-111908262D01*
X126618000Y-111679937D01*
X126582284Y-111454439D01*
X126528991Y-111290423D01*
X126511731Y-111237301D01*
X126511729Y-111237298D01*
X126511729Y-111237296D01*
X126408078Y-111033871D01*
X126308346Y-110896603D01*
X126273879Y-110849163D01*
X126112437Y-110687721D01*
X125990642Y-110599231D01*
X127917000Y-110599231D01*
X127917000Y-112988956D01*
X127917002Y-112988982D01*
X127919913Y-113014087D01*
X127919915Y-113014091D01*
X127965293Y-113116864D01*
X127965294Y-113116865D01*
X128044735Y-113196306D01*
X128147509Y-113241685D01*
X128172635Y-113244600D01*
X130562364Y-113244599D01*
X130562379Y-113244597D01*
X130562382Y-113244597D01*
X130587487Y-113241686D01*
X130587488Y-113241685D01*
X130587491Y-113241685D01*
X130690265Y-113196306D01*
X130769706Y-113116865D01*
X130815085Y-113014091D01*
X130818000Y-112988965D01*
X130817999Y-110599236D01*
X130817997Y-110599217D01*
X130815086Y-110574112D01*
X130815085Y-110574110D01*
X130815085Y-110574109D01*
X130769706Y-110471335D01*
X130690265Y-110391894D01*
X130690263Y-110391893D01*
X130587492Y-110346515D01*
X130562365Y-110343600D01*
X128172643Y-110343600D01*
X128172617Y-110343602D01*
X128147512Y-110346513D01*
X128147508Y-110346515D01*
X128044735Y-110391893D01*
X127965294Y-110471334D01*
X127919915Y-110574106D01*
X127919915Y-110574108D01*
X127917000Y-110599231D01*
X125990642Y-110599231D01*
X125927728Y-110553521D01*
X125893563Y-110536113D01*
X125724303Y-110449870D01*
X125507160Y-110379315D01*
X125281662Y-110343600D01*
X125281657Y-110343600D01*
X125053343Y-110343600D01*
X125053338Y-110343600D01*
X124827839Y-110379315D01*
X124610696Y-110449870D01*
X124407271Y-110553521D01*
X124222561Y-110687722D01*
X124061122Y-110849161D01*
X123926921Y-111033871D01*
X123823270Y-111237296D01*
X123752715Y-111454439D01*
X123717000Y-111679937D01*
X117050500Y-111679937D01*
X117050500Y-109992631D01*
X151952000Y-109992631D01*
X151952000Y-114732356D01*
X151952002Y-114732382D01*
X151954913Y-114757487D01*
X151954915Y-114757491D01*
X152000293Y-114860264D01*
X152000294Y-114860265D01*
X152079735Y-114939706D01*
X152182509Y-114985085D01*
X152207635Y-114988000D01*
X156947364Y-114987999D01*
X156947379Y-114987997D01*
X156947382Y-114987997D01*
X156972487Y-114985086D01*
X156972488Y-114985085D01*
X156972491Y-114985085D01*
X157075265Y-114939706D01*
X157154706Y-114860265D01*
X157200085Y-114757491D01*
X157203000Y-114732365D01*
X157202999Y-109992636D01*
X157202997Y-109992617D01*
X157200086Y-109967512D01*
X157200085Y-109967510D01*
X157200085Y-109967509D01*
X157154706Y-109864735D01*
X157075265Y-109785294D01*
X157075263Y-109785293D01*
X156972492Y-109739915D01*
X156947365Y-109737000D01*
X152207643Y-109737000D01*
X152207617Y-109737002D01*
X152182512Y-109739913D01*
X152182508Y-109739915D01*
X152079735Y-109785293D01*
X152000294Y-109864734D01*
X151954915Y-109967506D01*
X151954915Y-109967508D01*
X151952000Y-109992631D01*
X117050500Y-109992631D01*
X117050500Y-101357965D01*
X117070185Y-101290926D01*
X117086819Y-101270284D01*
X120160284Y-98196819D01*
X120221607Y-98163334D01*
X120247965Y-98160500D01*
X137532035Y-98160500D01*
X137599074Y-98180185D01*
X137619716Y-98196819D01*
X138333299Y-98910402D01*
X138366784Y-98971725D01*
X138368556Y-98981893D01*
X138369498Y-98989050D01*
X138410423Y-99141783D01*
X138410426Y-99141790D01*
X138489475Y-99278709D01*
X138489481Y-99278717D01*
X138578583Y-99367819D01*
X138612068Y-99429142D01*
X138607084Y-99498834D01*
X138565212Y-99554767D01*
X138499748Y-99579184D01*
X138490902Y-99579500D01*
X133707255Y-99579500D01*
X133677814Y-99570855D01*
X133647828Y-99564332D01*
X133642812Y-99560577D01*
X133640216Y-99559815D01*
X133619574Y-99543181D01*
X133536819Y-99460426D01*
X133503334Y-99399103D01*
X133500500Y-99372745D01*
X133500500Y-99310945D01*
X133500500Y-99310943D01*
X133459577Y-99158216D01*
X133450090Y-99141784D01*
X133380524Y-99021290D01*
X133380518Y-99021282D01*
X133268717Y-98909481D01*
X133268709Y-98909475D01*
X133131790Y-98830426D01*
X133131786Y-98830424D01*
X133131784Y-98830423D01*
X132979057Y-98789500D01*
X132820943Y-98789500D01*
X132668216Y-98830423D01*
X132668209Y-98830426D01*
X132531290Y-98909475D01*
X132531282Y-98909481D01*
X132419481Y-99021282D01*
X132419475Y-99021290D01*
X132340426Y-99158209D01*
X132340423Y-99158216D01*
X132299500Y-99310943D01*
X132299500Y-99469057D01*
X132329009Y-99579184D01*
X132340423Y-99621783D01*
X132340426Y-99621790D01*
X132419475Y-99758709D01*
X132419479Y-99758714D01*
X132419480Y-99758716D01*
X132531284Y-99870520D01*
X132531286Y-99870521D01*
X132531290Y-99870524D01*
X132668209Y-99949573D01*
X132668216Y-99949577D01*
X132820943Y-99990500D01*
X132882745Y-99990500D01*
X132949784Y-100010185D01*
X132970426Y-100026819D01*
X133244087Y-100300480D01*
X133323174Y-100346141D01*
X133333501Y-100352104D01*
X133335412Y-100353207D01*
X133437273Y-100380500D01*
X133437275Y-100380500D01*
X138942725Y-100380500D01*
X138942727Y-100380500D01*
X139044588Y-100353207D01*
X139135913Y-100300480D01*
X139477819Y-99958574D01*
X139539142Y-99925089D01*
X139608834Y-99930073D01*
X139664767Y-99971945D01*
X139689184Y-100037409D01*
X139689500Y-100046255D01*
X139689500Y-101235500D01*
X139669815Y-101302539D01*
X139617011Y-101348294D01*
X139565501Y-101359500D01*
X139345143Y-101359500D01*
X139345117Y-101359502D01*
X139320012Y-101362413D01*
X139320008Y-101362415D01*
X139217235Y-101407793D01*
X139137794Y-101487234D01*
X139092415Y-101590006D01*
X139092415Y-101590008D01*
X139089500Y-101615131D01*
X139089500Y-103904856D01*
X139089502Y-103904882D01*
X139092413Y-103929986D01*
X139092414Y-103929990D01*
X139092415Y-103929991D01*
X139104700Y-103957815D01*
X139116887Y-103985414D01*
X139125958Y-104054693D01*
X139096134Y-104117877D01*
X139036884Y-104154908D01*
X139003452Y-104159500D01*
X131168060Y-104159500D01*
X131101021Y-104139815D01*
X131055266Y-104087011D01*
X131045322Y-104017853D01*
X131074347Y-103954297D01*
X131095175Y-103935182D01*
X131242358Y-103828247D01*
X131242356Y-103828247D01*
X131242365Y-103828242D01*
X131398242Y-103672365D01*
X131527815Y-103494022D01*
X131627895Y-103297606D01*
X131696015Y-103087951D01*
X131730500Y-102870222D01*
X131730500Y-102649778D01*
X131696015Y-102432049D01*
X131627895Y-102222394D01*
X131627895Y-102222393D01*
X131542650Y-102055094D01*
X131527815Y-102025978D01*
X131416522Y-101872795D01*
X131398247Y-101847641D01*
X131398243Y-101847636D01*
X131242363Y-101691756D01*
X131242358Y-101691752D01*
X131064025Y-101562187D01*
X131064024Y-101562186D01*
X131064022Y-101562185D01*
X131001096Y-101530122D01*
X130867606Y-101462104D01*
X130867603Y-101462103D01*
X130657952Y-101393985D01*
X130549086Y-101376742D01*
X130440222Y-101359500D01*
X130219778Y-101359500D01*
X130147201Y-101370995D01*
X130002047Y-101393985D01*
X129792396Y-101462103D01*
X129792393Y-101462104D01*
X129595974Y-101562187D01*
X129417641Y-101691752D01*
X129417636Y-101691756D01*
X129261756Y-101847636D01*
X129261752Y-101847641D01*
X129132187Y-102025974D01*
X129032104Y-102222393D01*
X129032103Y-102222396D01*
X128963985Y-102432047D01*
X128929500Y-102649778D01*
X128929500Y-102870221D01*
X128963985Y-103087952D01*
X129032103Y-103297603D01*
X129032104Y-103297606D01*
X129059710Y-103351784D01*
X129129481Y-103488716D01*
X129132187Y-103494025D01*
X129261752Y-103672358D01*
X129261756Y-103672363D01*
X129417636Y-103828243D01*
X129417641Y-103828247D01*
X129564825Y-103935182D01*
X129607491Y-103990511D01*
X129613470Y-104060125D01*
X129580865Y-104121920D01*
X129520026Y-104156277D01*
X129491940Y-104159500D01*
X125182617Y-104159500D01*
X125182611Y-104159500D01*
X125182606Y-104159501D01*
X124883633Y-104198861D01*
X124592339Y-104276913D01*
X124313738Y-104392314D01*
X124313728Y-104392318D01*
X124052568Y-104543099D01*
X123813321Y-104726679D01*
X123813314Y-104726685D01*
X123600085Y-104939914D01*
X123600079Y-104939921D01*
X123416499Y-105179168D01*
X123265718Y-105440328D01*
X123265714Y-105440338D01*
X123150313Y-105718939D01*
X123072261Y-106010233D01*
X123032901Y-106309206D01*
X123032900Y-106309223D01*
X123032900Y-106610776D01*
X123032901Y-106610793D01*
X123072261Y-106909766D01*
X123150313Y-107201060D01*
X123239100Y-107415410D01*
X123265717Y-107479668D01*
X123289303Y-107520520D01*
X123416499Y-107740831D01*
X123600079Y-107980078D01*
X123600085Y-107980085D01*
X123813314Y-108193314D01*
X123813321Y-108193320D01*
X124052568Y-108376900D01*
X124313728Y-108527681D01*
X124313729Y-108527681D01*
X124313732Y-108527683D01*
X124499472Y-108604619D01*
X124592339Y-108643086D01*
X124592340Y-108643086D01*
X124592342Y-108643087D01*
X124883632Y-108721138D01*
X125182617Y-108760500D01*
X125182624Y-108760500D01*
X148060776Y-108760500D01*
X148060783Y-108760500D01*
X148359768Y-108721138D01*
X148651059Y-108643087D01*
X148929668Y-108527683D01*
X149190832Y-108376900D01*
X149317666Y-108279577D01*
X149430080Y-108193319D01*
X149643319Y-107980080D01*
X149648683Y-107974716D01*
X149648698Y-107974698D01*
X152138265Y-105485131D01*
X153189500Y-105485131D01*
X153189500Y-107774856D01*
X153189502Y-107774882D01*
X153192413Y-107799987D01*
X153192415Y-107799991D01*
X153237793Y-107902764D01*
X153237794Y-107902765D01*
X153317235Y-107982206D01*
X153420009Y-108027585D01*
X153445135Y-108030500D01*
X155734864Y-108030499D01*
X155734879Y-108030497D01*
X155734882Y-108030497D01*
X155759987Y-108027586D01*
X155759988Y-108027585D01*
X155759991Y-108027585D01*
X155862765Y-107982206D01*
X155942206Y-107902765D01*
X155987585Y-107799991D01*
X155990500Y-107774865D01*
X155990499Y-106519778D01*
X163349500Y-106519778D01*
X163349500Y-106740221D01*
X163383985Y-106957952D01*
X163452103Y-107167603D01*
X163452104Y-107167606D01*
X163503046Y-107267583D01*
X163531835Y-107324084D01*
X163552187Y-107364025D01*
X163681752Y-107542358D01*
X163681756Y-107542363D01*
X163837636Y-107698243D01*
X163837641Y-107698247D01*
X163976393Y-107799055D01*
X164015978Y-107827815D01*
X164144375Y-107893237D01*
X164212393Y-107927895D01*
X164212396Y-107927896D01*
X164285915Y-107951783D01*
X164422049Y-107996015D01*
X164639778Y-108030500D01*
X164639779Y-108030500D01*
X164860221Y-108030500D01*
X164860222Y-108030500D01*
X165077951Y-107996015D01*
X165287606Y-107927895D01*
X165484022Y-107827815D01*
X165662365Y-107698242D01*
X165818242Y-107542365D01*
X165947815Y-107364022D01*
X166047895Y-107167606D01*
X166116015Y-106957951D01*
X166150500Y-106740222D01*
X166150500Y-106519778D01*
X166116015Y-106302049D01*
X166047895Y-106092394D01*
X166047895Y-106092393D01*
X166006031Y-106010232D01*
X165947815Y-105895978D01*
X165819192Y-105718942D01*
X165818247Y-105717641D01*
X165818243Y-105717636D01*
X165662363Y-105561756D01*
X165662358Y-105561752D01*
X165484025Y-105432187D01*
X165484024Y-105432186D01*
X165484022Y-105432185D01*
X165380953Y-105379668D01*
X165287606Y-105332104D01*
X165287603Y-105332103D01*
X165077952Y-105263985D01*
X164969086Y-105246742D01*
X164860222Y-105229500D01*
X164639778Y-105229500D01*
X164567201Y-105240995D01*
X164422047Y-105263985D01*
X164212396Y-105332103D01*
X164212393Y-105332104D01*
X164015974Y-105432187D01*
X163837641Y-105561752D01*
X163837636Y-105561756D01*
X163681756Y-105717636D01*
X163681752Y-105717641D01*
X163552187Y-105895974D01*
X163452104Y-106092393D01*
X163452103Y-106092396D01*
X163383985Y-106302047D01*
X163349500Y-106519778D01*
X155990499Y-106519778D01*
X155990499Y-105485136D01*
X155990497Y-105485117D01*
X155987586Y-105460012D01*
X155987585Y-105460010D01*
X155987585Y-105460009D01*
X155942206Y-105357235D01*
X155862765Y-105277794D01*
X155862763Y-105277793D01*
X155759992Y-105232415D01*
X155734865Y-105229500D01*
X153445143Y-105229500D01*
X153445117Y-105229502D01*
X153420012Y-105232413D01*
X153420008Y-105232415D01*
X153317235Y-105277793D01*
X153237794Y-105357234D01*
X153192415Y-105460006D01*
X153192415Y-105460008D01*
X153189500Y-105485131D01*
X152138265Y-105485131D01*
X160814698Y-96808698D01*
X160814716Y-96808683D01*
X161033314Y-96590085D01*
X161033319Y-96590080D01*
X161216900Y-96350832D01*
X161367683Y-96089668D01*
X161483087Y-95811058D01*
X161561138Y-95519768D01*
X161600500Y-95220783D01*
X161600500Y-61595198D01*
X161600501Y-61595169D01*
X161600501Y-61289224D01*
X161600500Y-61289210D01*
X161598731Y-61275776D01*
X161561138Y-60990232D01*
X161483087Y-60698942D01*
X161367683Y-60420332D01*
X161216900Y-60159168D01*
X161033319Y-59919920D01*
X161033314Y-59919914D01*
X160817673Y-59704273D01*
X160817634Y-59704236D01*
X155536444Y-54423046D01*
X155536416Y-54423016D01*
X155320085Y-54206685D01*
X155320078Y-54206679D01*
X155080831Y-54023099D01*
X154819675Y-53872320D01*
X154819664Y-53872315D01*
X154694827Y-53820606D01*
X154694827Y-53820605D01*
X154541057Y-53756912D01*
X154395413Y-53717887D01*
X154249768Y-53678862D01*
X154249762Y-53678861D01*
X154249757Y-53678860D01*
X153950793Y-53639501D01*
X153950788Y-53639500D01*
X153950783Y-53639500D01*
X153950776Y-53639500D01*
X133584261Y-53639500D01*
X133517222Y-53619815D01*
X133496580Y-53603181D01*
X132690084Y-52796685D01*
X132690077Y-52796679D01*
X132450836Y-52613103D01*
X132450835Y-52613102D01*
X132450832Y-52613100D01*
X132346706Y-52552983D01*
X132189675Y-52462320D01*
X132189664Y-52462315D01*
X132122062Y-52434314D01*
X131911059Y-52346913D01*
X131619768Y-52268862D01*
X131619762Y-52268861D01*
X131619757Y-52268860D01*
X131320793Y-52229501D01*
X131320788Y-52229500D01*
X131320783Y-52229500D01*
X131019217Y-52229500D01*
X131019211Y-52229500D01*
X131019206Y-52229501D01*
X130720242Y-52268860D01*
X130720235Y-52268861D01*
X130720232Y-52268862D01*
X130428941Y-52346913D01*
X130299539Y-52400513D01*
X130150335Y-52462315D01*
X130150324Y-52462320D01*
X129889163Y-52613103D01*
X129649922Y-52796679D01*
X129649915Y-52796685D01*
X129436685Y-53009915D01*
X129436679Y-53009922D01*
X129253103Y-53249163D01*
X129102320Y-53510324D01*
X129102315Y-53510335D01*
X129048814Y-53639500D01*
X128986913Y-53788941D01*
X128924171Y-54023100D01*
X128908863Y-54080229D01*
X128908860Y-54080242D01*
X128869501Y-54379206D01*
X128869500Y-54379223D01*
X128869500Y-54680776D01*
X128869501Y-54680793D01*
X128908860Y-54979757D01*
X128908861Y-54979762D01*
X128908862Y-54979768D01*
X128986913Y-55271059D01*
X129065778Y-55461455D01*
X129102315Y-55549664D01*
X129102320Y-55549675D01*
X129183966Y-55691088D01*
X129253100Y-55810832D01*
X129253102Y-55810835D01*
X129253103Y-55810836D01*
X129436679Y-56050077D01*
X129436685Y-56050084D01*
X131059914Y-57673314D01*
X131059920Y-57673319D01*
X131299168Y-57856900D01*
X131299175Y-57856904D01*
X131560323Y-58007679D01*
X131560328Y-58007681D01*
X131560331Y-58007683D01*
X131736018Y-58080455D01*
X131810769Y-58111418D01*
X131838941Y-58123087D01*
X132008556Y-58168535D01*
X132130232Y-58201138D01*
X132429217Y-58240500D01*
X152795740Y-58240500D01*
X152862779Y-58260185D01*
X152883421Y-58276819D01*
X156963181Y-62356579D01*
X156996666Y-62417902D01*
X156999500Y-62444260D01*
X156999500Y-94065740D01*
X156979815Y-94132779D01*
X156963181Y-94153421D01*
X146993421Y-104123181D01*
X146932098Y-104156666D01*
X146905740Y-104159500D01*
X141976548Y-104159500D01*
X141909509Y-104139815D01*
X141863754Y-104087011D01*
X141853810Y-104017853D01*
X141863114Y-103985414D01*
X141887583Y-103929995D01*
X141887585Y-103929991D01*
X141890500Y-103904865D01*
X141890499Y-101615136D01*
X141890497Y-101615117D01*
X141887586Y-101590012D01*
X141887585Y-101590010D01*
X141887585Y-101590009D01*
X141842206Y-101487235D01*
X141762765Y-101407794D01*
X141738559Y-101397106D01*
X141659992Y-101362415D01*
X141634868Y-101359500D01*
X141634865Y-101359500D01*
X141414500Y-101359500D01*
X141347461Y-101339815D01*
X141301706Y-101287011D01*
X141290500Y-101235500D01*
X141290500Y-96811155D01*
X141290499Y-96811153D01*
X141269565Y-96705913D01*
X141259737Y-96656503D01*
X141248642Y-96629716D01*
X141199397Y-96510827D01*
X141199390Y-96510814D01*
X141111790Y-96379712D01*
X141057971Y-96325893D01*
X141000289Y-96268211D01*
X140344528Y-95612450D01*
X139680292Y-94948213D01*
X139680288Y-94948210D01*
X139549185Y-94860609D01*
X139549172Y-94860602D01*
X139403501Y-94800264D01*
X139403489Y-94800261D01*
X139248845Y-94769500D01*
X139248842Y-94769500D01*
X136349478Y-94769500D01*
X136282439Y-94749815D01*
X136236684Y-94697011D01*
X136226740Y-94627853D01*
X136255765Y-94564297D01*
X136261797Y-94557819D01*
X136340900Y-94478716D01*
X136419957Y-94341784D01*
X136460880Y-94189057D01*
X136460880Y-94030943D01*
X136419957Y-93878216D01*
X136403423Y-93849578D01*
X136340904Y-93741290D01*
X136340901Y-93741287D01*
X136340900Y-93741284D01*
X136340897Y-93741281D01*
X136336505Y-93735557D01*
X136311310Y-93670388D01*
X136310880Y-93660069D01*
X136310880Y-92861073D01*
X136310880Y-92861071D01*
X136280179Y-92746494D01*
X136247285Y-92689520D01*
X136220869Y-92643766D01*
X130096614Y-86519511D01*
X130045250Y-86489856D01*
X129993888Y-86460201D01*
X129981780Y-86456957D01*
X129969673Y-86453713D01*
X129969670Y-86453712D01*
X129926411Y-86442121D01*
X129879309Y-86429500D01*
X129879308Y-86429500D01*
X116468239Y-86429500D01*
X116401200Y-86409815D01*
X116355445Y-86357011D01*
X116345501Y-86287853D01*
X116360852Y-86243501D01*
X116395967Y-86182677D01*
X116419577Y-86141784D01*
X116460500Y-85989057D01*
X116460500Y-85830943D01*
X116419577Y-85678216D01*
X116406816Y-85656113D01*
X116340524Y-85541290D01*
X116340518Y-85541282D01*
X116228717Y-85429481D01*
X116228709Y-85429475D01*
X116091790Y-85350426D01*
X116091786Y-85350424D01*
X116091784Y-85350423D01*
X115939057Y-85309500D01*
X115939056Y-85309500D01*
X115877255Y-85309500D01*
X115810216Y-85289815D01*
X115789574Y-85273181D01*
X113655997Y-83139604D01*
X113622512Y-83078281D01*
X113627496Y-83008589D01*
X113669368Y-82952656D01*
X113681661Y-82944546D01*
X113803645Y-82874120D01*
X113915449Y-82762316D01*
X113994506Y-82625384D01*
X114035429Y-82472657D01*
X114035429Y-82410855D01*
X114055114Y-82343816D01*
X114071748Y-82323174D01*
X114082484Y-82312438D01*
X114135211Y-82221113D01*
X114162504Y-82119252D01*
X114162504Y-82013798D01*
X114162504Y-80806149D01*
X114162505Y-80803890D01*
X114167650Y-80786395D01*
X114164191Y-80785819D01*
X114164192Y-80785813D01*
X114167651Y-80786389D01*
X114172748Y-80769063D01*
X114182190Y-80736906D01*
X114182210Y-80736888D01*
X114182219Y-80736859D01*
X114210172Y-80712658D01*
X114234994Y-80691151D01*
X114235020Y-80691147D01*
X114235043Y-80691128D01*
X114269831Y-80686141D01*
X114304152Y-80681207D01*
X114304178Y-80681218D01*
X114304206Y-80681215D01*
X114335401Y-80695478D01*
X114367708Y-80710232D01*
X114367744Y-80710265D01*
X114367749Y-80710268D01*
X114367752Y-80710273D01*
X114374186Y-80716264D01*
X115449705Y-81791784D01*
X115449712Y-81791790D01*
X115580819Y-81879392D01*
X115580820Y-81879392D01*
X115580821Y-81879393D01*
X115726503Y-81939737D01*
X115726507Y-81939737D01*
X115726508Y-81939738D01*
X115881154Y-81970500D01*
X115881157Y-81970500D01*
X116038844Y-81970500D01*
X116038845Y-81970499D01*
X116193497Y-81939737D01*
X116339179Y-81879393D01*
X116470289Y-81791789D01*
X116581789Y-81680289D01*
X116669393Y-81549179D01*
X116729737Y-81403497D01*
X116760500Y-81248842D01*
X116760500Y-81091157D01*
X116760500Y-81091154D01*
X116729738Y-80936508D01*
X116729737Y-80936507D01*
X116729737Y-80936503D01*
X116669393Y-80790821D01*
X116655134Y-80769481D01*
X116581790Y-80659712D01*
X116581784Y-80659705D01*
X113216382Y-77294303D01*
X113200839Y-77283917D01*
X113183519Y-77272345D01*
X113138714Y-77218734D01*
X113130007Y-77149409D01*
X113160161Y-77086381D01*
X113164729Y-77081562D01*
X116489472Y-73756819D01*
X116550795Y-73723334D01*
X116577153Y-73720500D01*
X142688004Y-73720500D01*
X142688011Y-73720500D01*
X142922014Y-73689693D01*
X143149993Y-73628606D01*
X143368049Y-73538284D01*
X143572450Y-73420273D01*
X143759699Y-73276592D01*
X143926592Y-73109699D01*
X144070273Y-72922450D01*
X144188284Y-72718049D01*
X144278606Y-72499993D01*
X144339693Y-72272014D01*
X144370500Y-72038011D01*
X144370500Y-71801989D01*
X144339693Y-71567986D01*
X144278606Y-71340007D01*
X144188284Y-71121951D01*
X144188282Y-71121948D01*
X144188280Y-71121943D01*
X144099177Y-70967614D01*
X144070273Y-70917550D01*
X143960153Y-70774038D01*
X143926593Y-70730302D01*
X143926587Y-70730295D01*
X143759704Y-70563412D01*
X143759697Y-70563406D01*
X143572454Y-70419730D01*
X143572453Y-70419729D01*
X143572450Y-70419727D01*
X143451212Y-70349730D01*
X143368056Y-70301719D01*
X143368045Y-70301714D01*
X143149993Y-70211394D01*
X142922010Y-70150306D01*
X142688020Y-70119501D01*
X142688017Y-70119500D01*
X142688011Y-70119500D01*
X115661989Y-70119500D01*
X115661983Y-70119500D01*
X115661979Y-70119501D01*
X115427989Y-70150306D01*
X115200006Y-70211394D01*
X115114047Y-70247000D01*
X115114046Y-70247000D01*
X114981961Y-70301710D01*
X114981947Y-70301717D01*
X114777555Y-70419723D01*
X114777540Y-70419733D01*
X114590302Y-70563406D01*
X114590295Y-70563412D01*
X110937124Y-74216583D01*
X110911444Y-74236289D01*
X110822195Y-74287817D01*
X110822183Y-74287825D01*
X110634944Y-74431500D01*
X110634936Y-74431508D01*
X109221504Y-75844939D01*
X109221498Y-75844946D01*
X109077825Y-76032185D01*
X109077815Y-76032200D01*
X109026288Y-76121445D01*
X109006583Y-76147124D01*
X102764846Y-82388862D01*
X102703523Y-82422347D01*
X102633831Y-82417363D01*
X102577898Y-82375491D01*
X102553481Y-82310027D01*
X102562604Y-82253728D01*
X102588582Y-82191013D01*
X102617700Y-82044627D01*
X102617700Y-81895373D01*
X102617700Y-81895370D01*
X102617699Y-81895368D01*
X102588582Y-81748987D01*
X102531465Y-81611095D01*
X102531464Y-81611094D01*
X102531461Y-81611088D01*
X102448544Y-81486995D01*
X102448541Y-81486991D01*
X102343008Y-81381458D01*
X102343004Y-81381455D01*
X102218911Y-81298538D01*
X102218902Y-81298533D01*
X102081013Y-81241418D01*
X102081005Y-81241416D01*
X101934630Y-81212300D01*
X101934627Y-81212300D01*
X101785373Y-81212300D01*
X101785370Y-81212300D01*
X101638994Y-81241416D01*
X101638986Y-81241418D01*
X101501097Y-81298533D01*
X101501088Y-81298538D01*
X101376995Y-81381455D01*
X101376991Y-81381458D01*
X101271458Y-81486991D01*
X101271455Y-81486995D01*
X101188538Y-81611088D01*
X101188533Y-81611097D01*
X101131418Y-81748986D01*
X101131416Y-81748994D01*
X101102300Y-81895368D01*
X101102300Y-82044631D01*
X101131416Y-82191005D01*
X101131418Y-82191013D01*
X101188533Y-82328902D01*
X101188538Y-82328911D01*
X101271455Y-82453004D01*
X101271458Y-82453008D01*
X101376991Y-82558541D01*
X101376995Y-82558544D01*
X101501088Y-82641461D01*
X101501094Y-82641464D01*
X101501095Y-82641465D01*
X101638987Y-82698582D01*
X101762041Y-82723059D01*
X101785368Y-82727699D01*
X101785371Y-82727700D01*
X101785373Y-82727700D01*
X101934629Y-82727700D01*
X101934630Y-82727699D01*
X102081013Y-82698582D01*
X102143729Y-82672603D01*
X102213197Y-82665135D01*
X102275676Y-82696410D01*
X102311329Y-82756498D01*
X102308836Y-82826324D01*
X102278862Y-82874846D01*
X97460528Y-87693181D01*
X97399205Y-87726666D01*
X97372847Y-87729500D01*
X95553011Y-87729500D01*
X90236989Y-87729500D01*
X90236983Y-87729500D01*
X90236979Y-87729501D01*
X90002989Y-87760306D01*
X89775006Y-87821394D01*
X89689047Y-87857000D01*
X89689046Y-87857000D01*
X89556961Y-87911710D01*
X89556947Y-87911717D01*
X89352544Y-88029730D01*
X89165301Y-88173406D01*
X89165294Y-88173412D01*
X86458412Y-90880295D01*
X86458406Y-90880302D01*
X86314733Y-91067541D01*
X86314722Y-91067557D01*
X86196719Y-91271942D01*
X86196711Y-91271958D01*
X86161459Y-91357068D01*
X86161459Y-91357069D01*
X86106394Y-91490006D01*
X86045306Y-91717989D01*
X86014501Y-91951979D01*
X86014500Y-91951995D01*
X83810500Y-91951995D01*
X83810500Y-84987275D01*
X83810500Y-84987273D01*
X83783207Y-84885413D01*
X83730480Y-84794087D01*
X83655913Y-84719520D01*
X80246819Y-81310426D01*
X80213334Y-81249103D01*
X80210500Y-81222745D01*
X80210500Y-81170945D01*
X80210500Y-81170943D01*
X80169577Y-81018216D01*
X80126791Y-80944107D01*
X80090524Y-80881290D01*
X80090518Y-80881282D01*
X79978717Y-80769481D01*
X79978709Y-80769475D01*
X79841790Y-80690426D01*
X79841786Y-80690424D01*
X79841784Y-80690423D01*
X79689057Y-80649500D01*
X79530943Y-80649500D01*
X79378216Y-80690423D01*
X79378209Y-80690426D01*
X79241290Y-80769475D01*
X79241282Y-80769481D01*
X79129481Y-80881282D01*
X79129475Y-80881290D01*
X79050426Y-81018209D01*
X79050423Y-81018216D01*
X79009500Y-81170943D01*
X65404613Y-81170943D01*
X65406616Y-63251153D01*
X75139500Y-63251153D01*
X75139500Y-67348846D01*
X75170261Y-67503489D01*
X75170264Y-67503501D01*
X75230602Y-67649172D01*
X75230609Y-67649185D01*
X75318210Y-67780288D01*
X75318213Y-67780292D01*
X88178211Y-80640289D01*
X88248154Y-80710232D01*
X88289712Y-80751790D01*
X88420816Y-80839391D01*
X88420817Y-80839391D01*
X88420821Y-80839394D01*
X88486969Y-80866793D01*
X88566502Y-80899737D01*
X88721152Y-80930499D01*
X88721155Y-80930500D01*
X88721157Y-80930500D01*
X97238844Y-80930500D01*
X97238845Y-80930499D01*
X97393497Y-80899737D01*
X97539179Y-80839394D01*
X97670289Y-80751789D01*
X99185259Y-79236819D01*
X99246582Y-79203334D01*
X99272940Y-79200500D01*
X103818844Y-79200500D01*
X103818845Y-79200499D01*
X103973497Y-79169737D01*
X104119179Y-79109394D01*
X104250289Y-79021789D01*
X108891788Y-74380290D01*
X108979393Y-74249179D01*
X109039737Y-74103498D01*
X109070500Y-73948843D01*
X109070500Y-73791158D01*
X109070500Y-73791155D01*
X109070499Y-73791153D01*
X109039737Y-73636503D01*
X108979393Y-73490821D01*
X108979391Y-73490818D01*
X108979389Y-73490814D01*
X108891788Y-73359711D01*
X108891785Y-73359707D01*
X108780292Y-73248214D01*
X108780288Y-73248211D01*
X108649185Y-73160610D01*
X108649175Y-73160605D01*
X108503497Y-73100263D01*
X108503489Y-73100261D01*
X108348845Y-73069500D01*
X108348842Y-73069500D01*
X108191157Y-73069500D01*
X108191154Y-73069500D01*
X108036509Y-73100261D01*
X108036501Y-73100263D01*
X107890824Y-73160605D01*
X107890814Y-73160610D01*
X107759709Y-73248211D01*
X107759706Y-73248214D01*
X103444741Y-77563181D01*
X103383418Y-77596666D01*
X103357060Y-77599500D01*
X98811154Y-77599500D01*
X98656509Y-77630261D01*
X98656497Y-77630264D01*
X98613832Y-77647936D01*
X98613833Y-77647937D01*
X98510823Y-77690604D01*
X98510814Y-77690609D01*
X98379712Y-77778209D01*
X98379710Y-77778212D01*
X96864741Y-79293181D01*
X96803418Y-79326666D01*
X96777060Y-79329500D01*
X89182940Y-79329500D01*
X89115901Y-79309815D01*
X89095259Y-79293181D01*
X78961301Y-69159223D01*
X85564500Y-69159223D01*
X85564500Y-72215776D01*
X85564501Y-72215793D01*
X85603860Y-72514757D01*
X85603861Y-72514762D01*
X85603862Y-72514768D01*
X85603863Y-72514770D01*
X85681912Y-72806057D01*
X85752491Y-72976448D01*
X85752491Y-72976449D01*
X85797311Y-73084656D01*
X85797318Y-73084671D01*
X85948099Y-73345831D01*
X86131679Y-73585078D01*
X86131685Y-73585085D01*
X86349239Y-73802639D01*
X86349261Y-73802659D01*
X88349914Y-75803314D01*
X88349920Y-75803319D01*
X88589168Y-75986900D01*
X88589175Y-75986904D01*
X88850323Y-76137679D01*
X88850328Y-76137681D01*
X88850331Y-76137683D01*
X89128941Y-76253087D01*
X89393063Y-76323858D01*
X89393065Y-76323859D01*
X89403605Y-76326682D01*
X89420232Y-76331138D01*
X89719217Y-76370500D01*
X89719224Y-76370500D01*
X92150776Y-76370500D01*
X92150783Y-76370500D01*
X92449768Y-76331138D01*
X92741059Y-76253087D01*
X93019668Y-76137683D01*
X93280832Y-75986900D01*
X93386129Y-75906103D01*
X93520080Y-75803319D01*
X93733319Y-75590080D01*
X93736416Y-75586983D01*
X93736430Y-75586968D01*
X95653732Y-73669665D01*
X95715053Y-73636182D01*
X95725207Y-73634412D01*
X95837014Y-73619693D01*
X96064993Y-73558606D01*
X96283049Y-73468284D01*
X96487450Y-73350273D01*
X96674699Y-73206592D01*
X96841592Y-73039699D01*
X96985273Y-72852450D01*
X97103284Y-72648049D01*
X97193606Y-72429993D01*
X97254693Y-72202014D01*
X97285500Y-71968011D01*
X97285500Y-71731989D01*
X97254693Y-71497986D01*
X97193606Y-71270007D01*
X97103284Y-71051951D01*
X97103282Y-71051948D01*
X97103280Y-71051943D01*
X97054590Y-70967610D01*
X96985273Y-70847550D01*
X96841592Y-70660301D01*
X96841587Y-70660295D01*
X96674704Y-70493412D01*
X96674697Y-70493406D01*
X96487454Y-70349730D01*
X96487453Y-70349729D01*
X96487450Y-70349727D01*
X96404282Y-70301710D01*
X96283056Y-70231719D01*
X96283045Y-70231714D01*
X96064993Y-70141394D01*
X95837010Y-70080306D01*
X95723946Y-70065421D01*
X95695723Y-70061705D01*
X95636424Y-70037143D01*
X95500832Y-69933100D01*
X95239668Y-69782317D01*
X95239661Y-69782314D01*
X94961060Y-69666913D01*
X94669766Y-69588861D01*
X94370793Y-69549501D01*
X94370788Y-69549500D01*
X94370783Y-69549500D01*
X94069217Y-69549500D01*
X94069211Y-69549500D01*
X94069206Y-69549501D01*
X93770242Y-69588860D01*
X93770235Y-69588861D01*
X93770232Y-69588862D01*
X93713091Y-69604172D01*
X93478938Y-69666913D01*
X93200334Y-69782315D01*
X93200323Y-69782320D01*
X92939175Y-69933095D01*
X92939159Y-69933106D01*
X92699921Y-70116679D01*
X92699914Y-70116685D01*
X91083421Y-71733181D01*
X91056493Y-71747884D01*
X91030675Y-71764477D01*
X91024474Y-71765368D01*
X91022098Y-71766666D01*
X90995740Y-71769500D01*
X90874261Y-71769500D01*
X90807222Y-71749815D01*
X90786580Y-71733181D01*
X90201819Y-71148420D01*
X90168334Y-71087097D01*
X90165500Y-71060739D01*
X90165500Y-70314260D01*
X90185185Y-70247221D01*
X90201819Y-70226579D01*
X91158054Y-69270345D01*
X148517000Y-69270345D01*
X148517000Y-69489654D01*
X148545623Y-69707075D01*
X148545624Y-69707080D01*
X148545625Y-69707086D01*
X148565784Y-69782320D01*
X148602386Y-69918921D01*
X148602389Y-69918931D01*
X148686310Y-70121533D01*
X148686315Y-70121544D01*
X148795961Y-70311455D01*
X148795972Y-70311471D01*
X148929471Y-70485451D01*
X148929477Y-70485458D01*
X149084541Y-70640522D01*
X149084547Y-70640527D01*
X149258537Y-70774034D01*
X149258544Y-70774038D01*
X149448455Y-70883684D01*
X149448460Y-70883686D01*
X149448463Y-70883688D01*
X149651078Y-70967614D01*
X149862914Y-71024375D01*
X150016475Y-71044591D01*
X150080345Y-71053000D01*
X150080346Y-71053000D01*
X150299655Y-71053000D01*
X150349022Y-71046500D01*
X150517086Y-71024375D01*
X150728922Y-70967614D01*
X150931537Y-70883688D01*
X151121463Y-70774034D01*
X151295453Y-70640527D01*
X151450527Y-70485453D01*
X151584034Y-70311463D01*
X151693688Y-70121537D01*
X151777614Y-69918922D01*
X151834375Y-69707086D01*
X151863000Y-69489654D01*
X151863000Y-69270346D01*
X151834375Y-69052914D01*
X151777614Y-68841078D01*
X151693688Y-68638463D01*
X151693686Y-68638460D01*
X151693684Y-68638455D01*
X151584038Y-68448544D01*
X151584034Y-68448537D01*
X151516495Y-68360518D01*
X151450528Y-68274548D01*
X151450522Y-68274541D01*
X151295458Y-68119477D01*
X151295451Y-68119471D01*
X151121471Y-67985972D01*
X151121469Y-67985970D01*
X151121463Y-67985966D01*
X151121458Y-67985963D01*
X151121455Y-67985961D01*
X150931544Y-67876315D01*
X150931533Y-67876310D01*
X150728931Y-67792389D01*
X150728924Y-67792387D01*
X150728922Y-67792386D01*
X150517086Y-67735625D01*
X150517080Y-67735624D01*
X150517075Y-67735623D01*
X150299655Y-67707000D01*
X150299654Y-67707000D01*
X150080346Y-67707000D01*
X150080345Y-67707000D01*
X149862924Y-67735623D01*
X149862917Y-67735624D01*
X149862914Y-67735625D01*
X149696229Y-67780288D01*
X149651078Y-67792386D01*
X149651068Y-67792389D01*
X149448466Y-67876310D01*
X149448455Y-67876315D01*
X149258544Y-67985961D01*
X149258528Y-67985972D01*
X149084548Y-68119471D01*
X149084541Y-68119477D01*
X148929477Y-68274541D01*
X148929471Y-68274548D01*
X148795972Y-68448528D01*
X148795961Y-68448544D01*
X148686315Y-68638455D01*
X148686310Y-68638466D01*
X148602389Y-68841068D01*
X148602386Y-68841078D01*
X148551461Y-69031136D01*
X148545626Y-69052911D01*
X148545623Y-69052924D01*
X148517000Y-69270345D01*
X91158054Y-69270345D01*
X91249793Y-69178606D01*
X91321580Y-69106819D01*
X91382903Y-69073334D01*
X91409261Y-69070500D01*
X106270776Y-69070500D01*
X106270783Y-69070500D01*
X106569768Y-69031138D01*
X106861059Y-68953087D01*
X107139668Y-68837683D01*
X107400832Y-68686900D01*
X107554558Y-68568942D01*
X107640080Y-68503319D01*
X107853319Y-68290080D01*
X107858683Y-68284716D01*
X107858698Y-68284698D01*
X108112453Y-68030943D01*
X114899500Y-68030943D01*
X114899500Y-68189057D01*
X114926638Y-68290335D01*
X114940423Y-68341783D01*
X114940426Y-68341790D01*
X115019475Y-68478709D01*
X115019479Y-68478714D01*
X115019480Y-68478716D01*
X115131284Y-68590520D01*
X115131286Y-68590521D01*
X115131290Y-68590524D01*
X115268209Y-68669573D01*
X115268216Y-68669577D01*
X115420943Y-68710500D01*
X115420945Y-68710500D01*
X115579055Y-68710500D01*
X115579057Y-68710500D01*
X115731784Y-68669577D01*
X115868716Y-68590520D01*
X115980520Y-68478716D01*
X116059577Y-68341784D01*
X116100500Y-68189057D01*
X116100500Y-68030943D01*
X116059577Y-67878216D01*
X116059576Y-67878214D01*
X116057473Y-67870365D01*
X116058165Y-67870179D01*
X116050500Y-67831637D01*
X116050500Y-66588239D01*
X116070185Y-66521200D01*
X116122989Y-66475445D01*
X116192147Y-66465501D01*
X116236499Y-66480852D01*
X116338209Y-66539573D01*
X116338216Y-66539577D01*
X116490943Y-66580500D01*
X116490945Y-66580500D01*
X116625500Y-66580500D01*
X116692539Y-66600185D01*
X116738294Y-66652989D01*
X116749500Y-66704500D01*
X116749500Y-67379902D01*
X116729815Y-67446941D01*
X116713181Y-67467583D01*
X116669481Y-67511282D01*
X116669475Y-67511290D01*
X116590426Y-67648209D01*
X116590423Y-67648216D01*
X116549500Y-67800943D01*
X116549500Y-67959057D01*
X116587406Y-68100522D01*
X116590423Y-68111783D01*
X116590426Y-68111790D01*
X116669475Y-68248709D01*
X116669479Y-68248714D01*
X116669480Y-68248716D01*
X116781284Y-68360520D01*
X116781286Y-68360521D01*
X116781290Y-68360524D01*
X116897495Y-68427614D01*
X116918216Y-68439577D01*
X117070943Y-68480500D01*
X117070945Y-68480500D01*
X117229055Y-68480500D01*
X117229057Y-68480500D01*
X117381784Y-68439577D01*
X117518716Y-68360520D01*
X117630520Y-68248716D01*
X117709577Y-68111784D01*
X117726468Y-68048745D01*
X117762832Y-67989086D01*
X117825678Y-67958557D01*
X117895054Y-67966851D01*
X117933923Y-67993159D01*
X117991284Y-68050520D01*
X117991286Y-68050521D01*
X117991290Y-68050524D01*
X118110712Y-68119471D01*
X118128216Y-68129577D01*
X118280943Y-68170500D01*
X118280945Y-68170500D01*
X118439055Y-68170500D01*
X118439057Y-68170500D01*
X118591784Y-68129577D01*
X118728716Y-68050520D01*
X118840520Y-67938716D01*
X118919577Y-67801784D01*
X118960500Y-67649057D01*
X118960500Y-67490943D01*
X118919577Y-67338216D01*
X118915999Y-67332018D01*
X118840524Y-67201290D01*
X118840518Y-67201282D01*
X118796819Y-67157583D01*
X118782115Y-67130655D01*
X118765523Y-67104837D01*
X118764631Y-67098636D01*
X118763334Y-67096260D01*
X118760500Y-67069902D01*
X118760500Y-66994589D01*
X118780185Y-66927550D01*
X118832989Y-66881795D01*
X118884500Y-66870589D01*
X119037727Y-66870589D01*
X119037729Y-66870589D01*
X119190456Y-66829666D01*
X119327388Y-66750609D01*
X119347652Y-66730345D01*
X140897000Y-66730345D01*
X140897000Y-66949654D01*
X140925623Y-67167075D01*
X140925624Y-67167080D01*
X140925625Y-67167086D01*
X140982386Y-67378921D01*
X140982389Y-67378931D01*
X141066310Y-67581533D01*
X141066315Y-67581544D01*
X141175961Y-67771455D01*
X141175972Y-67771471D01*
X141309471Y-67945451D01*
X141309477Y-67945458D01*
X141464541Y-68100522D01*
X141464548Y-68100528D01*
X141502404Y-68129576D01*
X141638537Y-68234034D01*
X141638544Y-68234038D01*
X141828455Y-68343684D01*
X141828460Y-68343686D01*
X141828463Y-68343688D01*
X142031078Y-68427614D01*
X142242914Y-68484375D01*
X142386772Y-68503314D01*
X142460345Y-68513000D01*
X142460346Y-68513000D01*
X142679655Y-68513000D01*
X142753182Y-68503320D01*
X142897086Y-68484375D01*
X143108922Y-68427614D01*
X143311537Y-68343688D01*
X143501463Y-68234034D01*
X143675453Y-68100527D01*
X143830527Y-67945453D01*
X143964034Y-67771463D01*
X144073688Y-67581537D01*
X144157614Y-67378922D01*
X144214375Y-67167086D01*
X144243000Y-66949654D01*
X144243000Y-66730346D01*
X144214375Y-66512914D01*
X144157614Y-66301078D01*
X144073688Y-66098463D01*
X144073686Y-66098460D01*
X144073684Y-66098455D01*
X143964038Y-65908544D01*
X143964034Y-65908537D01*
X143830527Y-65734547D01*
X143830522Y-65734541D01*
X143675458Y-65579477D01*
X143675451Y-65579471D01*
X143501471Y-65445972D01*
X143501469Y-65445970D01*
X143501463Y-65445966D01*
X143501458Y-65445963D01*
X143501455Y-65445961D01*
X143311544Y-65336315D01*
X143311533Y-65336310D01*
X143108931Y-65252389D01*
X143108924Y-65252387D01*
X143108922Y-65252386D01*
X142897086Y-65195625D01*
X142897080Y-65195624D01*
X142897075Y-65195623D01*
X142679655Y-65167000D01*
X142679654Y-65167000D01*
X142460346Y-65167000D01*
X142460345Y-65167000D01*
X142242924Y-65195623D01*
X142242917Y-65195624D01*
X142242914Y-65195625D01*
X142031078Y-65252386D01*
X142031068Y-65252389D01*
X141828466Y-65336310D01*
X141828455Y-65336315D01*
X141638544Y-65445961D01*
X141638528Y-65445972D01*
X141464548Y-65579471D01*
X141464541Y-65579477D01*
X141309477Y-65734541D01*
X141309471Y-65734548D01*
X141175972Y-65908528D01*
X141175961Y-65908544D01*
X141066315Y-66098455D01*
X141066310Y-66098466D01*
X140982389Y-66301068D01*
X140982386Y-66301078D01*
X140928584Y-66501873D01*
X140925626Y-66512911D01*
X140925623Y-66512924D01*
X140897000Y-66730345D01*
X119347652Y-66730345D01*
X119439192Y-66638805D01*
X119518249Y-66501873D01*
X119559172Y-66349146D01*
X119559172Y-66191032D01*
X119518249Y-66038305D01*
X119518245Y-66038298D01*
X119439196Y-65901379D01*
X119439190Y-65901371D01*
X119327389Y-65789570D01*
X119327381Y-65789564D01*
X119190462Y-65710515D01*
X119190458Y-65710513D01*
X119190456Y-65710512D01*
X119037729Y-65669589D01*
X119037728Y-65669589D01*
X118975927Y-65669589D01*
X118908888Y-65649904D01*
X118888246Y-65633270D01*
X117844498Y-64589522D01*
X117844496Y-64589520D01*
X117798833Y-64563156D01*
X117753172Y-64536793D01*
X117702240Y-64523146D01*
X117651310Y-64509500D01*
X116742727Y-64509500D01*
X116637273Y-64509500D01*
X116535410Y-64536793D01*
X116444087Y-64589520D01*
X116444084Y-64589522D01*
X115329522Y-65704084D01*
X115329520Y-65704087D01*
X115276791Y-65795413D01*
X115262089Y-65850289D01*
X115262089Y-65850290D01*
X115249500Y-65897273D01*
X115249500Y-67489636D01*
X115229815Y-67556675D01*
X115187501Y-67597023D01*
X115131284Y-67629480D01*
X115131281Y-67629482D01*
X115019481Y-67741282D01*
X115019475Y-67741290D01*
X114940426Y-67878209D01*
X114940423Y-67878216D01*
X114899500Y-68030943D01*
X108112453Y-68030943D01*
X113476326Y-62667071D01*
X113537647Y-62633588D01*
X113607339Y-62638572D01*
X113663272Y-62680444D01*
X113678566Y-62707300D01*
X113680422Y-62711780D01*
X113680423Y-62711784D01*
X113680424Y-62711787D01*
X113680426Y-62711790D01*
X113759475Y-62848709D01*
X113759479Y-62848714D01*
X113759480Y-62848716D01*
X113871284Y-62960520D01*
X113871286Y-62960521D01*
X113871290Y-62960524D01*
X114008209Y-63039573D01*
X114008216Y-63039577D01*
X114160943Y-63080500D01*
X114222745Y-63080500D01*
X114289784Y-63100185D01*
X114310426Y-63116819D01*
X115314087Y-64120480D01*
X115405412Y-64173207D01*
X115507273Y-64200500D01*
X121477418Y-64200500D01*
X121544457Y-64220185D01*
X121590212Y-64272989D01*
X121597190Y-64292400D01*
X121610423Y-64341783D01*
X121610426Y-64341790D01*
X121689475Y-64478709D01*
X121689479Y-64478714D01*
X121689480Y-64478716D01*
X121801284Y-64590520D01*
X121801286Y-64590521D01*
X121801290Y-64590524D01*
X121938209Y-64669573D01*
X121938216Y-64669577D01*
X122090943Y-64710500D01*
X122090945Y-64710500D01*
X122249055Y-64710500D01*
X122249057Y-64710500D01*
X122401784Y-64669577D01*
X122538716Y-64590520D01*
X122650520Y-64478716D01*
X122729577Y-64341784D01*
X122770500Y-64189057D01*
X122770500Y-64030943D01*
X122729577Y-63878216D01*
X122729573Y-63878209D01*
X122650524Y-63741290D01*
X122650518Y-63741282D01*
X122538717Y-63629481D01*
X122538709Y-63629475D01*
X122401790Y-63550426D01*
X122401786Y-63550424D01*
X122401784Y-63550423D01*
X122249057Y-63509500D01*
X122249056Y-63509500D01*
X122187076Y-63509500D01*
X122120037Y-63489815D01*
X122111590Y-63483876D01*
X122105916Y-63479522D01*
X122014589Y-63426793D01*
X121963657Y-63413146D01*
X121912727Y-63399500D01*
X121912726Y-63399500D01*
X115777255Y-63399500D01*
X115710216Y-63379815D01*
X115689574Y-63363181D01*
X114876819Y-62550426D01*
X114843334Y-62489103D01*
X114840500Y-62462745D01*
X114840500Y-62400945D01*
X114840500Y-62400943D01*
X114799577Y-62248216D01*
X114799573Y-62248209D01*
X114720524Y-62111290D01*
X114720518Y-62111282D01*
X114608717Y-61999481D01*
X114608709Y-61999475D01*
X114471790Y-61920426D01*
X114471787Y-61920424D01*
X114471784Y-61920423D01*
X114471780Y-61920422D01*
X114467300Y-61918566D01*
X114412897Y-61874724D01*
X114390833Y-61808429D01*
X114408113Y-61740730D01*
X114427069Y-61716328D01*
X124686580Y-51456819D01*
X124747903Y-51423334D01*
X124774261Y-51420500D01*
X142700776Y-51420500D01*
X142700783Y-51420500D01*
X142999768Y-51381138D01*
X143291058Y-51303087D01*
X143569668Y-51187683D01*
X143830832Y-51036900D01*
X144070080Y-50853319D01*
X144283319Y-50640080D01*
X144466900Y-50400832D01*
X144617683Y-50139668D01*
X144733087Y-49861058D01*
X144811138Y-49569768D01*
X144850500Y-49270783D01*
X144850500Y-48969217D01*
X144811138Y-48670232D01*
X144733087Y-48378942D01*
X144617683Y-48100332D01*
X144608071Y-48083684D01*
X144466900Y-47839168D01*
X144283320Y-47599921D01*
X144283314Y-47599914D01*
X144070085Y-47386685D01*
X144070078Y-47386679D01*
X143830831Y-47203099D01*
X143569671Y-47052318D01*
X143569661Y-47052314D01*
X143291060Y-46936913D01*
X142999766Y-46858861D01*
X142700793Y-46819501D01*
X142700788Y-46819500D01*
X142700783Y-46819500D01*
X123920782Y-46819500D01*
X123619217Y-46819500D01*
X123619211Y-46819500D01*
X123619206Y-46819501D01*
X123320242Y-46858860D01*
X123320235Y-46858861D01*
X123320232Y-46858862D01*
X123289581Y-46867075D01*
X123028942Y-46936912D01*
X122913536Y-46984714D01*
X122913537Y-46984715D01*
X122750335Y-47052315D01*
X122750320Y-47052322D01*
X122704252Y-47078921D01*
X122704251Y-47078922D01*
X122489168Y-47203099D01*
X122249921Y-47386679D01*
X122249914Y-47386685D01*
X105203421Y-64433181D01*
X105142098Y-64466666D01*
X105115740Y-64469500D01*
X95635783Y-64469500D01*
X90555782Y-64469500D01*
X90254217Y-64469500D01*
X90254211Y-64469500D01*
X90254206Y-64469501D01*
X89955242Y-64508860D01*
X89955235Y-64508861D01*
X89955232Y-64508862D01*
X89893672Y-64525356D01*
X89663942Y-64586912D01*
X89548536Y-64634714D01*
X89548537Y-64634715D01*
X89385337Y-64702314D01*
X89385332Y-64702317D01*
X89371159Y-64710500D01*
X89371157Y-64710500D01*
X89124168Y-64853099D01*
X88884921Y-65036679D01*
X88884914Y-65036685D01*
X86341811Y-67579788D01*
X86341798Y-67579802D01*
X86131685Y-67789914D01*
X86131679Y-67789921D01*
X85986293Y-67979394D01*
X85975731Y-67993159D01*
X85948100Y-68029167D01*
X85797320Y-68290324D01*
X85797315Y-68290335D01*
X85681913Y-68568941D01*
X85627751Y-68771078D01*
X85603861Y-68860233D01*
X85564501Y-69159206D01*
X85564500Y-69159223D01*
X78961301Y-69159223D01*
X76776819Y-66974741D01*
X76743334Y-66913418D01*
X76740500Y-66887060D01*
X76740500Y-63251155D01*
X76740499Y-63251153D01*
X76709738Y-63096510D01*
X76709737Y-63096503D01*
X76709735Y-63096498D01*
X76649397Y-62950827D01*
X76649390Y-62950814D01*
X76561789Y-62819711D01*
X76561786Y-62819707D01*
X76450292Y-62708213D01*
X76450288Y-62708210D01*
X76319185Y-62620609D01*
X76319172Y-62620602D01*
X76173501Y-62560264D01*
X76173489Y-62560261D01*
X76018845Y-62529500D01*
X76018842Y-62529500D01*
X75861158Y-62529500D01*
X75861155Y-62529500D01*
X75706510Y-62560261D01*
X75706498Y-62560264D01*
X75560827Y-62620602D01*
X75560814Y-62620609D01*
X75429711Y-62708210D01*
X75429707Y-62708213D01*
X75318213Y-62819707D01*
X75318210Y-62819711D01*
X75230609Y-62950814D01*
X75230602Y-62950827D01*
X75170264Y-63096498D01*
X75170261Y-63096510D01*
X75139500Y-63251153D01*
X65406616Y-63251153D01*
X65407118Y-58765368D01*
X100922300Y-58765368D01*
X100922300Y-58914631D01*
X100951416Y-59061005D01*
X100951418Y-59061013D01*
X101008533Y-59198902D01*
X101008538Y-59198911D01*
X101091455Y-59323004D01*
X101091458Y-59323008D01*
X101196991Y-59428541D01*
X101196995Y-59428544D01*
X101321088Y-59511461D01*
X101321094Y-59511464D01*
X101321095Y-59511465D01*
X101458987Y-59568582D01*
X101605368Y-59597699D01*
X101605371Y-59597700D01*
X101605373Y-59597700D01*
X101754629Y-59597700D01*
X101754630Y-59597699D01*
X101901013Y-59568582D01*
X102038905Y-59511465D01*
X102163005Y-59428544D01*
X102268544Y-59323005D01*
X102351465Y-59198905D01*
X102408582Y-59061013D01*
X102437700Y-58914627D01*
X102437700Y-58765373D01*
X102437700Y-58765370D01*
X102437699Y-58765368D01*
X102408583Y-58618994D01*
X102408582Y-58618987D01*
X102351465Y-58481095D01*
X102351464Y-58481094D01*
X102351461Y-58481088D01*
X102268544Y-58356995D01*
X102268541Y-58356991D01*
X102163008Y-58251458D01*
X102163004Y-58251455D01*
X102038911Y-58168538D01*
X102038902Y-58168533D01*
X101901013Y-58111418D01*
X101901005Y-58111416D01*
X101754630Y-58082300D01*
X101754627Y-58082300D01*
X101605373Y-58082300D01*
X101605370Y-58082300D01*
X101458994Y-58111416D01*
X101458986Y-58111418D01*
X101321097Y-58168533D01*
X101321088Y-58168538D01*
X101196995Y-58251455D01*
X101196991Y-58251458D01*
X101091458Y-58356991D01*
X101091455Y-58356995D01*
X101008538Y-58481088D01*
X101008533Y-58481097D01*
X100951418Y-58618986D01*
X100951416Y-58618994D01*
X100922300Y-58765368D01*
X65407118Y-58765368D01*
X65407430Y-55975368D01*
X105622300Y-55975368D01*
X105622300Y-56124631D01*
X105651416Y-56271005D01*
X105651418Y-56271013D01*
X105708533Y-56408902D01*
X105708538Y-56408911D01*
X105791455Y-56533004D01*
X105791458Y-56533008D01*
X105896991Y-56638541D01*
X105896995Y-56638544D01*
X106021088Y-56721461D01*
X106021094Y-56721464D01*
X106021095Y-56721465D01*
X106158987Y-56778582D01*
X106305368Y-56807699D01*
X106305371Y-56807700D01*
X106305373Y-56807700D01*
X106454629Y-56807700D01*
X106454630Y-56807699D01*
X106601013Y-56778582D01*
X106738905Y-56721465D01*
X106863005Y-56638544D01*
X106968544Y-56533005D01*
X107051465Y-56408905D01*
X107108582Y-56271013D01*
X107137700Y-56124627D01*
X107137700Y-55975373D01*
X107137700Y-55975370D01*
X107137699Y-55975368D01*
X107108583Y-55828994D01*
X107108582Y-55828987D01*
X107051465Y-55691095D01*
X107051464Y-55691094D01*
X107051461Y-55691088D01*
X106968544Y-55566995D01*
X106968541Y-55566991D01*
X106863008Y-55461458D01*
X106863004Y-55461455D01*
X106738911Y-55378538D01*
X106738902Y-55378533D01*
X106601013Y-55321418D01*
X106601005Y-55321416D01*
X106454630Y-55292300D01*
X106454627Y-55292300D01*
X106305373Y-55292300D01*
X106305370Y-55292300D01*
X106158994Y-55321416D01*
X106158986Y-55321418D01*
X106021097Y-55378533D01*
X106021088Y-55378538D01*
X105896995Y-55461455D01*
X105896991Y-55461458D01*
X105791458Y-55566991D01*
X105791455Y-55566995D01*
X105708538Y-55691088D01*
X105708533Y-55691097D01*
X105651418Y-55828986D01*
X105651416Y-55828994D01*
X105622300Y-55975368D01*
X65407430Y-55975368D01*
X65408213Y-48970345D01*
X93782000Y-48970345D01*
X93782000Y-49189654D01*
X93810623Y-49407075D01*
X93810624Y-49407080D01*
X93810625Y-49407086D01*
X93867386Y-49618921D01*
X93867389Y-49618931D01*
X93951310Y-49821533D01*
X93951315Y-49821544D01*
X94060961Y-50011455D01*
X94060972Y-50011471D01*
X94194471Y-50185451D01*
X94194477Y-50185458D01*
X94349541Y-50340522D01*
X94349547Y-50340527D01*
X94523537Y-50474034D01*
X94523544Y-50474038D01*
X94713455Y-50583684D01*
X94713460Y-50583686D01*
X94713463Y-50583688D01*
X94916078Y-50667614D01*
X95127914Y-50724375D01*
X95281475Y-50744591D01*
X95345345Y-50753000D01*
X95345346Y-50753000D01*
X95564655Y-50753000D01*
X95614022Y-50746500D01*
X95782086Y-50724375D01*
X95993922Y-50667614D01*
X96196537Y-50583688D01*
X96386463Y-50474034D01*
X96560453Y-50340527D01*
X96715527Y-50185453D01*
X96849034Y-50011463D01*
X96958688Y-49821537D01*
X97042614Y-49618922D01*
X97099375Y-49407086D01*
X97128000Y-49189654D01*
X97128000Y-48970346D01*
X97099375Y-48752914D01*
X97042614Y-48541078D01*
X96958688Y-48338463D01*
X96958686Y-48338460D01*
X96958684Y-48338455D01*
X96849038Y-48148544D01*
X96849034Y-48148537D01*
X96799271Y-48083684D01*
X96715528Y-47974548D01*
X96715522Y-47974541D01*
X96560458Y-47819477D01*
X96560451Y-47819471D01*
X96386471Y-47685972D01*
X96386469Y-47685970D01*
X96386463Y-47685966D01*
X96386458Y-47685963D01*
X96386455Y-47685961D01*
X96196544Y-47576315D01*
X96196533Y-47576310D01*
X95993931Y-47492389D01*
X95993924Y-47492387D01*
X95993922Y-47492386D01*
X95782086Y-47435625D01*
X95782080Y-47435624D01*
X95782075Y-47435623D01*
X95564655Y-47407000D01*
X95564654Y-47407000D01*
X95345346Y-47407000D01*
X95345345Y-47407000D01*
X95127924Y-47435623D01*
X95127917Y-47435624D01*
X95127914Y-47435625D01*
X94916078Y-47492386D01*
X94916068Y-47492389D01*
X94713466Y-47576310D01*
X94713455Y-47576315D01*
X94523544Y-47685961D01*
X94523528Y-47685972D01*
X94349548Y-47819471D01*
X94349541Y-47819477D01*
X94194477Y-47974541D01*
X94194471Y-47974548D01*
X94060972Y-48148528D01*
X94060961Y-48148544D01*
X93951315Y-48338455D01*
X93951310Y-48338466D01*
X93867389Y-48541068D01*
X93867386Y-48541078D01*
X93832780Y-48670232D01*
X93810626Y-48752911D01*
X93810623Y-48752924D01*
X93782000Y-48970345D01*
X65408213Y-48970345D01*
X65408497Y-46430345D01*
X86162000Y-46430345D01*
X86162000Y-46649654D01*
X86190623Y-46867075D01*
X86190624Y-46867080D01*
X86190625Y-46867086D01*
X86240258Y-47052318D01*
X86247386Y-47078921D01*
X86247386Y-47078922D01*
X86331310Y-47281533D01*
X86331315Y-47281544D01*
X86440961Y-47471455D01*
X86440972Y-47471471D01*
X86574471Y-47645451D01*
X86574477Y-47645458D01*
X86729541Y-47800522D01*
X86729548Y-47800528D01*
X86781676Y-47840527D01*
X86903537Y-47934034D01*
X86903544Y-47934038D01*
X87093455Y-48043684D01*
X87093460Y-48043686D01*
X87093463Y-48043688D01*
X87190034Y-48083689D01*
X87230213Y-48100332D01*
X87296078Y-48127614D01*
X87507914Y-48184375D01*
X87661475Y-48204591D01*
X87725345Y-48213000D01*
X87725346Y-48213000D01*
X87944655Y-48213000D01*
X87994022Y-48206500D01*
X88162086Y-48184375D01*
X88373922Y-48127614D01*
X88576537Y-48043688D01*
X88766463Y-47934034D01*
X88940453Y-47800527D01*
X89095527Y-47645453D01*
X89229034Y-47471463D01*
X89338688Y-47281537D01*
X89422614Y-47078922D01*
X89479375Y-46867086D01*
X89508000Y-46649654D01*
X89508000Y-46470345D01*
X148497000Y-46470345D01*
X148497000Y-46689654D01*
X148525623Y-46907075D01*
X148525624Y-46907080D01*
X148525625Y-46907086D01*
X148564540Y-47052318D01*
X148582386Y-47118921D01*
X148582389Y-47118931D01*
X148666310Y-47321533D01*
X148666315Y-47321544D01*
X148775961Y-47511455D01*
X148775972Y-47511471D01*
X148909471Y-47685451D01*
X148909477Y-47685458D01*
X149064541Y-47840522D01*
X149064547Y-47840527D01*
X149238537Y-47974034D01*
X149238544Y-47974038D01*
X149428455Y-48083684D01*
X149428460Y-48083686D01*
X149428463Y-48083688D01*
X149631078Y-48167614D01*
X149842914Y-48224375D01*
X149996475Y-48244591D01*
X150060345Y-48253000D01*
X150060346Y-48253000D01*
X150279655Y-48253000D01*
X150329022Y-48246500D01*
X150497086Y-48224375D01*
X150708922Y-48167614D01*
X150911537Y-48083688D01*
X151101463Y-47974034D01*
X151275453Y-47840527D01*
X151430527Y-47685453D01*
X151564034Y-47511463D01*
X151673688Y-47321537D01*
X151757614Y-47118922D01*
X151814375Y-46907086D01*
X151843000Y-46689654D01*
X151843000Y-46470346D01*
X151814375Y-46252914D01*
X151757614Y-46041078D01*
X151741045Y-46001078D01*
X151673689Y-45838466D01*
X151673684Y-45838455D01*
X151564038Y-45648544D01*
X151564034Y-45648537D01*
X151517283Y-45587610D01*
X151430528Y-45474548D01*
X151430522Y-45474541D01*
X151275458Y-45319477D01*
X151275451Y-45319471D01*
X151101471Y-45185972D01*
X151101469Y-45185970D01*
X151101463Y-45185966D01*
X151101458Y-45185963D01*
X151101455Y-45185961D01*
X150911544Y-45076315D01*
X150911533Y-45076310D01*
X150708931Y-44992389D01*
X150708924Y-44992387D01*
X150708922Y-44992386D01*
X150497086Y-44935625D01*
X150497080Y-44935624D01*
X150497075Y-44935623D01*
X150279655Y-44907000D01*
X150279654Y-44907000D01*
X150060346Y-44907000D01*
X150060345Y-44907000D01*
X149842924Y-44935623D01*
X149842917Y-44935624D01*
X149842914Y-44935625D01*
X149631078Y-44992386D01*
X149631068Y-44992389D01*
X149428466Y-45076310D01*
X149428455Y-45076315D01*
X149238544Y-45185961D01*
X149238528Y-45185972D01*
X149064548Y-45319471D01*
X149064541Y-45319477D01*
X148909477Y-45474541D01*
X148909471Y-45474548D01*
X148775972Y-45648528D01*
X148775961Y-45648544D01*
X148666315Y-45838455D01*
X148666310Y-45838466D01*
X148582389Y-46041068D01*
X148582386Y-46041078D01*
X148525626Y-46252911D01*
X148525623Y-46252924D01*
X148497000Y-46470345D01*
X89508000Y-46470345D01*
X89508000Y-46430346D01*
X89479375Y-46212914D01*
X89422614Y-46001078D01*
X89338688Y-45798463D01*
X89338686Y-45798460D01*
X89338684Y-45798455D01*
X89229038Y-45608544D01*
X89229034Y-45608537D01*
X89179271Y-45543684D01*
X89095528Y-45434548D01*
X89095522Y-45434541D01*
X88940458Y-45279477D01*
X88940451Y-45279471D01*
X88766471Y-45145972D01*
X88766469Y-45145970D01*
X88766463Y-45145966D01*
X88766458Y-45145963D01*
X88766455Y-45145961D01*
X88576544Y-45036315D01*
X88576533Y-45036310D01*
X88373931Y-44952389D01*
X88373924Y-44952387D01*
X88373922Y-44952386D01*
X88162086Y-44895625D01*
X88162080Y-44895624D01*
X88162075Y-44895623D01*
X87944655Y-44867000D01*
X87944654Y-44867000D01*
X87725346Y-44867000D01*
X87725345Y-44867000D01*
X87507924Y-44895623D01*
X87507917Y-44895624D01*
X87507914Y-44895625D01*
X87296078Y-44952386D01*
X87296068Y-44952389D01*
X87093466Y-45036310D01*
X87093455Y-45036315D01*
X86903544Y-45145961D01*
X86903528Y-45145972D01*
X86729548Y-45279471D01*
X86729541Y-45279477D01*
X86574477Y-45434541D01*
X86574471Y-45434548D01*
X86440972Y-45608528D01*
X86440961Y-45608544D01*
X86331315Y-45798455D01*
X86331310Y-45798466D01*
X86247389Y-46001068D01*
X86247386Y-46001078D01*
X86190626Y-46212911D01*
X86190623Y-46212924D01*
X86162000Y-46430345D01*
X65408497Y-46430345D01*
X65408781Y-43890345D01*
X93782000Y-43890345D01*
X93782000Y-44109654D01*
X93810623Y-44327075D01*
X93810624Y-44327080D01*
X93810625Y-44327086D01*
X93867386Y-44538921D01*
X93867389Y-44538931D01*
X93951310Y-44741533D01*
X93951315Y-44741544D01*
X94060961Y-44931455D01*
X94060972Y-44931471D01*
X94194471Y-45105451D01*
X94194477Y-45105458D01*
X94349541Y-45260522D01*
X94349548Y-45260528D01*
X94401676Y-45300527D01*
X94523537Y-45394034D01*
X94523544Y-45394038D01*
X94713455Y-45503684D01*
X94713460Y-45503686D01*
X94713463Y-45503688D01*
X94916078Y-45587614D01*
X95127914Y-45644375D01*
X95281475Y-45664591D01*
X95345345Y-45673000D01*
X95345346Y-45673000D01*
X95564655Y-45673000D01*
X95614022Y-45666500D01*
X95782086Y-45644375D01*
X95993922Y-45587614D01*
X96196537Y-45503688D01*
X96386463Y-45394034D01*
X96560453Y-45260527D01*
X96715527Y-45105453D01*
X96849034Y-44931463D01*
X96958688Y-44741537D01*
X97042614Y-44538922D01*
X97099375Y-44327086D01*
X97128000Y-44109654D01*
X97128000Y-43930345D01*
X140877000Y-43930345D01*
X140877000Y-44149654D01*
X140905623Y-44367075D01*
X140905624Y-44367080D01*
X140905625Y-44367086D01*
X140962386Y-44578921D01*
X140962389Y-44578931D01*
X141046310Y-44781533D01*
X141046315Y-44781544D01*
X141155961Y-44971455D01*
X141155972Y-44971471D01*
X141289471Y-45145451D01*
X141289477Y-45145458D01*
X141444541Y-45300522D01*
X141444547Y-45300527D01*
X141618537Y-45434034D01*
X141618544Y-45434038D01*
X141808455Y-45543684D01*
X141808460Y-45543686D01*
X141808463Y-45543688D01*
X142011078Y-45627614D01*
X142222914Y-45684375D01*
X142376475Y-45704591D01*
X142440345Y-45713000D01*
X142440346Y-45713000D01*
X142659655Y-45713000D01*
X142709022Y-45706500D01*
X142877086Y-45684375D01*
X143088922Y-45627614D01*
X143291537Y-45543688D01*
X143481463Y-45434034D01*
X143655453Y-45300527D01*
X143810527Y-45145453D01*
X143944034Y-44971463D01*
X144053688Y-44781537D01*
X144137614Y-44578922D01*
X144194375Y-44367086D01*
X144223000Y-44149654D01*
X144223000Y-43930346D01*
X144194375Y-43712914D01*
X144137614Y-43501078D01*
X144137288Y-43500292D01*
X144082982Y-43369185D01*
X144053688Y-43298463D01*
X144053686Y-43298460D01*
X144053684Y-43298455D01*
X143944038Y-43108544D01*
X143944034Y-43108537D01*
X143810527Y-42934547D01*
X143810522Y-42934541D01*
X143655458Y-42779477D01*
X143655451Y-42779471D01*
X143481471Y-42645972D01*
X143481469Y-42645970D01*
X143481463Y-42645966D01*
X143481458Y-42645963D01*
X143481455Y-42645961D01*
X143291544Y-42536315D01*
X143291533Y-42536310D01*
X143088931Y-42452389D01*
X143088924Y-42452387D01*
X143088922Y-42452386D01*
X142877086Y-42395625D01*
X142877080Y-42395624D01*
X142877075Y-42395623D01*
X142659655Y-42367000D01*
X142659654Y-42367000D01*
X142440346Y-42367000D01*
X142440345Y-42367000D01*
X142222924Y-42395623D01*
X142222917Y-42395624D01*
X142222914Y-42395625D01*
X142160361Y-42412386D01*
X142011078Y-42452386D01*
X142011068Y-42452389D01*
X141808466Y-42536310D01*
X141808455Y-42536315D01*
X141618544Y-42645961D01*
X141618528Y-42645972D01*
X141444548Y-42779471D01*
X141444541Y-42779477D01*
X141289477Y-42934541D01*
X141289471Y-42934548D01*
X141155972Y-43108528D01*
X141155961Y-43108544D01*
X141046315Y-43298455D01*
X141046310Y-43298466D01*
X140962389Y-43501068D01*
X140962386Y-43501078D01*
X140905626Y-43712911D01*
X140905623Y-43712924D01*
X140877000Y-43930345D01*
X97128000Y-43930345D01*
X97128000Y-43890346D01*
X97099375Y-43672914D01*
X97042614Y-43461078D01*
X96958688Y-43258463D01*
X96958686Y-43258460D01*
X96958684Y-43258455D01*
X96849038Y-43068544D01*
X96849034Y-43068537D01*
X96746220Y-42934547D01*
X96715528Y-42894548D01*
X96715522Y-42894541D01*
X96560458Y-42739477D01*
X96560451Y-42739471D01*
X96386471Y-42605972D01*
X96386469Y-42605970D01*
X96386463Y-42605966D01*
X96386458Y-42605963D01*
X96386455Y-42605961D01*
X96196544Y-42496315D01*
X96196533Y-42496310D01*
X95993931Y-42412389D01*
X95993924Y-42412387D01*
X95993922Y-42412386D01*
X95782086Y-42355625D01*
X95782080Y-42355624D01*
X95782075Y-42355623D01*
X95564655Y-42327000D01*
X95564654Y-42327000D01*
X95345346Y-42327000D01*
X95345345Y-42327000D01*
X95127924Y-42355623D01*
X95127917Y-42355624D01*
X95127914Y-42355625D01*
X94916078Y-42412386D01*
X94916068Y-42412389D01*
X94713466Y-42496310D01*
X94713455Y-42496315D01*
X94523544Y-42605961D01*
X94523528Y-42605972D01*
X94349548Y-42739471D01*
X94349541Y-42739477D01*
X94194477Y-42894541D01*
X94194471Y-42894548D01*
X94060972Y-43068528D01*
X94060961Y-43068544D01*
X93951315Y-43258455D01*
X93951310Y-43258466D01*
X93867389Y-43461068D01*
X93867386Y-43461078D01*
X93856880Y-43500289D01*
X93810626Y-43672911D01*
X93810623Y-43672924D01*
X93782000Y-43890345D01*
X65408781Y-43890345D01*
X65408890Y-42911153D01*
X81459500Y-42911153D01*
X81459500Y-43068846D01*
X81490261Y-43223489D01*
X81490264Y-43223501D01*
X81550602Y-43369172D01*
X81550609Y-43369185D01*
X81638210Y-43500288D01*
X81638213Y-43500292D01*
X81749707Y-43611786D01*
X81749711Y-43611789D01*
X81880814Y-43699390D01*
X81880827Y-43699397D01*
X82026498Y-43759735D01*
X82026503Y-43759737D01*
X82181153Y-43790499D01*
X82181156Y-43790500D01*
X82181158Y-43790500D01*
X82338844Y-43790500D01*
X82338845Y-43790499D01*
X82374653Y-43783376D01*
X82468700Y-43764670D01*
X82480494Y-43762323D01*
X82493497Y-43759737D01*
X82639179Y-43699394D01*
X82770289Y-43611789D01*
X87975259Y-38406819D01*
X88036582Y-38373334D01*
X88062940Y-38370500D01*
X99328844Y-38370500D01*
X99328845Y-38370499D01*
X99483497Y-38339737D01*
X99629179Y-38279394D01*
X99760289Y-38191789D01*
X100801789Y-37150289D01*
X100889394Y-37019179D01*
X100949738Y-36873497D01*
X100980500Y-36718842D01*
X100980500Y-36561157D01*
X100980500Y-34001158D01*
X100980500Y-34001155D01*
X100980499Y-34001153D01*
X100949738Y-33846510D01*
X100949737Y-33846503D01*
X100949735Y-33846498D01*
X100889397Y-33700827D01*
X100889390Y-33700814D01*
X100801789Y-33569711D01*
X100801786Y-33569707D01*
X100690292Y-33458213D01*
X100690288Y-33458210D01*
X100559185Y-33370609D01*
X100559172Y-33370602D01*
X100413501Y-33310264D01*
X100413489Y-33310261D01*
X100258845Y-33279500D01*
X100258842Y-33279500D01*
X100101158Y-33279500D01*
X100101155Y-33279500D01*
X99946510Y-33310261D01*
X99946498Y-33310264D01*
X99800827Y-33370602D01*
X99800814Y-33370609D01*
X99669711Y-33458210D01*
X99669707Y-33458213D01*
X99558213Y-33569707D01*
X99558210Y-33569711D01*
X99470609Y-33700814D01*
X99470602Y-33700827D01*
X99410264Y-33846498D01*
X99410261Y-33846510D01*
X99379500Y-34001153D01*
X99379500Y-36257060D01*
X99359815Y-36324099D01*
X99343181Y-36344741D01*
X98954741Y-36733181D01*
X98893418Y-36766666D01*
X98867060Y-36769500D01*
X87601153Y-36769500D01*
X87446510Y-36800260D01*
X87446502Y-36800262D01*
X87300824Y-36860604D01*
X87300814Y-36860609D01*
X87169711Y-36948210D01*
X87169707Y-36948213D01*
X81638213Y-42479707D01*
X81638210Y-42479711D01*
X81550609Y-42610814D01*
X81550602Y-42610827D01*
X81490264Y-42756498D01*
X81490261Y-42756510D01*
X81459500Y-42911153D01*
X65408890Y-42911153D01*
X65410446Y-28989880D01*
X65410451Y-28989869D01*
X65410451Y-28952830D01*
X65410584Y-28947114D01*
X65412476Y-28906243D01*
X65426827Y-28596277D01*
X65427887Y-28584863D01*
X65442019Y-28483713D01*
X67569500Y-28483713D01*
X67569500Y-28696286D01*
X67594015Y-28851071D01*
X67602754Y-28906243D01*
X67634244Y-29003160D01*
X67668444Y-29108414D01*
X67764951Y-29297820D01*
X67889890Y-29469786D01*
X68040213Y-29620109D01*
X68212179Y-29745048D01*
X68212181Y-29745049D01*
X68212184Y-29745051D01*
X68401588Y-29841557D01*
X68603757Y-29907246D01*
X68813713Y-29940500D01*
X68813714Y-29940500D01*
X69026286Y-29940500D01*
X69026287Y-29940500D01*
X69236243Y-29907246D01*
X69438412Y-29841557D01*
X69627816Y-29745051D01*
X69649789Y-29729086D01*
X69799786Y-29620109D01*
X69799788Y-29620106D01*
X69799792Y-29620104D01*
X69950104Y-29469792D01*
X69950106Y-29469788D01*
X69950109Y-29469786D01*
X70075048Y-29297820D01*
X70075047Y-29297820D01*
X70075051Y-29297816D01*
X70171557Y-29108412D01*
X70237246Y-28906243D01*
X70270500Y-28696287D01*
X70270500Y-28483713D01*
X167569500Y-28483713D01*
X167569500Y-28696286D01*
X167594015Y-28851071D01*
X167602754Y-28906243D01*
X167634244Y-29003160D01*
X167668444Y-29108414D01*
X167764951Y-29297820D01*
X167889890Y-29469786D01*
X168040213Y-29620109D01*
X168212179Y-29745048D01*
X168212181Y-29745049D01*
X168212184Y-29745051D01*
X168401588Y-29841557D01*
X168603757Y-29907246D01*
X168813713Y-29940500D01*
X168813714Y-29940500D01*
X169026286Y-29940500D01*
X169026287Y-29940500D01*
X169236243Y-29907246D01*
X169438412Y-29841557D01*
X169627816Y-29745051D01*
X169649789Y-29729086D01*
X169799786Y-29620109D01*
X169799788Y-29620106D01*
X169799792Y-29620104D01*
X169950104Y-29469792D01*
X169950106Y-29469788D01*
X169950109Y-29469786D01*
X170075048Y-29297820D01*
X170075047Y-29297820D01*
X170075051Y-29297816D01*
X170171557Y-29108412D01*
X170237246Y-28906243D01*
X170270500Y-28696287D01*
X170270500Y-28483713D01*
X170237246Y-28273757D01*
X170171557Y-28071588D01*
X170075051Y-27882184D01*
X170075049Y-27882181D01*
X170075048Y-27882179D01*
X169950109Y-27710213D01*
X169799786Y-27559890D01*
X169627820Y-27434951D01*
X169438414Y-27338444D01*
X169438413Y-27338443D01*
X169438412Y-27338443D01*
X169236243Y-27272754D01*
X169236241Y-27272753D01*
X169236240Y-27272753D01*
X169074957Y-27247208D01*
X169026287Y-27239500D01*
X168813713Y-27239500D01*
X168765042Y-27247208D01*
X168603760Y-27272753D01*
X168401585Y-27338444D01*
X168212179Y-27434951D01*
X168040213Y-27559890D01*
X167889890Y-27710213D01*
X167764951Y-27882179D01*
X167668444Y-28071585D01*
X167602753Y-28273760D01*
X167569500Y-28483713D01*
X70270500Y-28483713D01*
X70237246Y-28273757D01*
X70171557Y-28071588D01*
X70075051Y-27882184D01*
X70075049Y-27882181D01*
X70075048Y-27882179D01*
X69950109Y-27710213D01*
X69799786Y-27559890D01*
X69627820Y-27434951D01*
X69438414Y-27338444D01*
X69438413Y-27338443D01*
X69438412Y-27338443D01*
X69236243Y-27272754D01*
X69236241Y-27272753D01*
X69236240Y-27272753D01*
X69074957Y-27247208D01*
X69026287Y-27239500D01*
X68813713Y-27239500D01*
X68765042Y-27247208D01*
X68603760Y-27272753D01*
X68401585Y-27338444D01*
X68212179Y-27434951D01*
X68040213Y-27559890D01*
X67889890Y-27710213D01*
X67764951Y-27882179D01*
X67668444Y-28071585D01*
X67602753Y-28273760D01*
X67569500Y-28483713D01*
X65442019Y-28483713D01*
X65445097Y-28461683D01*
X65445097Y-28461682D01*
X65471352Y-28273760D01*
X65476087Y-28239865D01*
X65478194Y-28228612D01*
X65558074Y-27889527D01*
X65561211Y-27878521D01*
X65672084Y-27548272D01*
X65676224Y-27537603D01*
X65817150Y-27218996D01*
X65822250Y-27208772D01*
X65992006Y-26904571D01*
X65998050Y-26894829D01*
X66195194Y-26607612D01*
X66202088Y-26598502D01*
X66424941Y-26330721D01*
X66432659Y-26322275D01*
X66679292Y-26076248D01*
X66687756Y-26068552D01*
X66956078Y-25846362D01*
X66965207Y-25839488D01*
X67252937Y-25643030D01*
X67262645Y-25637041D01*
X67567280Y-25468024D01*
X67577525Y-25462944D01*
X67896480Y-25322800D01*
X67907139Y-25318694D01*
X68237668Y-25208631D01*
X68248691Y-25205519D01*
X68587963Y-25126474D01*
X68599229Y-25124394D01*
X68944352Y-25077040D01*
X68955753Y-25076011D01*
X69306728Y-25060624D01*
X69312134Y-25060506D01*
X69312325Y-25060505D01*
X69349388Y-25060598D01*
X69349622Y-25060501D01*
X69361883Y-25060500D01*
X69361941Y-25060500D01*
X69361944Y-25060501D01*
G37*
%TD.AperFunction*%
%TD*%
M02*
