M48
; DRILL file {KiCad 8.0.8} date 2025-04-11T18:10:54+0100
; FORMAT={-:-/ absolute / inch / decimal}
; #@! TF.CreationDate,2025-04-11T18:10:54+01:00
; #@! TF.GenerationSoftware,Kicad,Pcbnew,8.0.8
; #@! TF.FileFunction,Plated,1,2,PTH
FMAT,2
INCH
; #@! TA.AperFunction,Plated,PTH,ViaDrill
T1C0.0118
; #@! TA.AperFunction,Plated,PTH,ComponentDrill
T2C0.0260
; #@! TA.AperFunction,Plated,PTH,ComponentDrill
T3C0.0280
; #@! TA.AperFunction,Plated,PTH,ViaDrill
T4C0.0394
; #@! TA.AperFunction,Plated,PTH,ComponentDrill
T5C0.0433
; #@! TA.AperFunction,Plated,PTH,ComponentDrill
T6C0.0512
; #@! TA.AperFunction,Plated,PTH,ComponentDrill
T7C0.0528
; #@! TA.AperFunction,Plated,PTH,ComponentDrill
T8C0.0709
; #@! TA.AperFunction,Plated,PTH,ComponentDrill
T9C0.0720
; #@! TA.AperFunction,Plated,PTH,ComponentDrill
T10C0.1220
%
G90
G05
T1
X2.8024Y-4.1303
X2.8508Y-3.2398
X2.9567Y-3.7953
X2.9567Y-3.7953
X2.9898Y-2.4933
X3.1138Y-3.589
X3.1343Y-3.1988
X3.2386Y-1.6925
X3.4165Y-4.0598
X3.4945Y-4.2394
X3.848Y-1.222
X3.9075Y-1.0713
X3.9205Y-4.5248
X3.9224Y-4.2142
X3.9441Y-1.3417
X3.9642Y-4.2409
X4.0862Y-3.4894
X4.1587Y-4.5854
X4.1605Y-3.9829
X4.2051Y-4.5795
X4.2343Y-4.5177
X4.2496Y-3.3134
X4.2811Y-2.95
X4.2988Y-3.2835
X4.3154Y-3.4051
X4.3154Y-3.4051
X4.3508Y-3.4535
X4.4189Y-3.1744
X4.4323Y-3.1374
X4.4369Y-3.0676
X4.452Y-3.1854
X4.4788Y-3.2296
X4.4976Y-2.4598
X4.5472Y-2.6815
X4.5614Y-3.3823
X4.5654Y-3.1957
X4.5713Y-3.4646
X4.5894Y-2.5976
X4.6122Y-2.6724
X4.6122Y-3.5169
X4.6244Y-2.6102
X4.6598Y-2.6602
X4.6787Y-4.5638
X4.6834Y-2.6091
X4.8098Y-2.524
X4.9433Y-2.8071
X5.1309Y-3.6133
X5.2323Y-3.913
X5.2543Y-3.6461
X5.298Y-3.7232
X5.3071Y-3.661
X5.3488Y-3.7051
X5.3563Y-4.3185
X5.4713Y-3.8941
X5.4819Y-4.2988
X5.5252Y-4.5402
X5.5866Y-4.5469
X5.6319Y-4.5449
X5.8295Y-4.4035
T2
X3.9031Y-2.3165
X3.9102Y-3.2272
X4.0031Y-2.3165
X4.0102Y-3.2272
X4.0882Y-2.2067
X4.1882Y-2.2067
T3
X3.0835Y-3.6913
X3.1835Y-3.6913
T4
X4.3575Y-4.1087
X4.7827Y-3.5531
X5.1642Y-2.1469
T5
X2.7874Y-4.002
X2.7874Y-4.402
X5.1311Y-4.0457
X5.5311Y-4.0457
X6.0862Y-4.198
X6.4862Y-4.198
T6
X3.0882Y-4.626
X3.285Y-4.626
T7
X5.3949Y-4.6043
X5.3949Y-4.7539
X5.735Y-4.6043
X5.735Y-4.7539
T8
X4.9279Y-4.1848
X4.9279Y-4.4013
X5.0932Y-4.1848
X5.0932Y-4.4013
T9
X3.4573Y-3.6248
X3.4581Y-1.8323
X3.4593Y-2.7287
X3.7573Y-3.5248
X3.7573Y-3.7248
X3.7581Y-1.7323
X3.7581Y-1.9323
X3.7593Y-2.6287
X3.7593Y-2.8287
X5.6122Y-1.7339
X5.6122Y-1.9339
X5.613Y-2.6315
X5.613Y-2.8315
X5.6134Y-3.5256
X5.6134Y-3.7256
X5.9122Y-1.8339
X5.913Y-2.7315
X5.9134Y-3.6256
T10
X6.0857Y-4.4237
X6.0857Y-4.6521
X6.2747Y-4.5418
M30
